<svg width="24" height="24" viewBox="0 0 24 24" fill="none" xmlns="http://www.w3.org/2000/svg">
<path d="M15.2589 4.46257C15.4561 3.91193 16.2348 3.91193 16.4319 4.46257L17.6819 7.95471C17.7432 8.12582 17.8761 8.26165 18.0459 8.32658L21.4813 9.64069C22.0152 9.84488 22.0152 10.6001 21.4814 10.8043L18.0459 12.1184C17.8761 12.1833 17.7432 12.3192 17.6819 12.4903L16.4319 15.9824C16.2348 16.533 15.4561 16.5331 15.2589 15.9824L14.0089 12.4903C13.9476 12.3192 13.8147 12.1833 13.645 12.1184L10.2095 10.8043C9.67566 10.6001 9.67565 9.84488 10.2095 9.64069L13.645 8.32658C13.8147 8.26165 13.9476 8.12582 14.0089 7.95471L15.2589 4.46257Z" fill="#557AF3"/>
<path d="M5.96187 13.6581C6.43652 12.3322 8.31172 12.3322 8.78637 13.6581L8.88307 13.9283C9.03057 14.3403 9.35066 14.6674 9.75942 14.8238L10.1587 14.9765C11.4441 15.4682 11.4441 17.2868 10.1587 17.7785L9.75942 17.9312C9.35066 18.0875 9.03057 18.4146 8.88307 18.8267L8.78637 19.0968C8.31172 20.4228 6.43652 20.4228 5.96188 19.0968L5.86517 18.8267C5.71767 18.4146 5.39758 18.0875 4.98882 17.9312L4.58959 17.7785C3.30412 17.2868 3.30412 15.4682 4.58959 14.9765L4.98882 14.8238C5.39758 14.6674 5.71767 14.3403 5.86517 13.9283L5.96187 13.6581Z" fill="#B1C1FF"/>
<path d="M6.9771 3.93235C7.11042 3.55992 7.63713 3.55992 7.77044 3.93235L8.21696 5.17974C8.25839 5.29547 8.3483 5.38734 8.46311 5.43126L9.70853 5.90764C10.0696 6.04575 10.0696 6.55656 9.70853 6.69467L8.46311 7.17106C8.3483 7.21498 8.25839 7.30684 8.21696 7.42258L7.77044 8.66996C7.63713 9.0424 7.11042 9.0424 6.9771 8.66996L6.53058 7.42258C6.48916 7.30684 6.39925 7.21498 6.28444 7.17106L5.03902 6.69467C4.67795 6.55656 4.67795 6.04575 5.03902 5.90764L6.28444 5.43126C6.39925 5.38734 6.48916 5.29547 6.53059 5.17974L6.9771 3.93235Z" fill="#CED8F8"/>
</svg>
