<svg width="20" height="20" viewBox="0 0 20 20" fill="none" xmlns="http://www.w3.org/2000/svg">
<path d="M9.99993 1.875C8.39295 1.875 6.82207 2.35152 5.48592 3.24431C4.14977 4.1371 3.10837 5.40605 2.49341 6.8907C1.87844 8.37535 1.71754 10.009 2.03105 11.5851C2.34455 13.1612 3.11838 14.6089 4.25468 15.7452C5.39099 16.8815 6.83872 17.6554 8.41482 17.9689C9.99091 18.2824 11.6246 18.1215 13.1092 17.5065C14.5939 16.8916 15.8628 15.8502 16.7556 14.514C17.6484 13.1779 18.1249 11.607 18.1249 10C18.1227 7.84581 17.2659 5.78051 15.7427 4.25727C14.2194 2.73403 12.1541 1.87727 9.99993 1.875ZM14.3749 10.625H9.99993C9.83417 10.625 9.6752 10.5592 9.55798 10.4419C9.44077 10.3247 9.37493 10.1658 9.37493 10V5.625C9.37493 5.45924 9.44077 5.30027 9.55798 5.18306C9.6752 5.06585 9.83417 5 9.99993 5C10.1657 5 10.3247 5.06585 10.4419 5.18306C10.5591 5.30027 10.6249 5.45924 10.6249 5.625V9.375H14.3749C14.5407 9.375 14.6997 9.44085 14.8169 9.55806C14.9341 9.67527 14.9999 9.83424 14.9999 10C14.9999 10.1658 14.9341 10.3247 14.8169 10.4419C14.6997 10.5592 14.5407 10.625 14.3749 10.625Z" fill="#8B95A1"/>
</svg>
