<svg width="24" height="24" viewBox="0 0 24 24" fill="none" xmlns="http://www.w3.org/2000/svg">
<path d="M2.97949 7.62109C2.97949 7.06881 3.42721 6.62109 3.97949 6.62109H6.73682C7.2891 6.62109 7.73682 7.06881 7.73682 7.62109V18.9338C7.73682 19.4861 7.2891 19.9338 6.73682 19.9338H3.97949C3.42721 19.9338 2.97949 19.4861 2.97949 18.9338V7.62109Z" fill="#839DF1"/>
<path d="M9.63135 12.4072C9.63135 11.8549 10.0791 11.4072 10.6313 11.4072H13.3887C13.941 11.4072 14.3887 11.8549 14.3887 12.4072V18.9338C14.3887 19.4861 13.941 19.9338 13.3887 19.9338H10.6313C10.0791 19.9338 9.63135 19.4861 9.63135 18.9338V12.4072Z" fill="#CED8F8"/>
<path d="M17.749 4.56682C17.7491 4.14995 18.2295 3.91614 18.5576 4.17327L21.6221 6.57757C21.8773 6.77775 21.8773 7.16449 21.6221 7.36468L18.5576 9.76897C18.2295 10.0261 17.7491 9.79226 17.749 9.37542V8.23968C17.7306 8.24174 17.7123 8.24552 17.6934 8.24553H14.8887C14.6125 8.24553 14.3887 8.02168 14.3887 7.74553V6.22991C14.3887 5.95377 14.6125 5.72991 14.8887 5.72991H17.6934C17.7122 5.72993 17.7307 5.73274 17.749 5.73479V4.56682Z" fill="#557AF3"/>
</svg>
