<svg width="49" height="48" viewBox="0 0 49 48" fill="none" xmlns="http://www.w3.org/2000/svg">
<path d="M24.5 6C14.5589 6 6.5 14.0589 6.5 24C6.5 33.9411 14.5589 42 24.5 42C34.4411 42 42.5 33.9411 42.5 24C42.5 19.5147 40.8595 15.4126 38.1458 12.261" stroke="#557AF3" stroke-width="3" stroke-linecap="round"/>
<path d="M24.499 24C28.5535 24 31.8408 27.2873 31.8408 31.3418V32.5137C31.8408 33.2974 31.2046 33.9336 30.4209 33.9336H18.5771C17.7935 33.9335 17.1572 33.2974 17.1572 32.5137V31.3418C17.1572 27.2875 20.4448 24.0003 24.499 24Z" fill="#CED8F8"/>
<path d="M30.4209 14.0664C31.2046 14.0664 31.8408 14.7026 31.8408 15.4863V16.6582C31.8408 20.7127 28.5535 24 24.499 24C20.4448 23.9997 17.1572 20.7125 17.1572 16.6582V15.4863C17.1572 14.7026 17.7935 14.0665 18.5771 14.0664H30.4209Z" fill="#CED8F8"/>
<path d="M16.9209 14.6664C16.9209 14.335 17.1895 14.0664 17.5209 14.0664H31.4801C31.8114 14.0664 32.0801 14.335 32.0801 14.6664V15.567C32.0801 15.8984 31.8114 16.167 31.4801 16.167H17.5209C17.1895 16.167 16.9209 15.8984 16.9209 15.567V14.6664Z" fill="#557AF3"/>
<path d="M19.5088 30.6373C19.5088 31.0846 19.8714 31.4473 20.3187 31.4473H28.6803C29.1276 31.4473 29.4902 31.0846 29.4902 30.6373C29.4902 27.9535 27.3145 25.7778 24.6307 25.7778H24.3684C21.6845 25.7778 19.5088 27.9535 19.5088 30.6373Z" fill="#557AF3"/>
<path d="M16.9199 32.433C16.9199 32.1016 17.1886 31.833 17.5199 31.833H31.4791C31.8105 31.833 32.0791 32.1016 32.0791 32.433V33.3336C32.0791 33.665 31.8105 33.9336 31.4791 33.9336H17.5199C17.1886 33.9336 16.9199 33.665 16.9199 33.3336V32.433Z" fill="#557AF3"/>
<path d="M21.8104 22.848C21.4104 22.7607 21.4738 22.1719 21.8833 22.1719H27.1161C27.5256 22.1719 27.5891 22.7607 27.189 22.848C26.5904 22.9786 25.9795 23.0444 25.3668 23.0444H23.6326C23.0199 23.0444 22.409 22.9786 21.8104 22.848Z" fill="#557AF3"/>
</svg>
