<svg width="17" height="16" viewBox="0 0 17 16" fill="none" xmlns="http://www.w3.org/2000/svg">
<path d="M14.7069 4.58561L11.9144 1.79249C11.8215 1.6996 11.7113 1.62592 11.5899 1.57565C11.4686 1.52539 11.3385 1.49951 11.2072 1.49951C11.0759 1.49951 10.9458 1.52539 10.8245 1.57565C10.7031 1.62592 10.5929 1.6996 10.5 1.79249L2.79313 9.49999C2.69987 9.59251 2.62593 9.70265 2.5756 9.824C2.52528 9.94535 2.49959 10.0755 2.50001 10.2069V13C2.50001 13.2652 2.60536 13.5196 2.7929 13.7071C2.98043 13.8946 3.23479 14 3.50001 14H6.29313C6.4245 14.0004 6.55464 13.9747 6.67599 13.9244C6.79735 13.8741 6.90748 13.8001 7.00001 13.7069L14.7069 5.99999C14.7998 5.90712 14.8734 5.79687 14.9237 5.67553C14.974 5.55419 14.9999 5.42414 14.9999 5.2928C14.9999 5.16146 14.974 5.0314 14.9237 4.91006C14.8734 4.78872 14.7998 4.67847 14.7069 4.58561ZM6.29313 13H3.50001V10.2069L9.00001 4.70686L11.7931 7.49999L6.29313 13ZM12.5 6.79249L9.70688 3.99999L11.2069 2.49999L14 5.29249L12.5 6.79249Z" fill="#B0B8C1"/>
</svg>
