<svg width="24" height="24" viewBox="0 0 24 24" fill="none" xmlns="http://www.w3.org/2000/svg">
<path d="M20 12C20 7.58172 16.4183 4 12 4C7.58172 4 4 7.58172 4 12C4 16.4183 7.58172 20 12 20V21.5C6.75329 21.5 2.5 17.2467 2.5 12C2.5 6.75329 6.75329 2.5 12 2.5C17.2467 2.5 21.5 6.75329 21.5 12C21.5 17.2467 17.2467 21.5 12 21.5V20C16.4183 20 20 16.4183 20 12Z" fill="#557AF3"/>
<path d="M12.2754 11.4331C12.5109 12.4226 12.8406 14.9289 12.2754 17.0383" stroke="#436CE9" stroke-linecap="round"/>
<path d="M5.91599 11.9132C7.2711 9.92594 9.98063 9.41347 11.9679 10.7686C12.1004 10.8589 12.1345 11.0396 12.0442 11.172C10.6891 13.1593 7.97957 13.6718 5.9923 12.3167C5.85982 12.2263 5.82565 12.0457 5.91599 11.9132Z" fill="#839DF1"/>
<path d="M18.0642 9.13952C15.9811 7.93686 13.3175 8.65057 12.1149 10.7336C12.0347 10.8725 12.0823 11.0501 12.2211 11.1303C14.3042 12.3329 16.9678 11.6192 18.1705 9.53614C18.2507 9.39727 18.2031 9.2197 18.0642 9.13952Z" fill="#B1C1FF"/>
</svg>
