<svg width="20" height="20" viewBox="0 0 20 20" fill="none" xmlns="http://www.w3.org/2000/svg">
<path d="M18.3039 8.97274L14.7883 12.0063L15.8594 16.5431C15.9185 16.7893 15.9033 17.0476 15.8157 17.2852C15.728 17.5229 15.572 17.7292 15.3672 17.8782C15.1623 18.0272 14.918 18.1121 14.6649 18.1222C14.4118 18.1324 14.1614 18.0673 13.9453 17.9352L10 15.5071L6.05236 17.9352C5.83628 18.0666 5.58619 18.131 5.33356 18.1205C5.08093 18.11 4.83706 18.0249 4.63267 17.8761C4.42828 17.7272 4.27249 17.5212 4.18494 17.284C4.09738 17.0468 4.08197 16.789 4.14064 16.5431L5.21564 12.0063L1.70001 8.97274C1.50884 8.80752 1.37058 8.58963 1.3025 8.34629C1.23442 8.10296 1.23954 7.84496 1.31721 7.60452C1.39489 7.36407 1.54168 7.15184 1.73925 6.99432C1.93683 6.83681 2.17643 6.74099 2.42814 6.71884L7.03751 6.34696L8.81564 2.04384C8.91188 1.80932 9.07569 1.60872 9.28624 1.46754C9.49679 1.32636 9.74456 1.25098 9.99806 1.25098C10.2516 1.25098 10.4993 1.32636 10.7099 1.46754C10.9204 1.60872 11.0842 1.80932 11.1805 2.04384L12.9578 6.34696L17.5672 6.71884C17.8194 6.74017 18.0597 6.83545 18.258 6.99275C18.4563 7.15005 18.6038 7.36236 18.6819 7.6031C18.7601 7.84383 18.7655 8.10228 18.6974 8.34606C18.6293 8.58984 18.4908 8.80811 18.2992 8.97352L18.3039 8.97274Z" fill="#8B95A1"/>
</svg>
