<svg width="24" height="24" viewBox="0 0 24 24" fill="none" xmlns="http://www.w3.org/2000/svg">
<path d="M3.78918 7.04053C3.78918 6.50415 3.89483 5.97302 4.1001 5.47747C4.30536 4.98192 4.60622 4.53165 4.9855 4.15237C5.36478 3.77309 5.81505 3.47223 6.3106 3.26697C6.80615 3.0617 7.33728 2.95605 7.87366 2.95605C8.41004 2.95605 8.94117 3.0617 9.43672 3.26697C9.93227 3.47223 10.3825 3.77309 10.7618 4.15237C11.1411 4.53165 11.442 4.98192 11.6472 5.47747C11.8525 5.97302 11.9581 6.50415 11.9581 7.04053C11.9581 7.57691 11.8525 8.10804 11.6472 8.60359C11.442 9.09914 11.1411 9.54941 10.7618 9.92869C10.3825 10.308 9.93227 10.6088 9.43672 10.8141C8.94117 11.0194 8.41004 11.125 7.87366 11.125C7.33728 11.125 6.80615 11.0194 6.3106 10.8141C5.81505 10.6088 5.36478 10.308 4.9855 9.92869C4.60622 9.54941 4.30536 9.09914 4.1001 8.60359C3.89483 8.10804 3.78918 7.57691 3.78918 7.04053ZM1.4552 19.2939C1.4552 15.7492 4.32892 12.8755 7.87366 12.8755C11.4184 12.8755 14.2921 15.7492 14.2921 19.2939V19.5128C14.2921 20.3588 13.6065 21.0444 12.7604 21.0444H2.98688C2.14081 21.0444 1.4552 20.3588 1.4552 19.5128V19.2939Z" stroke="#6B7684" stroke-width="1.40039"/>
<path d="M14.2924 11.449C14.2924 10.8449 14.7821 10.3551 15.3863 10.3551H21.9503C22.5545 10.3551 23.0442 10.8449 23.0442 11.449C23.0442 12.0532 22.5545 12.5429 21.9503 12.5429H15.3863C14.7821 12.5429 14.2924 12.0532 14.2924 11.449Z" fill="#6B7684"/>
<path d="M18.6682 7.07324C19.2723 7.07324 19.7621 7.563 19.7621 8.16715L19.7621 14.7312C19.7621 15.3354 19.2723 15.8251 18.6682 15.8251C18.064 15.8251 17.5742 15.3354 17.5742 14.7312L17.5742 8.16715C17.5742 7.563 18.064 7.07324 18.6682 7.07324Z" fill="#6B7684"/>
</svg>
