<svg width="21" height="21" viewBox="0 0 21 21" fill="none" xmlns="http://www.w3.org/2000/svg">
<path d="M5.05934 7.63053C5.05934 7.24751 5.13478 6.86824 5.28136 6.51437C5.42793 6.16051 5.64277 5.83898 5.91361 5.56814C6.18445 5.2973 6.50598 5.08246 6.85984 4.93589C7.21371 4.78931 7.59298 4.71387 7.976 4.71387C8.35903 4.71387 8.7383 4.78931 9.09216 4.93589C9.44603 5.08246 9.76756 5.2973 10.0384 5.56814C10.3092 5.83898 10.5241 6.16051 10.6707 6.51437C10.8172 6.86824 10.8927 7.24751 10.8927 7.63053C10.8927 8.01356 10.8172 8.39283 10.6707 8.74669C10.5241 9.10056 10.3092 9.42209 10.0384 9.69293C9.76756 9.96377 9.44603 10.1786 9.09216 10.3252C8.7383 10.4718 8.35903 10.5472 7.976 10.5472C7.59298 10.5472 7.21371 10.4718 6.85984 10.3252C6.50598 10.1786 6.18445 9.96377 5.91361 9.69293C5.64277 9.42209 5.42793 9.10056 5.28136 8.74669C5.13478 8.39283 5.05934 8.01356 5.05934 7.63053ZM3.39258 15.0364C3.39258 12.5051 5.44466 11.263 7.97591 11.263C10.5072 11.263 12.5592 12.5051 12.5592 15.0364V15.1926C12.5592 15.7968 12.0697 16.2864 11.4655 16.2864H4.48633C3.88216 16.2864 3.39258 15.7968 3.39258 15.1926V15.0364Z" fill="#2C5BE7"/>
<path d="M12.5596 10.1071C12.5596 9.6757 12.9093 9.32597 13.3407 9.32597H18.028C18.4594 9.32597 18.8092 9.6757 18.8092 10.1071C18.8092 10.5385 18.4594 10.8883 18.028 10.8883H13.3407C12.9093 10.8883 12.5596 10.5385 12.5596 10.1071Z" fill="#557AF3"/>
<path d="M15.6843 6.98242C16.1157 6.98242 16.4654 7.33215 16.4654 7.76357L16.4654 12.4509C16.4654 12.8823 16.1157 13.232 15.6843 13.232C15.2528 13.232 14.9031 12.8823 14.9031 12.4509V7.76357C14.9031 7.33215 15.2528 6.98242 15.6843 6.98242Z" fill="#557AF3"/>
</svg>
