<svg width="25" height="25" viewBox="0 0 25 25" fill="none" xmlns="http://www.w3.org/2000/svg">
<path d="M19.4693 8.96927C19.539 8.89959 19.6217 8.84432 19.7128 8.8066C19.8038 8.76889 19.9014 8.74948 20 8.74948C20.0985 8.74948 20.1961 8.76889 20.2871 8.8066C20.3782 8.84432 20.4609 8.89959 20.5306 8.96927C20.6003 9.03896 20.6555 9.12168 20.6933 9.21273C20.731 9.30377 20.7504 9.40135 20.7504 9.4999C20.7504 9.59844 20.731 9.69603 20.6933 9.78707C20.6555 9.87812 20.6003 9.96084 20.5306 10.0305L13.0306 17.5305C12.9609 17.6003 12.8782 17.6556 12.7872 17.6933C12.6961 17.7311 12.5985 17.7505 12.5 17.7505C12.4014 17.7505 12.3038 17.7311 12.2128 17.6933C12.1217 17.6556 12.039 17.6003 11.9693 17.5305L4.46933 10.0305C4.3286 9.88979 4.24954 9.69892 4.24954 9.4999C4.24954 9.30088 4.3286 9.11 4.46933 8.96927C4.61006 8.82854 4.80094 8.74948 4.99996 8.74948C5.19898 8.74948 5.38985 8.82854 5.53058 8.96927L12.5 15.9396L19.4693 8.96927Z" fill="#557AF3"/>
</svg>
