<svg width="13" height="22" viewBox="0 0 13 22" fill="none" xmlns="http://www.w3.org/2000/svg">
<path d="M11.784 20.2926C11.8769 20.3855 11.9506 20.4958 12.0009 20.6172C12.0511 20.7386 12.077 20.8687 12.077 21.0001C12.077 21.1315 12.0511 21.2616 12.0009 21.383C11.9506 21.5044 11.8769 21.6147 11.784 21.7076C11.6911 21.8005 11.5808 21.8742 11.4594 21.9245C11.338 21.9747 11.2079 22.0006 11.0765 22.0006C10.9451 22.0006 10.815 21.9747 10.6936 21.9245C10.5722 21.8742 10.4619 21.8005 10.369 21.7076L0.36897 11.7076C0.275993 11.6147 0.202235 11.5044 0.151911 11.383C0.101586 11.2616 0.0756836 11.1315 0.0756836 11.0001C0.0756836 10.8687 0.101586 10.7385 0.151911 10.6171C0.202235 10.4957 0.275993 10.3854 0.36897 10.2926L10.369 0.292568C10.5566 0.104927 10.8111 -0.000488286 11.0765 -0.000488281C11.3418 -0.000488276 11.5963 0.104927 11.784 0.292568C11.9716 0.480208 12.077 0.734704 12.077 1.00007C12.077 1.26543 11.9716 1.51993 11.784 1.70757L2.49022 11.0001L11.784 20.2926Z" fill="white"/>
</svg>
