<svg width="21" height="20" viewBox="0 0 21 20" fill="none" xmlns="http://www.w3.org/2000/svg">
<path d="M18.1406 13.7453C17.707 12.9984 17.0625 10.8852 17.0625 8.125C17.0625 6.4674 16.404 4.87768 15.2319 3.70558C14.0598 2.53348 12.4701 1.875 10.8125 1.875C9.15491 1.875 7.5652 2.53348 6.39309 3.70558C5.22099 4.87768 4.56251 6.4674 4.56251 8.125C4.56251 10.8859 3.9172 12.9984 3.4836 13.7453C3.37288 13.9352 3.31418 14.1509 3.31342 14.3707C3.31267 14.5905 3.36989 14.8066 3.47931 14.9973C3.58873 15.1879 3.74648 15.3463 3.93665 15.4565C4.12683 15.5667 4.34271 15.6248 4.56251 15.625H7.75079C7.89499 16.3306 8.27847 16.9647 8.83636 17.4201C9.39426 17.8756 10.0923 18.1243 10.8125 18.1243C11.5327 18.1243 12.2308 17.8756 12.7887 17.4201C13.3466 16.9647 13.73 16.3306 13.8742 15.625H17.0625C17.2822 15.6247 17.498 15.5665 17.6881 15.4562C17.8782 15.346 18.0358 15.1875 18.1451 14.9969C18.2545 14.8063 18.3116 14.5902 18.3108 14.3705C18.31 14.1508 18.2513 13.9351 18.1406 13.7453ZM10.8125 16.875C10.4249 16.8749 10.0468 16.7546 9.73032 16.5308C9.41385 16.3069 9.17454 15.9905 9.04532 15.625H12.5797C12.4505 15.9905 12.2112 16.3069 11.8947 16.5308C11.5782 16.7546 11.2002 16.8749 10.8125 16.875ZM4.56251 14.375C5.16407 13.3406 5.81251 10.9437 5.81251 8.125C5.81251 6.79892 6.33929 5.52715 7.27698 4.58947C8.21466 3.65178 9.48643 3.125 10.8125 3.125C12.1386 3.125 13.4104 3.65178 14.348 4.58947C15.2857 5.52715 15.8125 6.79892 15.8125 8.125C15.8125 10.9414 16.4594 13.3383 17.0625 14.375H4.56251Z" fill="#8B95A1"/>
</svg>
