<svg width="43" height="43" viewBox="0 0 43 43" fill="none" xmlns="http://www.w3.org/2000/svg">
<circle cx="21.46" cy="21.1172" r="20.5" fill="#D1D6DB" stroke="#E5E8EB"/>
<mask id="mask0_599_14416" style="mask-type:alpha" maskUnits="userSpaceOnUse" x="1" y="1" width="41" height="41">
<circle cx="21.46" cy="21.1172" r="20" fill="#D9D9D9"/>
</mask>
<g mask="url(#mask0_599_14416)">
<path d="M45.0583 36.3616C45.0583 33.566 42.788 31.2957 39.9923 31.2957H11.0836V41.4263H39.9936C42.7893 41.4263 45.0596 39.156 45.0596 36.3603L45.0583 36.3616Z" fill="url(#paint0_linear_599_14416)"/>
<path d="M13.8648 11.4277C17.1032 11.4277 19.8621 13.1819 20.9102 15.6382C21.9582 13.1819 24.7172 11.4277 27.9556 11.4277C32.0953 11.4277 35.4517 14.2941 35.4517 17.8312V41.4277H8.29184C7.22939 41.4277 6.36869 40.6928 6.36869 39.7849V17.8312C6.36869 14.2954 9.72502 11.4277 13.8648 11.4277Z" fill="url(#paint1_linear_599_14416)"/>
<path d="M27.9148 29.2089C26.3571 29.2089 25.0943 27.9461 25.0943 26.3884C25.0943 24.8307 26.3571 23.5679 27.9148 23.5679C29.4726 23.5679 30.7354 24.8307 30.7354 26.3884C30.7354 27.9461 29.4726 29.2089 27.9148 29.2089Z" fill="#D1D6DB"/>
<path d="M13.8948 29.2009C12.3371 29.2009 11.0743 27.9381 11.0743 26.3803C11.0743 24.8226 12.3371 23.5598 13.8948 23.5598C15.4525 23.5598 16.7153 24.8226 16.7153 26.3803C16.7153 27.9381 15.4525 29.2009 13.8948 29.2009Z" fill="#D1D6DB"/>
<path d="M24.4777 27.9302C22.4323 27.9302 20.7742 25.9794 20.7742 23.573C20.7742 21.1666 22.4323 19.2158 24.4777 19.2158C26.523 19.2158 28.1812 21.1666 28.1812 23.573C28.1812 25.9794 26.523 27.9302 24.4777 27.9302Z" fill="white"/>
<path d="M17.0153 27.9852C14.9699 27.9852 13.3118 26.0344 13.3118 23.628C13.3118 21.2215 14.9699 19.2708 17.0153 19.2708C19.0606 19.2708 20.7188 21.2215 20.7188 23.628C20.7188 26.0344 19.0606 27.9852 17.0153 27.9852Z" fill="white"/>
<path d="M24.2507 26.8273C22.9122 26.8273 21.8272 25.551 21.8272 23.9766C21.8272 22.4023 22.9122 21.126 24.2507 21.126C25.5892 21.126 26.6743 22.4023 26.6743 23.9766C26.6743 25.551 25.5892 26.8273 24.2507 26.8273Z" fill="#4E5968"/>
<path d="M17.3079 26.8273C15.9694 26.8273 14.8843 25.551 14.8843 23.9766C14.8843 22.4023 15.9694 21.126 17.3079 21.126C18.6464 21.126 19.7314 22.4023 19.7314 23.9766C19.7314 25.551 18.6464 26.8273 17.3079 26.8273Z" fill="#4E5968"/>
<path d="M19.6972 26.6728C19.3681 25.9857 19.4976 25.2389 19.9863 25.0048C20.4751 24.7708 21.1381 25.138 21.4672 25.8252C21.7962 26.5123 21.6668 27.2591 21.178 27.4932C20.6893 27.7272 20.0263 27.3599 19.6972 26.6728Z" fill="#8B95A1"/>
<path d="M25.3525 24.616C25.6643 24.616 25.8805 24.9304 25.7665 25.2199C25.5229 25.8422 24.9137 26.2837 24.1997 26.2837C23.4857 26.2837 22.8779 25.8422 22.6329 25.2199C22.5189 24.9291 22.7351 24.616 23.0469 24.616H25.3512H25.3525Z" fill="white"/>
<path d="M18.4092 24.616C18.721 24.616 18.9371 24.9304 18.8232 25.2199C18.5795 25.8422 17.9703 26.2837 17.2563 26.2837C16.5424 26.2837 15.9345 25.8422 15.6895 25.2199C15.5756 24.9291 15.7917 24.616 16.1035 24.616H18.4079H18.4092Z" fill="white"/>
</g>
<defs>
<linearGradient id="paint0_linear_599_14416" x1="11.0849" y1="36.363" x2="45.0583" y2="36.363" gradientUnits="userSpaceOnUse">
<stop stop-color="#F9FAFB"/>
<stop offset="1" stop-color="#D1D6DB"/>
</linearGradient>
<linearGradient id="paint1_linear_599_14416" x1="20.9102" y1="41.4277" x2="20.9102" y2="11.4277" gradientUnits="userSpaceOnUse">
<stop stop-color="#F9FAFB"/>
<stop offset="1" stop-color="#BCC2C8"/>
</linearGradient>
</defs>
</svg>
