<svg width="43" height="43" viewBox="0 0 43 43" fill="none" xmlns="http://www.w3.org/2000/svg">
<circle cx="21.8584" cy="21.1172" r="20.5" fill="#E4EAFD" stroke="#E4EAFD"/>
<mask id="mask0_599_14422" style="mask-type:alpha" maskUnits="userSpaceOnUse" x="1" y="1" width="41" height="41">
<circle cx="21.8584" cy="21.1172" r="20" fill="#D9D9D9"/>
</mask>
<g mask="url(#mask0_599_14422)">
<path d="M45.5309 36.4215C45.5309 33.6258 43.2606 31.3555 40.465 31.3555H11.5562V41.4861H40.4663C43.2619 41.4861 45.5322 39.2158 45.5322 36.4201L45.5309 36.4215Z" fill="url(#paint0_linear_599_14422)"/>
<path d="M14.3374 11.4875C17.5758 11.4875 20.3348 13.2417 21.3828 15.698C22.4309 13.2417 25.1898 11.4875 28.4282 11.4875C32.568 11.4875 35.9243 14.3539 35.9243 17.891V41.4875H8.76449C7.70205 41.4875 6.84135 40.7526 6.84135 39.8448V17.891C6.84135 14.3552 10.1977 11.4875 14.3374 11.4875Z" fill="url(#paint1_linear_599_14422)"/>
<path d="M28.3875 29.2687C26.8298 29.2687 25.567 28.0059 25.567 26.4482C25.567 24.8905 26.8298 23.6277 28.3875 23.6277C29.9452 23.6277 31.208 24.8905 31.208 26.4482C31.208 28.0059 29.9452 29.2687 28.3875 29.2687Z" fill="#A5BDF9"/>
<path d="M14.3675 29.2607C12.8097 29.2607 11.5469 27.9979 11.5469 26.4402C11.5469 24.8824 12.8097 23.6196 14.3675 23.6196C15.9252 23.6196 17.188 24.8824 17.188 26.4402C17.188 27.9979 15.9252 29.2607 14.3675 29.2607Z" fill="#A5BDF9"/>
<path d="M24.9503 27.99C22.9049 27.99 21.2468 26.0393 21.2468 23.6328C21.2468 21.2264 22.9049 19.2756 24.9503 19.2756C26.9957 19.2756 28.6538 21.2264 28.6538 23.6328C28.6538 26.0393 26.9957 27.99 24.9503 27.99Z" fill="white"/>
<path d="M17.4879 28.045C15.4425 28.045 13.7844 26.0942 13.7844 23.6878C13.7844 21.2814 15.4425 19.3306 17.4879 19.3306C19.5333 19.3306 21.1914 21.2814 21.1914 23.6878C21.1914 26.0942 19.5333 28.045 17.4879 28.045Z" fill="white"/>
<path d="M24.7234 26.8871C23.3849 26.8871 22.2998 25.6108 22.2998 24.0364C22.2998 22.4621 23.3849 21.1858 24.7234 21.1858C26.0619 21.1858 27.147 22.4621 27.147 24.0364C27.147 25.6108 26.0619 26.8871 24.7234 26.8871Z" fill="black"/>
<path d="M17.7805 26.8871C16.442 26.8871 15.3569 25.6108 15.3569 24.0364C15.3569 22.4621 16.442 21.1858 17.7805 21.1858C19.119 21.1858 20.2041 22.4621 20.2041 24.0364C20.2041 25.6108 19.119 26.8871 17.7805 26.8871Z" fill="black"/>
<path d="M20.1699 26.7326C19.8408 26.0455 19.9702 25.2987 20.459 25.0646C20.9478 24.8306 21.6107 25.1979 21.9398 25.885C22.2689 26.5721 22.1394 27.3189 21.6507 27.553C21.1619 27.787 20.4989 27.4198 20.1699 26.7326Z" fill="#FFBE6A"/>
<path d="M25.8252 24.6758C26.137 24.6758 26.3531 24.9902 26.2392 25.2797C25.9955 25.902 25.3863 26.3435 24.6724 26.3435C23.9584 26.3435 23.3505 25.902 23.1056 25.2797C22.9916 24.9889 23.2077 24.6758 23.5195 24.6758H25.8239H25.8252Z" fill="#8FAEFF"/>
<path d="M18.8818 24.6758C19.1936 24.6758 19.4098 24.9902 19.2958 25.2797C19.0521 25.902 18.443 26.3435 17.729 26.3435C17.015 26.3435 16.4072 25.902 16.1622 25.2797C16.0482 24.9889 16.2644 24.6758 16.5762 24.6758H18.8805H18.8818Z" fill="#8FAEFF"/>
</g>
<defs>
<linearGradient id="paint0_linear_599_14422" x1="11.5576" y1="36.4228" x2="45.5309" y2="36.4228" gradientUnits="userSpaceOnUse">
<stop stop-color="#E1E0FF"/>
<stop offset="1" stop-color="#8FAEFF"/>
</linearGradient>
<linearGradient id="paint1_linear_599_14422" x1="21.3828" y1="41.4875" x2="21.3828" y2="11.4875" gradientUnits="userSpaceOnUse">
<stop stop-color="#E1E0FF"/>
<stop offset="1" stop-color="#8FAEFF"/>
</linearGradient>
</defs>
</svg>
