<svg width="181" height="119" viewBox="0 0 181 119" fill="none" xmlns="http://www.w3.org/2000/svg">
<path d="M91.9283 10.9578C89.9866 10.1612 86.7307 13.4516 84.6588 18.289C84.2681 19.2011 83.9484 20.1131 83.6998 20.9906C83.4511 20.1131 83.1315 19.2126 82.7408 18.289C80.657 13.4516 77.4011 10.1727 75.4594 10.9578C73.5059 11.7544 73.6125 16.3148 75.6844 21.1637C77.7563 26.0012 81.0122 29.2916 82.9539 28.4949C83.2499 28.3795 83.4867 28.1601 83.6879 27.8831C83.8892 28.1601 84.126 28.3795 84.422 28.4949C86.3637 29.2916 89.6196 26.0012 91.6915 21.1637C93.7634 16.3263 93.87 11.7544 91.9164 10.9578H91.9283Z" fill="url(#paint0_linear_1424_5345)"/>
<mask id="mask0_1424_5345" style="mask-type:luminance" maskUnits="userSpaceOnUse" x="43" y="24" width="108" height="84">
<path d="M150.892 24.1709H43.2202V107.654H150.892V24.1709Z" fill="white"/>
</mask>
<g mask="url(#mask0_1424_5345)">
<path d="M150.892 93.5673C150.892 85.7908 144.567 79.4658 136.791 79.4658H56.3441V107.654H136.806C144.582 107.654 150.907 101.329 150.907 93.5525L150.892 93.5673Z" fill="url(#paint1_linear_1424_5345)"/>
<path d="M64.0762 24.1709C52.5669 24.1709 43.2202 32.1548 43.2202 41.9903V103.092C43.2202 105.625 45.6198 107.669 48.5675 107.669H124.156V41.9903C124.156 32.14 114.809 24.1709 103.3 24.1709H64.0762Z" fill="url(#paint2_linear_1424_5345)"/>
<path d="M102.929 73.658C98.4253 73.658 94.7822 71.6709 94.7822 69.2143C94.7822 66.7576 98.4253 64.7705 102.929 64.7705C107.433 64.7705 111.076 66.7576 111.076 69.2143C111.076 71.6709 107.433 73.658 102.929 73.658Z" fill="#FBAAB3"/>
<path d="M63.6759 73.658C59.5815 73.658 56.2697 71.6709 56.2697 69.2143C56.2697 66.7576 59.5815 64.7705 63.6759 64.7705C67.7703 64.7705 71.0822 66.7576 71.0822 69.2143C71.0822 71.6709 67.7703 73.658 63.6759 73.658Z" fill="#FBAAB3"/>
<path d="M93.6124 70.089C87.9244 70.089 83.3029 64.6529 83.3029 57.9576C83.3029 51.2624 87.9244 45.8262 93.6124 45.8262C99.3004 45.8262 103.922 51.2624 103.922 57.9576C103.922 64.6529 99.3004 70.089 93.6124 70.089Z" fill="white"/>
<path d="M72.8451 70.2531C67.1571 70.2531 62.5356 64.8169 62.5356 58.1217C62.5356 51.4264 67.1571 45.9902 72.8451 45.9902C78.5331 45.9902 83.1546 51.4264 83.1546 58.1217C83.1546 64.8169 78.5331 70.2531 72.8451 70.2531Z" fill="white"/>
<path d="M92.915 67.0235C89.197 67.0235 86.1753 63.4685 86.1753 59.084C86.1753 54.6995 89.197 51.1445 92.915 51.1445C96.6329 51.1445 99.6547 54.6995 99.6547 59.084C99.6547 63.4685 96.6329 67.0235 92.915 67.0235Z" fill="#040000"/>
<path d="M73.6599 67.0235C69.9419 67.0235 66.9202 63.4685 66.9202 59.084C66.9202 54.6995 69.9419 51.1445 73.6599 51.1445C77.3778 51.1445 80.3995 54.6995 80.3995 59.084C80.3995 63.4685 77.3778 67.0235 73.6599 67.0235Z" fill="#040000"/>
<path d="M92.8428 58.2393L93.0703 59.034C93.4418 60.3299 94.4553 61.3433 95.7512 61.7149L96.5459 61.9424L95.7512 62.1699C94.4553 62.5414 93.4418 63.5549 93.0703 64.8508L92.8428 65.6455L92.6152 64.8508C92.2437 63.5549 91.2303 62.5414 89.9344 62.1699L89.1396 61.9424L89.9344 61.7149C91.2303 61.3433 92.2437 60.3299 92.6152 59.034L92.8428 58.2393Z" fill="white"/>
<path d="M73.5858 58.2393L73.8133 59.034C74.1849 60.3299 75.1983 61.3433 76.4942 61.7149L77.2889 61.9424L76.4942 62.1699C75.1983 62.5414 74.1849 63.5549 73.8133 64.8508L73.5858 65.6455L73.3583 64.8508C72.9868 63.5549 71.9733 62.5414 70.6774 62.1699L69.8827 61.9424L70.6774 61.7149C71.9733 61.3433 72.9868 60.3299 73.3583 59.034L73.5858 58.2393Z" fill="white"/>
<path d="M80.7613 66.035C79.8429 64.1242 80.1984 62.0505 81.5612 61.3987C82.9239 60.747 84.7607 61.769 85.679 63.6798C86.5974 65.5907 86.2419 67.6644 84.8791 68.3162C83.5164 68.9679 81.6797 67.9458 80.7613 66.035Z" fill="#FF6574"/>
</g>
<rect x="144.278" y="60.2891" width="9.06397" height="9.68314" rx="0.817844" transform="rotate(90 144.278 60.2891)" fill="#B1C1FF"/>
<circle cx="138.619" cy="89.9972" r="25.3527" fill="#557AF3"/>
<circle cx="138.619" cy="89.9971" r="20.6446" fill="white"/>
<rect x="137.801" y="71.2012" width="1.63569" height="3.27138" rx="0.817844" fill="#CED8F8"/>
<rect x="137.801" y="105.522" width="1.63569" height="3.27138" rx="0.817844" fill="#CED8F8"/>
<rect x="157.416" y="89.1797" width="1.63569" height="3.27138" rx="0.817844" transform="rotate(90 157.416 89.1797)" fill="#CED8F8"/>
<rect x="123.094" y="89.1797" width="1.63569" height="3.27138" rx="0.817844" transform="rotate(90 123.094 89.1797)" fill="#CED8F8"/>
<rect x="154.488" y="79.8906" width="1.63569" height="3.27138" rx="0.817844" transform="rotate(60 154.488 79.8906)" fill="#CED8F8"/>
<rect x="124.765" y="97.0518" width="1.63569" height="3.27138" rx="0.817844" transform="rotate(60 124.765 97.0518)" fill="#CED8F8"/>
<rect x="147.309" y="73.3105" width="1.63569" height="3.27138" rx="0.817844" transform="rotate(30 147.309 73.3105)" fill="#CED8F8"/>
<rect x="130.148" y="103.034" width="1.63569" height="3.27138" rx="0.817844" transform="rotate(30 130.148 103.034)" fill="#CED8F8"/>
<rect x="128.512" y="74.1279" width="1.63569" height="3.27138" rx="0.817844" transform="rotate(-30 128.512 74.1279)" fill="#CED8F8"/>
<rect x="145.673" y="103.852" width="1.63569" height="3.27138" rx="0.817844" transform="rotate(-30 145.673 103.852)" fill="#CED8F8"/>
<rect x="121.932" y="81.3076" width="1.63569" height="3.27138" rx="0.817844" transform="rotate(-60 121.932 81.3076)" fill="#CED8F8"/>
<rect x="151.655" y="98.4688" width="1.63569" height="3.27138" rx="0.817844" transform="rotate(-60 151.655 98.4688)" fill="#CED8F8"/>
<path d="M147.482 81.4336L138.932 89.984" stroke="#839DF1" stroke-width="1.22677" stroke-linecap="round"/>
<circle cx="138.619" cy="89.997" r="2.12009" fill="#557AF3"/>
<rect x="129.331" y="56.1914" width="20.2127" height="6.10907" rx="3.05454" fill="#557AF3"/>
<path d="M170.428 21.9917C170.341 21.9196 170.238 21.8694 170.128 21.8453C170.018 21.8212 169.904 21.824 169.795 21.8534C169.686 21.8828 169.585 21.938 169.502 22.0143C169.419 22.0905 169.356 22.1857 169.317 22.2916L167.382 27.6055L165.257 25.5463C165.185 25.4771 165.1 25.4238 165.006 25.3899C164.913 25.356 164.813 25.3423 164.714 25.3497C164.615 25.3571 164.519 25.3854 164.431 25.4328C164.344 25.4802 164.267 25.5455 164.207 25.6246C162.302 28.121 161.334 30.6324 161.334 33.0883C161.334 35.1413 162.15 37.1102 163.601 38.5619C165.053 40.0136 167.022 40.8291 169.075 40.8291C171.128 40.8291 173.097 40.0136 174.549 38.5619C176 37.1102 176.816 35.1413 176.816 33.0883C176.816 27.8589 172.348 23.5882 170.428 21.9917Z" fill="#F04452"/>
<path d="M173.191 37.508C174.05 36.6497 174.625 35.549 174.839 34.3541H174.84C174.876 34.1383 174.826 33.9168 174.699 33.7383C174.572 33.5598 174.38 33.4389 174.164 33.4023C173.948 33.3656 173.727 33.4162 173.548 33.5429C173.37 33.6696 173.249 33.862 173.212 34.0777C172.923 35.7896 171.473 37.2396 169.764 37.5273C169.56 37.5615 169.376 37.6711 169.249 37.8345C169.122 37.9979 169.061 38.203 169.078 38.4092C169.095 38.6155 169.189 38.8077 169.341 38.9479C169.494 39.0881 169.693 39.1659 169.9 39.1659C169.946 39.1662 169.992 39.1624 170.037 39.1546C171.232 38.9409 172.333 38.3663 173.191 37.508Z" fill="#FFD4D6"/>
<path d="M17.9038 60.5703C17.7882 60.4741 17.6511 60.4072 17.5041 60.3751C17.3572 60.343 17.2046 60.3467 17.0594 60.386C16.9142 60.4252 16.7805 60.4987 16.6697 60.6004C16.5588 60.7021 16.4741 60.8289 16.4225 60.9702L13.8423 68.0554L11.0087 65.3098C10.9135 65.2175 10.7999 65.1464 10.6752 65.1012C10.5506 65.056 10.4178 65.0378 10.2856 65.0476C10.1534 65.0575 10.0248 65.0953 9.90825 65.1584C9.7917 65.2216 9.68987 65.3088 9.60945 65.4142C7.06906 68.7427 5.77893 72.0912 5.77893 75.3658C5.77893 78.1031 6.86633 80.7283 8.8019 82.6639C10.7375 84.5995 13.3627 85.6868 16.1 85.6868C18.8373 85.6868 21.4625 84.5995 23.3981 82.6639C25.3337 80.7283 26.4211 78.1031 26.4211 75.3658C26.4211 68.3932 20.4642 62.699 17.9038 60.5703Z" fill="#F04452"/>
<path d="M21.5884 81.2594C22.7331 80.115 23.4996 78.6474 23.7848 77.0542H23.7862C23.8351 76.7665 23.7676 76.4711 23.5987 76.2331C23.4298 75.9951 23.1733 75.8339 22.8856 75.7851C22.5978 75.7362 22.3025 75.8036 22.0645 75.9725C21.8265 76.1414 21.6653 76.398 21.6164 76.6857C21.2301 78.9682 19.2968 80.9014 17.0184 81.2851C16.7463 81.3307 16.5012 81.4769 16.3319 81.6947C16.1625 81.9125 16.0812 82.186 16.104 82.461C16.1268 82.736 16.2522 82.9923 16.4552 83.1792C16.6582 83.3661 16.924 83.4699 17.1999 83.4699C17.2612 83.4702 17.3224 83.4652 17.3828 83.4548C18.9761 83.1699 20.4438 82.4037 21.5884 81.2594Z" fill="#FFD4D6"/>
<defs>
<linearGradient id="paint0_linear_1424_5345" x1="83.6879" y1="10.8389" x2="83.6879" y2="28.6139" gradientUnits="userSpaceOnUse">
<stop stop-color="#FBA7B0"/>
<stop offset="1" stop-color="#F7C2C7"/>
</linearGradient>
<linearGradient id="paint1_linear_1424_5345" x1="56.3441" y1="93.5525" x2="150.892" y2="93.5525" gradientUnits="userSpaceOnUse">
<stop offset="0.427885" stop-color="#F9D9DC"/>
<stop offset="1" stop-color="#FBA7B0"/>
</linearGradient>
<linearGradient id="paint2_linear_1424_5345" x1="83.688" y1="107.654" x2="83.688" y2="24.1709" gradientUnits="userSpaceOnUse">
<stop stop-color="#F9D9DC"/>
<stop offset="1" stop-color="#FBA7B0"/>
</linearGradient>
</defs>
</svg>
