<svg width="127" height="121" viewBox="0 0 127 121" fill="none" xmlns="http://www.w3.org/2000/svg">
<rect x="0.892578" y="102.753" width="126.084" height="16.2689" rx="8.13443" fill="#B1C1FF"/>
<path d="M58.6991 11.43C56.7329 10.6233 53.4358 13.9553 51.3376 18.854C50.942 19.7776 50.6183 20.7012 50.3665 21.5898C50.1147 20.7012 49.791 19.7893 49.3953 18.854C47.2852 13.9553 43.9881 10.635 42.0218 11.43C40.0436 12.2367 40.1515 16.8548 42.2496 21.7651C44.3478 26.6638 47.6449 29.9958 49.6111 29.1891C49.9109 29.0722 50.1507 28.8501 50.3545 28.5695C50.5583 28.8501 50.7981 29.0722 51.0978 29.1891C53.0641 29.9958 56.3612 26.6638 58.4593 21.7651C60.5575 16.8665 60.6654 12.2367 58.6871 11.43H58.6991Z" fill="url(#paint0_linear_1790_14631)"/>
<mask id="mask0_1790_14631" style="mask-type:luminance" maskUnits="userSpaceOnUse" x="9" y="24" width="110" height="86">
<path d="M118.409 24.8076H9.37402V109.348H118.409V24.8076Z" fill="white"/>
</mask>
<g mask="url(#mask0_1790_14631)">
<path d="M118.408 95.0837C118.408 87.2087 112.003 80.8037 104.128 80.8037H22.6631V109.349H104.143C112.018 109.349 118.423 102.944 118.423 95.0687L118.408 95.0837Z" fill="url(#paint1_linear_1790_14631)"/>
<path d="M30.494 24.8076C18.839 24.8076 9.37402 32.8926 9.37402 42.8526V104.728C9.37402 107.293 11.804 109.363 14.789 109.363H91.334V42.8526C91.334 32.8776 81.869 24.8076 70.214 24.8076H30.494Z" fill="url(#paint2_linear_1790_14631)"/>
<path d="M69.8369 74.9209C65.2761 74.9209 61.5869 72.9086 61.5869 70.4209C61.5869 67.9332 65.2761 65.9209 69.8369 65.9209C74.3978 65.9209 78.0869 67.9332 78.0869 70.4209C78.0869 72.9086 74.3978 74.9209 69.8369 74.9209Z" fill="#FBAAB3"/>
<path d="M30.0869 74.9209C25.9407 74.9209 22.5869 72.9086 22.5869 70.4209C22.5869 67.9332 25.9407 65.9209 30.0869 65.9209C34.2331 65.9209 37.5869 67.9332 37.5869 70.4209C37.5869 72.9086 34.2331 74.9209 30.0869 74.9209Z" fill="#FBAAB3"/>
<path d="M60.4029 71.3073C54.6429 71.3073 49.9629 65.8023 49.9629 59.0223C49.9629 52.2423 54.6429 46.7373 60.4029 46.7373C66.1629 46.7373 70.8429 52.2423 70.8429 59.0223C70.8429 65.8023 66.1629 71.3073 60.4029 71.3073Z" fill="white"/>
<path d="M39.3726 71.4733C33.6126 71.4733 28.9326 65.9683 28.9326 59.1883C28.9326 52.4083 33.6126 46.9033 39.3726 46.9033C45.1326 46.9033 49.8126 52.4083 49.8126 59.1883C49.8126 65.9683 45.1326 71.4733 39.3726 71.4733Z" fill="white"/>
<path d="M59.6961 68.2001C55.9311 68.2001 52.8711 64.6001 52.8711 60.1601C52.8711 55.7201 55.9311 52.1201 59.6961 52.1201C63.4611 52.1201 66.5211 55.7201 66.5211 60.1601C66.5211 64.6001 63.4611 68.2001 59.6961 68.2001Z" fill="#040000"/>
<path d="M40.199 68.2001C36.434 68.2001 33.374 64.6001 33.374 60.1601C33.374 55.7201 36.434 52.1201 40.199 52.1201C43.964 52.1201 47.024 55.7201 47.024 60.1601C47.024 64.6001 43.964 68.2001 40.199 68.2001Z" fill="#040000"/>
<path d="M59.624 59.3076L59.8544 60.1124C60.2307 61.4247 61.2569 62.451 62.5693 62.8272L63.374 63.0576L62.5693 63.288C61.2569 63.6643 60.2307 64.6905 59.8544 66.0029L59.624 66.8076L59.3936 66.0029C59.0174 64.6905 57.9911 63.6643 56.6788 63.288L55.874 63.0576L56.6788 62.8272C57.9911 62.451 59.0174 61.4247 59.3936 60.1124L59.624 59.3076Z" fill="white"/>
<path d="M40.124 59.3076L40.3544 60.1124C40.7307 61.4247 41.7569 62.451 43.0693 62.8272L43.874 63.0576L43.0693 63.288C41.7569 63.6643 40.7307 64.6905 40.3544 66.0029L40.124 66.8076L39.8936 66.0029C39.5174 64.6905 38.4911 63.6643 37.1788 63.288L36.374 63.0576L37.1788 62.8272C38.4911 62.451 39.5174 61.4247 39.8936 60.1124L40.124 59.3076Z" fill="white"/>
<path d="M47.3903 67.2026C46.4603 65.2676 46.8203 63.1676 48.2003 62.5076C49.5803 61.8476 51.4403 62.8826 52.3703 64.8176C53.3003 66.7526 52.9403 68.8526 51.5603 69.5126C50.1803 70.1726 48.3203 69.1376 47.3903 67.2026Z" fill="#FF6574"/>
</g>
<defs>
<linearGradient id="paint0_linear_1790_14631" x1="50.3545" y1="11.3096" x2="50.3545" y2="29.3096" gradientUnits="userSpaceOnUse">
<stop stop-color="#FBA7B0"/>
<stop offset="1" stop-color="#F7C2C7"/>
</linearGradient>
<linearGradient id="paint1_linear_1790_14631" x1="22.6631" y1="95.0687" x2="118.408" y2="95.0687" gradientUnits="userSpaceOnUse">
<stop offset="0.427885" stop-color="#F9D9DC"/>
<stop offset="1" stop-color="#FBA7B0"/>
</linearGradient>
<linearGradient id="paint2_linear_1790_14631" x1="50.354" y1="109.348" x2="50.354" y2="24.8076" gradientUnits="userSpaceOnUse">
<stop stop-color="#F9D9DC"/>
<stop offset="1" stop-color="#FBA7B0"/>
</linearGradient>
</defs>
</svg>
