<svg width="106" height="143" viewBox="0 0 106 143" fill="none" xmlns="http://www.w3.org/2000/svg">
<circle cx="53" cy="73" r="51.5" stroke="#FFC342" stroke-width="3"/>
<path d="M67.6928 9.91444C67.6928 9.92672 67.6928 9.93789 67.6835 9.95017L64.6698 21.5485C64.577 21.9569 64.3176 22.3253 63.9363 22.5903C63.555 22.8552 63.0756 23.0002 62.5809 23.0001H43.1044C42.6098 22.9999 42.1308 22.8549 41.7498 22.5899C41.3687 22.325 41.1096 21.9567 41.0168 21.5485L38.0031 9.95017C38.0031 9.93789 37.9964 9.92672 37.9938 9.91444C37.9113 9.53044 37.9807 9.1343 38.1914 8.78656C38.402 8.43882 38.7424 8.1586 39.1604 7.98872C39.5785 7.81883 40.0512 7.76863 40.5064 7.84578C40.9616 7.92292 41.3742 8.12318 41.6812 8.41594L46.1554 12.4681L50.9125 3.50283C50.9127 3.49911 50.9127 3.49539 50.9125 3.49167C51.0826 3.18164 51.3549 2.91905 51.6971 2.735C52.0392 2.55094 52.437 2.45312 52.8433 2.45312C53.2496 2.45312 53.6473 2.55094 53.9895 2.735C54.3317 2.91905 54.604 3.18164 54.7741 3.49167C54.7738 3.49539 54.7738 3.49911 54.7741 3.50283L59.5312 12.4681L64.0053 8.41594C64.313 8.12535 64.7251 7.92705 65.179 7.85117C65.633 7.77528 66.104 7.82595 66.5206 7.99548C66.9371 8.165 67.2765 8.44413 67.4871 8.79047C67.6977 9.13681 67.7681 9.53144 67.6875 9.91444H67.6928Z" fill="#FFC342"/>
<path d="M52.8101 12.0485C52.871 11.8663 53.1287 11.8663 53.1895 12.0485L53.8882 14.1403C53.9154 14.2219 53.9918 14.277 54.0779 14.277H56.3268C56.5219 14.277 56.6015 14.5277 56.4422 14.6403L54.6324 15.9195C54.5603 15.9704 54.5302 16.0625 54.5581 16.1462L55.2516 18.2227C55.3129 18.406 55.1043 18.561 54.9465 18.4494L53.1153 17.1551C53.0461 17.1061 52.9536 17.1061 52.8844 17.1551L51.0532 18.4494C50.8954 18.561 50.6868 18.406 50.7481 18.2227L51.4416 16.1462C51.4695 16.0625 51.4393 15.9704 51.3673 15.9195L49.5575 14.6403C49.3982 14.5277 49.4778 14.277 49.6729 14.277H51.9218C52.0078 14.277 52.0842 14.2219 52.1115 14.1403L52.8101 12.0485Z" fill="#FFEFBF"/>
<circle cx="37.9863" cy="6.81007" r="0.98634" fill="#FFC342"/>
<circle cx="53" cy="0.98634" r="0.98634" fill="#FFC342"/>
<circle cx="68.0137" cy="6.81007" r="0.98634" fill="#FFC342"/>
<circle cx="53.0041" cy="123" r="11.6667" fill="#FFDD78"/>
<circle cx="53.0039" cy="123" r="8.89404" fill="#FFEFBF"/>
<path d="M54.6603 118.287V127.714H52.4338V120.37H52.3817L50.2593 121.672V119.745L52.59 118.287H54.6603Z" fill="#DD7D02"/>
</svg>
