<svg width="312" height="273" viewBox="0 0 312 273" fill="none" xmlns="http://www.w3.org/2000/svg">
<rect x="7" width="173" height="32" rx="16" fill="#839DF1"/>
<path d="M30.8945 15.791H28.9941V22.1484H27.6953V9.91211H28.9941V14.7246H30.8945V15.791ZM21.2012 17.9922C23.0697 17.9922 24.8835 17.8099 26.6426 17.4453L26.793 18.5391C25.8177 18.735 24.8493 18.874 23.8877 18.9561C22.9307 19.0335 21.944 19.0723 20.9277 19.0723H19.916V11.1016H21.2012V17.9922ZM41.3788 12.9199H43.1698V14H41.3788V17.2949H40.08V9.92578H41.3788V12.9199ZM37.8241 14.0957H33.5585V15.5859C34.6841 15.5814 35.6548 15.554 36.4706 15.5039C37.2863 15.4492 38.1203 15.349 38.9725 15.2031L39.1093 16.2559C38.2707 16.4062 37.4436 16.5111 36.6278 16.5703C35.8166 16.625 34.8664 16.6523 33.7772 16.6523H33.244H32.2596V13.0977H36.5526V11.7168H32.246V10.6641H37.8241V14.0957ZM37.4139 17.623C38.2479 17.623 38.9703 17.7142 39.5809 17.8965C40.1962 18.0742 40.6678 18.334 40.996 18.6758C41.3241 19.0176 41.4882 19.4232 41.4882 19.8926C41.4882 20.362 41.3241 20.7653 40.996 21.1025C40.6678 21.4398 40.1984 21.695 39.5878 21.8682C38.9771 22.0459 38.2525 22.1348 37.4139 22.1348C36.5663 22.1348 35.8326 22.0459 35.2128 21.8682C34.5975 21.695 34.1236 21.4398 33.7909 21.1025C33.4628 20.7653 33.2987 20.362 33.2987 19.8926C33.2987 19.4232 33.4628 19.0176 33.7909 18.6758C34.1236 18.334 34.5975 18.0742 35.2128 17.8965C35.8326 17.7142 36.5663 17.623 37.4139 17.623ZM37.4139 18.6484C36.5162 18.6484 35.8166 18.7578 35.3153 18.9766C34.8186 19.1908 34.5702 19.4961 34.5702 19.8926C34.5702 20.1569 34.6818 20.3825 34.9051 20.5693C35.133 20.7562 35.4589 20.8997 35.8827 21C36.3111 21.0957 36.8215 21.1413 37.4139 21.1367C38.2981 21.1413 38.9862 21.0342 39.4784 20.8154C39.9706 20.5967 40.2167 20.2891 40.2167 19.8926C40.2167 19.4961 39.9706 19.1908 39.4784 18.9766C38.9908 18.7578 38.3026 18.6484 37.4139 18.6484ZM57.3024 12.6738H59.0797V13.7266H57.3024V16.4199H56.0035V9.91211H57.3024V12.6738ZM53.9938 10.7598C53.9938 12.3001 53.4947 13.5693 52.4967 14.5674C51.5032 15.5609 50.0836 16.2559 48.2379 16.6523L47.691 15.5996C48.6982 15.3945 49.555 15.1074 50.2613 14.7383C50.9677 14.3646 51.5123 13.9294 51.8951 13.4326C52.2779 12.9313 52.499 12.3867 52.5582 11.7988H48.2379V10.7598H53.9938ZM57.357 17.9238H50.7399V18.9766H57.2203V19.9199H50.7399V21.0273H57.6305V22.0117H49.441V16.9395H57.357V17.9238ZM70.1245 22.1895H68.8257V9.91211H70.1245V22.1895ZM63.5757 10.8281C64.1818 10.8281 64.7241 11.0059 65.2026 11.3613C65.6811 11.7122 66.0548 12.2135 66.3237 12.8652C66.5972 13.5124 66.7339 14.2643 66.7339 15.1211C66.7339 15.9824 66.5972 16.7389 66.3237 17.3906C66.0548 18.0423 65.6811 18.5459 65.2026 18.9014C64.7241 19.2523 64.1818 19.4277 63.5757 19.4277C62.9604 19.4277 62.4136 19.2523 61.935 18.9014C61.4565 18.5459 61.0806 18.0446 60.8071 17.3975C60.5382 16.7458 60.4038 15.987 60.4038 15.1211C60.4038 14.2598 60.5382 13.5055 60.8071 12.8584C61.0806 12.2067 61.4565 11.7054 61.935 11.3545C62.4136 11.0036 62.9604 10.8281 63.5757 10.8281ZM63.5757 11.9902C63.1974 11.9902 62.8625 12.1178 62.5708 12.373C62.2837 12.6283 62.0604 12.9928 61.9009 13.4668C61.7414 13.9362 61.6616 14.4876 61.6616 15.1211C61.6616 15.7591 61.7414 16.3151 61.9009 16.7891C62.0604 17.263 62.2837 17.6276 62.5708 17.8828C62.8625 18.138 63.1974 18.2656 63.5757 18.2656C63.9494 18.2656 64.2798 18.138 64.5669 17.8828C64.854 17.6276 65.0773 17.263 65.2368 16.7891C65.3963 16.3151 65.4761 15.7591 65.4761 15.1211C65.4761 14.4876 65.3963 13.9362 65.2368 13.4668C65.0773 12.9928 64.854 12.6283 64.5669 12.373C64.2798 12.1178 63.9494 11.9902 63.5757 11.9902ZM79.6086 12.291C79.6086 12.6784 79.7066 13.0612 79.9026 13.4395C80.1031 13.8132 80.3879 14.1527 80.7571 14.458C81.1308 14.7588 81.5683 14.9935 82.0696 15.1621L81.509 16.1191C80.9257 15.9277 80.4221 15.6452 79.9983 15.2715C79.5744 14.8978 79.2463 14.4648 79.0139 13.9727C78.786 14.5104 78.4602 14.9867 78.0364 15.4014C77.6171 15.8161 77.1158 16.1328 76.5325 16.3516L75.9309 15.3672C76.4276 15.1758 76.8606 14.916 77.2297 14.5879C77.6034 14.2598 77.8882 13.8952 78.0842 13.4941C78.2802 13.0931 78.3782 12.6921 78.3782 12.291V12.25H76.2453V11.2246H78.3782V9.9668H79.6086V11.2246H81.7141V12.25H79.6086V12.291ZM86.3489 16.4336H85.1184V13.6719H83.7239V16.3379H82.4797V10.1445H83.7239V12.6191H85.1184V9.92578H86.3489V16.4336ZM86.3489 19.8926H79.4446V21.0273H86.8137V22.0117H78.1594V18.9355H85.0774V17.9238H78.1321V16.9395H86.3489V19.8926ZM98.3507 18.9355H97.0655V9.92578H98.3507V18.9355ZM98.6925 21.9023H90.2569V18.2246H91.5558V20.8496H98.6925V21.9023ZM94.4542 14.4238H90.1202V16.1875C91.3233 16.1829 92.3419 16.1533 93.1759 16.0986C94.0099 16.0394 94.8598 15.9323 95.7257 15.7773L95.8624 16.8438C94.9464 17.0078 94.0463 17.1172 93.1622 17.1719C92.2781 17.2266 91.1821 17.2539 89.8741 17.2539H88.8487V13.4395H93.169V11.8125H88.8214V10.7734H94.4542V14.4238ZM105.02 13.5215C105.02 14.2005 105.157 14.8727 105.431 15.5381C105.709 16.2035 106.091 16.7982 106.579 17.3223C107.071 17.8418 107.627 18.2337 108.247 18.498L107.536 19.5098C106.821 19.1953 106.187 18.7214 105.636 18.0879C105.084 17.4499 104.665 16.7184 104.378 15.8936C104.091 16.7731 103.669 17.5615 103.113 18.2588C102.562 18.9561 101.935 19.4779 101.233 19.8242L100.481 18.7988C101.083 18.5163 101.63 18.0947 102.122 17.5342C102.614 16.9691 102.999 16.3333 103.277 15.627C103.56 14.916 103.703 14.2142 103.708 13.5215V12.2227H100.905V11.1426H107.81V12.2227H105.02V13.5215ZM110.653 22.1621H109.354V9.91211H110.653V22.1621ZM126.057 13.5625H127.835V14.6562H126.057V18.9082H124.759V9.89844H126.057V13.5625ZM126.577 21.9023H118.292V17.9648H119.591V20.8496H126.577V21.9023ZM119.878 10.7461C120.488 10.7461 121.04 10.876 121.532 11.1357C122.029 11.3955 122.421 11.7578 122.708 12.2227C122.995 12.6829 123.141 13.207 123.145 13.7949C123.141 14.3783 122.995 14.9023 122.708 15.3672C122.421 15.8275 122.029 16.1898 121.532 16.4541C121.04 16.7139 120.488 16.8438 119.878 16.8438C119.267 16.8438 118.713 16.7139 118.217 16.4541C117.72 16.1898 117.328 15.8275 117.041 15.3672C116.758 14.9023 116.619 14.3783 116.624 13.7949C116.619 13.207 116.758 12.6829 117.041 12.2227C117.328 11.7578 117.72 11.3955 118.217 11.1357C118.713 10.876 119.267 10.7461 119.878 10.7461ZM119.878 11.8809C119.504 11.8809 119.164 11.9629 118.859 12.127C118.558 12.2865 118.321 12.512 118.148 12.8037C117.975 13.0954 117.891 13.4258 117.895 13.7949C117.891 14.1641 117.975 14.4945 118.148 14.7861C118.321 15.0778 118.558 15.3057 118.859 15.4697C119.164 15.6292 119.504 15.709 119.878 15.709C120.251 15.709 120.591 15.6292 120.896 15.4697C121.202 15.3057 121.441 15.0778 121.614 14.7861C121.787 14.4945 121.874 14.1641 121.874 13.7949C121.874 13.4258 121.787 13.0954 121.614 12.8037C121.441 12.512 121.202 12.2865 120.896 12.127C120.591 11.9629 120.251 11.8809 119.878 11.8809ZM138.36 12.7422H140.151V13.8086H138.36V16.6113H137.061V9.87109H138.36V12.7422ZM138.36 20.0293H131.743V21.0547H138.784V22.0391H130.471V19.1133H137.075V18.1562H130.444V17.1855H138.36V20.0293ZM136.049 11.9766H128.749V10.9512H131.756V9.80273H133.055V10.9512H136.049V11.9766ZM132.399 12.4414C132.991 12.4414 133.511 12.5234 133.958 12.6875C134.409 12.847 134.755 13.0794 134.997 13.3848C135.243 13.6855 135.366 14.041 135.366 14.4512C135.366 14.8613 135.243 15.2168 134.997 15.5176C134.755 15.8184 134.411 16.0485 133.964 16.208C133.518 16.3675 132.996 16.4473 132.399 16.4473C131.797 16.4473 131.271 16.3675 130.82 16.208C130.373 16.0485 130.027 15.8184 129.781 15.5176C129.539 15.2168 129.419 14.8613 129.419 14.4512C129.419 14.041 129.542 13.6855 129.788 13.3848C130.034 13.0794 130.38 12.847 130.827 12.6875C131.278 12.5234 131.802 12.4414 132.399 12.4414ZM132.399 13.3711C132.053 13.3711 131.747 13.4167 131.483 13.5078C131.223 13.5944 131.023 13.7197 130.881 13.8838C130.74 14.0433 130.672 14.2324 130.676 14.4512C130.672 14.7747 130.824 15.0322 131.134 15.2236C131.449 15.4105 131.87 15.5039 132.399 15.5039C132.928 15.5039 133.349 15.4105 133.664 15.2236C133.983 15.0368 134.144 14.7793 134.149 14.4512C134.144 14.2324 134.069 14.0433 133.923 13.8838C133.778 13.7197 133.573 13.5944 133.308 13.5078C133.048 13.4167 132.745 13.3711 132.399 13.3711ZM146.041 15.627H142.678V18.2109C143.407 18.2064 144.093 18.1836 144.736 18.1426C145.383 18.097 146.051 18.0195 146.739 17.9102L146.848 18.9492C146.069 19.0859 145.335 19.1771 144.647 19.2227C143.959 19.2682 143.161 19.2956 142.254 19.3047H141.42V14.5605H144.784V12.2637H141.407V11.1973H146.041V15.627ZM151.551 22.1621H150.307V15.7363H148.721V21.5332H147.532V10.1582H148.721V14.6836H150.307V9.91211H151.551V22.1621ZM155.35 18.0605C155.355 17.4863 155.411 17.0215 155.521 16.666C155.635 16.306 155.792 16.0189 155.993 15.8047C156.193 15.5859 156.462 15.3717 156.799 15.1621C157.474 14.7428 157.811 14.2188 157.811 13.5898C157.811 13.3118 157.745 13.068 157.613 12.8584C157.485 12.6442 157.307 12.4801 157.079 12.3662C156.856 12.2523 156.608 12.1953 156.334 12.1953C156.079 12.1953 155.84 12.25 155.617 12.3594C155.393 12.4642 155.209 12.626 155.063 12.8447C154.922 13.0635 154.84 13.3346 154.817 13.6582H153.34C153.358 13.0977 153.5 12.6146 153.764 12.209C154.033 11.7988 154.391 11.4889 154.837 11.2793C155.284 11.0697 155.783 10.9648 156.334 10.9648C156.918 10.9648 157.433 11.0765 157.879 11.2998C158.33 11.5186 158.679 11.8262 158.925 12.2227C159.176 12.6191 159.301 13.0749 159.301 13.5898C159.301 14.1185 159.183 14.5765 158.946 14.9639C158.709 15.3467 158.362 15.6771 157.907 15.9551C157.624 16.1237 157.401 16.2992 157.237 16.4814C157.077 16.6637 156.956 16.8802 156.874 17.1309C156.797 17.3815 156.754 17.6914 156.744 18.0605V18.1426H155.35V18.0605ZM156.102 21.0957C155.929 21.0957 155.765 21.0524 155.61 20.9658C155.459 20.8792 155.341 20.7607 155.254 20.6104C155.168 20.46 155.127 20.2982 155.131 20.125C155.127 19.9518 155.168 19.79 155.254 19.6396C155.341 19.4893 155.459 19.3708 155.61 19.2842C155.765 19.1976 155.929 19.1543 156.102 19.1543C156.271 19.1543 156.43 19.1976 156.58 19.2842C156.731 19.3708 156.849 19.4893 156.936 19.6396C157.027 19.79 157.073 19.9518 157.073 20.125C157.073 20.2982 157.027 20.46 156.936 20.6104C156.849 20.7607 156.731 20.8792 156.58 20.9658C156.43 21.0524 156.271 21.0957 156.102 21.0957ZM162.539 18.0605C162.544 17.4863 162.601 17.0215 162.71 16.666C162.824 16.306 162.981 16.0189 163.182 15.8047C163.382 15.5859 163.651 15.3717 163.988 15.1621C164.663 14.7428 165 14.2188 165 13.5898C165 13.3118 164.934 13.068 164.802 12.8584C164.674 12.6442 164.497 12.4801 164.269 12.3662C164.045 12.2523 163.797 12.1953 163.524 12.1953C163.268 12.1953 163.029 12.25 162.806 12.3594C162.583 12.4642 162.398 12.626 162.252 12.8447C162.111 13.0635 162.029 13.3346 162.006 13.6582H160.529C160.548 13.0977 160.689 12.6146 160.953 12.209C161.222 11.7988 161.58 11.4889 162.027 11.2793C162.473 11.0697 162.972 10.9648 163.524 10.9648C164.107 10.9648 164.622 11.0765 165.069 11.2998C165.52 11.5186 165.868 11.8262 166.114 12.2227C166.365 12.6191 166.49 13.0749 166.49 13.5898C166.49 14.1185 166.372 14.5765 166.135 14.9639C165.898 15.3467 165.552 15.6771 165.096 15.9551C164.813 16.1237 164.59 16.2992 164.426 16.4814C164.266 16.6637 164.146 16.8802 164.064 17.1309C163.986 17.3815 163.943 17.6914 163.934 18.0605V18.1426H162.539V18.0605ZM163.291 21.0957C163.118 21.0957 162.954 21.0524 162.799 20.9658C162.649 20.8792 162.53 20.7607 162.444 20.6104C162.357 20.46 162.316 20.2982 162.321 20.125C162.316 19.9518 162.357 19.79 162.444 19.6396C162.53 19.4893 162.649 19.3708 162.799 19.2842C162.954 19.1976 163.118 19.1543 163.291 19.1543C163.46 19.1543 163.619 19.1976 163.77 19.2842C163.92 19.3708 164.039 19.4893 164.125 19.6396C164.216 19.79 164.262 19.9518 164.262 20.125C164.262 20.2982 164.216 20.46 164.125 20.6104C164.039 20.7607 163.92 20.8792 163.77 20.9658C163.619 21.0524 163.46 21.0957 163.291 21.0957Z" fill="white"/>
<path d="M149.128 40.9014C148.334 41.7771 146.958 41.7771 146.164 40.9014L138.341 32.2706C137.176 30.9851 138.088 28.9274 139.823 28.9274L155.47 28.9274C157.204 28.9274 158.117 30.9851 156.951 32.2706L149.128 40.9014Z" fill="#839DF1"/>
<rect x="45.7312" y="228.269" width="205.906" height="26.5684" rx="13.2842" fill="#B1C1FF"/>
<rect x="191.876" y="241.652" width="119.522" height="26.5684" rx="13.2842" fill="#B1C1FF"/>
<path d="M279.006 209.788C279.006 194.229 266.37 181.593 250.811 181.593H89.9207V237.975H250.819C266.378 237.975 279.013 225.339 279.013 209.78L279.006 209.788Z" fill="url(#paint0_linear_1083_5170)"/>
<path d="M105.399 71.0176C123.423 71.0176 138.778 80.7802 144.61 94.4509C150.443 80.7802 165.798 71.0176 183.821 71.0176C206.861 71.0176 225.541 86.9703 225.541 106.656V237.982H74.3834C68.4704 237.982 63.6803 233.891 63.6803 228.839V106.656C63.6803 86.9776 82.3598 71.0176 105.399 71.0176Z" fill="url(#paint1_linear_1083_5170)"/>
<path d="M183.596 169.979C174.926 169.979 167.898 162.951 167.898 154.281C167.898 145.612 174.926 138.583 183.596 138.583C192.265 138.583 199.293 145.612 199.293 154.281C199.293 162.951 192.265 169.979 183.596 169.979Z" fill="#A5BDF9"/>
<path d="M105.567 169.934C96.8973 169.934 89.8693 162.906 89.8693 154.237C89.8693 145.567 96.8973 138.539 105.567 138.539C114.236 138.539 121.264 145.567 121.264 154.237C121.264 162.906 114.236 169.934 105.567 169.934Z" fill="#A5BDF9"/>
<path d="M164.464 162.862C153.08 162.862 143.852 152.005 143.852 138.612C143.852 125.219 153.08 114.362 164.464 114.362C175.847 114.362 185.076 125.219 185.076 138.612C185.076 152.005 175.847 162.862 164.464 162.862Z" fill="white"/>
<path d="M122.934 163.168C111.55 163.168 102.322 152.311 102.322 138.918C102.322 125.526 111.55 114.668 122.934 114.668C134.317 114.668 143.546 125.526 143.546 138.918C143.546 152.311 134.317 163.168 122.934 163.168Z" fill="white"/>
<path d="M163.203 156.724C155.754 156.724 149.715 149.621 149.715 140.858C149.715 132.096 155.754 124.993 163.203 124.993C170.653 124.993 176.691 132.096 176.691 140.858C176.691 149.621 170.653 156.724 163.203 156.724Z" fill="black"/>
<path d="M124.561 156.724C117.111 156.724 111.072 149.621 111.072 140.858C111.072 132.096 117.111 124.993 124.561 124.993C132.01 124.993 138.049 132.096 138.049 140.858C138.049 149.621 132.01 156.724 124.561 156.724Z" fill="black"/>
<path d="M137.86 155.864C136.029 152.04 136.749 147.884 139.469 146.581C142.19 145.278 145.879 147.322 147.711 151.146C149.542 154.971 148.822 159.127 146.102 160.43C143.381 161.732 139.692 159.688 137.86 155.864Z" fill="#FFBE6A"/>
<path d="M169.335 144.416C171.07 144.416 172.273 146.165 171.639 147.777C170.283 151.24 166.892 153.697 162.919 153.697C158.945 153.697 155.562 151.24 154.199 147.777C153.565 146.158 154.768 144.416 156.503 144.416H169.328H169.335Z" fill="#8FAEFF"/>
<path d="M130.692 144.416C132.427 144.416 133.63 146.165 132.996 147.777C131.64 151.24 128.25 153.697 124.276 153.697C120.302 153.697 116.919 151.24 115.556 147.777C114.922 146.158 116.125 144.416 117.86 144.416H130.685H130.692Z" fill="#8FAEFF"/>
<path d="M63.2744 98.5108C63.5138 95.325 66.1685 92.8623 69.3633 92.8623H219.683C222.902 92.8623 225.569 95.3622 225.776 98.5751L226.752 113.695C226.979 117.214 224.186 120.194 220.658 120.194H68.2272C64.6747 120.194 61.8722 117.173 62.1384 113.63L63.2744 98.5108Z" fill="white"/>
<path d="M235.307 90.3312L223.761 100.846C223.22 101.338 222.911 102.036 222.911 102.768C222.911 104.506 224.582 105.754 226.249 105.262L240.681 100.998C242.775 100.379 243.866 98.0776 243.02 96.0646L241.151 91.62C240.171 89.2879 237.178 88.6279 235.307 90.3312Z" fill="white"/>
<path d="M236.494 105.299L224.17 104.787C223.568 104.762 222.987 105.022 222.581 105.498C221.666 106.573 221.961 108.296 223.174 108.964L234.031 114.94C235.961 116.002 238.307 114.972 238.979 112.768L239.735 110.291C240.466 107.893 238.846 105.397 236.494 105.299Z" fill="white"/>
<path d="M122.717 113.718C133.887 113.718 143.132 123.41 144.709 136.036C144.931 137.811 143.086 138.998 141.467 138.238L109.41 123.191C107.976 122.518 107.551 120.672 108.696 119.576C112.521 115.914 117.401 113.718 122.717 113.718Z" fill="#839DF1"/>
<path d="M165.019 113.718C153.85 113.718 144.605 123.41 143.027 136.036C142.806 137.811 144.65 138.998 146.27 138.238L178.327 123.191C179.76 122.518 180.185 120.672 179.041 119.576C175.216 115.914 170.336 113.718 165.019 113.718Z" fill="#839DF1"/>
<path d="M29.9404 147.289C29.7524 147.133 29.5297 147.024 29.2909 146.972C29.0521 146.919 28.8042 146.926 28.5682 146.989C28.3322 147.053 28.115 147.172 27.9349 147.338C27.7548 147.503 27.617 147.709 27.5333 147.939L23.3403 159.452L18.7357 154.99C18.5811 154.84 18.3964 154.725 18.1939 154.652C17.9914 154.578 17.7756 154.548 17.5608 154.564C17.3459 154.58 17.137 154.642 16.9476 154.745C16.7582 154.847 16.5927 154.989 16.462 155.16C12.3339 160.569 10.2374 166.01 10.2374 171.331C10.2374 175.78 12.0044 180.046 15.1498 183.191C18.2951 186.336 22.561 188.103 27.0092 188.103C31.4573 188.103 35.7233 186.336 38.8686 183.191C42.0139 180.046 43.7809 175.78 43.7809 171.331C43.7809 160.001 34.1009 150.748 29.9404 147.289Z" fill="#F04452"/>
<path d="M35.928 180.909C37.788 179.049 39.0336 176.664 39.4971 174.075H39.4993C39.5787 173.608 39.4691 173.128 39.1947 172.741C38.9202 172.354 38.5034 172.092 38.0358 172.013C37.5682 171.934 37.0883 172.043 36.7015 172.318C36.3148 172.592 36.0529 173.009 35.9735 173.477C35.3456 177.186 32.2041 180.327 28.5017 180.951C28.0595 181.025 27.6613 181.262 27.386 181.616C27.1108 181.97 26.9786 182.415 27.0158 182.861C27.0529 183.308 27.2566 183.725 27.5864 184.029C27.9163 184.332 28.3483 184.501 28.7967 184.501C28.8962 184.501 28.9957 184.493 29.0938 184.476C31.6829 184.013 34.068 182.768 35.928 180.909Z" fill="#FFD4D6"/>
<path d="M284.698 57.7075C284.554 57.5873 284.382 57.5036 284.199 57.4635C284.015 57.4234 283.824 57.4281 283.643 57.4771C283.461 57.5261 283.294 57.618 283.156 57.7451C283.017 57.8722 282.911 58.0308 282.847 58.2074L279.621 67.0639L276.079 63.6319C275.96 63.5165 275.818 63.4276 275.662 63.3711C275.507 63.3147 275.341 63.2918 275.175 63.3042C275.01 63.3165 274.849 63.3637 274.704 63.4427C274.558 63.5216 274.431 63.6306 274.33 63.7623C271.155 67.923 269.542 72.1086 269.542 76.2019C269.542 79.6235 270.901 82.905 273.321 85.3245C275.74 87.7439 279.022 89.1032 282.443 89.1032C285.865 89.1032 289.147 87.7439 291.566 85.3245C293.985 82.905 295.345 79.6235 295.345 76.2019C295.345 67.4861 287.899 60.3684 284.698 57.7075Z" fill="#F04452"/>
<path d="M289.304 83.5688C290.735 82.1384 291.693 80.3039 292.049 78.3124H292.051C292.112 77.9527 292.028 77.5835 291.817 77.286C291.606 76.9885 291.285 76.7871 290.925 76.726C290.566 76.6649 290.196 76.7492 289.899 76.9603C289.601 77.1714 289.4 77.4921 289.339 77.8517C288.856 80.7049 286.439 83.1214 283.591 83.601C283.251 83.658 282.945 83.8407 282.733 84.113C282.522 84.3853 282.42 84.7272 282.448 85.0709C282.477 85.4146 282.634 85.7351 282.887 85.9687C283.141 86.2023 283.473 86.332 283.818 86.3321C283.895 86.3324 283.971 86.3261 284.047 86.3132C286.039 85.957 287.873 84.9993 289.304 83.5688Z" fill="#FFD4D6"/>
<rect x="262.955" y="147.915" width="18.1279" height="19.3663" rx="1.63569" transform="rotate(90 262.955 147.915)" fill="#2C5BE7"/>
<circle cx="251.637" cy="207.33" r="50.7053" fill="#839DF1"/>
<circle cx="251.637" cy="207.331" r="41.2891" fill="white"/>
<rect x="250.001" y="169.738" width="3.27138" height="6.54275" rx="1.63569" fill="#CED8F8"/>
<rect x="250.001" y="238.381" width="3.27138" height="6.54275" rx="1.63569" fill="#CED8F8"/>
<rect x="289.23" y="205.695" width="3.27138" height="6.54275" rx="1.63569" transform="rotate(90 289.23 205.695)" fill="#CED8F8"/>
<rect x="220.587" y="205.695" width="3.27138" height="6.54275" rx="1.63569" transform="rotate(90 220.587 205.695)" fill="#CED8F8"/>
<rect x="283.375" y="187.118" width="3.27138" height="6.54275" rx="1.63569" transform="rotate(60 283.375 187.118)" fill="#CED8F8"/>
<rect x="223.929" y="221.439" width="3.27138" height="6.54275" rx="1.63569" transform="rotate(60 223.929 221.439)" fill="#CED8F8"/>
<rect x="269.017" y="173.957" width="3.27138" height="6.54275" rx="1.63569" transform="rotate(30 269.017 173.957)" fill="#CED8F8"/>
<rect x="234.695" y="233.403" width="3.27138" height="6.54275" rx="1.63569" transform="rotate(30 234.695 233.403)" fill="#CED8F8"/>
<rect x="231.424" y="175.592" width="3.27138" height="6.54275" rx="1.63569" transform="rotate(-30 231.424 175.592)" fill="#CED8F8"/>
<rect x="265.746" y="235.039" width="3.27138" height="6.54275" rx="1.63569" transform="rotate(-30 265.746 235.039)" fill="#CED8F8"/>
<rect x="218.263" y="189.951" width="3.27138" height="6.54275" rx="1.63569" transform="rotate(-60 218.263 189.951)" fill="#CED8F8"/>
<rect x="277.71" y="224.273" width="3.27138" height="6.54275" rx="1.63569" transform="rotate(-60 277.71 224.273)" fill="#CED8F8"/>
<path d="M269.364 190.204L252.263 207.305" stroke="#839DF1" stroke-width="2.45353" stroke-linecap="round"/>
<circle cx="251.637" cy="207.331" r="4.24017" fill="#557AF3"/>
<rect x="233.06" y="139.72" width="40.4254" height="12.2181" rx="6.10907" fill="#B1C1FF"/>
<defs>
<linearGradient id="paint0_linear_1083_5170" x1="89.928" y1="209.795" x2="279.006" y2="209.795" gradientUnits="userSpaceOnUse">
<stop stop-color="#E1E0FF"/>
<stop offset="1" stop-color="#8FAEFF"/>
</linearGradient>
<linearGradient id="paint1_linear_1083_5170" x1="144.61" y1="237.982" x2="144.61" y2="71.0176" gradientUnits="userSpaceOnUse">
<stop stop-color="#E1E0FF"/>
<stop offset="1" stop-color="#8FAEFF"/>
</linearGradient>
</defs>
</svg>
