<svg width="45" height="44" viewBox="0 0 45 44" fill="none" xmlns="http://www.w3.org/2000/svg">
<mask id="mask0_1031_24708" style="mask-type:luminance" maskUnits="userSpaceOnUse" x="2" y="8" width="41" height="32">
<path d="M42.5981 8.25195H2.61865V39.25H42.5981V8.25195Z" fill="white"/>
</mask>
<g mask="url(#mask0_1031_24708)">
<path d="M42.5977 34.0197C42.5977 31.1322 40.2492 28.7837 37.3617 28.7837H7.49121V39.2502H37.3672C40.2547 39.2502 42.6032 36.9017 42.6032 34.0142L42.5977 34.0197Z" fill="url(#paint0_linear_1031_24708)"/>
<path d="M34.6672 10.21C34.3152 9.76995 33.7597 9.53345 33.1987 9.54995C30.5257 9.63245 29.2937 9.33545 28.7822 9.13745C28.6887 9.09345 28.5952 9.04945 28.5017 9.00545C28.4687 8.98345 28.4577 8.97245 28.4577 8.97245V8.98895C27.4017 8.52145 26.2027 8.25745 24.9267 8.25745C21.5827 8.25745 18.7282 10.0725 17.6447 12.608C16.5612 10.067 13.7122 8.25195 10.3627 8.25195C6.08915 8.25195 2.61865 11.2165 2.61865 14.8685V37.556C2.61865 38.4965 3.50965 39.2555 4.60415 39.2555H32.6707V14.8685C32.6707 14.8355 32.6652 14.797 32.6652 14.764C36.1522 13.422 35.2667 10.958 34.6672 10.21Z" fill="url(#paint1_linear_1031_24708)"/>
<path d="M24.7887 26.6276C23.1164 26.6276 21.7637 25.8898 21.7637 24.9776C21.7637 24.0655 23.1164 23.3276 24.7887 23.3276C26.461 23.3276 27.8137 24.0655 27.8137 24.9776C27.8137 25.8898 26.461 26.6276 24.7887 26.6276Z" fill="#FFD84A"/>
<path d="M10.2139 26.6276C8.69358 26.6276 7.46387 25.8898 7.46387 24.9776C7.46387 24.0655 8.69358 23.3276 10.2139 23.3276C11.7342 23.3276 12.9639 24.0655 12.9639 24.9776C12.9639 25.8898 11.7342 26.6276 10.2139 26.6276Z" fill="#FFD84A"/>
<path d="M21.3295 25.302C19.2175 25.302 17.5015 23.2835 17.5015 20.7975C17.5015 18.3115 19.2175 16.293 21.3295 16.293C23.4415 16.293 25.1575 18.3115 25.1575 20.7975C25.1575 23.2835 23.4415 25.302 21.3295 25.302Z" fill="white"/>
<path d="M13.6185 25.3625C11.5065 25.3625 9.79053 23.344 9.79053 20.858C9.79053 18.372 11.5065 16.3535 13.6185 16.3535C15.7305 16.3535 17.4465 18.372 17.4465 20.858C17.4465 23.344 15.7305 25.3625 13.6185 25.3625Z" fill="white"/>
<path d="M21.0982 24.1636C19.7177 24.1636 18.5957 22.8436 18.5957 21.2156C18.5957 19.5876 19.7177 18.2676 21.0982 18.2676C22.4787 18.2676 23.6007 19.5876 23.6007 21.2156C23.6007 22.8436 22.4787 24.1636 21.0982 24.1636Z" fill="#040000"/>
<path d="M13.921 24.1636C12.5405 24.1636 11.4185 22.8436 11.4185 21.2156C11.4185 19.5876 12.5405 18.2676 13.921 18.2676C15.3015 18.2676 16.4235 19.5876 16.4235 21.2156C16.4235 22.8436 15.3015 24.1636 13.921 24.1636Z" fill="#040000"/>
<path d="M16.3905 24.0044C16.0495 23.2949 16.1815 22.5249 16.6875 22.2829C17.1935 22.0409 17.8755 22.4204 18.2165 23.1299C18.5575 23.8394 18.4255 24.6094 17.9195 24.8514C17.4135 25.0934 16.7315 24.7139 16.3905 24.0044Z" fill="#FFA635"/>
<path d="M22.237 21.8809C22.5615 21.8809 22.7815 22.2054 22.666 22.5024C22.413 23.1459 21.786 23.6024 21.049 23.6024C20.312 23.6024 19.685 23.1459 19.432 22.5024C19.3165 22.1999 19.5365 21.8809 19.861 21.8809H22.2425H22.237Z" fill="#F9E496"/>
<path d="M15.0593 21.8809C15.3838 21.8809 15.6038 22.2054 15.4883 22.5024C15.2353 23.1459 14.6083 23.6024 13.8713 23.6024C13.1343 23.6024 12.5073 23.1459 12.2543 22.5024C12.1388 22.1999 12.3588 21.8809 12.6833 21.8809H15.0648H15.0593Z" fill="#F9E496"/>
</g>
<defs>
<linearGradient id="paint0_linear_1031_24708" x1="7.49121" y1="34.0142" x2="42.5977" y2="34.0142" gradientUnits="userSpaceOnUse">
<stop offset="0.504808" stop-color="#FFF3A6"/>
<stop offset="1" stop-color="#FFDD60"/>
</linearGradient>
<linearGradient id="paint1_linear_1031_24708" x1="18.9262" y1="8.25195" x2="18.9262" y2="39.25" gradientUnits="userSpaceOnUse">
<stop stop-color="#FFF3A6"/>
<stop offset="1" stop-color="#FFDD60"/>
</linearGradient>
</defs>
</svg>
