<svg width="127" height="121" viewBox="0 0 127 121" fill="none" xmlns="http://www.w3.org/2000/svg">
<rect x="0.392578" y="100.753" width="126.084" height="16.2689" rx="8.13443" fill="#B1C1FF"/>
<mask id="mask0_1790_14660" style="mask-type:luminance" maskUnits="userSpaceOnUse" x="9" y="21" width="110" height="85">
<path d="M118.911 21.1816H9.87598V105.722H118.911V21.1816Z" fill="white"/>
</mask>
<g mask="url(#mask0_1790_14660)">
<path d="M118.91 91.4577C118.91 83.5827 112.505 77.1777 104.63 77.1777H23.165V105.723H104.645C112.52 105.723 118.925 99.3177 118.925 91.4427L118.91 91.4577Z" fill="url(#paint0_linear_1790_14660)"/>
<path d="M31.0106 21.183C40.1306 21.183 47.9156 26.133 50.8706 33.048C53.8256 26.133 61.5956 21.183 70.7306 21.183C82.4006 21.183 91.8506 29.268 91.8506 39.228V105.723H15.3056C12.3056 105.723 9.89062 103.653 9.89062 101.088V39.213C9.89062 29.253 19.3556 21.168 31.0106 21.168V21.183Z" fill="url(#paint1_linear_1790_14660)"/>
<path d="M70.5955 71.2984C66.2005 71.2984 62.6455 67.7434 62.6455 63.3484C62.6455 58.9534 66.2005 55.3984 70.5955 55.3984C74.9905 55.3984 78.5455 58.9534 78.5455 63.3484C78.5455 67.7434 74.9905 71.2984 70.5955 71.2984Z" fill="#FF9946"/>
<path d="M31.0857 71.2672C26.6907 71.2672 23.1357 67.7122 23.1357 63.3172C23.1357 58.9222 26.6907 55.3672 31.0857 55.3672C35.4807 55.3672 39.0358 58.9222 39.0358 63.3172C39.0358 67.7122 35.4807 71.2672 31.0857 71.2672Z" fill="#FF9946"/>
<path d="M60.9205 67.6969C55.1605 67.6969 50.4805 62.192 50.4805 55.412C50.4805 48.632 55.1605 43.127 60.9205 43.127C66.6805 43.127 71.3604 48.632 71.3604 55.412C71.3604 62.192 66.6805 67.6969 60.9205 67.6969Z" fill="white"/>
<path d="M39.8912 67.8473C34.1312 67.8473 29.4512 62.3423 29.4512 55.5623C29.4512 48.7823 34.1312 43.2773 39.8912 43.2773C45.6512 43.2773 50.3312 48.7823 50.3312 55.5623C50.3312 62.3423 45.6512 67.8473 39.8912 67.8473Z" fill="white"/>
<path d="M60.2762 64.5771C56.5112 64.5771 53.4512 60.9771 53.4512 56.5371C53.4512 52.0971 56.5112 48.4971 60.2762 48.4971C64.0412 48.4971 67.1012 52.0971 67.1012 56.5371C67.1012 60.9771 64.0412 64.5771 60.2762 64.5771Z" fill="#040000"/>
<path d="M40.701 64.5771C36.936 64.5771 33.876 60.9771 33.876 56.5371C33.876 52.0971 36.936 48.4971 40.701 48.4971C44.466 48.4971 47.526 52.0971 47.526 56.5371C47.526 60.9771 44.466 64.5771 40.701 64.5771Z" fill="#040000"/>
<path d="M47.4518 64.1431C46.5218 62.2081 46.8818 60.1081 48.2618 59.4481C49.6418 58.7881 51.5018 59.8231 52.4318 61.7581C53.3618 63.6931 53.0018 65.7931 51.6218 66.4531C50.2418 67.1131 48.3818 66.0781 47.4518 64.1431Z" fill="#7FC665"/>
<ellipse cx="40.775" cy="54.3057" rx="4.02209" ry="3.51073" fill="white"/>
<ellipse cx="60.3698" cy="54.3057" rx="4.02209" ry="3.51073" fill="white"/>
<ellipse cx="39.5555" cy="60.5543" rx="2.19226" ry="1.75268" transform="rotate(11.478 39.5555 60.5543)" fill="#FFE4A1"/>
<ellipse cx="59.1532" cy="60.5543" rx="2.19226" ry="1.75268" transform="rotate(11.478 59.1532 60.5543)" fill="#FFE4A1"/>
</g>
<defs>
<linearGradient id="paint0_linear_1790_14660" x1="23.165" y1="91.4577" x2="118.925" y2="91.4577" gradientUnits="userSpaceOnUse">
<stop stop-color="#FFE89B"/>
<stop offset="1" stop-color="#FFA060"/>
</linearGradient>
<linearGradient id="paint1_linear_1790_14660" x1="50.8556" y1="105.738" x2="50.8556" y2="21.183" gradientUnits="userSpaceOnUse">
<stop stop-color="#FF9046"/>
<stop offset="1" stop-color="#FFE89B"/>
</linearGradient>
</defs>
</svg>
