<svg width="174" height="43" viewBox="0 0 174 43" fill="none" xmlns="http://www.w3.org/2000/svg">
<rect x="0.25" width="173" height="32" rx="16" fill="#839DF1"/>
<path d="M24.1445 14.7246V15.791H22.2441V22.1484H20.9453V9.91211H22.2441V14.7246H24.1445ZM14.4512 11.1016V17.9922C16.1602 17.9922 17.9443 17.8486 19.8926 17.4453L20.043 18.5391C17.9512 18.9629 16.0098 19.0723 14.1777 19.0723H13.166V11.1016H14.4512ZM34.6288 9.92578V12.9199H36.4198V14H34.6288V17.2949H33.33V9.92578H34.6288ZM31.0741 10.6641V14.0957H26.8085V15.5859C28.9344 15.5791 30.4384 15.5039 32.2225 15.2031L32.3593 16.2559C30.4589 16.5977 28.8456 16.666 26.494 16.6523H25.5096V13.0977H29.8026V11.7168H25.496V10.6641H31.0741ZM30.6639 17.623C33.1796 17.623 34.7382 18.4707 34.7382 19.8926C34.7382 21.3145 33.1796 22.1348 30.6639 22.1348C28.1073 22.1348 26.5487 21.3145 26.5487 19.8926C26.5487 18.4707 28.1073 17.623 30.6639 17.623ZM30.6639 18.6484C28.8729 18.6484 27.8202 19.0996 27.8202 19.8926C27.8202 20.6855 28.8729 21.1504 30.6639 21.1367C32.4413 21.1504 33.4667 20.6855 33.4667 19.8926C33.4667 19.0996 32.4413 18.6484 30.6639 18.6484ZM50.5524 9.91211V12.6738H52.3297V13.7266H50.5524V16.4199H49.2535V9.91211H50.5524ZM47.2438 10.7598C47.2438 13.8906 45.1246 15.873 41.4879 16.6523L40.941 15.5996C44.0309 14.9775 45.6305 13.5352 45.8082 11.7988H41.4879V10.7598H47.2438ZM50.607 16.9395V17.9238H43.9899V18.9766H50.4703V19.9199H43.9899V21.0273H50.8805V22.0117H42.691V16.9395H50.607ZM63.3745 9.91211V22.1895H62.0757V9.91211H63.3745ZM56.8257 10.8281C58.644 10.8281 59.9839 12.4961 59.9839 15.1211C59.9839 17.7598 58.644 19.4277 56.8257 19.4277C54.98 19.4277 53.6538 17.7598 53.6538 15.1211C53.6538 12.4961 54.98 10.8281 56.8257 10.8281ZM56.8257 11.9902C55.6909 11.9902 54.9116 13.1934 54.9116 15.1211C54.9116 17.0625 55.6909 18.2656 56.8257 18.2656C57.9468 18.2656 58.7261 17.0625 58.7261 15.1211C58.7261 13.1934 57.9468 11.9902 56.8257 11.9902ZM72.8586 12.291C72.8586 13.4531 73.7883 14.6426 75.3196 15.1621L74.759 16.1191C73.5627 15.7227 72.7151 14.9297 72.2707 13.9727C71.8196 15.0117 70.9787 15.9004 69.7825 16.3516L69.1809 15.3672C70.7121 14.7793 71.6282 13.4941 71.6282 12.291V12.25H69.4953V11.2246H71.6282V9.9668H72.8586V11.2246H74.9641V12.25H72.8586V12.291ZM79.5989 9.92578V16.4336H78.3684V13.6719H76.9739V16.3379H75.7297V10.1445H76.9739V12.6191H78.3684V9.92578H79.5989ZM79.5989 16.9395V19.8926H72.6946V21.0273H80.0637V22.0117H71.4094V18.9355H78.3274V17.9238H71.3821V16.9395H79.5989ZM91.6007 9.92578V18.9355H90.3155V9.92578H91.6007ZM91.9425 20.8496V21.9023H83.5069V18.2246H84.8058V20.8496H91.9425ZM87.7042 10.7734V14.4238H83.3702V16.1875C85.6261 16.1807 87.1573 16.1055 88.9757 15.7773L89.1124 16.8438C87.1847 17.1855 85.5577 17.2539 83.1241 17.2539H82.0987V13.4395H86.419V11.8125H82.0714V10.7734H87.7042ZM98.2705 13.5215C98.2705 15.5723 99.6103 17.6914 101.497 18.498L100.786 19.5098C99.3437 18.874 98.1953 17.5273 97.6279 15.8867C97.0605 17.6367 95.9053 19.127 94.4834 19.8242L93.7314 18.7988C95.5771 17.9375 96.9443 15.627 96.958 13.5215V12.2227H94.1553V11.1426H101.06V12.2227H98.2705V13.5215ZM103.903 9.91211V22.1621H102.604V9.91211H103.903ZM119.307 9.89844V13.5625H121.085V14.6562H119.307V18.9082H118.009V9.89844H119.307ZM119.827 20.8496V21.9023H111.542V17.9648H112.841V20.8496H119.827ZM113.128 10.7461C114.973 10.7461 116.382 12.0039 116.395 13.7949C116.382 15.5723 114.973 16.8438 113.128 16.8438C111.282 16.8438 109.86 15.5723 109.874 13.7949C109.86 12.0039 111.282 10.7461 113.128 10.7461ZM113.128 11.8809C112.007 11.8809 111.132 12.6602 111.145 13.7949C111.132 14.9297 112.007 15.709 113.128 15.709C114.262 15.709 115.124 14.9297 115.124 13.7949C115.124 12.6602 114.262 11.8809 113.128 11.8809ZM131.61 9.87109V12.7422H133.401V13.8086H131.61V16.6113H130.311V9.87109H131.61ZM131.61 17.1855V20.0293H124.993V21.0547H132.034V22.0391H123.721V19.1133H130.325V18.1562H123.694V17.1855H131.61ZM129.299 10.9512V11.9766H121.999V10.9512H125.006V9.80273H126.305V10.9512H129.299ZM125.649 12.4414C127.44 12.4414 128.616 13.207 128.616 14.4512C128.616 15.6953 127.44 16.4473 125.649 16.4473C123.844 16.4473 122.669 15.6953 122.669 14.4512C122.669 13.207 123.844 12.4414 125.649 12.4414ZM125.649 13.3711C124.596 13.3711 123.913 13.7949 123.926 14.4512C123.913 15.1074 124.596 15.5039 125.649 15.5039C126.702 15.5039 127.385 15.1074 127.399 14.4512C127.385 13.7949 126.702 13.3711 125.649 13.3711ZM139.291 11.1973V15.627H135.928V18.2109C137.261 18.2041 138.519 18.1426 139.989 17.9102L140.098 18.9492C138.389 19.25 137.036 19.291 135.504 19.3047H134.67V14.5605H138.034V12.2637H134.657V11.1973H139.291ZM144.801 9.91211V22.1621H143.557V15.7363H141.971V21.5332H140.782V10.1582H141.971V14.6836H143.557V9.91211H144.801ZM148.6 18.0605C148.614 16.2695 149.147 15.7227 150.049 15.1621C150.623 14.8066 151.061 14.3145 151.061 13.5898C151.061 12.7285 150.405 12.1953 149.584 12.1953C148.846 12.1953 148.135 12.6465 148.067 13.6582H146.59C146.645 11.9219 147.957 10.9648 149.584 10.9648C151.362 10.9648 152.551 12.0312 152.551 13.5898C152.551 14.6836 152.032 15.4219 151.157 15.9551C150.336 16.4473 150.022 16.9531 149.994 18.0605V18.1426H148.6V18.0605ZM149.352 21.0957C148.819 21.0957 148.368 20.6582 148.381 20.125C148.368 19.5918 148.819 19.1543 149.352 19.1543C149.871 19.1543 150.323 19.5918 150.323 20.125C150.323 20.6582 149.871 21.0957 149.352 21.0957ZM155.789 18.0605C155.803 16.2695 156.336 15.7227 157.238 15.1621C157.813 14.8066 158.25 14.3145 158.25 13.5898C158.25 12.7285 157.594 12.1953 156.774 12.1953C156.035 12.1953 155.324 12.6465 155.256 13.6582H153.779C153.834 11.9219 155.147 10.9648 156.774 10.9648C158.551 10.9648 159.74 12.0312 159.74 13.5898C159.74 14.6836 159.221 15.4219 158.346 15.9551C157.526 16.4473 157.211 16.9531 157.184 18.0605V18.1426H155.789V18.0605ZM156.541 21.0957C156.008 21.0957 155.557 20.6582 155.571 20.125C155.557 19.5918 156.008 19.1543 156.541 19.1543C157.061 19.1543 157.512 19.5918 157.512 20.125C157.512 20.6582 157.061 21.0957 156.541 21.0957Z" fill="white"/>
<path d="M142.378 40.9014C141.584 41.7771 140.208 41.7771 139.414 40.9014L131.591 32.2706C130.426 30.9851 131.338 28.9274 133.073 28.9274L148.72 28.9274C150.454 28.9274 151.367 30.9851 150.201 32.2706L142.378 40.9014Z" fill="#839DF1"/>
</svg>
