<svg width="181" height="119" viewBox="0 0 181 119" fill="none" xmlns="http://www.w3.org/2000/svg">
<path d="M82.8472 37.2817L86.9266 35.6179C86.9266 35.6179 88.1744 29.2029 94.1735 23.1078C95.4533 21.812 96.7171 20.4362 97.389 18.7085C98.1569 16.7568 98.4929 14.3412 96.7971 12.3415C95.5173 10.8217 93.4856 10.3098 91.6139 10.6777C87.0706 11.5576 78.7199 16.0209 82.8312 37.2657L82.8472 37.2817Z" fill="#4AD188"/>
<path d="M150.884 93.7968C150.884 86.0203 144.559 79.6953 136.783 79.6953H56.3362V107.883H136.798C144.574 107.883 150.899 101.559 150.899 93.782L150.884 93.7968Z" fill="url(#paint0_linear_1424_5343)"/>
<path d="M64.0693 24.415C73.0753 24.415 80.7629 29.3032 83.681 36.1317C86.5991 29.3032 94.2719 24.415 103.293 24.415C114.817 24.415 124.149 32.399 124.149 42.2345V107.898H48.5606C45.5981 107.898 43.2133 105.854 43.2133 103.321V42.2345C43.2133 32.3842 52.5599 24.415 64.0693 24.415Z" fill="url(#paint1_linear_1424_5343)"/>
<path d="M103.174 73.8878C98.8337 73.8878 95.3231 70.3772 95.3231 66.0371C95.3231 61.6971 98.8337 58.1865 103.174 58.1865C107.514 58.1865 111.024 61.6971 111.024 66.0371C111.024 70.3772 107.514 73.8878 103.174 73.8878Z" fill="#5CD694"/>
<path d="M64.1579 73.8741C59.8178 73.8741 56.3073 70.3635 56.3073 66.0235C56.3073 61.6834 59.8178 58.1729 64.1579 58.1729C68.4979 58.1729 72.0085 61.6834 72.0085 66.0235C72.0085 70.3635 68.4979 73.8741 64.1579 73.8741Z" fill="#5CD694"/>
<path d="M93.6063 70.3332C87.9183 70.3332 83.2968 64.897 83.2968 58.2017C83.2968 51.5065 87.9183 46.0703 93.6063 46.0703C99.2943 46.0703 103.916 51.5065 103.916 58.2017C103.916 64.897 99.2943 70.3332 93.6063 70.3332Z" fill="white"/>
<path d="M72.8368 70.4806C67.1488 70.4806 62.5273 65.0445 62.5273 58.3492C62.5273 51.654 67.1488 46.2178 72.8368 46.2178C78.5248 46.2178 83.1463 51.654 83.1463 58.3492C83.1463 65.0445 78.5248 70.4806 72.8368 70.4806Z" fill="white"/>
<path d="M92.9844 67.2667C89.2665 67.2667 86.2448 63.7117 86.2448 59.3272C86.2448 54.9427 89.2665 51.3877 92.9844 51.3877C96.7024 51.3877 99.7241 54.9427 99.7241 59.3272C99.7241 63.7117 96.7024 67.2667 92.9844 67.2667Z" fill="#040000"/>
<circle cx="95.2804" cy="56.6763" r="1.62937" fill="white"/>
<path d="M73.6529 67.2667C69.935 67.2667 66.9132 63.7117 66.9132 59.3272C66.9132 54.9427 69.935 51.3877 73.6529 51.3877C77.3708 51.3877 80.3926 54.9427 80.3926 59.3272C80.3926 63.7117 77.3708 67.2667 73.6529 67.2667Z" fill="#040000"/>
<circle cx="75.9488" cy="56.6763" r="1.62937" fill="white"/>
<path d="M80.7543 67.2684C79.8359 65.3576 80.1915 63.2839 81.5542 62.6321C82.917 61.9804 84.7537 63.0024 85.6721 64.9132C86.5905 66.8241 86.2349 68.8978 84.8722 69.5496C83.5094 70.2013 81.6727 69.1792 80.7543 67.2684Z" fill="#F6B96B"/>
<rect x="144.278" y="60.2891" width="9.06397" height="9.68314" rx="0.817844" transform="rotate(90 144.278 60.2891)" fill="#B1C1FF"/>
<circle cx="138.619" cy="89.9972" r="25.3527" fill="#557AF3"/>
<circle cx="138.619" cy="89.9971" r="20.6446" fill="white"/>
<rect x="137.801" y="71.2012" width="1.63569" height="3.27138" rx="0.817844" fill="#CED8F8"/>
<rect x="137.801" y="105.522" width="1.63569" height="3.27138" rx="0.817844" fill="#CED8F8"/>
<rect x="157.416" y="89.1797" width="1.63569" height="3.27138" rx="0.817844" transform="rotate(90 157.416 89.1797)" fill="#CED8F8"/>
<rect x="123.094" y="89.1797" width="1.63569" height="3.27138" rx="0.817844" transform="rotate(90 123.094 89.1797)" fill="#CED8F8"/>
<rect x="154.488" y="79.8906" width="1.63569" height="3.27138" rx="0.817844" transform="rotate(60 154.488 79.8906)" fill="#CED8F8"/>
<rect x="124.765" y="97.0518" width="1.63569" height="3.27138" rx="0.817844" transform="rotate(60 124.765 97.0518)" fill="#CED8F8"/>
<rect x="147.309" y="73.3105" width="1.63569" height="3.27138" rx="0.817844" transform="rotate(30 147.309 73.3105)" fill="#CED8F8"/>
<rect x="130.148" y="103.034" width="1.63569" height="3.27138" rx="0.817844" transform="rotate(30 130.148 103.034)" fill="#CED8F8"/>
<rect x="128.512" y="74.1279" width="1.63569" height="3.27138" rx="0.817844" transform="rotate(-30 128.512 74.1279)" fill="#CED8F8"/>
<rect x="145.673" y="103.852" width="1.63569" height="3.27138" rx="0.817844" transform="rotate(-30 145.673 103.852)" fill="#CED8F8"/>
<rect x="121.932" y="81.3076" width="1.63569" height="3.27138" rx="0.817844" transform="rotate(-60 121.932 81.3076)" fill="#CED8F8"/>
<rect x="151.655" y="98.4688" width="1.63569" height="3.27138" rx="0.817844" transform="rotate(-60 151.655 98.4688)" fill="#CED8F8"/>
<path d="M147.482 81.4336L138.932 89.984" stroke="#839DF1" stroke-width="1.22677" stroke-linecap="round"/>
<circle cx="138.619" cy="89.997" r="2.12009" fill="#557AF3"/>
<rect x="129.331" y="56.1914" width="20.2127" height="6.10907" rx="3.05454" fill="#557AF3"/>
<path d="M170.428 21.9917C170.341 21.9196 170.238 21.8694 170.128 21.8453C170.018 21.8212 169.904 21.824 169.795 21.8534C169.686 21.8828 169.585 21.938 169.502 22.0143C169.419 22.0905 169.356 22.1857 169.317 22.2916L167.382 27.6055L165.257 25.5463C165.185 25.4771 165.1 25.4238 165.006 25.3899C164.913 25.356 164.813 25.3423 164.714 25.3497C164.615 25.3571 164.519 25.3854 164.431 25.4328C164.344 25.4802 164.267 25.5455 164.207 25.6246C162.302 28.121 161.334 30.6324 161.334 33.0883C161.334 35.1413 162.15 37.1102 163.601 38.5619C165.053 40.0136 167.022 40.8291 169.075 40.8291C171.128 40.8291 173.097 40.0136 174.549 38.5619C176 37.1102 176.816 35.1413 176.816 33.0883C176.816 27.8589 172.348 23.5882 170.428 21.9917Z" fill="#F04452"/>
<path d="M173.191 37.508C174.05 36.6497 174.625 35.549 174.839 34.3541H174.84C174.876 34.1383 174.826 33.9168 174.699 33.7383C174.572 33.5598 174.38 33.4389 174.164 33.4023C173.948 33.3656 173.727 33.4162 173.548 33.5429C173.37 33.6696 173.249 33.862 173.212 34.0777C172.923 35.7896 171.473 37.2396 169.764 37.5273C169.56 37.5615 169.376 37.6711 169.249 37.8345C169.122 37.9979 169.061 38.203 169.078 38.4092C169.095 38.6155 169.189 38.8077 169.341 38.9479C169.494 39.0881 169.693 39.1659 169.9 39.1659C169.946 39.1662 169.992 39.1624 170.037 39.1546C171.232 38.9409 172.333 38.3663 173.191 37.508Z" fill="#FFD4D6"/>
<path d="M17.9038 60.5703C17.7882 60.4741 17.6511 60.4072 17.5041 60.3751C17.3572 60.343 17.2046 60.3467 17.0594 60.386C16.9142 60.4252 16.7805 60.4987 16.6697 60.6004C16.5588 60.7021 16.4741 60.8289 16.4225 60.9702L13.8423 68.0554L11.0087 65.3098C10.9135 65.2175 10.7999 65.1464 10.6752 65.1012C10.5506 65.056 10.4178 65.0378 10.2856 65.0476C10.1534 65.0575 10.0248 65.0953 9.90825 65.1584C9.7917 65.2216 9.68987 65.3088 9.60945 65.4142C7.06906 68.7427 5.77893 72.0912 5.77893 75.3658C5.77893 78.1031 6.86633 80.7283 8.8019 82.6639C10.7375 84.5995 13.3627 85.6868 16.1 85.6868C18.8373 85.6868 21.4625 84.5995 23.3981 82.6639C25.3337 80.7283 26.4211 78.1031 26.4211 75.3658C26.4211 68.3932 20.4642 62.699 17.9038 60.5703Z" fill="#F04452"/>
<path d="M21.5884 81.2594C22.7331 80.115 23.4996 78.6474 23.7848 77.0542H23.7862C23.8351 76.7665 23.7676 76.4711 23.5987 76.2331C23.4298 75.9951 23.1733 75.8339 22.8856 75.7851C22.5978 75.7362 22.3025 75.8036 22.0645 75.9725C21.8265 76.1414 21.6653 76.398 21.6164 76.6857C21.2301 78.9682 19.2968 80.9014 17.0184 81.2851C16.7463 81.3307 16.5012 81.4769 16.3319 81.6947C16.1625 81.9125 16.0812 82.186 16.104 82.461C16.1268 82.736 16.2522 82.9923 16.4552 83.1792C16.6582 83.3661 16.924 83.4699 17.1999 83.4699C17.2612 83.4702 17.3224 83.4652 17.3828 83.4548C18.9761 83.1699 20.4438 82.4037 21.5884 81.2594Z" fill="#FFD4D6"/>
<defs>
<linearGradient id="paint0_linear_1424_5343" x1="56.3362" y1="93.7968" x2="150.884" y2="93.7968" gradientUnits="userSpaceOnUse">
<stop stop-color="#AEF1BE"/>
<stop offset="1" stop-color="#59DB95"/>
</linearGradient>
<linearGradient id="paint1_linear_1424_5343" x1="83.681" y1="107.898" x2="83.681" y2="24.415" gradientUnits="userSpaceOnUse">
<stop stop-color="#AEF1BE"/>
<stop offset="1" stop-color="#59DB95"/>
</linearGradient>
</defs>
</svg>
