<svg width="181" height="119" viewBox="0 0 181 119" fill="none" xmlns="http://www.w3.org/2000/svg">
<mask id="mask0_1424_5344" style="mask-type:luminance" maskUnits="userSpaceOnUse" x="43" y="22" width="108" height="84">
<path d="M150.892 22.2217H43.2202V105.705H150.892V22.2217Z" fill="white"/>
</mask>
<g mask="url(#mask0_1424_5344)">
<path d="M150.892 91.6181C150.892 83.8415 144.567 77.5166 136.791 77.5166H56.3442V105.705H136.806C144.582 105.705 150.907 99.3798 150.907 91.6033L150.892 91.6181Z" fill="url(#paint0_linear_1424_5344)"/>
<path d="M64.0911 22.2218C73.0971 22.2218 83.7028 27.4059 83.7028 27.4059C83.7028 27.4059 94.2938 22.2218 103.315 22.2218C114.839 22.2218 124.171 30.2058 124.171 40.0413V105.705H48.5824C45.6199 105.705 43.2351 103.661 43.2351 101.128V40.0265C43.2351 30.191 52.5818 22.207 64.0911 22.207V22.2218Z" fill="url(#paint1_linear_1424_5344)"/>
<path d="M103.181 71.711C98.8414 71.711 95.3308 68.2005 95.3308 63.8604C95.3308 59.5203 98.8414 56.0098 103.181 56.0098C107.522 56.0098 111.032 59.5203 111.032 63.8604C111.032 68.2005 107.522 71.711 103.181 71.711Z" fill="#6E6FD6"/>
<path d="M64.1651 71.6807C59.825 71.6807 56.3145 68.1702 56.3145 63.8301C56.3145 59.4901 59.825 55.9795 64.1651 55.9795C68.5051 55.9795 72.0157 59.4901 72.0157 63.8301C72.0157 68.1702 68.5051 71.6807 64.1651 71.6807Z" fill="#6E6FD6"/>
<path d="M93.6281 68.1397C87.9401 68.1397 83.3186 62.7035 83.3186 56.0082C83.3186 49.313 87.9401 43.8916 93.6281 43.8916C99.3161 43.8916 103.938 49.3278 103.938 56.023C103.938 62.7183 99.3161 68.1545 93.6281 68.1545V68.1397Z" fill="white"/>
<path d="M72.8588 68.2891C67.1708 68.2891 62.5493 62.8529 62.5493 56.1576C62.5493 49.4624 67.1708 44.041 72.8588 44.041C78.5468 44.041 83.1683 49.4772 83.1683 56.1725C83.1683 62.8677 78.5468 68.3039 72.8588 68.3039V68.2891Z" fill="white"/>
<path d="M92.9904 65.0724C89.2725 65.0724 86.2507 61.5174 86.2507 57.1329C86.2507 52.7484 89.2725 49.1934 92.9904 49.1934C96.7084 49.1934 99.7301 52.7484 99.7301 57.1329C99.7301 61.5174 96.7084 65.0724 92.9904 65.0724Z" fill="#040000"/>
<path d="M73.6601 65.0724C69.9421 65.0724 66.9204 61.5174 66.9204 57.1329C66.9204 52.7484 69.9421 49.1934 73.6601 49.1934C77.378 49.1934 80.3998 52.7484 80.3998 57.1329C80.3998 61.5174 77.378 65.0724 73.6601 65.0724Z" fill="#040000"/>
<path d="M80.3257 64.6444C79.4074 62.7336 79.7629 60.6598 81.1256 60.0081C82.4884 59.3563 84.3251 60.3784 85.2435 62.2892C86.1619 64.2 85.8064 66.2738 84.4436 66.9255C83.0809 67.5773 81.2441 66.5552 80.3257 64.6444Z" fill="#F6B96B"/>
<path d="M96.0564 58.9268C96.9303 58.9268 97.5228 59.8007 97.2117 60.6006C96.5304 62.3336 94.8418 63.5631 92.8569 63.5631C90.872 63.5631 89.1834 62.3336 88.502 60.6006C88.191 59.7859 88.7835 58.9268 89.6574 58.9268H96.0712H96.0564Z" fill="#8889E7"/>
<path d="M76.741 58.9268C77.6149 58.9268 78.2074 59.8007 77.8963 60.6006C77.215 62.3336 75.5263 63.5631 73.5415 63.5631C71.5566 63.5631 69.868 62.3336 69.1866 60.6006C68.8755 59.7859 69.468 58.9268 70.342 58.9268H76.7558H76.741Z" fill="#8889E7"/>
<path d="M103.494 52.5125C102.221 47.5207 98.2804 43.8916 93.6293 43.8916C88.9782 43.8916 85.038 47.5355 83.7642 52.5125H103.494Z" fill="#424DBA"/>
<path d="M82.7251 52.6619C81.4513 47.6701 77.5111 44.041 72.86 44.041C68.2089 44.041 64.2687 47.6849 62.9949 52.6619H82.7251Z" fill="#424DBA"/>
</g>
<rect x="144.278" y="60.2891" width="9.06397" height="9.68314" rx="0.817844" transform="rotate(90 144.278 60.2891)" fill="#B1C1FF"/>
<circle cx="138.619" cy="89.9972" r="25.3527" fill="#557AF3"/>
<circle cx="138.619" cy="89.9971" r="20.6446" fill="white"/>
<rect x="137.801" y="71.2012" width="1.63569" height="3.27138" rx="0.817844" fill="#CED8F8"/>
<rect x="137.801" y="105.522" width="1.63569" height="3.27138" rx="0.817844" fill="#CED8F8"/>
<rect x="157.416" y="89.1797" width="1.63569" height="3.27138" rx="0.817844" transform="rotate(90 157.416 89.1797)" fill="#CED8F8"/>
<rect x="123.094" y="89.1797" width="1.63569" height="3.27138" rx="0.817844" transform="rotate(90 123.094 89.1797)" fill="#CED8F8"/>
<rect x="154.488" y="79.8906" width="1.63569" height="3.27138" rx="0.817844" transform="rotate(60 154.488 79.8906)" fill="#CED8F8"/>
<rect x="124.765" y="97.0518" width="1.63569" height="3.27138" rx="0.817844" transform="rotate(60 124.765 97.0518)" fill="#CED8F8"/>
<rect x="147.309" y="73.3105" width="1.63569" height="3.27138" rx="0.817844" transform="rotate(30 147.309 73.3105)" fill="#CED8F8"/>
<rect x="130.148" y="103.034" width="1.63569" height="3.27138" rx="0.817844" transform="rotate(30 130.148 103.034)" fill="#CED8F8"/>
<rect x="128.512" y="74.1279" width="1.63569" height="3.27138" rx="0.817844" transform="rotate(-30 128.512 74.1279)" fill="#CED8F8"/>
<rect x="145.673" y="103.852" width="1.63569" height="3.27138" rx="0.817844" transform="rotate(-30 145.673 103.852)" fill="#CED8F8"/>
<rect x="121.932" y="81.3076" width="1.63569" height="3.27138" rx="0.817844" transform="rotate(-60 121.932 81.3076)" fill="#CED8F8"/>
<rect x="151.655" y="98.4688" width="1.63569" height="3.27138" rx="0.817844" transform="rotate(-60 151.655 98.4688)" fill="#CED8F8"/>
<path d="M147.482 81.4336L138.932 89.984" stroke="#839DF1" stroke-width="1.22677" stroke-linecap="round"/>
<circle cx="138.619" cy="89.997" r="2.12009" fill="#557AF3"/>
<rect x="129.331" y="56.1914" width="20.2127" height="6.10907" rx="3.05454" fill="#557AF3"/>
<path d="M170.428 21.9917C170.341 21.9196 170.238 21.8694 170.128 21.8453C170.018 21.8212 169.904 21.824 169.795 21.8534C169.686 21.8828 169.585 21.938 169.502 22.0143C169.419 22.0905 169.356 22.1857 169.317 22.2916L167.382 27.6055L165.257 25.5463C165.185 25.4771 165.1 25.4238 165.006 25.3899C164.913 25.356 164.813 25.3423 164.714 25.3497C164.615 25.3571 164.519 25.3854 164.431 25.4328C164.344 25.4802 164.267 25.5455 164.207 25.6246C162.302 28.121 161.334 30.6324 161.334 33.0883C161.334 35.1413 162.15 37.1102 163.601 38.5619C165.053 40.0136 167.022 40.8291 169.075 40.8291C171.128 40.8291 173.097 40.0136 174.549 38.5619C176 37.1102 176.816 35.1413 176.816 33.0883C176.816 27.8589 172.348 23.5882 170.428 21.9917Z" fill="#F04452"/>
<path d="M173.191 37.508C174.05 36.6497 174.625 35.549 174.839 34.3541H174.84C174.876 34.1383 174.826 33.9168 174.699 33.7383C174.572 33.5598 174.38 33.4389 174.164 33.4023C173.948 33.3656 173.727 33.4162 173.548 33.5429C173.37 33.6696 173.249 33.862 173.212 34.0777C172.923 35.7896 171.473 37.2396 169.764 37.5273C169.56 37.5615 169.376 37.6711 169.249 37.8345C169.122 37.9979 169.061 38.203 169.078 38.4092C169.095 38.6155 169.189 38.8077 169.341 38.9479C169.494 39.0881 169.693 39.1659 169.9 39.1659C169.946 39.1662 169.992 39.1624 170.037 39.1546C171.232 38.9409 172.333 38.3663 173.191 37.508Z" fill="#FFD4D6"/>
<path d="M17.904 60.5703C17.7883 60.4741 17.6512 60.4072 17.5042 60.3751C17.3573 60.343 17.2048 60.3467 17.0595 60.386C16.9143 60.4252 16.7807 60.4987 16.6698 60.6004C16.559 60.7021 16.4742 60.8289 16.4227 60.9702L13.8424 68.0554L11.0088 65.3098C10.9136 65.2175 10.8 65.1464 10.6754 65.1012C10.5507 65.056 10.4179 65.0378 10.2857 65.0476C10.1535 65.0575 10.0249 65.0953 9.90837 65.1584C9.79182 65.2216 9.68999 65.3088 9.60958 65.4142C7.06919 68.7427 5.77905 72.0912 5.77905 75.3658C5.77905 78.1031 6.86645 80.7283 8.80202 82.6639C10.7376 84.5995 13.3628 85.6868 16.1001 85.6868C18.8374 85.6868 21.4626 84.5995 23.3982 82.6639C25.3338 80.7283 26.4212 78.1031 26.4212 75.3658C26.4212 68.3932 20.4643 62.699 17.904 60.5703Z" fill="#F04452"/>
<path d="M21.5886 81.2594C22.7332 80.115 23.4997 78.6474 23.7849 77.0542H23.7863C23.8352 76.7665 23.7677 76.4711 23.5988 76.2331C23.4299 75.9951 23.1734 75.8339 22.8857 75.7851C22.598 75.7362 22.3026 75.8036 22.0646 75.9725C21.8266 76.1414 21.6654 76.398 21.6166 76.6857C21.2302 78.9682 19.2969 80.9014 17.0186 81.2851C16.7464 81.3307 16.5014 81.4769 16.332 81.6947C16.1626 81.9125 16.0813 82.186 16.1041 82.461C16.127 82.736 16.2523 82.9923 16.4553 83.1792C16.6583 83.3661 16.9241 83.4699 17.2001 83.4699C17.2613 83.4702 17.3225 83.4652 17.3829 83.4548C18.9762 83.1699 20.444 82.4037 21.5886 81.2594Z" fill="#FFD4D6"/>
<defs>
<linearGradient id="paint0_linear_1424_5344" x1="56.3442" y1="91.6181" x2="150.907" y2="91.6181" gradientUnits="userSpaceOnUse">
<stop stop-color="#BEB4FF"/>
<stop offset="1" stop-color="#4D4DBF"/>
</linearGradient>
<linearGradient id="paint1_linear_1424_5344" x1="83.688" y1="105.72" x2="83.688" y2="22.2218" gradientUnits="userSpaceOnUse">
<stop stop-color="#BEB4FF"/>
<stop offset="1" stop-color="#4D4DBF"/>
</linearGradient>
</defs>
</svg>
