<svg width="45" height="44" viewBox="0 0 45 44" fill="none" xmlns="http://www.w3.org/2000/svg">
<mask id="mask0_1031_24745" style="mask-type:luminance" maskUnits="userSpaceOnUse" x="2" y="7" width="41" height="32">
<path d="M42.5981 7.64551H2.61865V38.6435H42.5981V7.64551Z" fill="white"/>
</mask>
<g mask="url(#mask0_1031_24745)">
<path d="M42.5982 33.4132C42.5982 30.5257 40.2497 28.1772 37.3622 28.1772H7.4917V38.6437H37.3677C40.2552 38.6437 42.6037 36.2952 42.6037 33.4077L42.5982 33.4132Z" fill="url(#paint0_linear_1031_24745)"/>
<path d="M10.368 7.64613C13.712 7.64613 16.5665 9.46113 17.65 11.9966C18.7335 9.46113 21.5825 7.64613 24.932 7.64613C29.211 7.64613 32.676 10.6106 32.676 14.2626V38.6441H4.60952C3.50952 38.6441 2.62402 37.8851 2.62402 36.9446V14.2571C2.62402 10.6051 6.09452 7.64062 10.368 7.64062V7.64613Z" fill="url(#paint1_linear_1031_24745)"/>
<path d="M24.8823 26.0214C23.2708 26.0214 21.9673 24.7179 21.9673 23.1064C21.9673 21.4949 23.2708 20.1914 24.8823 20.1914C26.4938 20.1914 27.7973 21.4949 27.7973 23.1064C27.7973 24.7179 26.4938 26.0214 24.8823 26.0214Z" fill="#FF9946"/>
<path d="M10.3955 26.0102C8.78396 26.0102 7.48047 24.7067 7.48047 23.0952C7.48047 21.4837 8.78396 20.1802 10.3955 20.1802C12.007 20.1802 13.3105 21.4837 13.3105 23.0952C13.3105 24.7067 12.007 26.0102 10.3955 26.0102Z" fill="#FF9946"/>
<path d="M21.3348 24.7014C19.2228 24.7014 17.5068 22.6829 17.5068 20.1969C17.5068 17.7109 19.2228 15.6924 21.3348 15.6924C23.4468 15.6924 25.1628 17.7109 25.1628 20.1969C25.1628 22.6829 23.4468 24.7014 21.3348 24.7014Z" fill="white"/>
<path d="M13.6239 24.7566C11.5119 24.7566 9.7959 22.7381 9.7959 20.2521C9.7959 17.7661 11.5119 15.7476 13.6239 15.7476C15.7359 15.7476 17.4519 17.7661 17.4519 20.2521C17.4519 22.7381 15.7359 24.7566 13.6239 24.7566Z" fill="white"/>
<path d="M21.0987 23.5576C19.7182 23.5576 18.5962 22.2376 18.5962 20.6096C18.5962 18.9816 19.7182 17.6616 21.0987 17.6616C22.4792 17.6616 23.6012 18.9816 23.6012 20.6096C23.6012 22.2376 22.4792 23.5576 21.0987 23.5576Z" fill="#040000"/>
<path d="M13.921 23.5576C12.5405 23.5576 11.4185 22.2376 11.4185 20.6096C11.4185 18.9816 12.5405 17.6616 13.921 17.6616C15.3015 17.6616 16.4235 18.9816 16.4235 20.6096C16.4235 22.2376 15.3015 23.5576 13.921 23.5576Z" fill="#040000"/>
<path d="M16.3958 23.398C16.0548 22.6885 16.1868 21.9185 16.6928 21.6765C17.1988 21.4345 17.8808 21.814 18.2218 22.5235C18.5628 23.233 18.4308 24.003 17.9248 24.245C17.4188 24.487 16.7368 24.1075 16.3958 23.398Z" fill="#7FC665"/>
<ellipse cx="13.9484" cy="19.7912" rx="1.47477" ry="1.28727" fill="white"/>
<ellipse cx="21.1335" cy="19.7912" rx="1.47477" ry="1.28727" fill="white"/>
<ellipse cx="13.5017" cy="22.0822" rx="0.803827" ry="0.64265" transform="rotate(11.478 13.5017 22.0822)" fill="#FFE4A1"/>
<ellipse cx="20.6867" cy="22.0822" rx="0.803827" ry="0.64265" transform="rotate(11.478 20.6867 22.0822)" fill="#FFE4A1"/>
</g>
<defs>
<linearGradient id="paint0_linear_1031_24745" x1="7.4917" y1="33.4132" x2="42.6037" y2="33.4132" gradientUnits="userSpaceOnUse">
<stop stop-color="#FFE89B"/>
<stop offset="1" stop-color="#FFA060"/>
</linearGradient>
<linearGradient id="paint1_linear_1031_24745" x1="17.6445" y1="38.6496" x2="17.6445" y2="7.64612" gradientUnits="userSpaceOnUse">
<stop stop-color="#FF9046"/>
<stop offset="1" stop-color="#FFE89B"/>
</linearGradient>
</defs>
</svg>
