<svg width="97" height="96" viewBox="0 0 97 96" fill="none" xmlns="http://www.w3.org/2000/svg">
<path d="M92.5283 70.5431C92.5283 64.1991 87.3763 59.0471 81.0323 59.0471H15.4306V82.0361H81.0353C87.3793 82.0361 92.5312 76.8842 92.5312 70.5402L92.5283 70.5431Z" fill="url(#paint0_linear_1586_15474)"/>
<path d="M21.7415 13.9609C29.0904 13.9609 35.3512 17.9416 37.7295 23.5157C40.1078 17.9416 46.3686 13.9609 53.7174 13.9609C63.1116 13.9609 70.728 20.4655 70.728 28.4922V82.039H9.09508C6.6841 82.039 4.73095 80.3713 4.73095 78.3111V28.4922C4.73095 20.4685 12.3474 13.9609 21.7415 13.9609Z" fill="url(#paint1_linear_1586_15474)"/>
<path d="M53.625 54.3111C50.0898 54.3111 47.224 51.4453 47.224 47.9102C47.224 44.3751 50.0898 41.5093 53.625 41.5093C57.1601 41.5093 60.0259 44.3751 60.0259 47.9102C60.0259 51.4453 57.1601 54.3111 53.625 54.3111Z" fill="#D1D6DB"/>
<path d="M21.8095 54.2935C18.2744 54.2935 15.4086 51.4278 15.4086 47.8926C15.4086 44.3575 18.2744 41.4917 21.8095 41.4917C25.3447 41.4917 28.2104 44.3575 28.2104 47.8926C28.2104 51.4278 25.3447 54.2935 21.8095 54.2935Z" fill="#D1D6DB"/>
<path d="M45.8238 51.4101C41.1823 51.4101 37.4196 46.9832 37.4196 41.5224C37.4196 36.0616 41.1823 31.6348 45.8238 31.6348C50.4653 31.6348 54.228 36.0616 54.228 41.5224C54.228 46.9832 50.4653 51.4101 45.8238 51.4101Z" fill="white"/>
<path d="M28.8907 51.5351C24.2492 51.5351 20.4865 47.1082 20.4865 41.6474C20.4865 36.1866 24.2492 31.7598 28.8907 31.7598C33.5322 31.7598 37.2949 36.1866 37.2949 41.6474C37.2949 47.1082 33.5322 51.5351 28.8907 51.5351Z" fill="white"/>
<path d="M40.2506 37.9078C40.5028 37.1531 41.2462 36.7683 41.9365 36.9607C43.1445 37.3011 44.7374 37.7746 46.3437 38.2333C48.0669 38.7345 49.7902 39.2356 50.9845 39.5816C51.4472 39.7156 51.7951 40.1107 51.8245 40.5914C51.834 40.746 51.8394 40.9019 51.8394 41.0598C51.8394 45.44 49.1313 48.9915 45.7994 48.9915C42.4675 48.9915 39.7595 45.44 39.7595 41.0598C39.7595 39.9351 39.932 38.8697 40.2506 37.9078Z" fill="#4E5968"/>
<path d="M34.4383 37.9078C34.1861 37.1531 33.4427 36.7683 32.7525 36.9607C31.5445 37.3011 29.9515 37.7746 28.3453 38.2333C26.6221 38.7345 24.8988 39.2356 23.7044 39.5816C23.2418 39.7156 22.8939 40.1107 22.8645 40.5914C22.855 40.746 22.8496 40.9019 22.8496 41.0598C22.8496 45.44 25.5576 48.9915 28.8896 48.9915C32.2215 48.9915 34.9295 45.44 34.9295 41.0598C34.9295 39.9351 34.7569 38.8697 34.4383 37.9078Z" fill="#4E5968"/>
<path d="M34.9768 48.5552C34.23 46.9958 34.5238 45.3011 35.633 44.7699C36.7421 44.2387 38.2467 45.0722 38.9935 46.6316C39.7403 48.191 39.4465 49.8857 38.3373 50.4169C37.2282 50.9481 35.7236 50.1146 34.9768 48.5552Z" fill="#FFBE6A"/>
<path d="M48.4178 42.9517C49.1254 42.9517 49.6159 43.6652 49.3572 44.3222C48.8043 45.7344 47.4218 46.7363 45.8015 46.7363C44.1812 46.7363 42.8017 45.7344 42.2458 44.3222C41.9871 43.6622 42.4777 42.9517 43.1852 42.9517H48.4148H48.4178Z" fill="#D1D6DB"/>
<path d="M31.5066 42.9517C32.2142 42.9517 32.7048 43.6652 32.4461 44.3222C31.8931 45.7344 30.5107 46.7363 28.8904 46.7363C27.2701 46.7363 25.8906 45.7344 25.3346 44.3222C25.076 43.6622 25.5665 42.9517 26.2741 42.9517H31.5037H31.5066Z" fill="#D1D6DB"/>
<path d="M55.4633 61.0706C54.5022 61.0706 53.5804 60.6603 52.9008 59.93C52.2212 59.1996 51.8394 58.2091 51.8394 57.1762C51.8394 54.5799 55.4633 50.1987 55.4633 50.1987C55.4633 50.1987 59.0873 54.5799 59.0873 57.1762C59.0873 58.2091 58.7055 59.1996 58.0259 59.93C57.3462 60.6603 56.4245 61.0706 55.4633 61.0706Z" fill="#9FAAB6"/>
<defs>
<linearGradient id="paint0_linear_1586_15474" x1="15.4336" y1="70.5461" x2="92.5283" y2="70.5461" gradientUnits="userSpaceOnUse">
<stop stop-color="#F6F8F9"/>
<stop offset="1" stop-color="#D3D8DC"/>
</linearGradient>
<linearGradient id="paint1_linear_1586_15474" x1="37.7295" y1="82.039" x2="37.7295" y2="13.9609" gradientUnits="userSpaceOnUse">
<stop stop-color="#F0F2F4"/>
<stop offset="1" stop-color="#D1D6DB"/>
</linearGradient>
</defs>
</svg>
