<svg width="181" height="119" viewBox="0 0 181 119" fill="none" xmlns="http://www.w3.org/2000/svg">
<mask id="mask0_1424_5346" style="mask-type:luminance" maskUnits="userSpaceOnUse" x="43" y="20" width="108" height="85">
<path d="M150.892 20.5879H43.2202V104.071H150.892V20.5879Z" fill="white"/>
</mask>
<g mask="url(#mask0_1424_5346)">
<path d="M150.892 89.9843C150.892 82.2077 144.567 75.8828 136.791 75.8828H56.344V104.071H136.806C144.582 104.071 150.907 97.7461 150.907 89.9695L150.892 89.9843Z" fill="url(#paint0_linear_1424_5346)"/>
<path d="M64.091 20.5881C73.097 20.5881 80.7846 25.4762 83.7027 32.3047C86.6208 25.4762 94.2937 20.5881 103.314 20.5881C114.839 20.5881 124.17 28.572 124.17 38.4075V104.071H48.5823C45.6198 104.071 43.235 102.027 43.235 99.4942V38.3927C43.235 28.5572 52.5817 20.5732 64.091 20.5732V20.5881Z" fill="url(#paint1_linear_1424_5346)"/>
<path d="M103.181 70.0772C98.8411 70.0772 95.3305 66.5667 95.3305 62.2266C95.3305 57.8865 98.8411 54.376 103.181 54.376C107.521 54.376 111.032 57.8865 111.032 62.2266C111.032 66.5667 107.521 70.0772 103.181 70.0772Z" fill="#FF9946"/>
<path d="M64.165 70.047C59.8249 70.047 56.3144 66.5364 56.3144 62.1963C56.3144 57.8563 59.8249 54.3457 64.165 54.3457C68.505 54.3457 72.0156 57.8563 72.0156 62.1963C72.0156 66.5364 68.505 70.047 64.165 70.047Z" fill="#FF9946"/>
<path d="M93.6271 66.5217C87.9391 66.5217 83.3176 61.0855 83.3176 54.3902C83.3176 47.695 87.9391 42.2588 93.6271 42.2588C99.3151 42.2588 103.937 47.695 103.937 54.3902C103.937 61.0855 99.3151 66.5217 93.6271 66.5217Z" fill="white"/>
<path d="M72.86 66.6701C67.172 66.6701 62.5504 61.2339 62.5504 54.5387C62.5504 47.8434 67.172 42.4072 72.86 42.4072C78.548 42.4072 83.1695 47.8434 83.1695 54.5387C83.1695 61.2339 78.548 66.6701 72.86 66.6701Z" fill="white"/>
<path d="M92.9902 63.4405C89.2723 63.4405 86.2505 59.8855 86.2505 55.501C86.2505 51.1165 89.2723 47.5615 92.9902 47.5615C96.7081 47.5615 99.7299 51.1165 99.7299 55.501C99.7299 59.8855 96.7081 63.4405 92.9902 63.4405Z" fill="#040000"/>
<path d="M73.6598 63.4405C69.9419 63.4405 66.9202 59.8855 66.9202 55.501C66.9202 51.1165 69.9419 47.5615 73.6598 47.5615C77.3778 47.5615 80.3996 51.1165 80.3996 55.501C80.3996 59.8855 77.3778 63.4405 73.6598 63.4405Z" fill="#040000"/>
<path d="M80.3255 63.0116C79.4071 61.1008 79.7626 59.027 81.1254 58.3753C82.4881 57.7235 84.3249 58.7456 85.2432 60.6564C86.1616 62.5672 85.8061 64.641 84.4434 65.2927C83.0806 65.9445 81.2439 64.9224 80.3255 63.0116Z" fill="#7FC665"/>
<ellipse cx="73.7333" cy="53.2979" rx="3.97182" ry="3.46685" fill="white"/>
<ellipse cx="93.0843" cy="53.2979" rx="3.97182" ry="3.46685" fill="white"/>
<ellipse cx="72.5303" cy="59.4687" rx="2.16485" ry="1.73077" transform="rotate(11.478 72.5303 59.4687)" fill="#FFE4A1"/>
<ellipse cx="91.8813" cy="59.4687" rx="2.16485" ry="1.73077" transform="rotate(11.478 91.8813 59.4687)" fill="#FFE4A1"/>
</g>
<rect x="144.278" y="60.2891" width="9.06397" height="9.68314" rx="0.817844" transform="rotate(90 144.278 60.2891)" fill="#B1C1FF"/>
<circle cx="138.619" cy="89.9972" r="25.3527" fill="#557AF3"/>
<circle cx="138.619" cy="89.9971" r="20.6446" fill="white"/>
<rect x="137.801" y="71.2012" width="1.63569" height="3.27138" rx="0.817844" fill="#CED8F8"/>
<rect x="137.801" y="105.522" width="1.63569" height="3.27138" rx="0.817844" fill="#CED8F8"/>
<rect x="157.416" y="89.1797" width="1.63569" height="3.27138" rx="0.817844" transform="rotate(90 157.416 89.1797)" fill="#CED8F8"/>
<rect x="123.094" y="89.1797" width="1.63569" height="3.27138" rx="0.817844" transform="rotate(90 123.094 89.1797)" fill="#CED8F8"/>
<rect x="154.488" y="79.8906" width="1.63569" height="3.27138" rx="0.817844" transform="rotate(60 154.488 79.8906)" fill="#CED8F8"/>
<rect x="124.765" y="97.0518" width="1.63569" height="3.27138" rx="0.817844" transform="rotate(60 124.765 97.0518)" fill="#CED8F8"/>
<rect x="147.309" y="73.3105" width="1.63569" height="3.27138" rx="0.817844" transform="rotate(30 147.309 73.3105)" fill="#CED8F8"/>
<rect x="130.148" y="103.034" width="1.63569" height="3.27138" rx="0.817844" transform="rotate(30 130.148 103.034)" fill="#CED8F8"/>
<rect x="128.512" y="74.1279" width="1.63569" height="3.27138" rx="0.817844" transform="rotate(-30 128.512 74.1279)" fill="#CED8F8"/>
<rect x="145.673" y="103.852" width="1.63569" height="3.27138" rx="0.817844" transform="rotate(-30 145.673 103.852)" fill="#CED8F8"/>
<rect x="121.932" y="81.3076" width="1.63569" height="3.27138" rx="0.817844" transform="rotate(-60 121.932 81.3076)" fill="#CED8F8"/>
<rect x="151.655" y="98.4688" width="1.63569" height="3.27138" rx="0.817844" transform="rotate(-60 151.655 98.4688)" fill="#CED8F8"/>
<path d="M147.482 81.4336L138.932 89.984" stroke="#839DF1" stroke-width="1.22677" stroke-linecap="round"/>
<circle cx="138.619" cy="89.997" r="2.12009" fill="#557AF3"/>
<rect x="129.331" y="56.1914" width="20.2127" height="6.10907" rx="3.05454" fill="#557AF3"/>
<path d="M170.428 21.9917C170.341 21.9196 170.238 21.8694 170.128 21.8453C170.018 21.8212 169.904 21.824 169.795 21.8534C169.686 21.8828 169.585 21.938 169.502 22.0143C169.419 22.0905 169.356 22.1857 169.317 22.2916L167.382 27.6055L165.257 25.5463C165.185 25.4771 165.1 25.4238 165.006 25.3899C164.913 25.356 164.813 25.3423 164.714 25.3497C164.615 25.3571 164.519 25.3854 164.431 25.4328C164.344 25.4802 164.267 25.5455 164.207 25.6246C162.302 28.121 161.334 30.6324 161.334 33.0883C161.334 35.1413 162.15 37.1102 163.601 38.5619C165.053 40.0136 167.022 40.8291 169.075 40.8291C171.128 40.8291 173.097 40.0136 174.549 38.5619C176 37.1102 176.816 35.1413 176.816 33.0883C176.816 27.8589 172.348 23.5882 170.428 21.9917Z" fill="#F04452"/>
<path d="M173.191 37.508C174.05 36.6497 174.625 35.549 174.839 34.3541H174.84C174.876 34.1383 174.826 33.9168 174.699 33.7383C174.572 33.5598 174.38 33.4389 174.164 33.4023C173.948 33.3656 173.727 33.4162 173.548 33.5429C173.37 33.6696 173.249 33.862 173.212 34.0777C172.923 35.7896 171.473 37.2396 169.764 37.5273C169.56 37.5615 169.376 37.6711 169.249 37.8345C169.122 37.9979 169.061 38.203 169.078 38.4092C169.095 38.6155 169.189 38.8077 169.341 38.9479C169.494 39.0881 169.693 39.1659 169.9 39.1659C169.946 39.1662 169.992 39.1624 170.037 39.1546C171.232 38.9409 172.333 38.3663 173.191 37.508Z" fill="#FFD4D6"/>
<path d="M17.9038 60.5703C17.7882 60.4741 17.6511 60.4072 17.5041 60.3751C17.3572 60.343 17.2046 60.3467 17.0594 60.386C16.9142 60.4252 16.7805 60.4987 16.6697 60.6004C16.5588 60.7021 16.4741 60.8289 16.4225 60.9702L13.8423 68.0554L11.0087 65.3098C10.9135 65.2175 10.7999 65.1464 10.6752 65.1012C10.5506 65.056 10.4178 65.0378 10.2856 65.0476C10.1534 65.0575 10.0248 65.0953 9.90825 65.1584C9.7917 65.2216 9.68987 65.3088 9.60945 65.4142C7.06906 68.7427 5.77893 72.0912 5.77893 75.3658C5.77893 78.1031 6.86633 80.7283 8.8019 82.6639C10.7375 84.5995 13.3627 85.6868 16.1 85.6868C18.8373 85.6868 21.4625 84.5995 23.3981 82.6639C25.3337 80.7283 26.4211 78.1031 26.4211 75.3658C26.4211 68.3932 20.4642 62.699 17.9038 60.5703Z" fill="#F04452"/>
<path d="M21.5885 81.2594C22.7331 80.115 23.4996 78.6474 23.7848 77.0542H23.7862C23.8351 76.7665 23.7676 76.4711 23.5987 76.2331C23.4298 75.9951 23.1733 75.8339 22.8856 75.7851C22.5979 75.7362 22.3025 75.8036 22.0645 75.9725C21.8265 76.1414 21.6653 76.398 21.6165 76.6857C21.2301 78.9682 19.2968 80.9014 17.0185 81.2851C16.7463 81.3307 16.5013 81.4769 16.3319 81.6947C16.1625 81.9125 16.0812 82.186 16.104 82.461C16.1269 82.736 16.2522 82.9923 16.4552 83.1792C16.6582 83.3661 16.924 83.4699 17.2 83.4699C17.2612 83.4702 17.3224 83.4652 17.3828 83.4548C18.9761 83.1699 20.4439 82.4037 21.5885 81.2594Z" fill="#FFD4D6"/>
<defs>
<linearGradient id="paint0_linear_1424_5346" x1="56.344" y1="89.9843" x2="150.907" y2="89.9843" gradientUnits="userSpaceOnUse">
<stop stop-color="#FFE89B"/>
<stop offset="1" stop-color="#FFA060"/>
</linearGradient>
<linearGradient id="paint1_linear_1424_5346" x1="83.6879" y1="104.086" x2="83.6879" y2="20.5881" gradientUnits="userSpaceOnUse">
<stop stop-color="#FF9046"/>
<stop offset="1" stop-color="#FFE89B"/>
</linearGradient>
</defs>
</svg>
