<svg width="124" height="100" viewBox="0 0 124 100" fill="none" xmlns="http://www.w3.org/2000/svg">
<circle cx="65.4189" cy="50" r="50" fill="url(#paint0_linear_1130_5238)"/>
<mask id="mask0_1130_5238" style="mask-type:alpha" maskUnits="userSpaceOnUse" x="15" y="0" width="101" height="100">
<circle cx="65.4189" cy="50" r="50" fill="#D9D9D9"/>
</mask>
<g mask="url(#mask0_1130_5238)">
<path d="M121.007 88.1477C121.007 81.5827 115.675 76.2513 109.11 76.2513H41.2236V100.041H109.113C115.678 100.041 121.01 94.7096 121.01 88.1446L121.007 88.1477Z" fill="url(#paint1_linear_1130_5238)"/>
<path d="M47.7548 29.5952C55.3596 29.5952 61.8385 33.7145 64.2996 39.4827C66.7607 33.7145 73.2396 29.5952 80.8444 29.5952C90.5658 29.5952 98.4475 36.3264 98.4475 44.6326V100.045H34.6678C32.1729 100.045 30.1517 98.3187 30.1517 96.1867V44.6326C30.1517 36.3294 38.0334 29.5952 47.7548 29.5952Z" fill="url(#paint2_linear_1130_5238)"/>
<path d="M80.7491 71.3509C77.0911 71.3509 74.1256 68.3855 74.1256 64.7275C74.1256 61.0694 77.0911 58.104 80.7491 58.104C84.4071 58.104 87.3726 61.0694 87.3726 64.7275C87.3726 68.3855 84.4071 71.3509 80.7491 71.3509Z" fill="#A5BDF9"/>
<path d="M47.8253 71.3324C44.1672 71.3324 41.2018 68.367 41.2018 64.7089C41.2018 61.0509 44.1672 58.0854 47.8253 58.0854C51.4833 58.0854 54.4487 61.0509 54.4487 64.7089C54.4487 68.367 51.4833 71.3324 47.8253 71.3324Z" fill="#A5BDF9"/>
<path d="M72.6763 68.3479C67.8731 68.3479 63.9794 63.7669 63.9794 58.1159C63.9794 52.4648 67.8731 47.8838 72.6763 47.8838C77.4795 47.8838 81.3733 52.4648 81.3733 58.1159C81.3733 63.7669 77.4795 68.3479 72.6763 68.3479Z" fill="white"/>
<path d="M55.1531 68.4773C50.35 68.4773 46.4562 63.8963 46.4562 58.2452C46.4562 52.5942 50.35 48.0132 55.1531 48.0132C59.9563 48.0132 63.8501 52.5942 63.8501 58.2452C63.8501 63.8963 59.9563 68.4773 55.1531 68.4773Z" fill="white"/>
<path d="M72.1444 65.7581C69.0011 65.7581 66.4531 62.761 66.4531 59.0639C66.4531 55.3667 69.0011 52.3696 72.1444 52.3696C75.2876 52.3696 77.8357 55.3667 77.8357 59.0639C77.8357 62.761 75.2876 65.7581 72.1444 65.7581Z" fill="black"/>
<path d="M55.8394 65.7581C52.6962 65.7581 50.1481 62.761 50.1481 59.0639C50.1481 55.3667 52.6962 52.3696 55.8394 52.3696C58.9827 52.3696 61.5308 55.3667 61.5308 59.0639C61.5308 62.761 58.9827 65.7581 55.8394 65.7581Z" fill="black"/>
<path d="M61.4513 65.3955C60.6785 63.7819 60.9825 62.0282 62.1302 61.4786C63.278 60.9289 64.8349 61.7914 65.6076 63.405C66.3804 65.0186 66.0764 66.7723 64.9286 67.3219C63.7809 67.8716 62.224 67.0091 61.4513 65.3955Z" fill="#FFBE6A"/>
<path d="M74.7318 60.5649C75.464 60.5649 75.9716 61.3033 75.7039 61.9832C75.1317 63.4444 73.7012 64.4812 72.0246 64.4812C70.3479 64.4812 68.9205 63.4444 68.3452 61.9832C68.0776 61.3002 68.5852 60.5649 69.3174 60.5649H74.7287H74.7318Z" fill="#8FAEFF"/>
<path d="M58.4266 60.5649C59.1588 60.5649 59.6664 61.3033 59.3988 61.9832C58.8266 63.4444 57.396 64.4812 55.7194 64.4812C54.0428 64.4812 52.6153 63.4444 52.04 61.9832C51.7724 61.3002 52.28 60.5649 53.0122 60.5649H58.4235H58.4266Z" fill="#8FAEFF"/>
<path d="M29.9804 41.1949C30.0814 39.8507 31.2015 38.8115 32.5496 38.8115H95.9757C97.3342 38.8115 98.4592 39.8663 98.5467 41.222L98.9585 47.6016C99.0544 49.0867 97.8757 50.3439 96.3875 50.3439H32.0702C30.5713 50.3439 29.3887 49.0692 29.5011 47.5745L29.9804 41.1949Z" fill="white"/>
<path d="M102.568 37.7437L97.6966 42.1802C97.4683 42.3881 97.3381 42.6826 97.3381 42.9914C97.3381 43.7245 98.0432 44.2514 98.7462 44.0437L104.836 42.2445C105.719 41.9834 106.18 41.0122 105.823 40.1628L105.034 38.2875C104.621 37.3035 103.358 37.025 102.568 37.7437Z" fill="white"/>
<path d="M103.069 44.0595L97.8691 43.8434C97.615 43.8328 97.3699 43.9425 97.1988 44.1435C96.8126 44.5969 96.937 45.3238 97.449 45.6056L102.03 48.1271C102.844 48.5754 103.834 48.1409 104.118 47.2108L104.437 46.1656C104.745 45.1538 104.061 44.1007 103.069 44.0595Z" fill="white"/>
<path d="M55.0618 47.6118C59.7747 47.6118 63.6758 51.7012 64.3412 57.0285C64.4348 57.7777 63.6564 58.2785 62.973 57.9577L49.447 51.6087C48.842 51.3248 48.6627 50.5458 49.1455 50.0836C50.7594 48.5382 52.8187 47.6118 55.0618 47.6118Z" fill="#839DF1"/>
<path d="M72.9108 47.6118C68.1979 47.6118 64.2969 51.7012 63.6314 57.0285C63.5378 57.7777 64.3163 58.2785 64.9997 57.9577L78.5256 51.6087C79.1307 51.3248 79.31 50.5458 78.8272 50.0836C77.2132 48.5382 75.154 47.6118 72.9108 47.6118Z" fill="#839DF1"/>
</g>
<path d="M22.7987 58.6665C22.6541 58.5463 22.4828 58.4626 22.2991 58.4225C22.1154 58.3824 21.9247 58.387 21.7432 58.4361C21.5617 58.4851 21.3946 58.577 21.256 58.7041C21.1175 58.8312 21.0115 58.9898 20.9471 59.1664L17.7217 68.0229L14.1797 64.5908C14.0608 64.4755 13.9187 64.3866 13.763 64.3301C13.6072 64.2736 13.4412 64.2508 13.2759 64.2631C13.1107 64.2755 12.9499 64.3227 12.8042 64.4017C12.6585 64.4806 12.5312 64.5896 12.4307 64.7213C9.25525 68.882 7.64258 73.0676 7.64258 77.1608C7.64258 80.5825 9.00182 83.864 11.4213 86.2835C13.8408 88.7029 17.1223 90.0622 20.5439 90.0622C23.9656 90.0622 27.2471 88.7029 29.6665 86.2835C32.086 83.864 33.4452 80.5825 33.4452 77.1608C33.4452 68.4451 25.9991 61.3274 22.7987 58.6665Z" fill="#F04452"/>
<path d="M27.4045 84.5278C28.8352 83.0974 29.7934 81.2629 30.1499 79.2714H30.1516C30.2127 78.9117 30.1284 78.5425 29.9173 78.245C29.7062 77.9475 29.3855 77.746 29.0259 77.685C28.6662 77.6239 28.297 77.7082 27.9995 77.9193C27.702 78.1304 27.5005 78.4511 27.4395 78.8107C26.9565 81.6639 24.5399 84.0804 21.692 84.56C21.3518 84.617 21.0455 84.7997 20.8338 85.072C20.622 85.3443 20.5204 85.6862 20.5489 86.0299C20.5775 86.3736 20.7342 86.694 20.9879 86.9276C21.2417 87.1612 21.5739 87.291 21.9188 87.291C21.9954 87.2914 22.0719 87.2851 22.1474 87.2721C24.139 86.916 25.9737 85.9583 27.4045 84.5278Z" fill="#FFD4D6"/>
<path d="M111.247 11.0857C111.146 11.0015 111.026 10.943 110.897 10.9149C110.769 10.8868 110.635 10.8901 110.508 10.9244C110.381 10.9587 110.264 11.023 110.167 11.112C110.07 11.201 109.996 11.312 109.951 11.4356L107.693 17.6352L105.214 15.2327C105.13 15.152 105.031 15.0898 104.922 15.0502C104.813 15.0107 104.697 14.9947 104.581 15.0033C104.465 15.012 104.353 15.045 104.251 15.1003C104.149 15.1556 104.06 15.2318 103.989 15.3241C101.767 18.2365 100.638 21.1665 100.638 24.0317C100.638 26.4269 101.589 28.7239 103.283 30.4176C104.976 32.1112 107.273 33.0627 109.669 33.0627C112.064 33.0627 114.361 32.1112 116.054 30.4176C117.748 28.7239 118.7 26.4269 118.7 24.0317C118.7 17.9307 113.487 12.9483 111.247 11.0857Z" fill="#F04452"/>
<path d="M114.471 29.1889C115.472 28.1875 116.143 26.9034 116.393 25.5093H116.394C116.437 25.2576 116.378 24.9991 116.23 24.7909C116.082 24.5826 115.858 24.4416 115.606 24.3989C115.354 24.3561 115.096 24.4151 114.887 24.5629C114.679 24.7107 114.538 24.9351 114.495 25.1869C114.157 27.1841 112.466 28.8757 110.472 29.2114C110.234 29.2513 110.02 29.3792 109.871 29.5698C109.723 29.7604 109.652 29.9997 109.672 30.2403C109.692 30.4809 109.802 30.7052 109.979 30.8687C110.157 31.0323 110.39 31.1231 110.631 31.1231C110.685 31.1234 110.738 31.1189 110.791 31.1099C112.185 30.8606 113.469 30.1902 114.471 29.1889Z" fill="#FFD4D6"/>
<defs>
<linearGradient id="paint0_linear_1130_5238" x1="65.4189" y1="0" x2="65.4189" y2="100" gradientUnits="userSpaceOnUse">
<stop stop-color="#CED8F8"/>
<stop offset="1" stop-color="white"/>
</linearGradient>
<linearGradient id="paint1_linear_1130_5238" x1="41.2267" y1="88.1508" x2="121.007" y2="88.1508" gradientUnits="userSpaceOnUse">
<stop stop-color="#E1E0FF"/>
<stop offset="1" stop-color="#8FAEFF"/>
</linearGradient>
<linearGradient id="paint2_linear_1130_5238" x1="64.2996" y1="100.045" x2="64.2996" y2="29.5952" gradientUnits="userSpaceOnUse">
<stop stop-color="#E1E0FF"/>
<stop offset="1" stop-color="#8FAEFF"/>
</linearGradient>
</defs>
</svg>
