<svg width="45" height="44" viewBox="0 0 45 44" fill="none" xmlns="http://www.w3.org/2000/svg">
<g clip-path="url(#clip0_1031_24675)">
<path d="M42.5958 32.2644C42.5958 29.3758 40.25 27.03 37.3613 27.03H7.49092V37.4976H37.3627C40.2513 37.4976 42.5972 35.1517 42.5972 32.2631L42.5958 32.2644Z" fill="url(#paint0_linear_1031_24675)"/>
<path d="M10.3649 6.50098C13.7111 6.50098 16.5618 8.31348 17.6447 10.8515C18.7276 8.31348 21.5783 6.50098 24.9245 6.50098C29.2019 6.50098 32.6699 9.46271 32.6699 13.1175V37.499H4.60658C3.50879 37.499 2.61946 36.7396 2.61946 35.8015V13.1175C2.61946 9.46406 6.08745 6.50098 10.3649 6.50098Z" fill="url(#paint1_linear_1031_24675)"/>
<path d="M24.8825 24.8736C23.273 24.8736 21.9682 23.5688 21.9682 21.9593C21.9682 20.3497 23.273 19.0449 24.8825 19.0449C26.4921 19.0449 27.7969 20.3497 27.7969 21.9593C27.7969 23.5688 26.4921 24.8736 24.8825 24.8736Z" fill="#A5BDF9"/>
<path d="M10.3962 24.8653C8.78664 24.8653 7.48184 23.5605 7.48184 21.951C7.48184 20.3414 8.78664 19.0366 10.3962 19.0366C12.0057 19.0366 13.3105 20.3414 13.3105 21.951C13.3105 23.5605 12.0057 24.8653 10.3962 24.8653Z" fill="#A5BDF9"/>
<path d="M21.3305 23.5526C19.2171 23.5526 17.5038 21.537 17.5038 19.0505C17.5038 16.564 19.2171 14.5483 21.3305 14.5483C23.444 14.5483 25.1572 16.564 25.1572 19.0505C25.1572 21.537 23.444 23.5526 21.3305 23.5526Z" fill="white"/>
<path d="M13.6201 23.6093C11.5067 23.6093 9.79338 21.5936 9.79338 19.1071C9.79338 16.6207 11.5067 14.605 13.6201 14.605C15.7335 14.605 17.4468 16.6207 17.4468 19.1071C17.4468 21.5936 15.7335 23.6093 13.6201 23.6093Z" fill="white"/>
<path d="M21.0964 22.4129C19.7133 22.4129 18.5922 21.0942 18.5922 19.4675C18.5922 17.8407 19.7133 16.522 21.0964 16.522C22.4794 16.522 23.6006 17.8407 23.6006 19.4675C23.6006 21.0942 22.4794 22.4129 21.0964 22.4129Z" fill="black"/>
<path d="M13.9226 22.4129C12.5395 22.4129 11.4183 21.0942 11.4183 19.4675C11.4183 17.8407 12.5395 16.522 13.9226 16.522C15.3056 16.522 16.4268 17.8407 16.4268 19.4675C16.4268 21.0942 15.3056 22.4129 13.9226 22.4129Z" fill="black"/>
<path d="M16.3915 22.2534C16.0514 21.5434 16.1852 20.7718 16.6902 20.5299C17.1952 20.288 17.8803 20.6675 18.2203 21.3775C18.5603 22.0875 18.4265 22.8591 17.9215 23.101C17.4165 23.3429 16.7315 22.9634 16.3915 22.2534Z" fill="#FFBE6A"/>
<path d="M22.2347 20.1279C22.5569 20.1279 22.7802 20.4528 22.6625 20.752C22.4107 21.3949 21.7813 21.8511 21.0435 21.8511C20.3058 21.8511 19.6777 21.3949 19.4246 20.752C19.3068 20.4514 19.5302 20.1279 19.8523 20.1279H22.2334H22.2347Z" fill="#8FAEFF"/>
<path d="M15.0604 20.1279C15.3826 20.1279 15.6059 20.4528 15.4881 20.752C15.2364 21.3949 14.6069 21.8511 13.8692 21.8511C13.1315 21.8511 12.5034 21.3949 12.2503 20.752C12.1325 20.4514 12.3559 20.1279 12.678 20.1279H15.0591H15.0604Z" fill="#8FAEFF"/>
</g>
<defs>
<linearGradient id="paint0_linear_1031_24675" x1="7.49227" y1="32.2658" x2="42.5958" y2="32.2658" gradientUnits="userSpaceOnUse">
<stop stop-color="#E1E0FF"/>
<stop offset="1" stop-color="#8FAEFF"/>
</linearGradient>
<linearGradient id="paint1_linear_1031_24675" x1="17.6447" y1="37.499" x2="17.6447" y2="6.50098" gradientUnits="userSpaceOnUse">
<stop stop-color="#E1E0FF"/>
<stop offset="1" stop-color="#8FAEFF"/>
</linearGradient>
<clipPath id="clip0_1031_24675">
<rect width="44" height="44" fill="white" transform="translate(0.608398)"/>
</clipPath>
</defs>
</svg>
