<svg width="127" height="121" viewBox="0 0 127 121" fill="none" xmlns="http://www.w3.org/2000/svg">
<rect x="0.892578" y="102.753" width="126.084" height="16.2689" rx="8.13443" fill="#B1C1FF"/>
<path d="M49.5029 38.0605L53.6339 36.3793C53.6339 36.3793 54.8975 29.8966 60.9726 23.7372C62.2686 22.4277 63.5484 21.0374 64.2288 19.2915C65.0064 17.3192 65.3466 14.8781 63.6294 12.8573C62.3334 11.3215 60.276 10.8042 58.3806 11.176C53.7797 12.0652 45.3233 16.5756 49.4867 38.0444L49.5029 38.0605Z" fill="#4AD188"/>
<path d="M118.401 95.3191C118.401 87.4441 111.996 81.0391 104.121 81.0391H22.6562V109.584H104.136C112.011 109.584 118.416 103.179 118.416 95.3041L118.401 95.3191Z" fill="url(#paint0_linear_1784_24327)"/>
<path d="M30.4872 25.0586C39.6072 25.0586 47.3922 30.0086 50.3472 36.9236C53.3022 30.0086 61.0722 25.0586 70.2072 25.0586C81.8772 25.0586 91.3272 33.1436 91.3272 43.1036V109.599H14.7822C11.7822 109.599 9.36719 107.529 9.36719 104.964V43.1036C9.36719 33.1286 18.8322 25.0586 30.4872 25.0586Z" fill="url(#paint1_linear_1784_24327)"/>
<path d="M70.0867 75.1578C65.6917 75.1578 62.1367 71.6028 62.1367 67.2078C62.1367 62.8128 65.6917 59.2578 70.0867 59.2578C74.4817 59.2578 78.0367 62.8128 78.0367 67.2078C78.0367 71.6028 74.4817 75.1578 70.0867 75.1578Z" fill="#5CD694"/>
<path d="M30.577 75.1432C26.182 75.1432 22.627 71.5882 22.627 67.1932C22.627 62.7982 26.182 59.2432 30.577 59.2432C34.972 59.2432 38.527 62.7982 38.527 67.1932C38.527 71.5882 34.972 75.1432 30.577 75.1432Z" fill="#5CD694"/>
<path d="M60.399 71.5583C54.639 71.5583 49.959 66.0533 49.959 59.2733C49.959 52.4933 54.639 46.9883 60.399 46.9883C66.159 46.9883 70.839 52.4933 70.839 59.2733C70.839 66.0533 66.159 71.5583 60.399 71.5583Z" fill="white"/>
<path d="M39.3658 71.7077C33.6058 71.7077 28.9258 66.2027 28.9258 59.4227C28.9258 52.6427 33.6058 47.1377 39.3658 47.1377C45.1258 47.1377 49.8058 52.6427 49.8058 59.4227C49.8058 66.2027 45.1258 71.7077 39.3658 71.7077Z" fill="white"/>
<path d="M59.7684 68.453C56.0034 68.453 52.9434 64.853 52.9434 60.413C52.9434 55.973 56.0034 52.373 59.7684 52.373C63.5334 52.373 66.5934 55.973 66.5934 60.413C66.5934 64.853 63.5334 68.453 59.7684 68.453Z" fill="#040000"/>
<circle cx="62.0934" cy="57.7281" r="1.65" fill="white"/>
<path d="M40.1922 68.453C36.4272 68.453 33.3672 64.853 33.3672 60.413C33.3672 55.973 36.4272 52.373 40.1922 52.373C43.9572 52.373 47.0172 55.973 47.0172 60.413C47.0172 64.853 43.9572 68.453 40.1922 68.453Z" fill="#040000"/>
<circle cx="42.5172" cy="57.7281" r="1.65" fill="white"/>
<path d="M47.3835 68.4546C46.4535 66.5196 46.8135 64.4196 48.1935 63.7596C49.5735 63.0996 51.4335 64.1346 52.3635 66.0696C53.2935 68.0046 52.9335 70.1046 51.5535 70.7646C50.1735 71.4246 48.3135 70.3896 47.3835 68.4546Z" fill="#F6B96B"/>
<defs>
<linearGradient id="paint0_linear_1784_24327" x1="22.6562" y1="95.3191" x2="118.401" y2="95.3191" gradientUnits="userSpaceOnUse">
<stop stop-color="#AEF1BE"/>
<stop offset="1" stop-color="#59DB95"/>
</linearGradient>
<linearGradient id="paint1_linear_1784_24327" x1="50.3472" y1="109.599" x2="50.3472" y2="25.0586" gradientUnits="userSpaceOnUse">
<stop stop-color="#AEF1BE"/>
<stop offset="1" stop-color="#59DB95"/>
</linearGradient>
</defs>
</svg>
