<svg fill="none" height="119" viewBox="0 0 127 119" width="127" xmlns="http://www.w3.org/2000/svg" xmlns:xlink="http://www.w3.org/1999/xlink"><linearGradient id="a"><stop offset="0" stop-color="#e1e0ff"/><stop offset="1" stop-color="#8faeff"/></linearGradient><linearGradient id="b" gradientUnits="userSpaceOnUse" x1="22.1676" x2="117.905" xlink:href="#a" y1="87.2023" y2="87.2023"/><linearGradient id="c" gradientUnits="userSpaceOnUse" x1="49.8561" x2="49.8561" xlink:href="#a" y1="101.475" y2="16.9346"/><rect fill="#b1c1ff" height="16.2689" rx="8.13443" width="126.084" x=".392578" y="98.7529"/><path d="m117.905 87.1986c0-7.8781-6.398-14.2758-14.276-14.2758h-81.4651v28.5482h81.4681c7.878 0 14.276-6.398 14.276-14.2761z" fill="url(#b)"/><path d="m30.0021 16.9346c9.1259 0 16.9006 4.9432 19.854 11.8651 2.9533-6.9219 10.7281-11.8651 19.854-11.8651 11.6657 0 21.1239 8.0774 21.1239 18.045v66.4954h-76.5364c-2.994 0-5.4194-2.0715-5.4194-4.6298v-61.8656c0-9.9639 9.4581-18.045 21.1239-18.045z" fill="url(#c)"/><path d="m69.5947 67.041c-4.3897 0-7.9482-3.5585-7.9482-7.9482s3.5585-7.9483 7.9482-7.9483 7.9483 3.5586 7.9483 7.9483-3.5586 7.9482-7.9483 7.9482z" fill="#a5bdf9"/><path d="m30.0859 67.0195c-4.3896 0-7.9482-3.5585-7.9482-7.9482s3.5586-7.9483 7.9482-7.9483c4.3897 0 7.9483 3.5586 7.9483 7.9483s-3.5586 7.9482-7.9483 7.9482z" fill="#a5bdf9"/><path d="m59.9083 63.439c-5.7639 0-10.4365-5.4973-10.4365-12.2786 0-6.7812 4.6726-12.2786 10.4365-12.2786s10.4364 5.4974 10.4364 12.2786c0 6.7813-4.6725 12.2786-10.4364 12.2786z" fill="#fff"/><path d="m38.88 63.5943c-5.7639 0-10.4365-5.4973-10.4365-12.2786s4.6726-12.2786 10.4365-12.2786c5.7638 0 10.4364 5.4973 10.4364 12.2786s-4.6726 12.2786-10.4364 12.2786z" fill="#fff"/><path d="m59.27 60.33c-3.772 0-6.8297-3.5966-6.8297-8.0332s3.0577-8.0331 6.8297-8.0331c3.7719 0 6.8296 3.5965 6.8296 8.0331s-3.0577 8.0332-6.8296 8.0332z" fill="#000"/><path d="m39.7036 60.33c-3.772 0-6.8297-3.5966-6.8297-8.0332s3.0577-8.0331 6.8297-8.0331c3.7719 0 6.8296 3.5965 6.8296 8.0331s-3.0577 8.0332-6.8296 8.0332z" fill="#000"/><path d="m46.4377 59.8953c-.9273-1.9363-.5625-4.0408.8148-4.7004s3.2456.3754 4.1729 2.3118c.9274 1.9363.5626 4.0407-.8148 4.7003-1.3773.6596-3.2456-.3754-4.1729-2.3117z" fill="#ffbe6a"/><g fill="#8faeff"><path d="m62.3735 54.0986c.8786 0 1.4877.886 1.1665 1.7019-.6866 1.7536-2.4033 2.9977-4.4152 2.9977-2.012 0-3.725-1.2441-4.4153-2.9977-.3212-.8195.2879-1.7019 1.1666-1.7019h6.4937z"/><path d="m42.808 54.0986c.8787 0 1.4878.886 1.1666 1.7019-.6867 1.7536-2.4033 2.9977-4.4153 2.9977s-3.7249-1.2441-4.4152-2.9977c-.3212-.8195.2879-1.7019 1.1665-1.7019h6.4937z"/></g></svg>