<svg width="25" height="25" viewBox="0 0 25 25" fill="none" xmlns="http://www.w3.org/2000/svg">
<path d="M9.31759 7.49265C9.14611 7.32117 9.04977 7.08858 9.04977 6.84606C9.04977 6.60354 9.14611 6.37096 9.31759 6.19947C9.48908 6.02798 9.72167 5.93164 9.96419 5.93164C10.2067 5.93164 10.4393 6.02798 10.6108 6.19947L16.6964 12.285C16.7815 12.3699 16.849 12.4706 16.8951 12.5816C16.9411 12.6925 16.9648 12.8115 16.9648 12.9316C16.9648 13.0518 16.9411 13.1707 16.8951 13.2817C16.849 13.3927 16.7815 13.4934 16.6964 13.5782L10.6108 19.6638C10.4393 19.8353 10.2067 19.9316 9.96419 19.9316C9.72167 19.9316 9.48908 19.8353 9.31759 19.6638C9.14611 19.4923 9.04977 19.2597 9.04977 19.0172C9.04977 18.7747 9.14611 18.5421 9.31759 18.3706L14.7558 12.9324L9.31759 7.49265Z" fill="#8B95A1"/>
</svg>
