<svg width="45" height="44" viewBox="0 0 45 44" fill="none" xmlns="http://www.w3.org/2000/svg">
<mask id="mask0_1031_24726" style="mask-type:luminance" maskUnits="userSpaceOnUse" x="2" y="8" width="41" height="32">
<path d="M42.5981 8.25293H2.61865V39.2509H42.5981V8.25293Z" fill="white"/>
</mask>
<g mask="url(#mask0_1031_24726)">
<path d="M42.5982 34.0202C42.5982 31.1327 40.2497 28.7842 37.3622 28.7842H7.4917V39.2507H37.3677C40.2552 39.2507 42.6037 36.9022 42.6037 34.0147L42.5982 34.0202Z" fill="url(#paint0_linear_1031_24726)"/>
<path d="M10.368 8.25257C13.712 8.25257 17.65 10.1774 17.65 10.1774C17.65 10.1774 21.5825 8.25257 24.932 8.25257C29.211 8.25257 32.676 11.2171 32.676 14.8691V39.2506H4.60952C3.50952 39.2506 2.62402 38.4916 2.62402 37.5511V14.8636C2.62402 11.2116 6.09452 8.24707 10.368 8.24707V8.25257Z" fill="url(#paint1_linear_1031_24726)"/>
<path d="M24.8828 26.6283C23.2713 26.6283 21.9678 25.3248 21.9678 23.7133C21.9678 22.1018 23.2713 20.7983 24.8828 20.7983C26.4943 20.7983 27.7978 22.1018 27.7978 23.7133C27.7978 25.3248 26.4943 26.6283 24.8828 26.6283Z" fill="#6E6FD6"/>
<path d="M10.3955 26.6171C8.78396 26.6171 7.48047 25.3136 7.48047 23.7021C7.48047 22.0906 8.78396 20.7871 10.3955 20.7871C12.007 20.7871 13.3105 22.0906 13.3105 23.7021C13.3105 25.3136 12.007 26.6171 10.3955 26.6171Z" fill="#6E6FD6"/>
<path d="M21.3353 25.3028C19.2233 25.3028 17.5073 23.2843 17.5073 20.7983C17.5073 18.3123 19.2233 16.2993 21.3353 16.2993C23.4473 16.2993 25.1633 18.3178 25.1633 20.8038C25.1633 23.2898 23.4473 25.3083 21.3353 25.3083V25.3028Z" fill="white"/>
<path d="M13.6234 25.358C11.5114 25.358 9.79541 23.3395 9.79541 20.8535C9.79541 18.3675 11.5114 16.3545 13.6234 16.3545C15.7354 16.3545 17.4514 18.373 17.4514 20.859C17.4514 23.345 15.7354 25.3635 13.6234 25.3635V25.358Z" fill="white"/>
<path d="M21.0987 24.1646C19.7182 24.1646 18.5962 22.8446 18.5962 21.2166C18.5962 19.5886 19.7182 18.2686 21.0987 18.2686C22.4792 18.2686 23.6012 19.5886 23.6012 21.2166C23.6012 22.8446 22.4792 24.1646 21.0987 24.1646Z" fill="#040000"/>
<path d="M13.9214 24.1646C12.5409 24.1646 11.4189 22.8446 11.4189 21.2166C11.4189 19.5886 12.5409 18.2686 13.9214 18.2686C15.3019 18.2686 16.4239 19.5886 16.4239 21.2166C16.4239 22.8446 15.3019 24.1646 13.9214 24.1646Z" fill="#040000"/>
<path d="M16.3963 24.0049C16.0553 23.2954 16.1873 22.5254 16.6933 22.2834C17.1993 22.0414 17.8813 22.4209 18.2223 23.1304C18.5633 23.8399 18.4313 24.6099 17.9253 24.8519C17.4193 25.0939 16.7373 24.7144 16.3963 24.0049Z" fill="#F6B96B"/>
<path d="M22.237 21.8818C22.5615 21.8818 22.7815 22.2063 22.666 22.5033C22.413 23.1468 21.786 23.6033 21.049 23.6033C20.312 23.6033 19.685 23.1468 19.432 22.5033C19.3165 22.2008 19.5365 21.8818 19.861 21.8818H22.2425H22.237Z" fill="#8889E7"/>
<path d="M15.0651 21.8818C15.3896 21.8818 15.6096 22.2063 15.4941 22.5033C15.2411 23.1468 14.6141 23.6033 13.8771 23.6033C13.1401 23.6033 12.5131 23.1468 12.2601 22.5033C12.1446 22.2008 12.3646 21.8818 12.6891 21.8818H15.0706H15.0651Z" fill="#8889E7"/>
<path d="M24.9989 19.5003C24.5259 17.6468 23.0629 16.2993 21.3359 16.2993C19.6089 16.2993 18.1459 17.6523 17.6729 19.5003H24.9989Z" fill="#424DBA"/>
<path d="M17.2869 19.5555C16.8139 17.702 15.3509 16.3545 13.6239 16.3545C11.8969 16.3545 10.4339 17.7075 9.96094 19.5555H17.2869Z" fill="#424DBA"/>
</g>
<defs>
<linearGradient id="paint0_linear_1031_24726" x1="7.4917" y1="34.0202" x2="42.6037" y2="34.0202" gradientUnits="userSpaceOnUse">
<stop stop-color="#BEB4FF"/>
<stop offset="1" stop-color="#4D4DBF"/>
</linearGradient>
<linearGradient id="paint1_linear_1031_24726" x1="17.6445" y1="39.2561" x2="17.6445" y2="8.25257" gradientUnits="userSpaceOnUse">
<stop stop-color="#BEB4FF"/>
<stop offset="1" stop-color="#4D4DBF"/>
</linearGradient>
</defs>
</svg>
