<svg width="127" height="121" viewBox="0 0 127 121" fill="none" xmlns="http://www.w3.org/2000/svg">
<rect x="0.892578" y="101.753" width="126.084" height="16.2689" rx="8.13443" fill="#B1C1FF"/>
<mask id="mask0_1790_14638" style="mask-type:luminance" maskUnits="userSpaceOnUse" x="9" y="22" width="110" height="86">
<path d="M118.41 22.8379H9.375V107.378H118.41V22.8379Z" fill="white"/>
</mask>
<g mask="url(#mask0_1790_14638)">
<path d="M118.409 93.112C118.409 85.237 112.004 78.832 104.129 78.832H22.6641V107.377H104.144C112.019 107.377 118.424 100.972 118.424 93.097L118.409 93.112Z" fill="url(#paint0_linear_1790_14638)"/>
<path d="M30.5106 22.8373C39.6306 22.8373 50.3706 28.0869 50.3706 28.0869C50.3706 28.0869 61.0956 22.8373 70.2306 22.8373C81.9006 22.8373 91.3506 30.9223 91.3506 40.8823V107.377H14.8056C11.8056 107.377 9.39062 105.307 9.39062 102.742V40.8673C9.39062 30.9073 18.8556 22.8223 30.5106 22.8223V22.8373Z" fill="url(#paint1_linear_1790_14638)"/>
<path d="M70.0946 72.9527C65.6996 72.9527 62.1445 69.3977 62.1445 65.0027C62.1445 60.6077 65.6996 57.0527 70.0946 57.0527C74.4896 57.0527 78.0445 60.6077 78.0445 65.0027C78.0445 69.3977 74.4896 72.9527 70.0946 72.9527Z" fill="#6E6FD6"/>
<path d="M30.5847 72.9225C26.1897 72.9225 22.6348 69.3675 22.6348 64.9725C22.6348 60.5775 26.1897 57.0225 30.5847 57.0225C34.9797 57.0225 38.5348 60.5775 38.5348 64.9725C38.5348 69.3675 34.9797 72.9225 30.5847 72.9225Z" fill="#6E6FD6"/>
<path d="M60.4205 69.3372C54.6605 69.3372 49.9805 63.8322 49.9805 57.0522C49.9805 50.2722 54.6605 44.7822 60.4205 44.7822C66.1805 44.7822 70.8605 50.2872 70.8605 57.0672C70.8605 63.8472 66.1805 69.3522 60.4205 69.3522V69.3372Z" fill="white"/>
<path d="M39.3892 69.4886C33.6292 69.4886 28.9492 63.9836 28.9492 57.2036C28.9492 50.4236 33.6292 44.9336 39.3892 44.9336C45.1492 44.9336 49.8292 50.4386 49.8292 57.2186C49.8292 63.9986 45.1492 69.5036 39.3892 69.5036V69.4886Z" fill="white"/>
<path d="M59.7752 66.2323C56.0102 66.2323 52.9502 62.6323 52.9502 58.1923C52.9502 53.7523 56.0102 50.1523 59.7752 50.1523C63.5402 50.1523 66.6002 53.7523 66.6002 58.1923C66.6002 62.6323 63.5402 66.2323 59.7752 66.2323Z" fill="#040000"/>
<path d="M40.2 66.2323C36.435 66.2323 33.375 62.6323 33.375 58.1923C33.375 53.7523 36.435 50.1523 40.2 50.1523C43.965 50.1523 47.025 53.7523 47.025 58.1923C47.025 62.6323 43.965 66.2323 40.2 66.2323Z" fill="#040000"/>
<path d="M46.9499 65.7984C46.0199 63.8634 46.3799 61.7633 47.7599 61.1033C49.1399 60.4433 50.9999 61.4784 51.9299 63.4134C52.8599 65.3484 52.4999 67.4484 51.1199 68.1084C49.7399 68.7684 47.8799 67.7334 46.9499 65.7984Z" fill="#F6B96B"/>
<path d="M62.8813 60.0078C63.7663 60.0078 64.3663 60.8928 64.0513 61.7028C63.3613 63.4578 61.6514 64.7028 59.6414 64.7028C57.6314 64.7028 55.9214 63.4578 55.2314 61.7028C54.9164 60.8778 55.5164 60.0078 56.4014 60.0078H62.8963H62.8813Z" fill="#8889E7"/>
<path d="M43.3208 60.0078C44.2058 60.0078 44.8058 60.8928 44.4908 61.7028C43.8008 63.4578 42.0908 64.7028 40.0808 64.7028C38.0708 64.7028 36.3608 63.4578 35.6708 61.7028C35.3558 60.8778 35.9558 60.0078 36.8408 60.0078H43.3358H43.3208Z" fill="#8889E7"/>
<path d="M70.4116 53.5122C69.1216 48.4572 65.1316 44.7822 60.4216 44.7822C55.7116 44.7822 51.7216 48.4722 50.4316 53.5122H70.4116Z" fill="#424DBA"/>
<path d="M49.3804 53.6636C48.0904 48.6086 44.1004 44.9336 39.3904 44.9336C34.6804 44.9336 30.6904 48.6236 29.4004 53.6636H49.3804Z" fill="#424DBA"/>
</g>
<defs>
<linearGradient id="paint0_linear_1790_14638" x1="22.6641" y1="93.112" x2="118.424" y2="93.112" gradientUnits="userSpaceOnUse">
<stop stop-color="#BEB4FF"/>
<stop offset="1" stop-color="#4D4DBF"/>
</linearGradient>
<linearGradient id="paint1_linear_1790_14638" x1="50.3556" y1="107.392" x2="50.3556" y2="22.8373" gradientUnits="userSpaceOnUse">
<stop stop-color="#BEB4FF"/>
<stop offset="1" stop-color="#4D4DBF"/>
</linearGradient>
</defs>
</svg>
