<svg width="181" height="119" viewBox="0 0 181 119" fill="none" xmlns="http://www.w3.org/2000/svg">
<mask id="mask0_1423_5380" style="mask-type:luminance" maskUnits="userSpaceOnUse" x="43" y="22" width="108" height="84">
<path d="M150.892 22.2207H43.2202V105.704H150.892V22.2207Z" fill="white"/>
</mask>
<g mask="url(#mask0_1423_5380)">
<path d="M150.892 91.6171C150.892 83.8406 144.567 77.5156 136.791 77.5156H56.344V105.704H136.805C144.582 105.704 150.907 99.3789 150.907 91.6023L150.892 91.6171Z" fill="url(#paint0_linear_1423_5380)"/>
<path d="M129.533 27.494C128.585 26.309 127.089 25.672 125.578 25.7165C118.379 25.9386 115.061 25.1388 113.683 24.6055C113.431 24.487 113.18 24.3685 112.928 24.25C112.839 24.1908 112.809 24.1611 112.809 24.1611V24.2056C109.965 22.9465 106.736 22.2355 103.3 22.2355C94.2937 22.2355 86.606 27.1236 83.6879 33.9522C80.7698 27.1088 73.097 22.2207 64.0762 22.2207C52.5668 22.2207 43.2202 30.2046 43.2202 40.0401V101.142C43.2202 103.675 45.6198 105.719 48.5675 105.719H124.156V40.0401C124.156 39.9513 124.141 39.8476 124.141 39.7587C133.532 36.1445 131.147 29.5085 129.533 27.494Z" fill="url(#paint1_linear_1423_5380)"/>
<path d="M102.929 71.7078C98.4251 71.7078 94.7821 69.7207 94.7821 67.2641C94.7821 64.8074 98.4251 62.8203 102.929 62.8203C107.433 62.8203 111.076 64.8074 111.076 67.2641C111.076 69.7207 107.433 71.7078 102.929 71.7078Z" fill="#FFD84A"/>
<path d="M63.6758 71.7078C59.5814 71.7078 56.2696 69.7207 56.2696 67.2641C56.2696 64.8074 59.5814 62.8203 63.6758 62.8203C67.7702 62.8203 71.0821 64.8074 71.0821 67.2641C71.0821 69.7207 67.7702 71.7078 63.6758 71.7078Z" fill="#FFD84A"/>
<path d="M93.6123 68.1398C87.9243 68.1398 83.3028 62.7036 83.3028 56.0084C83.3028 49.3131 87.9243 43.877 93.6123 43.877C99.3003 43.877 103.922 49.3131 103.922 56.0084C103.922 62.7036 99.3003 68.1398 93.6123 68.1398Z" fill="white"/>
<path d="M72.8451 68.3029C67.1571 68.3029 62.5356 62.8667 62.5356 56.1715C62.5356 49.4762 67.1571 44.04 72.8451 44.04C78.5331 44.04 83.1546 49.4762 83.1546 56.1715C83.1546 62.8667 78.5331 68.3029 72.8451 68.3029Z" fill="white"/>
<path d="M92.9902 65.0733C89.2722 65.0733 86.2505 61.5183 86.2505 57.1338C86.2505 52.7493 89.2722 49.1943 92.9902 49.1943C96.7081 49.1943 99.7299 52.7493 99.7299 57.1338C99.7299 61.5183 96.7081 65.0733 92.9902 65.0733Z" fill="#040000"/>
<path d="M73.6599 65.0733C69.9419 65.0733 66.9202 61.5183 66.9202 57.1338C66.9202 52.7493 69.9419 49.1943 73.6599 49.1943C77.3778 49.1943 80.3995 52.7493 80.3995 57.1338C80.3995 61.5183 77.3778 65.0733 73.6599 65.0733Z" fill="#040000"/>
<path d="M80.3107 64.6434C79.3923 62.7326 79.7478 60.6589 81.1105 60.0071C82.4733 59.3554 84.31 60.3774 85.2284 62.2882C86.1468 64.199 85.7913 66.2728 84.4285 66.9246C83.0658 67.5763 81.229 66.5542 80.3107 64.6434Z" fill="#FFA635"/>
<path d="M96.0563 58.9268C96.9303 58.9268 97.5228 59.8007 97.2117 60.6006C96.5303 62.3336 94.8417 63.5631 92.8568 63.5631C90.872 63.5631 89.1833 62.3336 88.502 60.6006C88.1909 59.7859 88.7834 58.9268 89.6573 58.9268H96.0711H96.0563Z" fill="#F9E496"/>
<path d="M76.7261 58.9268C77.6 58.9268 78.1925 59.8007 77.8814 60.6006C77.2001 62.3336 75.5114 63.5631 73.5266 63.5631C71.5417 63.5631 69.8531 62.3336 69.1717 60.6006C68.8606 59.7859 69.4531 58.9268 70.3271 58.9268H76.7409H76.7261Z" fill="#F9E496"/>
</g>
<rect x="144.278" y="60.2891" width="9.06397" height="9.68314" rx="0.817844" transform="rotate(90 144.278 60.2891)" fill="#B1C1FF"/>
<circle cx="138.619" cy="89.9972" r="25.3527" fill="#557AF3"/>
<circle cx="138.619" cy="89.9971" r="20.6446" fill="white"/>
<rect x="137.801" y="71.2012" width="1.63569" height="3.27138" rx="0.817844" fill="#CED8F8"/>
<rect x="137.801" y="105.522" width="1.63569" height="3.27138" rx="0.817844" fill="#CED8F8"/>
<rect x="157.416" y="89.1797" width="1.63569" height="3.27138" rx="0.817844" transform="rotate(90 157.416 89.1797)" fill="#CED8F8"/>
<rect x="123.094" y="89.1797" width="1.63569" height="3.27138" rx="0.817844" transform="rotate(90 123.094 89.1797)" fill="#CED8F8"/>
<rect x="154.488" y="79.8906" width="1.63569" height="3.27138" rx="0.817844" transform="rotate(60 154.488 79.8906)" fill="#CED8F8"/>
<rect x="124.765" y="97.0518" width="1.63569" height="3.27138" rx="0.817844" transform="rotate(60 124.765 97.0518)" fill="#CED8F8"/>
<rect x="147.309" y="73.3105" width="1.63569" height="3.27138" rx="0.817844" transform="rotate(30 147.309 73.3105)" fill="#CED8F8"/>
<rect x="130.148" y="103.034" width="1.63569" height="3.27138" rx="0.817844" transform="rotate(30 130.148 103.034)" fill="#CED8F8"/>
<rect x="128.512" y="74.1279" width="1.63569" height="3.27138" rx="0.817844" transform="rotate(-30 128.512 74.1279)" fill="#CED8F8"/>
<rect x="145.673" y="103.852" width="1.63569" height="3.27138" rx="0.817844" transform="rotate(-30 145.673 103.852)" fill="#CED8F8"/>
<rect x="121.932" y="81.3076" width="1.63569" height="3.27138" rx="0.817844" transform="rotate(-60 121.932 81.3076)" fill="#CED8F8"/>
<rect x="151.655" y="98.4688" width="1.63569" height="3.27138" rx="0.817844" transform="rotate(-60 151.655 98.4688)" fill="#CED8F8"/>
<path d="M147.482 81.4336L138.932 89.984" stroke="#839DF1" stroke-width="1.22677" stroke-linecap="round"/>
<circle cx="138.619" cy="89.997" r="2.12009" fill="#557AF3"/>
<rect x="129.331" y="56.1914" width="20.2127" height="6.10907" rx="3.05454" fill="#557AF3"/>
<path d="M170.428 21.9917C170.341 21.9196 170.238 21.8694 170.128 21.8453C170.018 21.8212 169.904 21.824 169.795 21.8534C169.686 21.8828 169.585 21.938 169.502 22.0143C169.419 22.0905 169.356 22.1857 169.317 22.2916L167.382 27.6055L165.257 25.5463C165.185 25.4771 165.1 25.4238 165.006 25.3899C164.913 25.356 164.813 25.3423 164.714 25.3497C164.615 25.3571 164.519 25.3854 164.431 25.4328C164.344 25.4802 164.267 25.5455 164.207 25.6246C162.302 28.121 161.334 30.6324 161.334 33.0883C161.334 35.1413 162.15 37.1102 163.601 38.5619C165.053 40.0136 167.022 40.8291 169.075 40.8291C171.128 40.8291 173.097 40.0136 174.549 38.5619C176 37.1102 176.816 35.1413 176.816 33.0883C176.816 27.8589 172.348 23.5882 170.428 21.9917Z" fill="#F04452"/>
<path d="M173.191 37.508C174.05 36.6497 174.625 35.549 174.839 34.3541H174.84C174.876 34.1383 174.826 33.9168 174.699 33.7383C174.572 33.5598 174.38 33.4389 174.164 33.4023C173.948 33.3656 173.727 33.4162 173.548 33.5429C173.37 33.6696 173.249 33.862 173.212 34.0777C172.923 35.7896 171.473 37.2396 169.764 37.5273C169.56 37.5615 169.376 37.6711 169.249 37.8345C169.122 37.9979 169.061 38.203 169.078 38.4092C169.095 38.6155 169.189 38.8077 169.341 38.9479C169.494 39.0881 169.693 39.1659 169.9 39.1659C169.946 39.1662 169.992 39.1624 170.037 39.1546C171.232 38.9409 172.333 38.3663 173.191 37.508Z" fill="#FFD4D6"/>
<path d="M17.9039 60.5703C17.7882 60.4741 17.6511 60.4072 17.5042 60.3751C17.3572 60.343 17.2047 60.3467 17.0595 60.386C16.9143 60.4252 16.7806 60.4987 16.6698 60.6004C16.5589 60.7021 16.4741 60.8289 16.4226 60.9702L13.8423 68.0554L11.0087 65.3098C10.9136 65.2175 10.7999 65.1464 10.6753 65.1012C10.5507 65.056 10.4179 65.0378 10.2857 65.0476C10.1535 65.0575 10.0249 65.0953 9.90831 65.1584C9.79176 65.2216 9.68993 65.3088 9.60951 65.4142C7.06913 68.7427 5.77899 72.0912 5.77899 75.3658C5.77899 78.1031 6.86639 80.7283 8.80196 82.6639C10.7375 84.5995 13.3627 85.6868 16.1001 85.6868C18.8374 85.6868 21.4626 84.5995 23.3982 82.6639C25.3337 80.7283 26.4211 78.1031 26.4211 75.3658C26.4211 68.3932 20.4642 62.699 17.9039 60.5703Z" fill="#F04452"/>
<path d="M21.5885 81.2594C22.7331 80.115 23.4996 78.6474 23.7849 77.0542H23.7862C23.8351 76.7665 23.7677 76.4711 23.5988 76.2331C23.4299 75.9951 23.1733 75.8339 22.8856 75.7851C22.5979 75.7362 22.3025 75.8036 22.0645 75.9725C21.8265 76.1414 21.6654 76.398 21.6165 76.6857C21.2301 78.9682 19.2969 80.9014 17.0185 81.2851C16.7464 81.3307 16.5013 81.4769 16.3319 81.6947C16.1625 81.9125 16.0812 82.186 16.1041 82.461C16.1269 82.736 16.2523 82.9923 16.4553 83.1792C16.6583 83.3661 16.9241 83.4699 17.2 83.4699C17.2613 83.4702 17.3225 83.4652 17.3829 83.4548C18.9762 83.1699 20.4439 82.4037 21.5885 81.2594Z" fill="#FFD4D6"/>
<defs>
<linearGradient id="paint0_linear_1423_5380" x1="56.344" y1="91.6023" x2="150.892" y2="91.6023" gradientUnits="userSpaceOnUse">
<stop offset="0.504808" stop-color="#FFF3A6"/>
<stop offset="1" stop-color="#FFDD60"/>
</linearGradient>
<linearGradient id="paint1_linear_1423_5380" x1="87.1392" y1="22.2207" x2="87.1392" y2="105.704" gradientUnits="userSpaceOnUse">
<stop stop-color="#FFF3A6"/>
<stop offset="1" stop-color="#FFDD60"/>
</linearGradient>
</defs>
</svg>
