<svg width="68" height="86" viewBox="0 0 68 86" fill="none" xmlns="http://www.w3.org/2000/svg">
<circle cx="34" cy="34" r="33" stroke="#F4A771" stroke-width="2"/>
<circle cx="34.0041" cy="66.0002" r="11.6667" fill="#EB9558"/>
<circle cx="34.0039" cy="66" r="8.89404" fill="#FFE3BD"/>
<path d="M33.9714 70.8437C31.8229 70.8437 30.2995 69.6589 30.2734 67.9661H32.513C32.526 68.5911 33.151 69.0339 33.9844 69.0339C34.8177 69.0339 35.4167 68.5521 35.4036 67.875C35.4167 67.1979 34.7786 66.7031 33.7891 66.7031H32.8776V65.1146H33.7891C34.6484 65.1146 35.2474 64.6589 35.2474 63.9818C35.2474 63.3437 34.7396 62.888 33.9844 62.888C33.2161 62.888 32.6042 63.3307 32.5911 63.9948H30.4557C30.4818 62.3281 31.9661 61.1562 33.9974 61.1562C36.0156 61.1562 37.3958 62.3151 37.3828 63.8516C37.3958 64.9062 36.6146 65.6484 35.5339 65.8047V65.8698C36.9792 66.0391 37.7474 66.8724 37.7344 68.0443C37.7474 69.6719 36.1719 70.8437 33.9714 70.8437Z" fill="#B26F22"/>
</svg>
