<svg width="335" height="154" viewBox="0 0 335 154" fill="none" xmlns="http://www.w3.org/2000/svg">
<path d="M219.831 67.4535C219.831 59.8906 213.69 53.7488 206.127 53.7488L127.92 53.7488V81.1548H206.13C213.693 81.1548 219.835 75.013 219.835 67.45L219.831 67.4535Z" fill="url(#paint0_linear_1029_28794)"/>
<path d="M135.444 0C144.205 0 151.669 4.74546 154.504 11.3905C157.339 4.74546 164.803 0 173.564 0C184.763 0 193.843 7.75435 193.843 17.3232V81.1584H120.368C117.494 81.1584 115.165 79.1702 115.165 76.7142V17.3232C115.165 7.75789 124.245 0 135.444 0Z" fill="url(#paint1_linear_1029_28794)"/>
<path d="M173.454 48.1019C169.24 48.1019 165.824 44.6857 165.824 40.4716C165.824 36.2575 169.24 32.8413 173.454 32.8413C177.668 32.8413 181.084 36.2575 181.084 40.4716C181.084 44.6857 177.668 48.1019 173.454 48.1019Z" fill="#D1D6DB"/>
<path d="M135.525 48.0809C131.311 48.0809 127.895 44.6647 127.895 40.4506C127.895 36.2365 131.311 32.8203 135.525 32.8203C139.74 32.8203 143.156 36.2365 143.156 40.4506C143.156 44.6647 139.74 48.0809 135.525 48.0809Z" fill="#D1D6DB"/>
<path d="M164.154 44.6443C158.621 44.6443 154.135 39.3668 154.135 32.8568C154.135 26.3468 158.621 21.0693 164.154 21.0693C169.687 21.0693 174.173 26.3468 174.173 32.8568C174.173 39.3668 169.687 44.6443 164.154 44.6443Z" fill="white"/>
<path d="M143.967 44.7937C138.434 44.7937 133.948 39.5162 133.948 33.0062C133.948 26.4962 138.434 21.2188 143.967 21.2188C149.5 21.2188 153.986 26.4962 153.986 33.0062C153.986 39.5162 149.5 44.7937 143.967 44.7937Z" fill="white"/>
<path d="M157.511 28.5479C157.811 27.6482 158.698 27.1896 159.52 27.4189C160.96 27.8246 162.859 28.3891 164.774 28.9359C166.828 29.5333 168.882 30.1307 170.306 30.5431C170.858 30.7029 171.272 31.1738 171.308 31.747C171.319 31.9313 171.325 32.117 171.325 32.3052C171.325 37.5267 168.097 41.7604 164.125 41.7604C160.153 41.7604 156.925 37.5267 156.925 32.3052C156.925 30.9646 157.131 29.6945 157.511 28.5479Z" fill="#4E5968"/>
<path d="M150.58 28.5479C150.279 27.6482 149.393 27.1896 148.57 27.4189C147.13 27.8246 145.231 28.3891 143.316 28.9359C141.262 29.5333 139.208 30.1307 137.784 30.5431C137.233 30.7029 136.818 31.1738 136.783 31.747C136.772 31.9313 136.765 32.117 136.765 32.3052C136.765 37.5267 139.993 41.7604 143.965 41.7604C147.937 41.7604 151.165 37.5267 151.165 32.3052C151.165 30.9646 150.959 29.6945 150.58 28.5479Z" fill="#4E5968"/>
<path d="M151.223 41.2413C150.333 39.3824 150.683 37.3621 152.005 36.7289C153.327 36.0957 155.121 37.0893 156.011 38.9482C156.901 40.807 156.551 42.8273 155.229 43.4605C153.907 44.0937 152.113 43.1001 151.223 41.2413Z" fill="#FFBE6A"/>
<path d="M167.246 34.5605C168.089 34.5605 168.674 35.4111 168.366 36.1943C167.707 37.8778 166.059 39.0721 164.127 39.0721C162.196 39.0721 160.551 37.8778 159.888 36.1943C159.58 35.4076 160.165 34.5605 161.008 34.5605H167.242H167.246Z" fill="#D1D6DB"/>
<path d="M147.086 34.5605C147.929 34.5605 148.514 35.4111 148.206 36.1943C147.546 37.8778 145.898 39.0721 143.967 39.0721C142.035 39.0721 140.391 37.8778 139.728 36.1943C139.42 35.4076 140.005 34.5605 140.848 34.5605H147.082H147.086Z" fill="#D1D6DB"/>
<path d="M175.645 56.1602C174.499 56.1602 173.401 55.6711 172.59 54.8005C171.78 53.9299 171.325 52.749 171.325 51.5178C171.325 48.4229 175.645 43.2002 175.645 43.2002C175.645 43.2002 179.965 48.4229 179.965 51.5178C179.965 52.749 179.51 53.9299 178.7 54.8005C177.89 55.6711 176.791 56.1602 175.645 56.1602Z" fill="#9FAAB6"/>
<path d="M62.5031 109.873C62.5031 111.787 63.9289 113.662 66.7023 114.424L65.7063 116.104C63.675 115.557 62.2297 114.365 61.4484 112.842C60.6672 114.521 59.1926 115.82 57.093 116.416L56.0578 114.736C58.8508 113.955 60.3352 111.982 60.3352 109.873V109.834H56.6438V108.115H60.3352V106.162H62.5227V108.115H66.1945V109.834H62.5031V109.873ZM70.0813 106.24V110.498H72.5422V112.295H70.0813V116.631H67.9133V106.24H70.0813ZM70.0813 117.373V123.682H58.675V117.373H70.0813ZM60.8234 119.092V121.924H67.9328V119.092H60.8234ZM78.0248 107.529C79.6264 107.529 80.9448 108.418 81.7358 109.971H85.8569V106.24H88.0053V123.916H85.8569V117.236H81.892C81.1303 118.994 79.7338 120.01 78.0248 120.01C75.3686 120.01 73.4936 117.607 73.4936 113.76C73.4936 109.951 75.3686 107.529 78.0248 107.529ZM78.0248 109.482C76.56 109.482 75.5639 111.064 75.5834 113.76C75.5639 116.475 76.56 118.057 78.0248 118.057C79.4897 118.057 80.4663 116.475 80.4858 113.76C80.4663 111.064 79.4897 109.482 78.0248 109.482ZM82.3413 111.748C82.4682 112.363 82.5366 113.037 82.5366 113.76C82.5366 114.375 82.4877 114.941 82.3998 115.479H85.8569V111.748H82.3413ZM104.172 106.26V111.807H106.633V113.604H104.172V119.443H102.004V106.26H104.172ZM100.734 108.213V109.951H90.2653V108.213H94.4255V106.24H96.5934V108.213H100.734ZM95.4997 110.674C98.0388 110.674 99.7966 112.021 99.8161 114.053C99.7966 116.064 98.0388 117.393 95.4997 117.393C92.9411 117.393 91.1638 116.064 91.1638 114.053C91.1638 112.021 92.9411 110.674 95.4997 110.674ZM95.4997 112.354C94.152 112.354 93.2731 112.979 93.2731 114.053C93.2731 115.107 94.152 115.732 95.4997 115.713C96.8474 115.732 97.7458 115.107 97.7458 114.053C97.7458 112.979 96.8474 112.354 95.4997 112.354ZM104.875 121.787V123.545H92.863V118.408H95.0309V121.787H104.875ZM120.117 108.018V109.736H117.246C117.276 111.299 118.486 112.891 120.664 113.604L119.727 115.186C118.047 114.668 116.885 113.613 116.25 112.314C115.606 113.73 114.444 114.912 112.774 115.518L111.797 113.877C113.955 113.066 115.147 111.338 115.195 109.736H112.285V108.018H115.195V106.318H117.246V108.018H120.117ZM126.895 106.26V115.576H124.824V111.768H123.125V115.459H121.074V106.592H123.125V110.029H124.824V106.26H126.895ZM126.895 116.26V120.693H117.129V122.061H127.52V123.682H114.961V119.111H124.746V117.9H114.942V116.26H126.895ZM143.51 106.26V119.248H141.362V106.26H143.51ZM143.998 121.787V123.545H131.752V118.193H133.94V121.787H143.998ZM137.885 107.451V112.9H131.909V115.127C135.102 115.117 137.202 115.02 139.643 114.58L139.877 116.318C137.221 116.807 134.897 116.904 131.284 116.904H129.78V111.26H135.737V109.189H129.741V107.451H137.885ZM152.548 111.26C152.548 114.15 154.247 117.197 157.098 118.389L155.907 120.107C153.817 119.209 152.294 117.354 151.493 115.107C150.673 117.529 149.13 119.561 147.059 120.537L145.809 118.838C148.602 117.549 150.34 114.268 150.34 111.26V109.775H146.454V107.979H156.415V109.775H152.548V111.26ZM160.575 106.24V123.896H158.387V106.24H160.575ZM182.224 106.24V115.186H180.056V113.643H175.798V111.982H180.056V110.244H176.032C174.919 112.939 172.341 114.697 168.435 115.576L167.673 113.799C171.823 112.939 173.894 111.113 174.196 108.76H168.65V107.002H176.618C176.618 107.559 176.569 108.086 176.501 108.584H180.056V106.24H182.224ZM182.224 115.869V120.518H172.79V121.982H182.693V123.721H170.622V118.896H180.056V117.588H170.603V115.869H182.224ZM194.347 108.076V109.326C194.347 110.908 194.347 113.115 193.859 116.162L191.71 115.986C192.13 113.311 192.179 111.338 192.199 109.814H185.265V108.076H194.347ZM189.894 113.115V118.33C191.691 118.262 193.536 118.135 195.226 117.92L195.343 119.541C191.691 120.127 187.648 120.205 184.542 120.186L184.327 118.447C185.372 118.438 186.535 118.428 187.745 118.389V113.115H189.894ZM198.331 106.24V113.428H200.89V115.264H198.331V123.896H196.144V106.24H198.331ZM215.357 106.24V113.135H217.974V114.951H215.357V123.857H213.189V106.24H215.357ZM210.689 108.076C210.689 113.271 208.541 117.822 202.662 120.713L201.431 119.033C205.728 116.895 208.052 113.887 208.502 109.873H202.388V108.076H210.689ZM227.084 116.572V118.467H229.408V116.572H231.42V122.178C233.49 121.309 234.447 119.521 234.447 117.842V116.436H236.615V117.842C236.615 119.678 237.553 121.455 239.74 122.197L238.627 123.818C237.074 123.262 236.068 122.188 235.522 120.85C234.926 122.148 233.92 123.223 232.455 123.818L231.42 122.275V123.682H225.053V116.572H227.084ZM227.084 122.021H229.408V120.088H227.084V122.021ZM227.982 106.963C230.258 106.963 232.055 108.232 232.514 110.146H235.697V106.24H237.865V115.596H235.697V111.943H232.514C232.084 113.906 230.268 115.205 227.982 115.205C225.268 115.205 223.315 113.506 223.315 111.064C223.315 108.643 225.268 106.963 227.982 106.963ZM227.982 108.76C226.459 108.76 225.385 109.658 225.385 111.064C225.385 112.49 226.459 113.428 227.982 113.428C229.467 113.428 230.522 112.49 230.541 111.064C230.522 109.658 229.467 108.76 227.982 108.76ZM244.95 107.529C247.342 107.529 249.11 109.521 249.422 112.744H252.782V106.24H254.93V123.916H252.782V114.502H249.442C249.207 117.91 247.41 120.01 244.95 120.01C242.293 120.01 240.418 117.607 240.418 113.76C240.418 109.951 242.293 107.529 244.95 107.529ZM244.95 109.482C243.485 109.482 242.489 111.064 242.508 113.76C242.489 116.475 243.485 118.057 244.95 118.057C246.414 118.057 247.391 116.475 247.41 113.76C247.391 111.064 246.414 109.482 244.95 109.482ZM273.303 119.971V121.748H257.17V119.971H260.901V115.498C259.495 114.697 258.645 113.438 258.655 111.865C258.635 109.053 261.409 107.197 265.198 107.197C269.006 107.197 271.78 109.053 271.78 111.865C271.78 113.408 270.96 114.648 269.592 115.459V119.971H273.303ZM265.198 108.916C262.561 108.916 260.764 110.029 260.784 111.865C260.764 113.682 262.561 114.814 265.198 114.814C267.835 114.814 269.651 113.682 269.651 111.865C269.651 110.029 267.835 108.916 265.198 108.916ZM263.049 119.971H267.385V116.279C266.711 116.436 265.979 116.514 265.198 116.514C264.436 116.514 263.713 116.436 263.049 116.299V119.971ZM277.848 108.018L277.634 117.998H275.427L275.192 108.018H277.848ZM276.54 122.314C275.7 122.314 275.016 121.631 275.016 120.791C275.016 119.971 275.7 119.287 276.54 119.287C277.341 119.287 278.044 119.971 278.044 120.791C278.044 121.631 277.341 122.314 276.54 122.314Z" fill="#4E5968"/>
<path d="M103.029 139.449C103.029 140.611 103.959 141.801 105.49 142.32L104.929 143.277C103.733 142.881 102.886 142.088 102.441 141.131C101.99 142.17 101.149 143.059 99.9529 143.51L99.3513 142.525C100.883 141.938 101.799 140.652 101.799 139.449V139.408H99.6658V138.383H101.799V137.125H103.029V138.383H105.135V139.408H103.029V139.449ZM109.769 137.084V143.592H108.539V140.83H107.144V143.496H105.9V137.303H107.144V139.777H108.539V137.084H109.769ZM109.769 144.098V147.051H102.865V148.186H110.234V149.17H101.58V146.094H108.498V145.082H101.553V144.098H109.769ZM121.771 137.084V146.094H120.486V137.084H121.771ZM122.113 148.008V149.061H113.677V145.383H114.976V148.008H122.113ZM117.875 137.932V141.582H113.541V143.346C115.797 143.339 117.328 143.264 119.146 142.936L119.283 144.002C117.355 144.344 115.728 144.412 113.295 144.412H112.269V140.598H116.589V138.971H112.242V137.932H117.875ZM128.441 140.68C128.441 142.73 129.781 144.85 131.667 145.656L130.957 146.668C129.514 146.032 128.366 144.686 127.798 143.045C127.231 144.795 126.076 146.285 124.654 146.982L123.902 145.957C125.748 145.096 127.115 142.785 127.128 140.68V139.381H124.326V138.301H131.23V139.381H128.441V140.68ZM134.074 137.07V149.32H132.775V137.07H134.074ZM146.773 137.07V149.32H145.529V137.07H146.773ZM144.285 137.303V148.719H143.04V142.812H141.66C141.55 145.205 140.525 146.695 139.007 146.682C137.408 146.695 136.369 145.014 136.369 142.361C136.369 139.709 137.408 138.041 139.007 138.055C140.497 138.041 141.509 139.456 141.66 141.76H143.04V137.303H144.285ZM139.007 139.271C138.119 139.271 137.572 140.406 137.572 142.361C137.572 144.316 138.119 145.451 139.007 145.451C139.91 145.451 140.47 144.316 140.47 142.361C140.47 140.406 139.91 139.271 139.007 139.271ZM162.081 142.717V143.756H158.376V146.75H163.366V147.816H152.155V146.75H157.091V143.756H153.55V138.014H161.972V139.066H154.849V142.717H162.081ZM174.671 137.084V146.053H173.372V141.445H171.034V140.393H173.372V137.084H174.671ZM174.999 148.008V149.061H166.714V145.246H168.013V148.008H174.999ZM168.847 139.559C168.847 141.09 169.954 142.621 171.8 143.236L171.13 144.275C169.756 143.79 168.737 142.806 168.204 141.596C167.671 142.942 166.598 144.029 165.142 144.549L164.472 143.496C166.358 142.854 167.521 141.24 167.521 139.559V139.08H164.868V138.014H171.472V139.08H168.847V139.559ZM182.817 139.094V140.146H176.733V139.094H179.14V137.426H180.425V139.094H182.817ZM179.782 140.885C181.341 140.885 182.434 142.047 182.448 143.701C182.434 145.369 181.341 146.545 179.782 146.545C178.251 146.545 177.116 145.369 177.13 143.701C177.116 142.047 178.251 140.885 179.782 140.885ZM179.782 141.965C178.893 141.965 178.278 142.689 178.278 143.701C178.278 144.74 178.893 145.438 179.782 145.438C180.657 145.438 181.3 144.74 181.3 143.701C181.3 142.689 180.657 141.965 179.782 141.965ZM187.247 137.07V149.32H186.016V143.236H184.608V148.746H183.378V137.344H184.608V142.17H186.016V137.07H187.247ZM195.432 137.262V138.328H201.106V137.262H202.405V141.322H198.878V142.389H203.854V143.428H192.684V142.389H197.606V141.322H194.147V137.262H195.432ZM195.432 140.338H201.106V139.285H195.432V140.338ZM202.446 144.316V147.174H195.309V148.199H202.788V149.197H194.038V146.244H201.161V145.287H194.024V144.316H202.446ZM214.721 137.07V142.047H216.499V143.113H214.721V149.32H213.422V137.07H214.721ZM208.678 138.383C208.678 141.445 208.118 144.234 205.903 146.6L204.877 145.875C206.668 144.016 207.318 141.903 207.448 139.449H205.315V138.383H208.678ZM212.055 138.383C212.055 141.486 211.672 144.74 209.416 147.406L208.377 146.695C210.196 144.569 210.743 142.067 210.838 139.449H209.075V138.383H212.055ZM228.5 146.709V147.789H217.289V146.709H219.969V143.51C218.964 142.956 218.356 142.074 218.356 140.98C218.356 139.053 220.243 137.781 222.868 137.781C225.506 137.781 227.393 139.053 227.393 140.98C227.393 142.061 226.805 142.929 225.821 143.482V146.709H228.5ZM222.868 138.82C220.94 138.82 219.614 139.654 219.614 140.98C219.614 142.293 220.94 143.154 222.868 143.154C224.782 143.154 226.135 142.293 226.135 140.98C226.135 139.654 224.782 138.82 222.868 138.82ZM221.254 146.709H224.508V143.975C224.009 144.104 223.455 144.166 222.868 144.166C222.293 144.166 221.746 144.104 221.254 143.988V146.709ZM231.602 145.219C231.615 143.428 232.149 142.881 233.051 142.32C233.625 141.965 234.063 141.473 234.063 140.748C234.063 139.887 233.406 139.354 232.586 139.354C231.848 139.354 231.137 139.805 231.069 140.816H229.592C229.647 139.08 230.959 138.123 232.586 138.123C234.364 138.123 235.553 139.189 235.553 140.748C235.553 141.842 235.033 142.58 234.158 143.113C233.338 143.605 233.024 144.111 232.996 145.219V145.301H231.602V145.219ZM232.354 148.254C231.821 148.254 231.369 147.816 231.383 147.283C231.369 146.75 231.821 146.312 232.354 146.312C232.873 146.312 233.324 146.75 233.324 147.283C233.324 147.816 232.873 148.254 232.354 148.254Z" fill="#8B95A1"/>
<defs>
<linearGradient id="paint0_linear_1029_28794" x1="127.924" y1="67.4571" x2="219.831" y2="67.4571" gradientUnits="userSpaceOnUse">
<stop stop-color="#F6F8F9"/>
<stop offset="1" stop-color="#D3D8DC"/>
</linearGradient>
<linearGradient id="paint1_linear_1029_28794" x1="154.504" y1="81.1584" x2="154.504" y2="0" gradientUnits="userSpaceOnUse">
<stop stop-color="#F0F2F4"/>
<stop offset="1" stop-color="#D1D6DB"/>
</linearGradient>
</defs>
</svg>
