<svg width="81" height="80" viewBox="0 0 81 80" fill="none" xmlns="http://www.w3.org/2000/svg">
<rect width="80" height="80" transform="translate(0.5)" fill="white"/>
<path d="M76.998 58.6635C76.998 53.4114 72.7329 49.1463 67.4808 49.1463H13.1709V68.1782H67.4833C72.7353 68.1782 77.0005 63.9131 77.0005 58.661L76.998 58.6635Z" fill="url(#paint0_linear_708_11125)"/>
<path d="M18.3956 11.8203C24.4795 11.8203 29.6627 15.1158 31.6316 19.7304C33.6005 15.1158 38.7837 11.8203 44.8676 11.8203C52.6448 11.8203 58.9502 17.2053 58.9502 23.8503V68.1803H7.92595C5.92997 68.1803 4.313 66.7996 4.313 65.094V23.8503C4.313 17.2077 10.6184 11.8203 18.3956 11.8203Z" fill="url(#paint1_linear_708_11125)"/>
<path d="M44.7915 45.2246C41.865 45.2246 39.4927 42.8522 39.4927 39.9258C39.4927 36.9993 41.865 34.627 44.7915 34.627C47.718 34.627 50.0903 36.9993 50.0903 39.9258C50.0903 42.8522 47.718 45.2246 44.7915 45.2246Z" fill="#D1D6DB"/>
<path d="M18.4522 45.2104C15.5257 45.2104 13.1533 42.8381 13.1533 39.9116C13.1533 36.9852 15.5257 34.6128 18.4522 34.6128C21.3786 34.6128 23.751 36.9852 23.751 39.9116C23.751 42.8381 21.3786 45.2104 18.4522 45.2104Z" fill="#D1D6DB"/>
<path d="M38.3334 42.8226C34.4908 42.8226 31.3758 39.1578 31.3758 34.6369C31.3758 30.1161 34.4908 26.4512 38.3334 26.4512C42.176 26.4512 45.291 30.1161 45.291 34.6369C45.291 39.1578 42.176 42.8226 38.3334 42.8226Z" fill="white"/>
<path d="M24.3143 42.9266C20.4717 42.9266 17.3567 39.2618 17.3567 34.7409C17.3567 30.2201 20.4717 26.5552 24.3143 26.5552C28.1569 26.5552 31.272 30.2201 31.272 34.7409C31.272 39.2618 28.1569 42.9266 24.3143 42.9266Z" fill="white"/>
<path d="M40 39C38.067 39 36.5 37.2091 36.5 35C36.5 32.7909 38.067 31 40 31C41.933 31 43.5 32.7909 43.5 35C43.5 37.2091 41.933 39 40 39Z" fill="#4E5968"/>
<path d="M26 39C24.067 39 22.5 37.2091 22.5 35C22.5 32.7909 24.067 31 26 31C27.933 31 29.5 32.7909 29.5 35C29.5 37.2091 27.933 39 26 39Z" fill="#4E5968"/>
<path d="M29.3529 40.4606C28.7346 39.1697 28.9778 37.7668 29.896 37.3271C30.8143 36.8873 32.0598 37.5773 32.678 38.8682C33.2962 40.1591 33.053 41.562 32.1348 42.0018C31.2166 42.4415 29.9711 41.7515 29.3529 40.4606Z" fill="#FFBE6A"/>
<path d="M58.8932 20.3566C58.9316 20.149 59.1667 20.045 59.3461 20.1562L62.0459 21.8283C62.316 21.9956 62.6267 21.6834 62.4582 21.4142L60.8221 18.7989C60.7099 18.6195 60.8137 18.3834 61.0218 18.3448L68.4393 16.9702C68.7664 16.9096 68.7664 16.4409 68.4392 16.3803L60.9173 14.9875C60.7098 14.949 60.6058 14.7139 60.7169 14.5345L62.4376 11.7574C62.6049 11.4874 62.2928 11.1766 62.0235 11.345L59.3176 13.0371C59.1381 13.1493 58.902 13.0455 58.8635 12.8374L57.4927 5.43507C57.4321 5.10791 56.9633 5.10791 56.9027 5.43508L55.5305 12.8452C55.4921 13.0527 55.257 13.1567 55.0775 13.0455L52.3666 11.3658C52.0966 11.1985 51.7859 11.5105 51.9542 11.7798L53.6759 14.5338C53.7881 14.7132 53.6843 14.9493 53.4762 14.9878L45.9573 16.3802C45.6301 16.4408 45.6301 16.9096 45.9573 16.9702L53.4059 18.3501C53.6134 18.3886 53.7174 18.6236 53.6063 18.8031L51.9749 21.437C51.8077 21.707 52.1197 22.0177 52.389 21.8493L55.0534 20.1833C55.2329 20.0711 55.4689 20.1749 55.5075 20.383L56.9027 27.9158C56.9633 28.2429 57.4321 28.2429 57.4927 27.9158L58.8932 20.3566Z" fill="#6B7684"/>
<path d="M69.5422 32.8351C69.5807 32.6276 69.8157 32.5236 69.9951 32.6346L70.7303 33.0897C71.0004 33.2569 71.311 32.9447 71.1425 32.6755L70.7095 31.9836C70.5973 31.8042 70.7011 31.568 70.9092 31.5295L73.8759 30.9794C74.2031 30.9187 74.203 30.4499 73.8758 30.3894L70.8527 29.8303C70.6451 29.7919 70.541 29.5567 70.6523 29.3773L71.1329 28.6019C71.3003 28.3319 70.9881 28.021 70.7188 28.1895L69.9803 28.6514C69.8009 28.7636 69.5648 28.6598 69.5263 28.4517L68.9786 25.4931C68.918 25.1659 68.4492 25.1659 68.3886 25.493L67.8398 28.4565C67.8013 28.6641 67.5662 28.7681 67.3867 28.6568L66.6459 28.1975C66.3759 28.0302 66.0651 28.3422 66.2334 28.6115L66.7117 29.3767C66.8239 29.5561 66.72 29.7922 66.5119 29.8307L63.492 30.3894C63.1648 30.4499 63.1647 30.9187 63.4919 30.9794L66.4758 31.5328C66.6834 31.5712 66.7873 31.8064 66.6761 31.9858L66.2426 32.6852C66.0753 32.9552 66.3872 33.266 66.6565 33.0977L67.3744 32.6491C67.5538 32.5369 67.7898 32.6408 67.8284 32.8489L68.3888 35.8757C68.4494 36.2029 68.9181 36.2029 68.9788 35.8758L69.5422 32.8351Z" fill="#B0B8C1"/>
<defs>
<linearGradient id="paint0_linear_708_11125" x1="13.1734" y1="58.6659" x2="76.998" y2="58.6659" gradientUnits="userSpaceOnUse">
<stop stop-color="#F6F8F9"/>
<stop offset="1" stop-color="#D3D8DC"/>
</linearGradient>
<linearGradient id="paint1_linear_708_11125" x1="31.6316" y1="68.1803" x2="31.6316" y2="11.8203" gradientUnits="userSpaceOnUse">
<stop stop-color="#F0F2F4"/>
<stop offset="1" stop-color="#D1D6DB"/>
</linearGradient>
</defs>
</svg>
