<svg width="45" height="44" viewBox="0 0 45 44" fill="none" xmlns="http://www.w3.org/2000/svg">
<path d="M17.3325 13.8346L18.8472 13.2181C18.8472 13.2181 19.3105 10.8411 21.538 8.58268C22.0132 8.10254 22.4825 7.59277 22.7319 6.95258C23.0171 6.22941 23.1418 5.33434 22.5122 4.59338C22.037 4.03025 21.2826 3.84057 20.5876 3.97691C18.9006 4.30293 15.7999 5.95674 17.3265 13.8286L17.3325 13.8346Z" fill="#4AD188"/>
<path d="M42.5953 34.8293C42.5953 31.9418 40.2468 29.5933 37.3593 29.5933H7.48877V40.0598H37.3648C40.2523 40.0598 42.6008 37.7113 42.6008 34.8238L42.5953 34.8293Z" fill="url(#paint0_linear_1031_24691)"/>
<path d="M10.3602 9.06738C13.7042 9.06738 16.5587 10.8824 17.6422 13.4179C18.7257 10.8824 21.5747 9.06738 24.9242 9.06738C29.2032 9.06738 32.6682 12.0319 32.6682 15.6839V40.0654H4.60171C3.50171 40.0654 2.61621 39.3064 2.61621 38.3659V15.6839C2.61621 12.0264 6.08671 9.06738 10.3602 9.06738Z" fill="url(#paint1_linear_1031_24691)"/>
<path d="M24.8798 27.4369C23.2683 27.4369 21.9648 26.1334 21.9648 24.5219C21.9648 22.9104 23.2683 21.6069 24.8798 21.6069C26.4913 21.6069 27.7948 22.9104 27.7948 24.5219C27.7948 26.1334 26.4913 27.4369 24.8798 27.4369Z" fill="#5CD694"/>
<path d="M10.393 27.4316C8.78153 27.4316 7.47803 26.1281 7.47803 24.5166C7.47803 22.9051 8.78153 21.6016 10.393 21.6016C12.0045 21.6016 13.308 22.9051 13.308 24.5166C13.308 26.1281 12.0045 27.4316 10.393 27.4316Z" fill="#5CD694"/>
<path d="M21.3275 26.1174C19.2155 26.1174 17.4995 24.0989 17.4995 21.6129C17.4995 19.1269 19.2155 17.1084 21.3275 17.1084C23.4395 17.1084 25.1555 19.1269 25.1555 21.6129C25.1555 24.0989 23.4395 26.1174 21.3275 26.1174Z" fill="white"/>
<path d="M13.6156 26.1721C11.5036 26.1721 9.7876 24.1536 9.7876 21.6676C9.7876 19.1816 11.5036 17.1631 13.6156 17.1631C15.7276 17.1631 17.4436 19.1816 17.4436 21.6676C17.4436 24.1536 15.7276 26.1721 13.6156 26.1721Z" fill="white"/>
<path d="M21.0962 24.9785C19.7157 24.9785 18.5938 23.6585 18.5938 22.0305C18.5938 20.4025 19.7157 19.0825 21.0962 19.0825C22.4767 19.0825 23.5988 20.4025 23.5988 22.0305C23.5988 23.6585 22.4767 24.9785 21.0962 24.9785Z" fill="#040000"/>
<circle cx="21.9487" cy="21.0459" r="0.605" fill="white"/>
<path d="M13.9185 24.9785C12.538 24.9785 11.416 23.6585 11.416 22.0305C11.416 20.4025 12.538 19.0825 13.9185 19.0825C15.299 19.0825 16.421 20.4025 16.421 22.0305C16.421 23.6585 15.299 24.9785 13.9185 24.9785Z" fill="#040000"/>
<circle cx="14.771" cy="21.0459" r="0.605" fill="white"/>
<path d="M16.5555 24.9791C16.2145 24.2696 16.3465 23.4996 16.8525 23.2576C17.3585 23.0156 18.0405 23.3951 18.3815 24.1046C18.7225 24.8141 18.5905 25.5841 18.0845 25.8261C17.5785 26.0681 16.8965 25.6886 16.5555 24.9791Z" fill="#F6B96B"/>
<defs>
<linearGradient id="paint0_linear_1031_24691" x1="7.48877" y1="34.8293" x2="42.5953" y2="34.8293" gradientUnits="userSpaceOnUse">
<stop stop-color="#AEF1BE"/>
<stop offset="1" stop-color="#59DB95"/>
</linearGradient>
<linearGradient id="paint1_linear_1031_24691" x1="17.6422" y1="40.0654" x2="17.6422" y2="9.06738" gradientUnits="userSpaceOnUse">
<stop stop-color="#AEF1BE"/>
<stop offset="1" stop-color="#59DB95"/>
</linearGradient>
</defs>
</svg>
