<svg width="861" height="402" viewBox="0 0 861 402" fill="none" xmlns="http://www.w3.org/2000/svg">
<path d="M347.468 91.6182C310.258 122.809 245.263 178.747 214.055 205.663C204.175 214.184 189.35 213.22 180.6 203.543L41.802 50.0354C27.0683 33.7402 3.07013e-06 44.1631 4.74126e-06 66.1316L2.84535e-05 377.851C2.94618e-05 391.106 10.7452 401.851 24 401.851H233.101H639.101H836.958C850.212 401.851 860.958 391.106 860.958 377.851V131.022C860.958 109.558 834.935 98.8878 819.866 114.173L762.974 171.882C752.66 182.344 735.452 181.168 726.658 169.399L607.473 9.90303C598.799 -1.70474 581.895 -3.03676 571.51 7.06916L452.99 122.403C444.531 130.635 431.344 131.494 421.888 124.431L376.966 90.8717C368.12 84.2634 355.931 84.525 347.468 91.6182Z" fill="url(#paint0_linear_1106_5240)"/>
<defs>
<linearGradient id="paint0_linear_1106_5240" x1="438.658" y1="-19.54" x2="438.658" y2="401.851" gradientUnits="userSpaceOnUse">
<stop stop-color="#F6F8FF"/>
<stop offset="1" stop-color="#C6D4FF"/>
</linearGradient>
</defs>
</svg>
