<svg width="45" height="44" viewBox="0 0 45 44" fill="none" xmlns="http://www.w3.org/2000/svg">
<path d="M20.7036 4.07003C19.9826 3.77424 18.7737 4.99599 18.0043 6.79217C17.8593 7.13083 17.7406 7.46949 17.6482 7.79529C17.5559 7.46949 17.4372 7.13511 17.2922 6.79217C16.5184 4.99599 15.3095 3.77853 14.5885 4.07003C13.8632 4.36583 13.9027 6.05912 14.6721 7.85959C15.4414 9.65577 16.6503 10.8775 17.3713 10.5817C17.4812 10.5389 17.5691 10.4574 17.6438 10.3545C17.7186 10.4574 17.8065 10.5389 17.9164 10.5817C18.6374 10.8775 19.8463 9.65577 20.6156 7.85959C21.385 6.06341 21.4245 4.36583 20.6992 4.07003H20.7036Z" fill="url(#paint0_linear_1029_28324)"/>
<mask id="mask0_1029_28324" style="mask-type:luminance" maskUnits="userSpaceOnUse" x="2" y="8" width="41" height="32">
<path d="M42.5977 8.9751H2.61816V39.9731H42.5977V8.9751Z" fill="white"/>
</mask>
<g mask="url(#mask0_1029_28324)">
<path d="M42.5972 34.7428C42.5972 31.8553 40.2487 29.5068 37.3612 29.5068H7.49072V39.9733H37.3667C40.2542 39.9733 42.6027 37.6248 42.6027 34.7373L42.5972 34.7428Z" fill="url(#paint1_linear_1029_28324)"/>
<path d="M10.3622 8.9751C6.08866 8.9751 2.61816 11.9396 2.61816 15.5916V38.2791C2.61816 39.2196 3.50916 39.9786 4.60366 39.9786H32.6702V15.5916C32.6702 11.9341 29.1997 8.9751 24.9262 8.9751H10.3622Z" fill="url(#paint2_linear_1029_28324)"/>
<path d="M24.7882 27.3498C23.1159 27.3498 21.7632 26.612 21.7632 25.6998C21.7632 24.7876 23.1159 24.0498 24.7882 24.0498C26.4605 24.0498 27.8132 24.7876 27.8132 25.6998C27.8132 26.612 26.4605 27.3498 24.7882 27.3498Z" fill="#FBAAB3"/>
<path d="M10.2129 27.3498C8.69261 27.3498 7.46289 26.612 7.46289 25.6998C7.46289 24.7876 8.69261 24.0498 10.2129 24.0498C11.7332 24.0498 12.9629 24.7876 12.9629 25.6998C12.9629 26.612 11.7332 27.3498 10.2129 27.3498Z" fill="#FBAAB3"/>
<path d="M21.329 26.0251C19.217 26.0251 17.501 24.0066 17.501 21.5206C17.501 19.0346 19.217 17.0161 21.329 17.0161C23.441 17.0161 25.157 19.0346 25.157 21.5206C25.157 24.0066 23.441 26.0251 21.329 26.0251Z" fill="white"/>
<path d="M13.6176 26.0857C11.5056 26.0857 9.78955 24.0672 9.78955 21.5812C9.78955 19.0952 11.5056 17.0767 13.6176 17.0767C15.7296 17.0767 17.4456 19.0952 17.4456 21.5812C17.4456 24.0672 15.7296 26.0857 13.6176 26.0857Z" fill="white"/>
<path d="M21.0699 24.8857C19.6894 24.8857 18.5674 23.5657 18.5674 21.9377C18.5674 20.3097 19.6894 18.9897 21.0699 18.9897C22.4504 18.9897 23.5724 20.3097 23.5724 21.9377C23.5724 23.5657 22.4504 24.8857 21.0699 24.8857Z" fill="#040000"/>
<path d="M13.921 24.8857C12.5405 24.8857 11.4185 23.5657 11.4185 21.9377C11.4185 20.3097 12.5405 18.9897 13.921 18.9897C15.3015 18.9897 16.4235 20.3097 16.4235 21.9377C16.4235 23.5657 15.3015 24.8857 13.921 24.8857Z" fill="#040000"/>
<path d="M21.0435 21.625L21.1279 21.9201C21.2659 22.4013 21.6422 22.7776 22.1234 22.9155L22.4185 23L22.1234 23.0845C21.6422 23.2224 21.2659 23.5987 21.1279 24.0799L21.0435 24.375L20.959 24.0799C20.821 23.5987 20.4447 23.2224 19.9635 23.0845L19.6685 23L19.9635 22.9155C20.4447 22.7776 20.821 22.4013 20.959 21.9201L21.0435 21.625Z" fill="white"/>
<path d="M13.8931 21.625L13.9775 21.9201C14.1155 22.4013 14.4918 22.7776 14.973 22.9155L15.2681 23L14.973 23.0845C14.4918 23.2224 14.1155 23.5987 13.9775 24.0799L13.8931 24.375L13.8086 24.0799C13.6706 23.5987 13.2943 23.2224 12.8131 23.0845L12.5181 23L12.8131 22.9155C13.2943 22.7776 13.6706 22.4013 13.8086 21.9201L13.8931 21.625Z" fill="white"/>
<path d="M16.5575 24.5201C16.2165 23.8106 16.3485 23.0406 16.8545 22.7986C17.3605 22.5566 18.0425 22.9361 18.3835 23.6456C18.7245 24.3551 18.5925 25.1251 18.0865 25.3671C17.5805 25.6091 16.8985 25.2296 16.5575 24.5201Z" fill="#FF6574"/>
</g>
<defs>
<linearGradient id="paint0_linear_1029_28324" x1="17.6438" y1="4.02588" x2="17.6438" y2="10.6259" gradientUnits="userSpaceOnUse">
<stop stop-color="#FBA7B0"/>
<stop offset="1" stop-color="#F7C2C7"/>
</linearGradient>
<linearGradient id="paint1_linear_1029_28324" x1="7.49072" y1="34.7373" x2="42.5972" y2="34.7373" gradientUnits="userSpaceOnUse">
<stop offset="0.427885" stop-color="#F9D9DC"/>
<stop offset="1" stop-color="#FBA7B0"/>
</linearGradient>
<linearGradient id="paint2_linear_1029_28324" x1="17.6442" y1="39.9731" x2="17.6442" y2="8.9751" gradientUnits="userSpaceOnUse">
<stop stop-color="#F9D9DC"/>
<stop offset="1" stop-color="#FBA7B0"/>
</linearGradient>
</defs>
</svg>
