<svg width="127" height="121" viewBox="0 0 127 121" fill="none" xmlns="http://www.w3.org/2000/svg">
<rect x="0.892578" y="102.753" width="126.084" height="16.2689" rx="8.13443" fill="#B1C1FF"/>
<mask id="mask0_1784_24511" style="mask-type:luminance" maskUnits="userSpaceOnUse" x="9" y="22" width="110" height="86">
<path d="M118.41 22.8359H9.375V107.376H118.41V22.8359Z" fill="white"/>
</mask>
<g mask="url(#mask0_1784_24511)">
<path d="M118.41 93.111C118.41 85.236 112.005 78.8311 104.13 78.8311H22.665V107.376H104.145C112.02 107.376 118.425 100.971 118.425 93.0961L118.41 93.111Z" fill="url(#paint0_linear_1784_24511)"/>
<path d="M96.78 28.1759C95.82 26.9759 94.305 26.3309 92.775 26.3759C85.485 26.6009 82.125 25.7909 80.73 25.2509C80.475 25.1309 80.22 25.0109 79.965 24.8909C79.875 24.8309 79.845 24.8009 79.845 24.8009V24.8459C76.965 23.5709 73.695 22.8509 70.215 22.8509C61.095 22.8509 53.31 27.8009 50.355 34.7159C47.4 27.7859 39.63 22.8359 30.495 22.8359C18.84 22.8359 9.375 30.9209 9.375 40.8809V102.756C9.375 105.321 11.805 107.391 14.79 107.391H91.335V40.8809C91.335 40.7909 91.32 40.6859 91.32 40.5959C100.83 36.9359 98.415 30.2159 96.78 28.1759Z" fill="url(#paint1_linear_1784_24511)"/>
<path d="M69.8389 72.9492C65.278 72.9492 61.5889 70.937 61.5889 68.4492C61.5889 65.9615 65.278 63.9492 69.8389 63.9492C74.3997 63.9492 78.0889 65.9615 78.0889 68.4492C78.0889 70.937 74.3997 72.9492 69.8389 72.9492Z" fill="#FFD84A"/>
<path d="M30.0889 72.9492C25.9426 72.9492 22.5889 70.937 22.5889 68.4492C22.5889 65.9615 25.9426 63.9492 30.0889 63.9492C34.2351 63.9492 37.5889 65.9615 37.5889 68.4492C37.5889 70.937 34.2351 72.9492 30.0889 72.9492Z" fill="#FFD84A"/>
<path d="M60.4039 69.3356C54.6439 69.3356 49.9639 63.8306 49.9639 57.0506C49.9639 50.2706 54.6439 44.7656 60.4039 44.7656C66.1639 44.7656 70.8439 50.2706 70.8439 57.0506C70.8439 63.8306 66.1639 69.3356 60.4039 69.3356Z" fill="white"/>
<path d="M39.3746 69.5016C33.6146 69.5016 28.9346 63.9966 28.9346 57.2166C28.9346 50.4366 33.6146 44.9316 39.3746 44.9316C45.1346 44.9316 49.8146 50.4366 49.8146 57.2166C49.8146 63.9966 45.1346 69.5016 39.3746 69.5016Z" fill="white"/>
<path d="M59.7742 66.2304C56.0092 66.2304 52.9492 62.6304 52.9492 58.1904C52.9492 53.7504 56.0092 50.1504 59.7742 50.1504C63.5392 50.1504 66.5992 53.7504 66.5992 58.1904C66.5992 62.6304 63.5392 66.2304 59.7742 66.2304Z" fill="#040000"/>
<path d="M40.2 66.2304C36.435 66.2304 33.375 62.6304 33.375 58.1904C33.375 53.7504 36.435 50.1504 40.2 50.1504C43.965 50.1504 47.025 53.7504 47.025 58.1904C47.025 62.6304 43.965 66.2304 40.2 66.2304Z" fill="#040000"/>
<path d="M46.9352 65.7954C46.0052 63.8604 46.3652 61.7604 47.7452 61.1004C49.1252 60.4404 50.9852 61.4754 51.9152 63.4104C52.8452 65.3454 52.4852 67.4454 51.1052 68.1054C49.7252 68.7654 47.8652 67.7304 46.9352 65.7954Z" fill="#FFA635"/>
<path d="M62.8794 60.0059C63.7644 60.0059 64.3644 60.8909 64.0494 61.7009C63.3594 63.4559 61.6494 64.7009 59.6394 64.7009C57.6294 64.7009 55.9194 63.4559 55.2294 61.7009C54.9144 60.8759 55.5144 60.0059 56.3994 60.0059H62.8944H62.8794Z" fill="#F9E496"/>
<path d="M43.3052 60.0059C44.1902 60.0059 44.7902 60.8909 44.4752 61.7009C43.7852 63.4559 42.0752 64.7009 40.0652 64.7009C38.0552 64.7009 36.3452 63.4559 35.6552 61.7009C35.3402 60.8759 35.9402 60.0059 36.8252 60.0059H43.3202H43.3052Z" fill="#F9E496"/>
</g>
<defs>
<linearGradient id="paint0_linear_1784_24511" x1="22.665" y1="93.0961" x2="118.41" y2="93.0961" gradientUnits="userSpaceOnUse">
<stop offset="0.504808" stop-color="#FFF3A6"/>
<stop offset="1" stop-color="#FFDD60"/>
</linearGradient>
<linearGradient id="paint1_linear_1784_24511" x1="53.85" y1="22.8359" x2="53.85" y2="107.376" gradientUnits="userSpaceOnUse">
<stop stop-color="#FFF3A6"/>
<stop offset="1" stop-color="#FFDD60"/>
</linearGradient>
</defs>
</svg>
