<svg width="181" height="119" viewBox="0 0 181 119" fill="none" xmlns="http://www.w3.org/2000/svg">
<path d="M152.304 87.2258C152.304 79.4463 145.986 73.1287 138.206 73.1287H57.7611V101.319H138.21C145.99 101.319 152.307 95.0017 152.307 87.2222L152.304 87.2258Z" fill="url(#paint0_linear_1362_5471)"/>
<path d="M65.5004 17.8408C74.5121 17.8408 82.1895 22.7222 85.1059 29.5575C88.0223 22.7222 95.6998 17.8408 104.711 17.8408C116.231 17.8408 125.571 25.8172 125.571 35.66V101.323H49.9924C47.0359 101.323 44.6408 99.2778 44.6408 96.7514V35.66C44.6408 25.8208 53.9806 17.8408 65.5004 17.8408Z" fill="url(#paint1_linear_1362_5471)"/>
<path d="M104.599 67.3211C100.264 67.3211 96.7498 63.8071 96.7498 59.4723C96.7498 55.1375 100.264 51.6235 104.599 51.6235C108.933 51.6235 112.447 55.1375 112.447 59.4723C112.447 63.8071 108.933 67.3211 104.599 67.3211Z" fill="#A5BDF9"/>
<path d="M65.5842 67.2991C61.2494 67.2991 57.7354 63.7851 57.7354 59.4503C57.7354 55.1156 61.2494 51.6016 65.5842 51.6016C69.9189 51.6016 73.4329 55.1156 73.4329 59.4503C73.4329 63.7851 69.9189 67.2991 65.5842 67.2991Z" fill="#A5BDF9"/>
<path d="M95.0327 63.7631C89.3409 63.7631 84.7268 58.3346 84.7268 51.6381C84.7268 44.9417 89.3409 39.5132 95.0327 39.5132C100.724 39.5132 105.339 44.9417 105.339 51.6381C105.339 58.3346 100.724 63.7631 95.0327 63.7631Z" fill="white"/>
<path d="M74.2676 63.9159C68.5759 63.9159 63.9618 58.4874 63.9618 51.791C63.9618 45.0945 68.5759 39.666 74.2676 39.666C79.9594 39.666 84.5735 45.0945 84.5735 51.791C84.5735 58.4874 79.9594 63.9159 74.2676 63.9159Z" fill="white"/>
<path d="M94.4023 60.6939C90.6776 60.6939 87.6581 57.1423 87.6581 52.7612C87.6581 48.3802 90.6776 44.8286 94.4023 44.8286C98.127 44.8286 101.146 48.3802 101.146 52.7612C101.146 57.1423 98.127 60.6939 94.4023 60.6939Z" fill="black"/>
<path d="M75.081 60.6939C71.3563 60.6939 68.3368 57.1423 68.3368 52.7612C68.3368 48.3802 71.3563 44.8286 75.081 44.8286C78.8057 44.8286 81.8252 48.3802 81.8252 52.7612C81.8252 57.1423 78.8057 60.6939 75.081 60.6939Z" fill="black"/>
<path d="M81.7309 60.2643C80.8152 58.3521 81.1754 56.2741 82.5355 55.6227C83.8955 54.9714 85.7404 55.9934 86.6562 57.9055C87.5719 59.8176 87.2116 61.8957 85.8516 62.547C84.4915 63.1984 82.6466 62.1764 81.7309 60.2643Z" fill="#FFBE6A"/>
<path d="M97.4682 54.5396C98.3359 54.5396 98.9374 55.4145 98.6202 56.2201C97.9422 57.9517 96.247 59.1803 94.2602 59.1803C92.2734 59.1803 90.5819 57.9517 89.9002 56.2201C89.583 55.4108 90.1845 54.5396 91.0522 54.5396H97.4646H97.4682Z" fill="#8FAEFF"/>
<path d="M78.1468 54.5396C79.0144 54.5396 79.6159 55.4145 79.2988 56.2201C78.6207 57.9517 76.9255 59.1803 74.9387 59.1803C72.9519 59.1803 71.2604 57.9517 70.5787 56.2201C70.2615 55.4108 70.863 54.5396 71.7307 54.5396H78.1431H78.1468Z" fill="#8FAEFF"/>
<path d="M44.4376 31.587C44.5573 29.9941 45.8847 28.7627 47.4821 28.7627H122.642C124.252 28.7627 125.585 30.0126 125.688 31.6191L126.176 39.1789C126.29 40.9387 124.893 42.4285 123.13 42.4285H46.9141C45.1378 42.4285 43.7365 40.918 43.8696 39.1468L44.4376 31.587Z" fill="white"/>
<path d="M130.454 27.4976L124.681 32.7549C124.41 33.0012 124.256 33.3502 124.256 33.7162C124.256 34.5849 125.092 35.2092 125.925 34.9631L133.141 32.8311C134.188 32.5217 134.734 31.3708 134.31 30.3643L133.376 28.142C132.886 26.976 131.389 26.646 130.454 27.4976Z" fill="white"/>
<path d="M131.047 34.9814L124.886 34.7253C124.584 34.7128 124.294 34.8428 124.091 35.0809C123.634 35.6183 123.781 36.4796 124.388 36.8135L129.816 39.8015C130.781 40.3327 131.954 39.8179 132.29 38.7157L132.668 37.4772C133.034 36.2781 132.223 35.0303 131.047 34.9814Z" fill="white"/>
<path d="M74.1589 39.1914C79.7437 39.1914 84.3664 44.0373 85.155 50.3502C85.2659 51.2379 84.3434 51.8314 83.5336 51.4512L67.5054 43.9278C66.7885 43.5912 66.576 42.6682 67.1481 42.1205C69.0606 40.2892 71.5008 39.1914 74.1589 39.1914Z" fill="#839DF1"/>
<path d="M95.3101 39.1914C89.7253 39.1914 85.1026 44.0373 84.314 50.3502C84.2031 51.2379 85.1256 51.8314 85.9354 51.4512L101.964 43.9278C102.681 43.5912 102.893 42.6682 102.321 42.1205C100.408 40.2892 97.9682 39.1914 95.3101 39.1914Z" fill="#839DF1"/>
<rect x="144.278" y="56.2891" width="9.06397" height="9.68314" rx="0.817844" transform="rotate(90 144.278 56.2891)" fill="#B1C1FF"/>
<circle cx="138.619" cy="85.9972" r="25.3527" fill="#557AF3"/>
<circle cx="138.619" cy="85.9971" r="20.6446" fill="white"/>
<rect x="137.801" y="67.2012" width="1.63569" height="3.27138" rx="0.817844" fill="#CED8F8"/>
<rect x="137.801" y="101.522" width="1.63569" height="3.27138" rx="0.817844" fill="#CED8F8"/>
<rect x="157.416" y="85.1797" width="1.63569" height="3.27138" rx="0.817844" transform="rotate(90 157.416 85.1797)" fill="#CED8F8"/>
<rect x="123.094" y="85.1797" width="1.63569" height="3.27138" rx="0.817844" transform="rotate(90 123.094 85.1797)" fill="#CED8F8"/>
<rect x="154.488" y="75.8906" width="1.63569" height="3.27138" rx="0.817844" transform="rotate(60 154.488 75.8906)" fill="#CED8F8"/>
<rect x="124.765" y="93.0518" width="1.63569" height="3.27138" rx="0.817844" transform="rotate(60 124.765 93.0518)" fill="#CED8F8"/>
<rect x="147.309" y="69.3105" width="1.63569" height="3.27138" rx="0.817844" transform="rotate(30 147.309 69.3105)" fill="#CED8F8"/>
<rect x="130.148" y="99.0342" width="1.63569" height="3.27138" rx="0.817844" transform="rotate(30 130.148 99.0342)" fill="#CED8F8"/>
<rect x="128.512" y="70.1279" width="1.63569" height="3.27138" rx="0.817844" transform="rotate(-30 128.512 70.1279)" fill="#CED8F8"/>
<rect x="145.673" y="99.8516" width="1.63569" height="3.27138" rx="0.817844" transform="rotate(-30 145.673 99.8516)" fill="#CED8F8"/>
<rect x="121.932" y="77.3076" width="1.63569" height="3.27138" rx="0.817844" transform="rotate(-60 121.932 77.3076)" fill="#CED8F8"/>
<rect x="151.655" y="94.4688" width="1.63569" height="3.27138" rx="0.817844" transform="rotate(-60 151.655 94.4688)" fill="#CED8F8"/>
<path d="M147.482 77.4336L138.932 85.984" stroke="#839DF1" stroke-width="1.22677" stroke-linecap="round"/>
<circle cx="138.619" cy="85.997" r="2.12009" fill="#557AF3"/>
<rect x="129.331" y="52.1914" width="20.2127" height="6.10907" rx="3.05454" fill="#557AF3"/>
<path d="M170.428 17.9912C170.341 17.9191 170.238 17.8689 170.128 17.8448C170.018 17.8207 169.904 17.8235 169.795 17.8529C169.686 17.8823 169.585 17.9375 169.502 18.0138C169.419 18.09 169.356 18.1852 169.317 18.2912L167.382 23.605L165.257 21.5458C165.185 21.4766 165.1 21.4233 165.006 21.3894C164.913 21.3555 164.813 21.3418 164.714 21.3492C164.615 21.3566 164.519 21.3849 164.431 21.4323C164.344 21.4797 164.267 21.5451 164.207 21.6241C162.302 24.1205 161.334 26.6319 161.334 29.0878C161.334 31.1408 162.15 33.1097 163.601 34.5614C165.053 36.0131 167.022 36.8286 169.075 36.8286C171.128 36.8286 173.097 36.0131 174.549 34.5614C176 33.1097 176.816 31.1408 176.816 29.0878C176.816 23.8584 172.348 19.5877 170.428 17.9912Z" fill="#F04452"/>
<path d="M173.191 33.508C174.05 32.6497 174.625 31.549 174.839 30.3541H174.84C174.876 30.1383 174.826 29.9168 174.699 29.7383C174.572 29.5598 174.38 29.4389 174.164 29.4023C173.948 29.3656 173.727 29.4162 173.548 29.5429C173.37 29.6696 173.249 29.862 173.212 30.0777C172.923 31.7896 171.473 33.2396 169.764 33.5273C169.56 33.5615 169.376 33.6711 169.249 33.8345C169.122 33.9979 169.061 34.203 169.078 34.4092C169.095 34.6155 169.189 34.8077 169.341 34.9479C169.494 35.0881 169.693 35.1659 169.9 35.1659C169.946 35.1662 169.992 35.1624 170.037 35.1546C171.232 34.9409 172.333 34.3663 173.191 33.508Z" fill="#FFD4D6"/>
<path d="M17.9039 56.5698C17.7882 56.4736 17.6511 56.4067 17.5042 56.3746C17.3572 56.3425 17.2047 56.3463 17.0595 56.3855C16.9143 56.4247 16.7806 56.4982 16.6698 56.5999C16.5589 56.7016 16.4741 56.8284 16.4226 56.9698L13.8423 64.0549L11.0087 61.3093C10.9136 61.217 10.7999 61.1459 10.6753 61.1007C10.5507 61.0555 10.4179 61.0373 10.2857 61.0471C10.1535 61.057 10.0249 61.0948 9.90831 61.1579C9.79176 61.2211 9.68993 61.3083 9.60951 61.4137C7.06913 64.7422 5.77899 68.0907 5.77899 71.3653C5.77899 74.1026 6.86639 76.7278 8.80196 78.6634C10.7375 80.599 13.3627 81.6864 16.1001 81.6864C18.8374 81.6864 21.4626 80.599 23.3982 78.6634C25.3337 76.7278 26.4211 74.1026 26.4211 71.3653C26.4211 64.3927 20.4642 58.6985 17.9039 56.5698Z" fill="#F04452"/>
<path d="M21.5885 77.2589C22.7331 76.1145 23.4996 74.6469 23.7849 73.0537H23.7862C23.8351 72.766 23.7677 72.4706 23.5988 72.2326C23.4299 71.9946 23.1733 71.8334 22.8856 71.7846C22.5979 71.7357 22.3025 71.8032 22.0645 71.9721C21.8265 72.141 21.6654 72.3975 21.6165 72.6852C21.2301 74.9677 19.2969 76.901 17.0185 77.2846C16.7464 77.3302 16.5013 77.4764 16.3319 77.6942C16.1625 77.912 16.0812 78.1855 16.1041 78.4605C16.1269 78.7355 16.2523 78.9919 16.4553 79.1787C16.6583 79.3656 16.9241 79.4694 17.2 79.4695C17.2613 79.4698 17.3225 79.4647 17.3829 79.4543C18.9762 79.1694 20.4439 78.4032 21.5885 77.2589Z" fill="#FFD4D6"/>
<defs>
<linearGradient id="paint0_linear_1362_5471" x1="57.7647" y1="87.2295" x2="152.304" y2="87.2295" gradientUnits="userSpaceOnUse">
<stop stop-color="#E1E0FF"/>
<stop offset="1" stop-color="#8FAEFF"/>
</linearGradient>
<linearGradient id="paint1_linear_1362_5471" x1="85.1059" y1="101.323" x2="85.1059" y2="17.8408" gradientUnits="userSpaceOnUse">
<stop stop-color="#E1E0FF"/>
<stop offset="1" stop-color="#8FAEFF"/>
</linearGradient>
</defs>
</svg>
