<svg width="73" height="72" viewBox="0 0 73 72" fill="none" xmlns="http://www.w3.org/2000/svg">
<circle cx="36.5" cy="36" r="34.85" fill="#F0FAF6" stroke="#F0FAF6" stroke-width="1.7"/>
<mask id="mask0_709_12652" style="mask-type:alpha" maskUnits="userSpaceOnUse" x="2" y="2" width="69" height="68">
<circle cx="36.5" cy="36" r="34" fill="#D9D9D9"/>
</mask>
<g mask="url(#mask0_709_12652)">
<path d="M35.6276 30.7114L38.0545 29.7216C38.0545 29.7216 38.7968 25.9052 42.3658 22.2792C43.1271 21.5083 43.879 20.6898 44.2787 19.662C44.7355 18.5009 44.9354 17.0638 43.9266 15.8742C43.1652 14.97 41.9565 14.6655 40.843 14.8844C38.1401 15.4078 33.1722 18.0631 35.6181 30.7019L35.6276 30.7114Z" fill="#4AD188"/>
<path d="M76.1467 64.3676C76.1467 59.7364 72.3799 55.9697 67.7487 55.9697H19.84V72.7567H67.7576C72.3888 72.7567 76.1555 68.99 76.1555 64.3588L76.1467 64.3676Z" fill="url(#paint0_linear_709_12652)"/>
<path d="M24.4454 23.0488C29.8088 23.0488 34.3871 25.9599 36.1249 30.0265C37.8627 25.9599 42.4321 23.0488 47.8043 23.0488C54.6673 23.0488 60.2248 27.8035 60.2248 33.6609V72.7659H15.2095C13.4452 72.7659 12.025 71.5486 12.025 70.0401V33.6609C12.025 27.7947 17.5912 23.0488 24.4454 23.0488Z" fill="url(#paint1_linear_709_12652)"/>
<path d="M47.7334 52.5108C45.1488 52.5108 43.0581 50.4201 43.0581 47.8355C43.0581 45.2508 45.1488 43.1602 47.7334 43.1602C50.3181 43.1602 52.4087 45.2508 52.4087 47.8355C52.4087 50.4201 50.3181 52.5108 47.7334 52.5108Z" fill="#5CD694"/>
<path d="M24.4981 52.503C21.9135 52.503 19.8228 50.4123 19.8228 47.8277C19.8228 45.243 21.9135 43.1523 24.4981 43.1523C27.0828 43.1523 29.1734 45.243 29.1734 47.8277C29.1734 50.4123 27.0828 52.503 24.4981 52.503Z" fill="#5CD694"/>
<path d="M42.0356 50.3947C38.6482 50.3947 35.8959 47.1572 35.8959 43.17C35.8959 39.1827 38.6482 35.9453 42.0356 35.9453C45.423 35.9453 48.1752 39.1827 48.1752 43.17C48.1752 47.1572 45.423 50.3947 42.0356 50.3947Z" fill="white"/>
<path d="M29.6668 50.4826C26.2794 50.4826 23.5271 47.2451 23.5271 43.2579C23.5271 39.2706 26.2794 36.0332 29.6668 36.0332C33.0542 36.0332 35.8064 39.2706 35.8064 43.2579C35.8064 47.2451 33.0542 50.4826 29.6668 50.4826Z" fill="white"/>
<path d="M41.6653 48.5688C39.4512 48.5688 37.6516 46.4517 37.6516 43.8405C37.6516 41.2294 39.4512 39.1123 41.6653 39.1123C43.8795 39.1123 45.679 41.2294 45.679 43.8405C45.679 46.4517 43.8795 48.5688 41.6653 48.5688Z" fill="#040000"/>
<circle cx="43.0326" cy="42.2614" r="0.970348" fill="white"/>
<path d="M30.1527 48.5688C27.9386 48.5688 26.139 46.4517 26.139 43.8405C26.139 41.2294 27.9386 39.1123 30.1527 39.1123C32.3669 39.1123 34.1665 41.2294 34.1665 43.8405C34.1665 46.4517 32.3669 48.5688 30.1527 48.5688Z" fill="#040000"/>
<circle cx="31.5198" cy="42.2614" r="0.970348" fill="white"/>
<path d="M34.3819 48.5686C33.8349 47.4306 34.0467 46.1956 34.8582 45.8075C35.6698 45.4194 36.7636 46.028 37.3106 47.166C37.8575 48.3039 37.6458 49.5389 36.8342 49.9271C36.0226 50.3152 34.9288 49.7065 34.3819 48.5686Z" fill="#F6B96B"/>
</g>
<defs>
<linearGradient id="paint0_linear_709_12652" x1="19.84" y1="64.3676" x2="76.1467" y2="64.3676" gradientUnits="userSpaceOnUse">
<stop stop-color="#AEF1BE"/>
<stop offset="1" stop-color="#59DB95"/>
</linearGradient>
<linearGradient id="paint1_linear_709_12652" x1="36.1249" y1="72.7659" x2="36.1249" y2="23.0488" gradientUnits="userSpaceOnUse">
<stop stop-color="#AEF1BE"/>
<stop offset="1" stop-color="#59DB95"/>
</linearGradient>
</defs>
</svg>
