<svg width="72" height="72" viewBox="0 0 72 72" fill="none" xmlns="http://www.w3.org/2000/svg">
<circle cx="36.25" cy="36" r="34.85" fill="#FFF1CD" stroke="#FFF1CD" stroke-width="1.7"/>
<mask id="mask0_709_12657" style="mask-type:alpha" maskUnits="userSpaceOnUse" x="2" y="2" width="69" height="68">
<circle cx="36.25" cy="36" r="34" fill="#D9D9D9"/>
</mask>
<g mask="url(#mask0_709_12657)">
<mask id="mask1_709_12657" style="mask-type:luminance" maskUnits="userSpaceOnUse" x="11" y="22" width="65" height="51">
<path d="M75.8717 22.9258H11.7528V72.6402H75.8717V22.9258Z" fill="white"/>
</mask>
<g mask="url(#mask1_709_12657)">
<path d="M75.8722 64.2529C75.8722 59.622 72.1057 55.8555 67.4747 55.8555H19.5685V72.6416H67.4835C72.1145 72.6416 75.881 68.8751 75.881 64.2441L75.8722 64.2529Z" fill="url(#paint0_linear_709_12657)"/>
<path d="M24.1813 22.9268C29.5444 22.9268 34.1224 25.8377 35.8601 29.9041C37.5979 25.8377 42.1671 22.9268 47.539 22.9268C54.4016 22.9268 59.9588 27.6812 59.9588 33.5383V72.6412H14.9459C13.1817 72.6412 11.7615 71.424 11.7615 69.9156V33.5295C11.7615 27.6724 17.3275 22.918 24.1813 22.918V22.9268Z" fill="url(#paint1_linear_709_12657)"/>
<path d="M47.46 52.397C44.8755 52.397 42.7849 50.3065 42.7849 47.7219C42.7849 45.1374 44.8755 43.0469 47.46 43.0469C50.0445 43.0469 52.135 45.1374 52.135 47.7219C52.135 50.3065 50.0445 52.397 47.46 52.397Z" fill="#FF9946"/>
<path d="M24.2258 52.3794C21.6413 52.3794 19.5508 50.2889 19.5508 47.7044C19.5508 45.1198 21.6413 43.0293 24.2258 43.0293C26.8104 43.0293 28.9009 45.1198 28.9009 47.7044C28.9009 50.2889 26.8104 52.3794 24.2258 52.3794Z" fill="#FF9946"/>
<path d="M41.7706 50.2806C38.3834 50.2806 35.6313 47.0434 35.6313 43.0563C35.6313 39.0693 38.3834 35.832 41.7706 35.832C45.1578 35.832 47.9099 39.0693 47.9099 43.0563C47.9099 47.0434 45.1578 50.2806 41.7706 50.2806Z" fill="white"/>
<path d="M29.4037 50.3685C26.0165 50.3685 23.2643 47.1313 23.2643 43.1442C23.2643 39.1572 26.0165 35.9199 29.4037 35.9199C32.7909 35.9199 35.543 39.1572 35.543 43.1442C35.543 47.1313 32.7909 50.3685 29.4037 50.3685Z" fill="white"/>
<path d="M41.3913 48.4462C39.1772 48.4462 37.3777 46.3292 37.3777 43.7182C37.3777 41.1072 39.1772 38.9902 41.3913 38.9902C43.6053 38.9902 45.4047 41.1072 45.4047 43.7182C45.4047 46.3292 43.6053 48.4462 41.3913 48.4462Z" fill="#040000"/>
<path d="M29.8802 48.4462C27.6662 48.4462 25.8668 46.3292 25.8668 43.7182C25.8668 41.1072 27.6662 38.9902 29.8802 38.9902C32.0943 38.9902 33.8938 41.1072 33.8938 43.7182C33.8938 46.3292 32.0943 48.4462 29.8802 48.4462Z" fill="#040000"/>
<path d="M33.8494 48.1895C33.3025 47.0516 33.5142 45.8167 34.3258 45.4286C35.1373 45.0405 36.2311 45.6491 36.778 46.787C37.3249 47.9249 37.1132 49.1598 36.3016 49.5479C35.4901 49.936 34.3963 49.3274 33.8494 48.1895Z" fill="#7FC665"/>
<ellipse cx="29.9238" cy="42.4053" rx="2.36523" ry="2.06452" fill="white"/>
<ellipse cx="41.4473" cy="42.4053" rx="2.36523" ry="2.06452" fill="white"/>
<ellipse cx="29.2073" cy="46.0801" rx="1.28917" ry="1.03068" transform="rotate(11.478 29.2073 46.0801)" fill="#FFE4A1"/>
<ellipse cx="40.7309" cy="46.0801" rx="1.28917" ry="1.03068" transform="rotate(11.478 40.7309 46.0801)" fill="#FFE4A1"/>
</g>
</g>
<defs>
<linearGradient id="paint0_linear_709_12657" x1="19.5685" y1="64.2529" x2="75.881" y2="64.2529" gradientUnits="userSpaceOnUse">
<stop stop-color="#FFE89B"/>
<stop offset="1" stop-color="#FFA060"/>
</linearGradient>
<linearGradient id="paint1_linear_709_12657" x1="35.8513" y1="72.6501" x2="35.8513" y2="22.9268" gradientUnits="userSpaceOnUse">
<stop stop-color="#FF9046"/>
<stop offset="1" stop-color="#FFE89B"/>
</linearGradient>
</defs>
</svg>
