<svg width="68" height="68" viewBox="0 0 68 68" fill="none" xmlns="http://www.w3.org/2000/svg">
<circle cx="34" cy="34" r="34" fill="#E4EAFD"/>
<mask id="mask0_1354_5424" style="mask-type:alpha" maskUnits="userSpaceOnUse" x="0" y="0" width="68" height="68">
<circle cx="34" cy="34" r="34" fill="#D9D9D9"/>
</mask>
<g mask="url(#mask0_1354_5424)">
<path d="M74.7981 63.3599C74.7981 58.6073 70.9385 54.7478 66.186 54.7478H17.0411V71.9697H66.1882C70.9408 71.9697 74.8003 68.1102 74.8003 63.3576L74.7981 63.3599Z" fill="url(#paint0_linear_1354_5424)"/>
<path d="M21.7693 20.9707C27.2746 20.9707 31.9649 23.9528 33.7465 28.1285C35.5282 23.9528 40.2184 20.9707 45.7237 20.9707C52.7613 20.9707 58.467 25.8435 58.467 31.8566V71.9707H12.2953C10.4892 71.9707 9.026 70.7213 9.026 69.1779V31.8566C9.026 25.8458 14.7318 20.9707 21.7693 20.9707Z" fill="url(#paint1_linear_1354_5424)"/>
<path d="M45.6546 51.1982C43.0065 51.1982 40.8597 49.0514 40.8597 46.4033C40.8597 43.7551 43.0065 41.6084 45.6546 41.6084C48.3028 41.6084 50.4495 43.7551 50.4495 46.4033C50.4495 49.0514 48.3028 51.1982 45.6546 51.1982Z" fill="#A5BDF9"/>
<path d="M21.8206 51.1845C19.1725 51.1845 17.0258 49.0378 17.0258 46.3896C17.0258 43.7415 19.1725 41.5947 21.8206 41.5947C24.4688 41.5947 26.6155 43.7415 26.6155 46.3896C26.6155 49.0378 24.4688 51.1845 21.8206 51.1845Z" fill="#A5BDF9"/>
<path d="M39.8111 49.0254C36.3339 49.0254 33.5151 45.7091 33.5151 41.6182C33.5151 37.5273 36.3339 34.2109 39.8111 34.2109C43.2882 34.2109 46.107 37.5273 46.107 41.6182C46.107 45.7091 43.2882 49.0254 39.8111 49.0254Z" fill="white"/>
<path d="M27.1255 49.1182C23.6484 49.1182 20.8296 45.8019 20.8296 41.711C20.8296 37.62 23.6484 34.3037 27.1255 34.3037C30.6027 34.3037 33.4214 37.62 33.4214 41.711C33.4214 45.8019 30.6027 49.1182 27.1255 49.1182Z" fill="white"/>
<path d="M39.4257 47.1502C37.1502 47.1502 35.3056 44.9806 35.3056 42.3041C35.3056 39.6277 37.1502 37.458 39.4257 37.458C41.7012 37.458 43.5458 39.6277 43.5458 42.3041C43.5458 44.9806 41.7012 47.1502 39.4257 47.1502Z" fill="black"/>
<path d="M27.6223 47.1502C25.3468 47.1502 23.5022 44.9806 23.5022 42.3041C23.5022 39.6277 25.3468 37.458 27.6223 37.458C29.8977 37.458 31.7424 39.6277 31.7424 42.3041C31.7424 44.9806 29.8977 47.1502 27.6223 47.1502Z" fill="black"/>
<path d="M31.6846 46.8874C31.1252 45.7193 31.3452 44.4498 32.1761 44.0519C33.007 43.654 34.1341 44.2783 34.6935 45.4465C35.2529 46.6146 35.0329 47.8841 34.202 48.282C33.3711 48.6799 32.244 48.0556 31.6846 46.8874Z" fill="#FFBE6A"/>
<path d="M41.2988 43.3916C41.8288 43.3916 42.1963 43.9261 42.0026 44.4183C41.5883 45.4761 40.5527 46.2267 39.339 46.2267C38.1252 46.2267 37.0919 45.4761 36.6754 44.4183C36.4816 43.9239 36.8491 43.3916 37.3791 43.3916H41.2966H41.2988Z" fill="#8FAEFF"/>
<path d="M29.4951 43.3916C30.0251 43.3916 30.3926 43.9261 30.1988 44.4183C29.7846 45.4761 28.749 46.2267 27.5353 46.2267C26.3215 46.2267 25.2881 45.4761 24.8717 44.4183C24.6779 43.9239 25.0454 43.3916 25.5754 43.3916H29.4929H29.4951Z" fill="#8FAEFF"/>
</g>
<defs>
<linearGradient id="paint0_linear_1354_5424" x1="17.0434" y1="63.3621" x2="74.7981" y2="63.3621" gradientUnits="userSpaceOnUse">
<stop stop-color="#E1E0FF"/>
<stop offset="1" stop-color="#8FAEFF"/>
</linearGradient>
<linearGradient id="paint1_linear_1354_5424" x1="33.7465" y1="71.9707" x2="33.7465" y2="20.9707" gradientUnits="userSpaceOnUse">
<stop stop-color="#E1E0FF"/>
<stop offset="1" stop-color="#8FAEFF"/>
</linearGradient>
</defs>
</svg>
