<svg width="73" height="72" viewBox="0 0 73 72" fill="none" xmlns="http://www.w3.org/2000/svg">
<circle cx="36.5" cy="36" r="34.85" fill="#CCC9FC" stroke="#CCC9FC" stroke-width="1.7"/>
<mask id="mask0_709_12654" style="mask-type:alpha" maskUnits="userSpaceOnUse" x="2" y="2" width="69" height="68">
<circle cx="36.5" cy="36" r="34" fill="#D9D9D9"/>
</mask>
<g mask="url(#mask0_709_12654)">
<mask id="mask1_709_12654" style="mask-type:luminance" maskUnits="userSpaceOnUse" x="12" y="23" width="65" height="50">
<path d="M76.1482 23.0977H12.0293V72.8121H76.1482V23.0977Z" fill="white"/>
</mask>
<g mask="url(#mask1_709_12654)">
<path d="M76.1484 64.4238C76.1484 59.7929 72.3819 56.0264 67.7509 56.0264H19.8447V72.8125H67.7597C72.3907 72.8125 76.1572 69.046 76.1572 64.415L76.1484 64.4238Z" fill="url(#paint0_linear_709_12654)"/>
<path d="M24.4576 23.0977C29.8207 23.0977 36.1365 26.1848 36.1365 26.1848C36.1365 26.1848 42.4434 23.0977 47.8153 23.0977C54.6779 23.0977 60.2351 27.8521 60.2351 33.7092V72.8121H15.2222C13.458 72.8121 12.0378 71.5949 12.0378 70.0865V33.7004C12.0378 27.8433 17.6038 23.0889 24.4576 23.0889V23.0977Z" fill="url(#paint1_linear_709_12654)"/>
<path d="M47.7362 52.5689C45.1517 52.5689 43.0612 50.4783 43.0612 47.8938C43.0612 45.3093 45.1517 43.2188 47.7362 43.2188C50.3208 43.2188 52.4113 45.3093 52.4113 47.8938C52.4113 50.4783 50.3208 52.5689 47.7362 52.5689Z" fill="#6E6FD6"/>
<path d="M24.502 52.5503C21.9174 52.5503 19.8269 50.4598 19.8269 47.8753C19.8269 45.2907 21.9174 43.2002 24.502 43.2002C27.0865 43.2002 29.177 45.2907 29.177 47.8753C29.177 50.4598 27.0865 52.5503 24.502 52.5503Z" fill="#6E6FD6"/>
<path d="M42.0473 50.4417C38.6601 50.4417 35.908 47.2045 35.908 43.2174C35.908 39.2304 38.6601 36.002 42.0473 36.002C45.4345 36.002 48.1866 39.2392 48.1866 43.2262C48.1866 47.2133 45.4345 50.4505 42.0473 50.4505V50.4417Z" fill="white"/>
<path d="M29.6791 50.5306C26.2919 50.5306 23.5398 47.2933 23.5398 43.3063C23.5398 39.3193 26.2919 36.0908 29.6791 36.0908C33.0663 36.0908 35.8185 39.3281 35.8185 43.3151C35.8185 47.3022 33.0663 50.5394 29.6791 50.5394V50.5306Z" fill="white"/>
<path d="M41.6676 48.6171C39.4535 48.6171 37.6541 46.5001 37.6541 43.8891C37.6541 41.2781 39.4535 39.1611 41.6676 39.1611C43.8816 39.1611 45.6811 41.2781 45.6811 43.8891C45.6811 46.5001 43.8816 48.6171 41.6676 48.6171Z" fill="#000104"/>
<path d="M30.1564 48.6171C27.9424 48.6171 26.1429 46.5001 26.1429 43.8891C26.1429 41.2781 27.9424 39.1611 30.1564 39.1611C32.3705 39.1611 34.1699 41.2781 34.1699 43.8891C34.1699 46.5001 32.3705 48.6171 30.1564 48.6171Z" fill="#000104"/>
<path d="M34.1256 48.3604C33.5787 47.2225 33.7904 45.9876 34.602 45.5995C35.4135 45.2114 36.5073 45.82 37.0542 46.9579C37.601 48.0958 37.3893 49.3307 36.5778 49.7188C35.7663 50.1069 34.6725 49.4983 34.1256 48.3604Z" fill="#F6B96B"/>
<path d="M43.4934 44.9561C44.0138 44.9561 44.3666 45.4765 44.1814 45.9528C43.7756 46.9849 42.7701 47.717 41.5881 47.717C40.4061 47.717 39.4005 46.9849 38.9947 45.9528C38.8095 45.4677 39.1623 44.9561 39.6828 44.9561H43.5022H43.4934Z" fill="#8889E7"/>
<path d="M31.9909 44.9561C32.5114 44.9561 32.8642 45.4765 32.679 45.9528C32.2732 46.9849 31.2676 47.717 30.0856 47.717C28.9036 47.717 27.8981 46.9849 27.4923 45.9528C27.3071 45.4677 27.6599 44.9561 28.1803 44.9561H31.9997H31.9909Z" fill="#8889E7"/>
<path d="M47.9226 41.1357C47.164 38.1631 44.8177 36.002 42.0479 36.002C39.2782 36.002 36.9318 38.1719 36.1732 41.1357H47.9226Z" fill="#424DBA"/>
<path d="M35.5545 41.2246C34.7959 38.2519 32.4495 36.0908 29.6798 36.0908C26.91 36.0908 24.5636 38.2608 23.8051 41.2246H35.5545Z" fill="#424DBA"/>
</g>
</g>
<defs>
<linearGradient id="paint0_linear_709_12654" x1="19.8447" y1="64.4238" x2="76.1572" y2="64.4238" gradientUnits="userSpaceOnUse">
<stop stop-color="#BEB4FF"/>
<stop offset="1" stop-color="#4D4DBF"/>
</linearGradient>
<linearGradient id="paint1_linear_709_12654" x1="36.1276" y1="72.821" x2="36.1276" y2="23.0977" gradientUnits="userSpaceOnUse">
<stop stop-color="#BEB4FF"/>
<stop offset="1" stop-color="#4D4DBF"/>
</linearGradient>
</defs>
</svg>
