<svg width="72" height="72" viewBox="0 0 72 72" fill="none" xmlns="http://www.w3.org/2000/svg">
<circle cx="36" cy="36" r="34.85" fill="#FFEEEE" stroke="#FFEEEE" stroke-width="1.7"/>
<mask id="mask0_709_12656" style="mask-type:alpha" maskUnits="userSpaceOnUse" x="2" y="2" width="68" height="68">
<circle cx="36" cy="36" r="34" fill="#D9D9D9"/>
</mask>
<g mask="url(#mask0_709_12656)">
<path d="M40.5478 15.1314C39.3915 14.657 37.4526 16.6164 36.2188 19.4971C35.9861 20.0403 35.7958 20.5834 35.6477 21.1059C35.4997 20.5834 35.3093 20.0471 35.0766 19.4971C33.8357 16.6164 31.8969 14.6639 30.7406 15.1314C29.5773 15.6058 29.6407 18.3215 30.8745 21.209C32.1084 24.0897 34.0473 26.0492 35.2035 25.5748C35.3798 25.506 35.5208 25.3754 35.6407 25.2104C35.7605 25.3754 35.9015 25.506 36.0778 25.5748C37.2341 26.0492 39.173 24.0897 40.4068 21.209C41.6406 18.3283 41.7041 15.6058 40.5408 15.1314H40.5478Z" fill="url(#paint0_linear_709_12656)"/>
<mask id="mask1_709_12656" style="mask-type:luminance" maskUnits="userSpaceOnUse" x="11" y="22" width="65" height="51">
<path d="M75.661 22.999H11.5421V72.7135H75.661V22.999Z" fill="white"/>
</mask>
<g mask="url(#mask1_709_12656)">
<path d="M75.6613 64.3242C75.6613 59.6933 71.8948 55.9268 67.2638 55.9268H19.3577V72.7129H67.2727C71.9036 72.7129 75.6701 68.9464 75.6701 64.3154L75.6613 64.3242Z" fill="url(#paint1_linear_709_12656)"/>
<path d="M23.9618 22.999C17.108 22.999 11.5421 27.7535 11.5421 33.6105V69.9966C11.5421 71.505 12.971 72.7223 14.7264 72.7223H59.7393V33.6105C59.7393 27.7447 54.1733 22.999 47.3195 22.999H23.9618Z" fill="url(#paint2_linear_709_12656)"/>
<path d="M47.099 52.4683C44.4169 52.4683 42.2475 51.285 42.2475 49.822C42.2475 48.3591 44.4169 47.1758 47.099 47.1758C49.781 47.1758 51.9505 48.3591 51.9505 49.822C51.9505 51.285 49.781 52.4683 47.099 52.4683Z" fill="#FBAAB3"/>
<path d="M23.7237 52.4683C21.2854 52.4683 19.3132 51.285 19.3132 49.822C19.3132 48.3591 21.2854 47.1758 23.7237 47.1758C26.1619 47.1758 28.1341 48.3591 28.1341 49.822C28.1341 51.285 26.1619 52.4683 23.7237 52.4683Z" fill="#FBAAB3"/>
<path d="M41.5511 50.3441C38.1639 50.3441 35.4118 47.1068 35.4118 43.1198C35.4118 39.1328 38.1639 35.8955 41.5511 35.8955C44.9383 35.8955 47.6905 39.1328 47.6905 43.1198C47.6905 47.1068 44.9383 50.3441 41.5511 50.3441Z" fill="white"/>
<path d="M29.1842 50.4398C25.797 50.4398 23.0449 47.2025 23.0449 43.2155C23.0449 39.2285 25.797 35.9912 29.1842 35.9912C32.5714 35.9912 35.3235 39.2285 35.3235 43.2155C35.3235 47.2025 32.5714 50.4398 29.1842 50.4398Z" fill="white"/>
<path d="M41.1356 48.5175C38.9216 48.5175 37.1221 46.4005 37.1221 43.7895C37.1221 41.1785 38.9216 39.0615 41.1356 39.0615C43.3497 39.0615 45.1491 41.1785 45.1491 43.7895C45.1491 46.4005 43.3497 48.5175 41.1356 48.5175Z" fill="#040000"/>
<path d="M29.6694 48.5175C27.4553 48.5175 25.6559 46.4005 25.6559 43.7895C25.6559 41.1785 27.4553 39.0615 29.6694 39.0615C31.8834 39.0615 33.6829 41.1785 33.6829 43.7895C33.6829 46.4005 31.8834 48.5175 29.6694 48.5175Z" fill="#040000"/>
<path d="M41.093 43.2861L41.2285 43.7594C41.4497 44.5311 42.0532 45.1346 42.8249 45.3559L43.2982 45.4914L42.8249 45.6268C42.0532 45.8481 41.4497 46.4516 41.2285 47.2233L41.093 47.6966L40.9575 47.2233C40.7362 46.4516 40.1327 45.8481 39.361 45.6268L38.8878 45.4914L39.361 45.3559C40.1327 45.1346 40.7362 44.5311 40.9575 43.7594L41.093 43.2861Z" fill="white"/>
<path d="M29.6254 43.2861L29.7609 43.7594C29.9822 44.5311 30.5857 45.1346 31.3574 45.3559L31.8307 45.4914L31.3574 45.6268C30.5857 45.8481 29.9822 46.4516 29.7609 47.2233L29.6254 47.6966L29.49 47.2233C29.2687 46.4516 28.6652 45.8481 27.8935 45.6268L27.4202 45.4914L27.8935 45.3559C28.6652 45.1346 29.2687 44.5311 29.49 43.7594L29.6254 43.2861Z" fill="white"/>
<path d="M33.8983 47.9288C33.3514 46.7909 33.5631 45.556 34.3747 45.1678C35.1862 44.7797 36.28 45.3884 36.8269 46.5263C37.3738 47.6641 37.162 48.8991 36.3505 49.2872C35.539 49.6753 34.4452 49.0667 33.8983 47.9288Z" fill="#FF6574"/>
</g>
</g>
<defs>
<linearGradient id="paint0_linear_709_12656" x1="35.6407" y1="15.0605" x2="35.6407" y2="25.6456" gradientUnits="userSpaceOnUse">
<stop stop-color="#FBA7B0"/>
<stop offset="1" stop-color="#F7C2C7"/>
</linearGradient>
<linearGradient id="paint1_linear_709_12656" x1="19.3577" y1="64.3154" x2="75.6613" y2="64.3154" gradientUnits="userSpaceOnUse">
<stop offset="0.427885" stop-color="#F9D9DC"/>
<stop offset="1" stop-color="#FBA7B0"/>
</linearGradient>
<linearGradient id="paint2_linear_709_12656" x1="35.6407" y1="72.7135" x2="35.6407" y2="22.999" gradientUnits="userSpaceOnUse">
<stop stop-color="#F9D9DC"/>
<stop offset="1" stop-color="#FBA7B0"/>
</linearGradient>
</defs>
</svg>
