<svg width="73" height="72" viewBox="0 0 73 72" fill="none" xmlns="http://www.w3.org/2000/svg">
<circle cx="36.5" cy="36" r="34.85" fill="#FFF9E7" stroke="#FFF9E7" stroke-width="1.7"/>
<mask id="mask0_709_12653" style="mask-type:alpha" maskUnits="userSpaceOnUse" x="2" y="2" width="69" height="68">
<circle cx="36.5" cy="36" r="34" fill="#D9D9D9"/>
</mask>
<g mask="url(#mask0_709_12653)">
<mask id="mask1_709_12653" style="mask-type:luminance" maskUnits="userSpaceOnUse" x="12" y="23" width="65" height="50">
<path d="M76.1327 23.0029H12.0138V72.7174H76.1327V23.0029Z" fill="white"/>
</mask>
<g mask="url(#mask1_709_12653)">
<path d="M76.1326 64.3291C76.1326 59.6982 72.3661 55.9316 67.7351 55.9316H19.829V72.7178H67.744C72.3749 72.7178 76.1414 68.9513 76.1414 64.3203L76.1326 64.3291Z" fill="url(#paint0_linear_709_12653)"/>
<path d="M63.413 26.1432C62.8485 25.4375 61.9576 25.0582 61.0579 25.0847C56.7709 25.217 54.795 24.7406 53.9747 24.4231C53.8247 24.3525 53.6748 24.282 53.5248 24.2114C53.4719 24.1761 53.4543 24.1585 53.4543 24.1585V24.1849C51.7607 23.4352 49.8377 23.0118 47.7913 23.0118C42.4282 23.0118 37.8501 25.9226 36.1124 29.9891C34.3747 25.9138 29.8055 23.0029 24.4336 23.0029C17.5798 23.0029 12.0138 27.7574 12.0138 33.6144V70.0005C12.0138 71.5089 13.4428 72.7262 15.1981 72.7262H60.211V33.6144C60.211 33.5615 60.2022 33.4998 60.2022 33.4468C65.7947 31.2946 64.3745 27.3428 63.413 26.1432Z" fill="url(#paint1_linear_709_12653)"/>
<path d="M47.5702 52.4732C44.8882 52.4732 42.7188 51.2899 42.7188 49.8269C42.7188 48.364 44.8882 47.1807 47.5702 47.1807C50.2523 47.1807 52.4217 48.364 52.4217 49.8269C52.4217 51.2899 50.2523 52.4732 47.5702 52.4732Z" fill="#FFD84A"/>
<path d="M24.195 52.4732C21.7568 52.4732 19.7845 51.2899 19.7845 49.8269C19.7845 48.364 21.7568 47.1807 24.195 47.1807C26.6332 47.1807 28.6054 48.364 28.6054 49.8269C28.6054 51.2899 26.6332 52.4732 24.195 52.4732Z" fill="#FFD84A"/>
<path d="M42.0224 50.347C38.6352 50.347 35.8831 47.1098 35.8831 43.1227C35.8831 39.1357 38.6352 35.8984 42.0224 35.8984C45.4096 35.8984 48.1617 39.1357 48.1617 43.1227C48.1617 47.1098 45.4096 50.347 42.0224 50.347Z" fill="white"/>
<path d="M29.6555 50.4437C26.2683 50.4437 23.5162 47.2064 23.5162 43.2194C23.5162 39.2324 26.2683 35.9951 29.6555 35.9951C33.0427 35.9951 35.7948 39.2324 35.7948 43.2194C35.7948 47.2064 33.0427 50.4437 29.6555 50.4437Z" fill="white"/>
<path d="M41.6518 48.5204C39.4378 48.5204 37.6383 46.4034 37.6383 43.7924C37.6383 41.1815 39.4378 39.0645 41.6518 39.0645C43.8658 39.0645 45.6653 41.1815 45.6653 43.7924C45.6653 46.4034 43.8658 48.5204 41.6518 48.5204Z" fill="#040000"/>
<path d="M30.1407 48.5204C27.9267 48.5204 26.1272 46.4034 26.1272 43.7924C26.1272 41.1815 27.9267 39.0645 30.1407 39.0645C32.3547 39.0645 34.1542 41.1815 34.1542 43.7924C34.1542 46.4034 32.3547 48.5204 30.1407 48.5204Z" fill="#040000"/>
<path d="M34.1011 48.2657C33.5542 47.1278 33.7659 45.8929 34.5774 45.5048C35.3889 45.1166 36.4827 45.7253 37.0296 46.8632C37.5765 48.0011 37.3648 49.236 36.5533 49.6241C35.7418 50.0122 34.648 49.4036 34.1011 48.2657Z" fill="#FFA635"/>
<path d="M43.478 44.8604C43.9984 44.8604 44.3513 45.3808 44.166 45.8571C43.7603 46.8892 42.7547 47.6213 41.5727 47.6213C40.3907 47.6213 39.3851 46.8892 38.9794 45.8571C38.7941 45.372 39.1469 44.8604 39.6674 44.8604H43.4868H43.478Z" fill="#F9E496"/>
<path d="M31.9665 44.8604C32.487 44.8604 32.8398 45.3808 32.6546 45.8571C32.2488 46.8892 31.2432 47.6213 30.0612 47.6213C28.8792 47.6213 27.8736 46.8892 27.4679 45.8571C27.2826 45.372 27.6355 44.8604 28.1559 44.8604H31.9753H31.9665Z" fill="#F9E496"/>
</g>
</g>
<defs>
<linearGradient id="paint0_linear_709_12653" x1="19.829" y1="64.3203" x2="76.1326" y2="64.3203" gradientUnits="userSpaceOnUse">
<stop offset="0.504808" stop-color="#FFF3A6"/>
<stop offset="1" stop-color="#FFDD60"/>
</linearGradient>
<linearGradient id="paint1_linear_709_12653" x1="38.1677" y1="23.0029" x2="38.1677" y2="72.7174" gradientUnits="userSpaceOnUse">
<stop stop-color="#FFF3A6"/>
<stop offset="1" stop-color="#FFDD60"/>
</linearGradient>
</defs>
</svg>
