<svg width="16" height="16" viewBox="0 0 16 16" fill="none" xmlns="http://www.w3.org/2000/svg">
<g clip-path="url(#clip0_1361_10600)">
<path d="M8.00021 12.4512C10.4586 12.4512 12.4515 10.4582 12.4515 7.99978C12.4515 5.54134 10.4586 3.54834 8.00021 3.54834C5.54177 3.54834 3.54877 5.54134 3.54877 7.99978C3.54877 10.4582 5.5417 12.4512 8.00014 12.4512" fill="white"/>
<path d="M2.24315 5.81253C1.91106 5.23732 1.52073 4.63363 1.07215 4.00146C0.369879 5.21755 0.000145925 6.59709 0.000122071 8.00139C9.82178e-05 9.40569 0.369785 10.7852 1.07201 12.0014C1.77424 13.2175 2.78426 14.2273 4.00052 14.9292C5.21678 15.6312 6.59641 16.0006 8.00071 16.0003C8.737 14.9676 9.23692 14.223 9.50046 13.7665C10.0066 12.8898 10.6613 11.6345 11.4644 10.0008V9.9999C11.1135 10.6082 10.6087 11.1134 10.0006 11.4648C9.39254 11.8161 8.70268 12.0011 8.00042 12.0012C7.29817 12.0013 6.60826 11.8165 6.00008 11.4654C5.3919 11.1142 4.88689 10.6092 4.53584 10.001C3.44509 7.96671 2.68086 6.57053 2.24315 5.81253Z" fill="#229342"/>
<path d="M8.00052 15.9997C9.05112 15.9999 10.0915 15.7931 11.0621 15.3911C12.0328 14.9891 12.9147 14.3998 13.6576 13.6569C14.4004 12.914 14.9897 12.0321 15.3916 11.0614C15.7935 10.0907 16.0003 9.05035 16 7.99975C15.9997 6.59544 15.6298 5.21595 14.9273 3.99994C13.4118 3.85057 12.2934 3.77588 11.572 3.77588C10.754 3.77588 9.56329 3.85057 7.99996 3.99994L7.99908 4.00057C8.70136 4.00022 9.39134 4.1848 9.99964 4.53574C10.6079 4.88668 11.1131 5.39162 11.4643 5.99975C11.8156 6.60789 12.0005 7.29779 12.0005 8.00007C12.0005 8.70236 11.8155 9.39225 11.4643 10.0004L8.00052 15.9997Z" fill="#FBC116"/>
<path d="M8.00019 11.1672C9.74919 11.1672 11.167 9.74943 11.167 8.00037C11.167 6.25131 9.74919 4.8335 8.00013 4.8335C6.25119 4.8335 4.83331 6.25137 4.83331 8.00037C4.83331 9.74937 6.25119 11.1672 8.00019 11.1672Z" fill="#1A73E8"/>
<path d="M8.00021 4.00027H14.9275C14.2256 2.78399 13.2157 1.77397 11.9996 1.07176C10.7835 0.369547 9.4039 -9.50021e-05 7.99959 1.83149e-08C6.59528 9.50388e-05 5.21575 0.369924 3.99971 1.0723C2.78368 1.77467 1.774 2.78484 1.0722 4.00121L4.53589 10.0006L4.53683 10.0011C4.18543 9.39306 4.00031 8.70322 4.00011 8.00095C3.9999 7.29868 4.18461 6.60873 4.53565 6.0005C4.8867 5.39226 5.39171 4.88718 5.99989 4.53605C6.60808 4.18491 7.298 4.0001 8.00027 4.00021L8.00021 4.00027Z" fill="#E33B2E"/>
</g>
<defs>
<clipPath id="clip0_1361_10600">
<rect width="16" height="16" fill="white"/>
</clipPath>
</defs>
</svg>
