<svg width="41" height="40" viewBox="0 0 41 40" fill="none" xmlns="http://www.w3.org/2000/svg">
<path fill-rule="evenodd" clip-rule="evenodd" d="M4.00014 20.0002C4.00014 10.8875 11.3874 3.50024 20.5001 3.50024C29.6127 3.50024 37 10.8875 37 20.0002C37 29.1129 29.6127 36.5002 20.5001 36.5002C11.3874 36.5002 4.00014 29.1129 4.00014 20.0002ZM28.2446 16.46C28.8207 15.8647 28.8052 14.9151 28.21 14.3389C27.6147 13.7628 26.6651 13.7783 26.089 14.3735L18.2957 22.4251L14.9127 18.9204C14.3374 18.3244 13.3878 18.3076 12.7917 18.883C12.1957 19.4583 12.1789 20.4079 12.7543 21.004L17.215 25.6252C17.4975 25.9178 17.8866 26.0831 18.2932 26.0834C18.6999 26.0837 19.0892 25.9188 19.3721 25.6266L28.2446 16.46Z" fill="#557AF3"/>
</svg>
