<svg width="25" height="24" viewBox="0 0 25 24" fill="none" xmlns="http://www.w3.org/2000/svg">
<mask id="path-1-inside-1_345_1679" fill="white">
<path d="M3.5 8.49951C3.5 7.94723 3.94772 7.49951 4.5 7.49951H7.445C7.99729 7.49951 8.445 7.94723 8.445 8.49951V21.4995H3.5V8.49951Z"/>
</mask>
<path d="M3.5 8.49951C3.5 7.94723 3.94772 7.49951 4.5 7.49951H7.445C7.99729 7.49951 8.445 7.94723 8.445 8.49951V21.4995H3.5V8.49951Z" stroke="#8B95A1" stroke-width="2.4" mask="url(#path-1-inside-1_345_1679)"/>
<mask id="path-2-inside-2_345_1679" fill="white">
<path d="M10.0273 4.5C10.0273 3.94772 10.4751 3.5 11.0273 3.5H13.9723C14.5246 3.5 14.9723 3.94772 14.9723 4.5V21.5H10.0273V4.5Z"/>
</mask>
<path d="M10.0273 4.5C10.0273 3.94772 10.4751 3.5 11.0273 3.5H13.9723C14.5246 3.5 14.9723 3.94772 14.9723 4.5V21.5H10.0273V4.5Z" stroke="#8B95A1" stroke-width="2.4" mask="url(#path-2-inside-2_345_1679)"/>
<mask id="path-3-inside-3_345_1679" fill="white">
<path d="M16.5552 13.5C16.5552 12.9477 17.0029 12.5 17.5552 12.5H20.5002C21.0525 12.5 21.5002 12.9477 21.5002 13.5V21.5H16.5552V13.5Z"/>
</mask>
<path d="M16.5552 13.5C16.5552 12.9477 17.0029 12.5 17.5552 12.5H20.5002C21.0525 12.5 21.5002 12.9477 21.5002 13.5V21.5H16.5552V13.5Z" stroke="#8B95A1" stroke-width="2.4" mask="url(#path-3-inside-3_345_1679)"/>
</svg>
