<svg width="25" height="25" viewBox="0 0 25 25" fill="none" xmlns="http://www.w3.org/2000/svg">
<path d="M12.541 3.15332C12.7498 3.15332 12.9512 3.22625 13.1113 3.35742L13.1768 3.41699L20.6768 10.917C20.8246 11.0647 20.9161 11.2587 20.9365 11.4648L20.9414 11.5537V20.5527C20.9414 20.5925 20.9255 20.6311 20.8975 20.6592C20.8693 20.6873 20.8308 20.7031 20.791 20.7031H15.541C15.5012 20.7031 15.4627 20.6873 15.4346 20.6592C15.4065 20.6311 15.3906 20.5925 15.3906 20.5527V15.6777C15.3906 15.4516 15.312 15.234 15.1699 15.0605L15.1055 14.9883L15.0342 14.9238C14.8607 14.7816 14.6423 14.7031 14.416 14.7031H10.666C10.4075 14.7031 10.1594 14.8055 9.97656 14.9883C9.79378 15.1711 9.69148 15.4193 9.69141 15.6777V20.5527C9.69141 20.5925 9.6755 20.6311 9.64746 20.6592C9.61933 20.6873 9.5808 20.7031 9.54102 20.7031H4.29102C4.25123 20.7031 4.2127 20.6873 4.18457 20.6592C4.15653 20.6311 4.14062 20.5925 4.14062 20.5527V11.5537C4.14072 11.345 4.21365 11.1434 4.34473 10.9834L4.40527 10.917L11.9053 3.41699C12.074 3.24851 12.3026 3.15332 12.541 3.15332Z" stroke="#D1D6DB" stroke-width="1.2"/>
</svg>
