<svg width="24" height="24" viewBox="0 0 24 24" fill="none" xmlns="http://www.w3.org/2000/svg">
<path fill-rule="evenodd" clip-rule="evenodd" d="M2.10004 12.0001C2.10004 6.53248 6.5324 2.1001 12 2.1001C17.4676 2.1001 21.9 6.53248 21.9 12.0001C21.9 17.4677 17.4676 21.9001 12 21.9001C6.5324 21.9001 2.10004 17.4677 2.10004 12.0001ZM16.6467 9.87594C16.9924 9.51878 16.9831 8.94901 16.6259 8.60331C16.2688 8.25762 15.699 8.26691 15.3533 8.62406L10.6774 13.455L8.64757 11.3522C8.30236 10.9946 7.73261 10.9845 7.37498 11.3297C7.01736 11.6749 7.0073 12.2447 7.3525 12.6023L10.029 15.3751C10.1984 15.5506 10.4319 15.6498 10.6759 15.65C10.9199 15.6502 11.1535 15.5513 11.3232 15.3759L16.6467 9.87594Z" fill="#557AF3"/>
</svg>
