<svg width="43" height="43" viewBox="0 0 43 43" fill="none" xmlns="http://www.w3.org/2000/svg">
<circle cx="21.2646" cy="21.1172" r="20.5" fill="#8B95A1" stroke="#E5E8EB"/>
<mask id="mask0_599_14442" style="mask-type:alpha" maskUnits="userSpaceOnUse" x="1" y="1" width="41" height="41">
<circle cx="21.2646" cy="21.1172" r="20" fill="#D9D9D9"/>
</mask>
<g mask="url(#mask0_599_14442)">
<path d="M45.7516 44.5435C45.7516 41.7479 43.4813 39.4776 40.6857 39.4776H11.7769V49.6082H40.687C43.4826 49.6082 45.7529 47.3378 45.7529 44.5422L45.7516 44.5435Z" fill="url(#paint0_linear_599_14442)"/>
<path d="M14.5581 19.6096C17.7965 19.6096 20.5555 21.3638 21.6035 23.8201C22.6516 21.3638 25.4105 19.6096 28.6489 19.6096C32.7887 19.6096 36.145 22.476 36.145 26.0131V49.6096H8.9852C7.92275 49.6096 7.06205 48.8747 7.06205 47.9668V26.0131C7.06205 22.4773 10.4184 19.6096 14.5581 19.6096Z" fill="url(#paint1_linear_599_14442)"/>
<path d="M28.6082 37.3908C27.0505 37.3908 25.7877 36.128 25.7877 34.5703C25.7877 33.0125 27.0505 31.7498 28.6082 31.7498C30.1659 31.7498 31.4287 33.0125 31.4287 34.5703C31.4287 36.128 30.1659 37.3908 28.6082 37.3908Z" fill="#D1D6DB"/>
<path d="M14.5882 37.3827C13.0304 37.3827 11.7676 36.12 11.7676 34.5622C11.7676 33.0045 13.0304 31.7417 14.5882 31.7417C16.1459 31.7417 17.4087 33.0045 17.4087 34.5622C17.4087 36.12 16.1459 37.3827 14.5882 37.3827Z" fill="#D1D6DB"/>
<path d="M25.171 36.1121C23.1256 36.1121 21.4675 34.1613 21.4675 31.7549C21.4675 29.3485 23.1256 27.3977 25.171 27.3977C27.2164 27.3977 28.8745 29.3485 28.8745 31.7549C28.8745 34.1613 27.2164 36.1121 25.171 36.1121Z" fill="white"/>
<path d="M17.7086 36.167C15.6632 36.167 14.0051 34.2163 14.0051 31.8098C14.0051 29.4034 15.6632 27.4526 17.7086 27.4526C19.754 27.4526 21.4121 29.4034 21.4121 31.8098C21.4121 34.2163 19.754 36.167 17.7086 36.167Z" fill="white"/>
<path d="M24.9441 35.0092C23.6056 35.0092 22.5205 33.7329 22.5205 32.1585C22.5205 30.5841 23.6056 29.3079 24.9441 29.3079C26.2826 29.3079 27.3677 30.5841 27.3677 32.1585C27.3677 33.7329 26.2826 35.0092 24.9441 35.0092Z" fill="#4E5968"/>
<path d="M18.0012 35.0092C16.6627 35.0092 15.5776 33.7329 15.5776 32.1585C15.5776 30.5841 16.6627 29.3079 18.0012 29.3079C19.3397 29.3079 20.4248 30.5841 20.4248 32.1585C20.4248 33.7329 19.3397 35.0092 18.0012 35.0092Z" fill="#4E5968"/>
<path d="M20.3906 34.8547C20.0615 34.1676 20.1909 33.4208 20.6797 33.1867C21.1685 32.9526 21.8314 33.3199 22.1605 34.0071C22.4896 34.6942 22.3601 35.441 21.8714 35.675C21.3826 35.9091 20.7196 35.5418 20.3906 34.8547Z" fill="#8B95A1"/>
<path d="M26.0459 32.7979C26.3577 32.7979 26.5739 33.1123 26.4599 33.4018C26.2162 34.0241 25.607 34.4655 24.8931 34.4655C24.1791 34.4655 23.5712 34.0241 23.3263 33.4018C23.2123 33.111 23.4284 32.7979 23.7402 32.7979H26.0446H26.0459Z" fill="white"/>
<path d="M19.1025 32.7979C19.4143 32.7979 19.6305 33.1123 19.5165 33.4018C19.2729 34.0241 18.6637 34.4655 17.9497 34.4655C17.2357 34.4655 16.6279 34.0241 16.3829 33.4018C16.2689 33.111 16.4851 32.7979 16.7969 32.7979H19.1012H19.1025Z" fill="white"/>
<path d="M25.1656 36.1581C23.1203 36.1581 21.4622 34.1972 21.4622 31.7783C21.4622 29.3594 23.1203 27.3984 25.1656 27.3984C27.211 27.3984 28.8691 29.3594 28.8691 31.7783C28.8691 34.1972 27.211 36.1581 25.1656 36.1581Z" fill="#B0B8C1"/>
<mask id="mask1_599_14442" style="mask-type:alpha" maskUnits="userSpaceOnUse" x="21" y="27" width="8" height="10">
<path d="M25.1656 36.1581C23.1203 36.1581 21.4622 34.1972 21.4622 31.7783C21.4622 29.3594 23.1203 27.3984 25.1656 27.3984C27.211 27.3984 28.8691 29.3594 28.8691 31.7783C28.8691 34.1972 27.211 36.1581 25.1656 36.1581Z" fill="#B0B8C1"/>
</mask>
<g mask="url(#mask1_599_14442)">
<path d="M21.3428 32.9182H28.9014" stroke="#8B95A1" stroke-width="0.5"/>
</g>
<path d="M17.7115 36.1581C15.6662 36.1581 14.0081 34.1972 14.0081 31.7783C14.0081 29.3594 15.6662 27.3984 17.7115 27.3984C19.7569 27.3984 21.415 29.3594 21.415 31.7783C21.415 34.1972 19.7569 36.1581 17.7115 36.1581Z" fill="#B0B8C1"/>
<mask id="mask2_599_14442" style="mask-type:alpha" maskUnits="userSpaceOnUse" x="14" y="27" width="8" height="10">
<path d="M17.7115 36.1581C15.6662 36.1581 14.0081 34.1972 14.0081 31.7783C14.0081 29.3594 15.6662 27.3984 17.7115 27.3984C19.7569 27.3984 21.415 29.3594 21.415 31.7783C21.415 34.1972 19.7569 36.1581 17.7115 36.1581Z" fill="#B0B8C1"/>
</mask>
<g mask="url(#mask2_599_14442)">
<path d="M13.8887 32.9182H21.4473" stroke="#8B95A1" stroke-width="0.5"/>
</g>
<path d="M20.3886 34.7883C20.0595 34.1012 20.189 33.3544 20.6778 33.1203C21.1665 32.8862 21.8295 33.2535 22.1586 33.9407C22.4876 34.6278 22.3582 35.3746 21.8694 35.6086C21.3807 35.8427 20.7177 35.4754 20.3886 34.7883Z" fill="#8B95A1"/>
</g>
<defs>
<linearGradient id="paint0_linear_599_14442" x1="11.7783" y1="44.5448" x2="45.7516" y2="44.5448" gradientUnits="userSpaceOnUse">
<stop stop-color="#F9FAFB"/>
<stop offset="1" stop-color="#D1D6DB"/>
</linearGradient>
<linearGradient id="paint1_linear_599_14442" x1="21.6035" y1="49.6096" x2="21.6035" y2="19.6096" gradientUnits="userSpaceOnUse">
<stop stop-color="#F9FAFB"/>
<stop offset="1" stop-color="#D1D6DB"/>
</linearGradient>
</defs>
</svg>
