<svg width="24" height="24" viewBox="0 0 24 24" fill="none" xmlns="http://www.w3.org/2000/svg">
<g clip-path="url(#clip0_709_12665)">
<path d="M12 23C18.0751 23 23 18.0751 23 12C23 5.92487 18.0751 1 12 1C5.92487 1 1 5.92487 1 12C1 18.0751 5.92487 23 12 23Z" fill="#D1D6DB"/>
<path fill-rule="evenodd" clip-rule="evenodd" d="M16.21 14.7903C16.6 15.1803 16.6 15.8103 16.21 16.2003C15.82 16.5903 15.19 16.5903 14.8 16.2003L12.01 13.4103L9.21996 16.2003C8.82996 16.5903 8.19996 16.5903 7.80996 16.2003C7.41996 15.8103 7.41996 15.1803 7.80996 14.7903L10.6 12.0003L7.80996 9.21031C7.41996 8.82031 7.41996 8.19031 7.80996 7.80031C8.19996 7.41031 8.82996 7.41031 9.21996 7.80031L12.01 10.5903L14.8 7.80031C15.19 7.41031 15.82 7.41031 16.21 7.80031C16.6 8.19031 16.6 8.82031 16.21 9.21031L13.42 12.0003L16.21 14.7903Z" fill="white"/>
</g>
<defs>
<clipPath id="clip0_709_12665">
<rect width="24" height="24" fill="white"/>
</clipPath>
</defs>
</svg>
