<svg width="121" height="77" viewBox="0 0 121 77" fill="none" xmlns="http://www.w3.org/2000/svg">
<g clip-path="url(#clip0_368_2023)">
<path d="M0 51.039L0 77.0034H95.6918V51.039L0 51.039Z" fill="url(#paint0_linear_368_2023)"/>
<path d="M79.9477 0C71.6477 0 64.5766 4.49584 61.8905 10.7913C59.2044 4.49584 52.1333 0 43.8333 0C33.2233 0 24.6211 7.34644 24.6211 16.412V76.8892H94.231C96.954 76.8892 99.16 75.0056 99.16 72.6788V16.412C99.16 7.3498 90.5578 0 79.9477 0Z" fill="url(#paint1_linear_368_2023)"/>
<path d="M50.4748 31.8972H36.0371V46.3349H50.4748V31.8972Z" fill="#F04452"/>
<path d="M88.7517 31.8972H74.314V46.3349H88.7517V31.8972Z" fill="#F04452"/>
<path d="M52.7483 42.4065C57.9906 42.4065 62.2403 37.4066 62.2403 31.2391C62.2403 25.0715 57.9906 20.0717 52.7483 20.0717C47.506 20.0717 43.2563 25.0715 43.2563 31.2391C43.2563 37.4066 47.506 42.4065 52.7483 42.4065Z" fill="white"/>
<path d="M71.8728 42.5477C77.1151 42.5477 81.3648 37.5479 81.3648 31.3803C81.3648 25.2127 77.1151 20.2129 71.8728 20.2129C66.6306 20.2129 62.3809 25.2127 62.3809 31.3803C62.3809 37.5479 66.6306 42.5477 71.8728 42.5477Z" fill="white"/>
<path d="M54.5041 25.8535H47.4531V35.2548H54.5041V25.8535Z" fill="black"/>
<path d="M67.0987 34.1089L62.3867 31.8523L59.2063 38.4932L63.9183 40.7498L67.0987 34.1089Z" fill="#FFBE6A"/>
<path d="M77.0002 28.8755H69.9492V38.2768H77.0002V28.8755Z" fill="black"/>
<rect x="10.0996" y="17.0177" width="21.6179" height="8.83568" fill="#E42939"/>
</g>
<rect x="87.9019" y="56.0774" width="27.9021" height="8.83568" fill="#F14D5A"/>
<rect x="111.386" y="36.2156" width="8.83599" height="8.83568" fill="#F56A75"/>
<defs>
<linearGradient id="paint0_linear_368_2023" x1="0" y1="64.0196" x2="95.6918" y2="64.0196" gradientUnits="userSpaceOnUse">
<stop stop-color="#FEAFB4"/>
<stop offset="0.35" stop-color="#F04452"/>
</linearGradient>
<linearGradient id="paint1_linear_368_2023" x1="61.8905" y1="76.8892" x2="61.8905" y2="0" gradientUnits="userSpaceOnUse">
<stop stop-color="#FEAFB4"/>
<stop offset="1" stop-color="#F04452"/>
</linearGradient>
<clipPath id="clip0_368_2023">
<rect width="99.1602" height="77" fill="white"/>
</clipPath>
</defs>
</svg>
