<svg width="32" height="32" viewBox="0 0 32 32" fill="none" xmlns="http://www.w3.org/2000/svg">
<rect width="32" height="32" rx="16" fill="#E4EAFD"/>
<path d="M17.1894 8.33373C17.1171 8.27363 17.0314 8.23179 16.9396 8.21174C16.8477 8.19168 16.7524 8.19401 16.6616 8.21851C16.5709 8.24302 16.4873 8.28899 16.4181 8.35254C16.3488 8.4161 16.2958 8.49538 16.2636 8.5837L14.6509 13.0119L12.8799 11.2959C12.8204 11.2382 12.7494 11.1938 12.6715 11.1656C12.5936 11.1373 12.5106 11.1259 12.428 11.1321C12.3454 11.1382 12.265 11.1618 12.1922 11.2013C12.1193 11.2408 12.0557 11.2953 12.0054 11.3611C10.4177 13.4415 9.61133 15.5343 9.61133 17.5809C9.61133 19.2917 10.291 20.9325 11.5007 22.1422C12.7104 23.352 14.3512 24.0316 16.062 24.0316C17.7728 24.0316 19.4136 23.352 20.6233 22.1422C21.833 20.9325 22.5127 19.2917 22.5127 17.5809C22.5127 13.223 18.7896 9.66418 17.1894 8.33373Z" fill="#557AF3"/>
<path d="M19.4926 21.2642C20.208 20.5489 20.6871 19.6317 20.8654 18.6359H20.8662C20.8968 18.4561 20.8546 18.2715 20.7491 18.1227C20.6435 17.974 20.4832 17.8733 20.3033 17.8427C20.1235 17.8122 19.9389 17.8543 19.7902 17.9599C19.6414 18.0655 19.5407 18.2258 19.5101 18.4056C19.2687 19.8322 18.0604 21.0405 16.6364 21.2802C16.4663 21.3087 16.3131 21.4001 16.2073 21.5362C16.1014 21.6724 16.0506 21.8433 16.0649 22.0152C16.0791 22.187 16.1575 22.3473 16.2844 22.4641C16.4112 22.5809 16.5774 22.6457 16.7498 22.6458C16.7881 22.646 16.8264 22.6428 16.8641 22.6363C17.8599 22.4583 18.7773 21.9794 19.4926 21.2642Z" fill="#CED8F8"/>
</svg>
