<svg width="15" height="16" viewBox="0 0 15 16" fill="none" xmlns="http://www.w3.org/2000/svg">
<path d="M8.53816 1.24413C8.4746 1.19129 8.39926 1.1545 8.3185 1.13687C8.23774 1.11923 8.15392 1.12128 8.07412 1.14282C7.99431 1.16437 7.92086 1.20479 7.85995 1.26067C7.79903 1.31655 7.75245 1.38626 7.72412 1.46392L6.30615 5.35753L4.74896 3.84868C4.69667 3.79796 4.63422 3.7589 4.56573 3.73407C4.49724 3.70923 4.42427 3.6992 4.35161 3.70462C4.27896 3.71004 4.20829 3.73079 4.14424 3.76551C4.08019 3.80023 4.02423 3.84813 3.98004 3.90605C2.58398 5.73523 1.875 7.57536 1.875 9.3749C1.875 10.8792 2.47257 12.3218 3.53625 13.3855C4.59994 14.4492 6.0426 15.0468 7.54688 15.0468C9.05115 15.0468 10.4938 14.4492 11.5575 13.3855C12.6212 12.3218 13.2188 10.8792 13.2188 9.3749C13.2188 5.54316 9.94518 2.41396 8.53816 1.24413ZM11.1492 9.97689C11.0155 10.7237 10.6562 11.4116 10.1196 11.9481C9.58308 12.4845 8.89507 12.8436 8.14822 12.9772C8.11991 12.982 8.09123 12.9844 8.0625 12.9843C7.93316 12.9842 7.80856 12.9356 7.7134 12.848C7.61825 12.7604 7.55949 12.6402 7.54878 12.5113C7.53807 12.3824 7.5762 12.2542 7.65559 12.1521C7.73499 12.05 7.84986 11.9815 7.97742 11.9601C9.04541 11.7803 9.95162 10.8741 10.1327 9.80415C10.1556 9.66928 10.2312 9.54903 10.3428 9.46986C10.4543 9.39069 10.5928 9.35908 10.7276 9.38199C10.8625 9.40489 10.9828 9.48044 11.0619 9.592C11.1411 9.70357 11.1727 9.84202 11.1498 9.97689H11.1492Z" fill="#8B95A1"/>
</svg>
