<svg width="21" height="20" viewBox="0 0 21 20" fill="none" xmlns="http://www.w3.org/2000/svg">
<path d="M10.8077 4.05762H18.7786C19.2169 4.05762 19.2952 4.28178 18.9536 4.55595L13.5969 8.84012L19.5752 13.6235H8.09689C8.03149 13.6235 7.96707 13.6075 7.90933 13.5768C7.85159 13.5461 7.8023 13.5016 7.76581 13.4473C7.72932 13.3931 7.70676 13.3306 7.70012 13.2656C7.69348 13.2005 7.70296 13.1348 7.72772 13.0743C8.28022 11.7051 10.8077 11.2318 10.8077 11.2318V4.05762Z" fill="#557AF3"/>
<path d="M10.8069 11.2315H5.22858V1.6665H10.0111C10.2224 1.6665 10.425 1.75044 10.5744 1.89984C10.7238 2.04925 10.8077 2.25188 10.8077 2.46317L10.8069 11.2315Z" fill="#CED8F8"/>
<path d="M3.56201 2.5L3.56201 17.5" stroke="#557AF3" stroke-width="1.5" stroke-linecap="round"/>
</svg>
