<svg width="21" height="20" viewBox="0 0 21 20" fill="none" xmlns="http://www.w3.org/2000/svg">
<path d="M16.5852 4.27031C15.8375 3.51514 14.9482 2.91486 13.9683 2.50383C12.9883 2.09281 11.9369 1.87912 10.8742 1.875H10.8125C8.65762 1.875 6.59099 2.73102 5.06726 4.25476C3.54352 5.77849 2.6875 7.84512 2.6875 10V14.375C2.6875 14.8723 2.88504 15.3492 3.23667 15.7008C3.58831 16.0525 4.06522 16.25 4.5625 16.25H5.8125C6.30978 16.25 6.78669 16.0525 7.13833 15.7008C7.48996 15.3492 7.6875 14.8723 7.6875 14.375V11.25C7.6875 10.7527 7.48996 10.2758 7.13833 9.92417C6.78669 9.57254 6.30978 9.375 5.8125 9.375H3.96563C4.08616 8.07182 4.57565 6.83 5.37674 5.79508C6.17782 4.76016 7.25731 3.97502 8.48867 3.53169C9.72003 3.08836 11.0523 3.0052 12.3292 3.29196C13.6061 3.57872 14.7749 4.22352 15.6984 5.15078C16.8273 6.28539 17.5216 7.78052 17.6602 9.375H15.8125C15.3152 9.375 14.8383 9.57254 14.4867 9.92417C14.135 10.2758 13.9375 10.7527 13.9375 11.25V14.375C13.9375 14.8723 14.135 15.3492 14.4867 15.7008C14.8383 16.0525 15.3152 16.25 15.8125 16.25H17.6875C17.6875 16.7473 17.49 17.2242 17.1383 17.5758C16.7867 17.9275 16.3098 18.125 15.8125 18.125H11.4375C11.2717 18.125 11.1128 18.1908 10.9956 18.3081C10.8783 18.4253 10.8125 18.5842 10.8125 18.75C10.8125 18.9158 10.8783 19.0747 10.9956 19.1919C11.1128 19.3092 11.2717 19.375 11.4375 19.375H15.8125C16.6413 19.375 17.4362 19.0458 18.0222 18.4597C18.6083 17.8737 18.9375 17.0788 18.9375 16.25V10C18.9416 8.93717 18.7359 7.88398 18.3322 6.90077C17.9286 5.91757 17.3349 5.02368 16.5852 4.27031ZM5.8125 10.625C5.97826 10.625 6.13723 10.6908 6.25444 10.8081C6.37165 10.9253 6.4375 11.0842 6.4375 11.25V14.375C6.4375 14.5408 6.37165 14.6997 6.25444 14.8169C6.13723 14.9342 5.97826 15 5.8125 15H4.5625C4.39674 15 4.23777 14.9342 4.12056 14.8169C4.00335 14.6997 3.9375 14.5408 3.9375 14.375V10.625H5.8125ZM15.8125 15C15.6467 15 15.4878 14.9342 15.3706 14.8169C15.2533 14.6997 15.1875 14.5408 15.1875 14.375V11.25C15.1875 11.0842 15.2533 10.9253 15.3706 10.8081C15.4878 10.6908 15.6467 10.625 15.8125 10.625H17.6875V15H15.8125Z" fill="#8B95A1"/>
</svg>
