<svg width="25" height="24" viewBox="0 0 25 24" fill="none" xmlns="http://www.w3.org/2000/svg">
<path d="M21.5 11.2498V20.2498C21.5 20.4487 21.421 20.6395 21.2803 20.7801C21.1397 20.9208 20.9489 20.9998 20.75 20.9998H15.5C15.3011 20.9998 15.1103 20.9208 14.9697 20.7801C14.829 20.6395 14.75 20.4487 14.75 20.2498V15.3748C14.75 15.2753 14.7105 15.18 14.6402 15.1096C14.5698 15.0393 14.4745 14.9998 14.375 14.9998H10.625C10.5255 14.9998 10.4302 15.0393 10.3598 15.1096C10.2895 15.18 10.25 15.2753 10.25 15.3748V20.2498C10.25 20.4487 10.171 20.6395 10.0303 20.7801C9.88968 20.9208 9.69891 20.9998 9.5 20.9998H4.25C4.05109 20.9998 3.86032 20.9208 3.71967 20.7801C3.57902 20.6395 3.5 20.4487 3.5 20.2498V11.2498C3.50018 10.852 3.65834 10.4706 3.93969 10.1895L11.4397 2.68948C11.721 2.40839 12.1023 2.25049 12.5 2.25049C12.8977 2.25049 13.279 2.40839 13.5603 2.68948L21.0603 10.1895C21.3417 10.4706 21.4998 10.852 21.5 11.2498Z" fill="#557AF3"/>
</svg>
