<svg width="25" height="25" viewBox="0 0 25 25" fill="none" xmlns="http://www.w3.org/2000/svg">
<path d="M21.5 11.7498V20.7498C21.5 20.9487 21.421 21.1395 21.2803 21.2801C21.1397 21.4208 20.9489 21.4998 20.75 21.4998H15.5C15.3011 21.4998 15.1103 21.4208 14.9697 21.2801C14.829 21.1395 14.75 20.9487 14.75 20.7498V15.8748C14.75 15.7753 14.7105 15.68 14.6402 15.6096C14.5698 15.5393 14.4745 15.4998 14.375 15.4998H10.625C10.5255 15.4998 10.4302 15.5393 10.3598 15.6096C10.2895 15.68 10.25 15.7753 10.25 15.8748V20.7498C10.25 20.9487 10.171 21.1395 10.0303 21.2801C9.88968 21.4208 9.69891 21.4998 9.5 21.4998H4.25C4.05109 21.4998 3.86032 21.4208 3.71967 21.2801C3.57902 21.1395 3.5 20.9487 3.5 20.7498V11.7498C3.50018 11.352 3.65834 10.9706 3.93969 10.6895L11.4397 3.18948C11.721 2.90839 12.1023 2.75049 12.5 2.75049C12.8977 2.75049 13.279 2.90839 13.5603 3.18948L21.0603 10.6895C21.3417 10.9706 21.4998 11.352 21.5 11.7498Z" fill="#557AF3"/>
</svg>
