<svg width="24" height="24" viewBox="0 0 24 24" fill="none" xmlns="http://www.w3.org/2000/svg">
<path d="M12 3C7.02944 3 3 7.02944 3 12C3 16.9706 7.02944 21 12 21C16.9706 21 21 16.9706 21 12C21 9.75737 20.1797 7.70631 18.8229 6.13049" stroke="white" stroke-width="1.5" stroke-linecap="round"/>
<path d="M11.9995 12C14.0268 12 15.6704 13.6437 15.6704 15.6709V16.2568C15.6704 16.6487 15.3523 16.9668 14.9604 16.9668H9.03857C8.64674 16.9668 8.32861 16.6487 8.32861 16.2568V15.6709C8.32861 13.6437 9.97238 12.0001 11.9995 12Z" fill="#557AF3"/>
<path d="M14.9604 7.0332C15.3523 7.0332 15.6704 7.35129 15.6704 7.74316V8.3291C15.6704 10.3563 14.0268 12 11.9995 12C9.97238 11.9999 8.32861 10.3563 8.32861 8.3291V7.74316C8.32861 7.35132 8.64674 7.03324 9.03857 7.0332H14.9604Z" fill="#557AF3"/>
<path d="M8.21045 7.3332C8.21045 7.16752 8.34476 7.0332 8.51045 7.0332H15.49C15.6557 7.0332 15.79 7.16752 15.79 7.3332V7.7835C15.79 7.94918 15.6557 8.0835 15.49 8.0835H8.51045C8.34476 8.0835 8.21045 7.94918 8.21045 7.7835V7.3332Z" fill="#B1C1FF"/>
<path d="M9.50439 15.3187C9.50439 15.5423 9.6857 15.7236 9.90936 15.7236H14.0902C14.3138 15.7236 14.4951 15.5423 14.4951 15.3187C14.4951 13.9767 13.4073 12.8889 12.0653 12.8889H11.9342C10.5922 12.8889 9.50439 13.9767 9.50439 15.3187Z" fill="#E4EAFD"/>
<path d="M8.20996 16.2165C8.20996 16.0508 8.34428 15.9165 8.50996 15.9165H15.4896C15.6552 15.9165 15.7896 16.0508 15.7896 16.2165V16.6668C15.7896 16.8325 15.6552 16.9668 15.4896 16.9668H8.50996C8.34428 16.9668 8.20996 16.8325 8.20996 16.6668V16.2165Z" fill="#B1C1FF"/>
<path d="M10.6552 11.424C10.4552 11.3804 10.4869 11.0859 10.6917 11.0859H13.3081C13.5128 11.0859 13.5445 11.3804 13.3445 11.424C13.0452 11.4893 12.7397 11.5222 12.4334 11.5222H11.5663C11.26 11.5222 10.9545 11.4893 10.6552 11.424Z" fill="#E4EAFD"/>
</svg>
