<svg width="24" height="24" viewBox="0 0 24 24" fill="none" xmlns="http://www.w3.org/2000/svg">
<g clip-path="url(#clip0_1363_5516)">
<rect x="0.296139" y="0.296139" width="23.4077" height="23.4077" rx="5.70386" fill="#FFE141" stroke="#FDE76D" stroke-width="0.592278"/>
<path d="M12 4.49268C16.9706 4.49268 21.0008 7.51473 21.001 11.2427C21.001 14.9707 16.9707 17.9927 12 17.9927C11.6159 17.9927 11.2376 17.973 10.8662 17.938L7.07812 20.4722C6.83812 20.6327 6.52451 20.4179 6.58789 20.1362L7.29492 16.9976C4.71846 15.8101 3 13.677 3 11.2427C3.00017 7.51481 7.02951 4.4928 12 4.49268Z" fill="#4F3934"/>
<path d="M8.47559 9.59961C8.60582 9.59961 8.71445 9.62773 8.78906 9.69629H8.78809C8.86235 9.76275 8.89936 9.85 8.89941 9.95312C8.89941 10.0306 8.87862 10.0996 8.83691 10.1572L8.78809 10.2109C8.71226 10.2768 8.60427 10.3047 8.47559 10.3047H7.75781V12.7988C7.75776 12.9143 7.73925 13.0143 7.69629 13.0938L7.64453 13.167C7.56684 13.2504 7.46549 13.291 7.34668 13.291C7.22631 13.291 7.12406 13.2496 7.04492 13.165L7.04395 13.1641C6.96474 13.077 6.93073 12.9516 6.93066 12.7988V10.3047H6.21289C6.08444 10.3047 5.9768 10.2773 5.90234 10.2109V10.21C5.82982 10.1433 5.79395 10.0558 5.79395 9.95312C5.794 9.84776 5.83019 9.75881 5.90527 9.69336L5.90625 9.69238C5.98301 9.62743 6.08821 9.59963 6.21289 9.59961H8.47559ZM10.3145 9.53906C10.4207 9.53912 10.514 9.56049 10.5908 9.60547H10.5898C10.6637 9.6461 10.7242 9.699 10.7695 9.76562C10.8138 9.82863 10.851 9.89681 10.8799 9.96973H10.8789C10.9079 10.0375 10.9445 10.1277 10.9873 10.2402L11.9053 12.5068L11.9883 12.7373C12.0074 12.804 12.0176 12.8606 12.0176 12.9062C12.0176 13.0064 11.975 13.0963 11.8975 13.1738C11.8191 13.2522 11.7218 13.291 11.6104 13.291C11.548 13.291 11.4911 13.2794 11.4414 13.2539V13.2549C11.4176 13.2435 11.3952 13.2297 11.375 13.2139L11.3193 13.1582C11.2881 13.1177 11.2563 13.0602 11.2236 12.9883L11.2227 12.9863C11.1923 12.9145 11.166 12.8513 11.1436 12.7969L11.1426 12.7959L10.9902 12.3926H9.64355L9.49023 12.8047C9.42475 12.9804 9.36635 13.107 9.31445 13.1768H9.31348C9.25209 13.2572 9.1554 13.291 9.03906 13.291C8.93337 13.291 8.83973 13.2521 8.76074 13.1768C8.68217 13.1018 8.63968 13.0127 8.63965 12.9111C8.63965 12.8567 8.64852 12.8012 8.66602 12.7451C8.68267 12.6918 8.70926 12.6186 8.74609 12.5273L9.64551 10.2461C9.67104 10.1807 9.70119 10.1018 9.73633 10.0107L9.79492 9.87891C9.815 9.83876 9.83603 9.80205 9.85742 9.76953V9.76855C9.9042 9.70023 9.96486 9.64557 10.0381 9.60449L10.0986 9.57617C10.1628 9.55138 10.2354 9.53906 10.3145 9.53906ZM17.9238 9.53906C18.0381 9.53906 18.1358 9.57377 18.2109 9.64648L18.2607 9.70215C18.3038 9.76149 18.3262 9.83092 18.3262 9.9082C18.326 10.034 18.2601 10.1513 18.1465 10.2598L17.3174 11.0439L18.2852 12.4307C18.3566 12.5313 18.412 12.6218 18.4492 12.7012L18.4932 12.8213C18.503 12.8616 18.5078 12.9021 18.5078 12.9424C18.5078 13.0382 18.4681 13.12 18.3955 13.1875L18.3965 13.1885C18.3222 13.2589 18.2227 13.2909 18.1064 13.291C17.9994 13.291 17.9058 13.2686 17.8311 13.2188H17.8301C17.7604 13.1705 17.7023 13.107 17.6553 13.0303C17.612 12.9598 17.5728 12.8958 17.5391 12.8379V12.8369L16.7383 11.6055L16.2266 12.0967V12.7988C16.2265 12.9534 16.1907 13.0799 16.1094 13.167V13.168C16.0301 13.251 15.9276 13.291 15.8076 13.291C15.736 13.291 15.6678 13.272 15.6035 13.2354C15.5386 13.1983 15.487 13.148 15.4512 13.084L15.4502 13.0811C15.424 13.0286 15.4086 12.9693 15.4033 12.9043C15.3983 12.8428 15.3955 12.7549 15.3955 12.6426V10.0303C15.3955 9.87932 15.4286 9.75497 15.5039 9.66797V9.66699C15.5806 9.58073 15.6845 9.53906 15.8076 9.53906C15.9291 9.5391 16.0315 9.58097 16.1094 9.66602L16.1621 9.7373C16.2065 9.81593 16.2266 9.91545 16.2266 10.0303V11.1133L17.5215 9.76367L17.6172 9.66895C17.6468 9.64182 17.675 9.61885 17.7002 9.60059L17.749 9.57324C17.8001 9.5501 17.859 9.53906 17.9238 9.53906ZM12.8213 9.53906C12.9427 9.53912 13.0452 9.58096 13.123 9.66602L13.1758 9.7373C13.2201 9.81592 13.2402 9.91546 13.2402 10.0303V12.5283H14.623C14.7464 12.5283 14.8506 12.5583 14.9258 12.627C15.0007 12.6942 15.0399 12.7807 15.04 12.8818C15.04 12.9584 15.0192 13.0268 14.9775 13.084L14.9287 13.1377C14.8533 13.2032 14.7477 13.2314 14.623 13.2314H12.9053C12.7436 13.2314 12.6122 13.1962 12.5273 13.1113V13.1104C12.4446 13.0256 12.4092 12.8962 12.4092 12.7363V10.0303C12.4092 9.87894 12.4432 9.75402 12.5205 9.66699L12.584 9.61035C12.651 9.5628 12.7311 9.53906 12.8213 9.53906ZM9.87305 11.7393H10.7539L10.3096 10.5225L9.87305 11.7393Z" fill="#FFE141" stroke="#FDE76D" stroke-width="0.118456"/>
</g>
<defs>
<clipPath id="clip0_1363_5516">
<rect width="24" height="24" fill="white"/>
</clipPath>
</defs>
</svg>
