<svg width="55" height="50" viewBox="0 0 55 50" fill="none" xmlns="http://www.w3.org/2000/svg">
<path d="M30.3335 0.550447C31.3167 0.147096 32.9652 1.81311 34.0143 4.26245C34.2121 4.72426 34.374 5.18606 34.4999 5.63034C34.6258 5.18606 34.7876 4.7301 34.9854 4.26245C36.0405 1.81311 37.6891 0.152941 38.6722 0.550447C39.6613 0.953798 39.6074 3.26284 38.5583 5.71802C37.5092 8.16736 35.8607 9.83337 34.8775 9.43002C34.7277 9.37157 34.6078 9.2605 34.5059 9.1202C34.4039 9.2605 34.2841 9.37157 34.1342 9.43002C33.1511 9.83337 31.5025 8.16736 30.4534 5.71802C29.4044 3.26868 29.3504 0.953798 30.3395 0.550447H30.3335Z" fill="url(#paint0_linear_1767_14718)"/>
<mask id="mask0_1767_14718" style="mask-type:luminance" maskUnits="userSpaceOnUse" x="0" y="7" width="55" height="43">
<path d="M0.478592 7.24023H54.9961V49.5102H0.478592V7.24023Z" fill="white"/>
</mask>
<g mask="url(#mask0_1767_14718)">
<path d="M0.479061 42.3783C0.479061 38.4408 3.68156 35.2383 7.61906 35.2383H48.3516V49.5108H7.61156C3.67406 49.5108 0.471565 46.3083 0.471565 42.3708L0.479061 42.3783Z" fill="url(#paint1_linear_1767_14718)"/>
<path d="M44.4361 7.24023C50.2636 7.24023 54.9961 11.2827 54.9961 16.2627V47.2002C54.9961 48.4827 53.7811 49.5177 52.2886 49.5177H14.0161V16.2627C14.0161 11.2752 18.7486 7.24023 24.5761 7.24023H44.4361Z" fill="url(#paint2_linear_1767_14718)"/>
<path d="M24.7617 32.2969C27.0421 32.2969 28.8867 31.2907 28.8867 30.0469C28.8867 28.803 27.0421 27.7969 24.7617 27.7969C22.4813 27.7969 20.6367 28.803 20.6367 30.0469C20.6367 31.2907 22.4813 32.2969 24.7617 32.2969Z" fill="#FBAAB3"/>
<path d="M44.6367 32.2969C46.7098 32.2969 48.3867 31.2907 48.3867 30.0469C48.3867 28.803 46.7098 27.7969 44.6367 27.7969C42.5636 27.7969 40.8867 28.803 40.8867 30.0469C40.8867 31.2907 42.5636 32.2969 44.6367 32.2969Z" fill="#FBAAB3"/>
<path d="M29.4792 30.4901C32.3592 30.4901 34.6992 27.7376 34.6992 24.3476C34.6992 20.9576 32.3592 18.2051 29.4792 18.2051C26.5992 18.2051 24.2592 20.9576 24.2592 24.3476C24.2592 27.7376 26.5992 30.4901 29.4792 30.4901Z" fill="white"/>
<path d="M39.9968 30.5731C42.8768 30.5731 45.2168 27.8206 45.2168 24.4306C45.2168 21.0406 42.8768 18.2881 39.9968 18.2881C37.1168 18.2881 34.7768 21.0406 34.7768 24.4306C34.7768 27.8206 37.1168 30.5731 39.9968 30.5731Z" fill="white"/>
<path d="M29.8336 28.9375C31.7161 28.9375 33.2461 27.1375 33.2461 24.9175C33.2461 22.6975 31.7161 20.8975 29.8336 20.8975C27.9511 20.8975 26.4211 22.6975 26.4211 24.9175C26.4211 27.1375 27.9511 28.9375 29.8336 28.9375Z" fill="#040000"/>
<path d="M39.5836 28.9375C41.4661 28.9375 42.9961 27.1375 42.9961 24.9175C42.9961 22.6975 41.4661 20.8975 39.5836 20.8975C37.7011 20.8975 36.1711 22.6975 36.1711 24.9175C36.1711 27.1375 37.7011 28.9375 39.5836 28.9375Z" fill="#040000"/>
<path d="M29.8711 24.4902L29.7559 24.8926C29.5678 25.5488 29.0546 26.0619 28.3985 26.25L27.9961 26.3652L28.3985 26.4804C29.0546 26.6686 29.5678 27.1817 29.7559 27.8379L29.8711 28.2402L29.9863 27.8379C30.1744 27.1817 30.6875 26.6686 31.3437 26.4804L31.7461 26.3652L31.3437 26.25C30.6875 26.0619 30.1744 25.5488 29.9863 24.8926L29.8711 24.4902Z" fill="white"/>
<path d="M39.6211 24.4902L39.5059 24.8926C39.3178 25.5488 38.8046 26.0619 38.1485 26.25L37.7461 26.3652L38.1485 26.4804C38.8046 26.6686 39.3178 27.1817 39.5059 27.8379L39.6211 28.2402L39.7363 27.8379C39.9244 27.1817 40.4375 26.6686 41.0937 26.4804L41.4961 26.3652L41.0937 26.25C40.4375 26.0619 39.9244 25.5488 39.7363 24.8926L39.6211 24.4902Z" fill="white"/>
<path d="M35.988 28.4373C36.453 27.4698 36.273 26.4198 35.583 26.0898C34.893 25.7598 33.963 26.2773 33.498 27.2448C33.033 28.2123 33.213 29.2623 33.903 29.5923C34.593 29.9223 35.523 29.4048 35.988 28.4373Z" fill="#FF6574"/>
</g>
<defs>
<linearGradient id="paint0_linear_1767_14718" x1="34.5059" y1="0.490234" x2="34.5059" y2="9.49023" gradientUnits="userSpaceOnUse">
<stop stop-color="#FBA7B0"/>
<stop offset="1" stop-color="#F7C2C7"/>
</linearGradient>
<linearGradient id="paint1_linear_1767_14718" x1="48.3516" y1="42.3708" x2="0.479064" y2="42.3708" gradientUnits="userSpaceOnUse">
<stop offset="0.427885" stop-color="#F9D9DC"/>
<stop offset="1" stop-color="#FBA7B0"/>
</linearGradient>
<linearGradient id="paint2_linear_1767_14718" x1="34.5061" y1="49.5102" x2="34.5061" y2="7.24023" gradientUnits="userSpaceOnUse">
<stop stop-color="#F9D9DC"/>
<stop offset="1" stop-color="#FBA7B0"/>
</linearGradient>
</defs>
</svg>
