<svg width="56" height="43" viewBox="0 0 56 43" fill="none" xmlns="http://www.w3.org/2000/svg">
<mask id="mask0_1767_14736" style="mask-type:luminance" maskUnits="userSpaceOnUse" x="0" y="0" width="56" height="43">
<path d="M0.507889 0.253906H55.0254V42.5239H0.507889V0.253906Z" fill="white"/>
</mask>
<g mask="url(#mask0_1767_14736)">
<path d="M0.508347 35.391C0.508347 31.4535 3.71086 28.251 7.64836 28.251H48.3809V42.5235H7.64085C3.70335 42.5235 0.500862 39.321 0.500862 35.3835L0.508347 35.391Z" fill="url(#paint0_linear_1767_14736)"/>
<path d="M44.4576 0.253594C39.8976 0.253594 34.5276 2.87842 34.5276 2.87842C34.5276 2.87842 29.1651 0.253594 24.5976 0.253594C18.7626 0.253594 14.0376 4.29609 14.0376 9.27609V42.5236H52.3101C53.8101 42.5236 55.0176 41.4886 55.0176 40.2061V9.26859C55.0176 4.28859 50.2851 0.246094 44.4576 0.246094V0.253594Z" fill="url(#paint1_linear_1767_14736)"/>
<path d="M24.6656 25.3113C26.8631 25.3113 28.6406 23.5338 28.6406 21.3363C28.6406 19.1388 26.8631 17.3613 24.6656 17.3613C22.4681 17.3613 20.6906 19.1388 20.6906 21.3363C20.6906 23.5338 22.4681 25.3113 24.6656 25.3113Z" fill="#6E6FD6"/>
<path d="M44.4215 25.2957C46.619 25.2957 48.3965 23.5182 48.3965 21.3207C48.3965 19.1232 46.619 17.3457 44.4215 17.3457C42.224 17.3457 40.4465 19.1232 40.4465 21.3207C40.4465 23.5182 42.224 25.2957 44.4215 25.2957Z" fill="#6E6FD6"/>
<path d="M29.5027 23.5041C32.3827 23.5041 34.7227 20.7516 34.7227 17.3616C34.7227 13.9716 32.3827 11.2266 29.5027 11.2266C26.6227 11.2266 24.2827 13.9791 24.2827 17.3691C24.2827 20.7591 26.6227 23.5116 29.5027 23.5116V23.5041Z" fill="white"/>
<path d="M40.0183 23.5793C42.8983 23.5793 45.2383 20.8268 45.2383 17.4368C45.2383 14.0468 42.8983 11.3018 40.0183 11.3018C37.1383 11.3018 34.7983 14.0543 34.7983 17.4443C34.7983 20.8343 37.1383 23.5868 40.0183 23.5868V23.5793Z" fill="white"/>
<path d="M29.8258 21.9511C31.7083 21.9511 33.2383 20.1511 33.2383 17.9311C33.2383 15.7111 31.7083 13.9111 29.8258 13.9111C27.9433 13.9111 26.4133 15.7111 26.4133 17.9311C26.4133 20.1511 27.9433 21.9511 29.8258 21.9511Z" fill="#040000"/>
<path d="M39.6129 21.9511C41.4954 21.9511 43.0254 20.1511 43.0254 17.9311C43.0254 15.7111 41.4954 13.9111 39.6129 13.9111C37.7304 13.9111 36.2004 15.7111 36.2004 17.9311C36.2004 20.1511 37.7304 21.9511 39.6129 21.9511Z" fill="#040000"/>
<path d="M36.238 21.7341C36.703 20.7666 36.523 19.7166 35.833 19.3866C35.143 19.0566 34.213 19.5741 33.748 20.5416C33.283 21.5091 33.463 22.5591 34.153 22.8891C34.843 23.2191 35.773 22.7016 36.238 21.7341Z" fill="#F6B96B"/>
<path d="M28.2732 18.8389C27.8307 18.8389 27.5307 19.2814 27.6882 19.6864C28.0332 20.5639 28.8882 21.1864 29.8932 21.1864C30.8982 21.1864 31.7532 20.5639 32.0982 19.6864C32.2557 19.2739 31.9557 18.8389 31.5132 18.8389H28.2657H28.2732Z" fill="#8889E7"/>
<path d="M38.0544 18.8389C37.6119 18.8389 37.3119 19.2814 37.4694 19.6864C37.8144 20.5639 38.6694 21.1864 39.6744 21.1864C40.6794 21.1864 41.5344 20.5639 41.8794 19.6864C42.0369 19.2739 41.7369 18.8389 41.2944 18.8389H38.047H38.0544Z" fill="#8889E7"/>
<path d="M24.508 15.5916C25.153 13.0641 27.148 11.2266 29.503 11.2266C31.858 11.2266 33.853 13.0716 34.498 15.5916H24.508Z" fill="#424DBA"/>
<path d="M35.0237 15.6668C35.6687 13.1393 37.6637 11.3018 40.0187 11.3018C42.3737 11.3018 44.3687 13.1468 45.0137 15.6668H35.0237Z" fill="#424DBA"/>
</g>
<defs>
<linearGradient id="paint0_linear_1767_14736" x1="48.3809" y1="35.391" x2="0.500862" y2="35.391" gradientUnits="userSpaceOnUse">
<stop stop-color="#BEB4FF"/>
<stop offset="1" stop-color="#4D4DBF"/>
</linearGradient>
<linearGradient id="paint1_linear_1767_14736" x1="34.5351" y1="42.5311" x2="34.5351" y2="0.253593" gradientUnits="userSpaceOnUse">
<stop stop-color="#BEB4FF"/>
<stop offset="1" stop-color="#4D4DBF"/>
</linearGradient>
</defs>
</svg>
