<svg width="56" height="44" viewBox="0 0 56 44" fill="none" xmlns="http://www.w3.org/2000/svg">
<path d="M0.222584 36.2646C0.222584 32.2503 3.48259 28.9903 7.49693 28.9903L49.0079 28.9903V43.5371H7.49505C3.48071 43.5371 0.220703 40.2771 0.220703 36.2628L0.222584 36.2646Z" fill="url(#paint0_linear_1738_6170)"/>
<path d="M45.0149 0.460938C40.3648 0.460938 36.4031 2.97978 34.8982 6.50691C33.3933 2.97978 29.4316 0.460938 24.7814 0.460938C18.837 0.460938 14.0176 4.57686 14.0176 9.65593V43.5389H53.0173C54.5429 43.5389 55.7788 42.4836 55.7788 41.18V9.65593C55.7788 4.57874 50.9593 0.460938 45.0149 0.460938Z" fill="url(#paint1_linear_1738_6170)"/>
<path d="M24.8391 25.9927C27.0759 25.9927 28.8892 24.1795 28.8892 21.9427C28.8892 19.7059 27.0759 17.8926 24.8391 17.8926C22.6023 17.8926 20.7891 19.7059 20.7891 21.9427C20.7891 24.1795 22.6023 25.9927 24.8391 25.9927Z" fill="#A5BDF9"/>
<path d="M44.972 25.982C47.2088 25.982 49.022 24.1687 49.022 21.9319C49.022 19.6951 47.2088 17.8818 44.972 17.8818C42.7352 17.8818 40.9219 19.6951 40.9219 21.9319C40.9219 24.1687 42.7352 25.982 44.972 25.982Z" fill="#A5BDF9"/>
<path d="M29.777 24.1578C32.714 24.1578 35.0949 21.3566 35.0949 17.9012C35.0949 14.4457 32.714 11.6445 29.777 11.6445C26.8399 11.6445 24.459 14.4457 24.459 17.9012C24.459 21.3566 26.8399 24.1578 29.777 24.1578Z" fill="white"/>
<path d="M40.4918 24.2369C43.4288 24.2369 45.8098 21.4357 45.8098 17.9803C45.8098 14.5248 43.4288 11.7236 40.4918 11.7236C37.5548 11.7236 35.1738 14.5248 35.1738 17.9803C35.1738 21.4357 37.5548 24.2369 40.4918 24.2369Z" fill="white"/>
<path d="M30.1012 22.5734C32.0232 22.5734 33.5813 20.7408 33.5813 18.4801C33.5813 16.2194 32.0232 14.3867 30.1012 14.3867C28.1792 14.3867 26.6211 16.2194 26.6211 18.4801C26.6211 20.7408 28.1792 22.5734 30.1012 22.5734Z" fill="black"/>
<path d="M40.0719 22.5734C41.9939 22.5734 43.552 20.7408 43.552 18.4801C43.552 16.2194 41.9939 14.3867 40.0719 14.3867C38.1499 14.3867 36.5918 16.2194 36.5918 18.4801C36.5918 20.7408 38.1499 22.5734 40.0719 22.5734Z" fill="black"/>
<path d="M36.6393 22.3515C37.1118 21.3648 36.9259 20.2925 36.2241 19.9564C35.5223 19.6203 34.5703 20.1477 34.0978 21.1344C33.6252 22.121 33.8111 23.1934 34.5129 23.5295C35.2148 23.8656 36.1668 23.3382 36.6393 22.3515Z" fill="#FFBE6A"/>
<path d="M28.5196 19.3984C28.0719 19.3984 27.7615 19.8499 27.9251 20.2656C28.275 21.1592 29.1498 21.7931 30.175 21.7931C31.2002 21.7931 32.0731 21.1592 32.4248 20.2656C32.5885 19.848 32.2781 19.3984 31.8304 19.3984H28.5215H28.5196Z" fill="#8FAEFF"/>
<path d="M38.4883 19.3984C38.0406 19.3984 37.7302 19.8499 37.8939 20.2656C38.2438 21.1592 39.1185 21.7931 40.1437 21.7931C41.169 21.7931 42.0418 21.1592 42.3936 20.2656C42.5572 19.848 42.2468 19.3984 41.7991 19.3984H38.4902H38.4883Z" fill="#8FAEFF"/>
<defs>
<linearGradient id="paint0_linear_1738_6170" x1="49.0061" y1="36.2665" x2="0.222582" y2="36.2665" gradientUnits="userSpaceOnUse">
<stop stop-color="#E1E0FF"/>
<stop offset="1" stop-color="#8FAEFF"/>
</linearGradient>
<linearGradient id="paint1_linear_1738_6170" x1="34.8982" y1="43.5389" x2="34.8982" y2="0.460938" gradientUnits="userSpaceOnUse">
<stop stop-color="#E1E0FF"/>
<stop offset="1" stop-color="#8FAEFF"/>
</linearGradient>
</defs>
</svg>
