<svg width="56" height="43" viewBox="0 0 56 43" fill="none" xmlns="http://www.w3.org/2000/svg">
<mask id="mask0_1767_14754" style="mask-type:luminance" maskUnits="userSpaceOnUse" x="0" y="0" width="56" height="43">
<path d="M0.742264 0.425781H55.2598V42.6958H0.742264V0.425781Z" fill="white"/>
</mask>
<g mask="url(#mask0_1767_14754)">
<path d="M0.742722 35.5638C0.742722 31.6263 3.94524 28.4238 7.88274 28.4238H48.6152V42.6963H7.87523C3.93773 42.6963 0.735237 39.4938 0.735237 35.5563L0.742722 35.5638Z" fill="url(#paint0_linear_1767_14754)"/>
<path d="M44.6939 0.426445C40.1339 0.426445 36.2414 2.90145 34.7639 6.35894C33.2864 2.90145 29.4014 0.426445 24.8339 0.426445C18.9989 0.426445 14.2739 4.46894 14.2739 9.44894V42.6964H52.5464C54.0464 42.6964 55.2539 41.6614 55.2539 40.3789V9.44145C55.2539 4.46145 50.5214 0.418945 44.6939 0.418945V0.426445Z" fill="url(#paint1_linear_1767_14754)"/>
<path d="M24.9 25.4842C27.0975 25.4842 28.875 23.7067 28.875 21.5092C28.875 19.3117 27.0975 17.5342 24.9 17.5342C22.7025 17.5342 20.925 19.3117 20.925 21.5092C20.925 23.7067 22.7025 25.4842 24.9 25.4842Z" fill="#FF9946"/>
<path d="M44.6559 25.4686C46.8534 25.4686 48.6309 23.6911 48.6309 21.4936C48.6309 19.2961 46.8534 17.5186 44.6559 17.5186C42.4584 17.5186 40.6809 19.2961 40.6809 21.4936C40.6809 23.6911 42.4584 25.4686 44.6559 25.4686Z" fill="#FF9946"/>
<path d="M29.737 23.6834C32.617 23.6834 34.957 20.9309 34.957 17.5409C34.957 14.1509 32.617 11.3984 29.737 11.3984C26.857 11.3984 24.517 14.1509 24.517 17.5409C24.517 20.9309 26.857 23.6834 29.737 23.6834Z" fill="white"/>
<path d="M40.2546 23.7586C43.1346 23.7586 45.4746 21.0061 45.4746 17.6161C45.4746 14.2261 43.1346 11.4736 40.2546 11.4736C37.3746 11.4736 35.0346 14.2261 35.0346 17.6161C35.0346 21.0061 37.3746 23.7586 40.2546 23.7586Z" fill="white"/>
<path d="M30.0621 22.124C31.9446 22.124 33.4746 20.324 33.4746 18.104C33.4746 15.884 31.9446 14.084 30.0621 14.084C28.1796 14.084 26.6496 15.884 26.6496 18.104C26.6496 20.324 28.1796 22.124 30.0621 22.124Z" fill="#040000"/>
<path d="M39.8473 22.124C41.7298 22.124 43.2598 20.324 43.2598 18.104C43.2598 15.884 41.7298 14.084 39.8473 14.084C37.9648 14.084 36.4348 15.884 36.4348 18.104C36.4348 20.324 37.9648 22.124 39.8473 22.124Z" fill="#040000"/>
<path d="M36.4743 21.906C36.9393 20.9385 36.7593 19.8885 36.0693 19.5585C35.3793 19.2285 34.4493 19.746 33.9843 20.7135C33.5193 21.681 33.6993 22.731 34.3893 23.061C35.0793 23.391 36.0093 22.8735 36.4743 21.906Z" fill="#7FC665"/>
<ellipse cx="2.01105" cy="1.75537" rx="2.01105" ry="1.75537" transform="matrix(-1 0 0 1 41.8223 15.2324)" fill="white"/>
<ellipse cx="2.01105" cy="1.75537" rx="2.01105" ry="1.75537" transform="matrix(-1 0 0 1 32.0234 15.2324)" fill="white"/>
<ellipse cx="1.09613" cy="0.876341" rx="1.09613" ry="0.876341" transform="matrix(-0.980001 0.198992 0.198992 0.980001 41.3203 19.0352)" fill="#FFE4A1"/>
<ellipse cx="1.09613" cy="0.876341" rx="1.09613" ry="0.876341" transform="matrix(-0.980001 0.198992 0.198992 0.980001 31.5215 19.0352)" fill="#FFE4A1"/>
</g>
<defs>
<linearGradient id="paint0_linear_1767_14754" x1="48.6152" y1="35.5638" x2="0.735237" y2="35.5638" gradientUnits="userSpaceOnUse">
<stop stop-color="#FFE89B"/>
<stop offset="1" stop-color="#FFA060"/>
</linearGradient>
<linearGradient id="paint1_linear_1767_14754" x1="34.7714" y1="42.7039" x2="34.7714" y2="0.426445" gradientUnits="userSpaceOnUse">
<stop stop-color="#FF9046"/>
<stop offset="1" stop-color="#FFE89B"/>
</linearGradient>
</defs>
</svg>
