<svg width="56" height="50" viewBox="0 0 56 50" fill="none" xmlns="http://www.w3.org/2000/svg">
<path d="M35.1958 13.8652L33.1303 13.0246C33.1303 13.0246 32.4985 9.78325 29.461 6.70357C28.813 6.04883 28.1731 5.35368 27.8329 4.4807C27.4441 3.49456 27.274 2.27401 28.1326 1.26361C28.7806 0.495713 29.8093 0.237053 30.757 0.422965C33.0574 0.867538 37.2856 3.12274 35.2039 13.8572L35.1958 13.8652Z" fill="#4AD188"/>
<path d="M0.746639 42.4945C0.746639 38.557 3.94914 35.3545 7.88664 35.3545H48.6191V49.627H7.87914C3.94164 49.627 0.739143 46.4245 0.739143 42.487L0.746639 42.4945Z" fill="url(#paint0_linear_1767_14685)"/>
<path d="M44.7037 7.36426C40.1437 7.36426 36.2512 9.83926 34.7737 13.2968C33.2962 9.83926 29.4112 7.36426 24.8437 7.36426C19.0087 7.36426 14.2837 11.4068 14.2837 16.3868V49.6343H52.5562C54.0562 49.6343 55.2637 48.5993 55.2637 47.3168V16.3868C55.2637 11.3993 50.5312 7.36426 44.7037 7.36426Z" fill="url(#paint1_linear_1767_14685)"/>
<path d="M24.9039 32.4139C27.1014 32.4139 28.8789 30.6364 28.8789 28.4389C28.8789 26.2414 27.1014 24.4639 24.9039 24.4639C22.7064 24.4639 20.9289 26.2414 20.9289 28.4389C20.9289 30.6364 22.7064 32.4139 24.9039 32.4139Z" fill="#5CD694"/>
<path d="M44.6578 32.407C46.8553 32.407 48.6328 30.6295 48.6328 28.432C48.6328 26.2345 46.8553 24.457 44.6578 24.457C42.4603 24.457 40.6828 26.2345 40.6828 28.432C40.6828 30.6295 42.4603 32.407 44.6578 32.407Z" fill="#5CD694"/>
<path d="M29.7468 30.6141C32.6268 30.6141 34.9668 27.8616 34.9668 24.4716C34.9668 21.0816 32.6268 18.3291 29.7468 18.3291C26.8668 18.3291 24.5268 21.0816 24.5268 24.4716C24.5268 27.8616 26.8668 30.6141 29.7468 30.6141Z" fill="white"/>
<path d="M40.2644 30.6893C43.1444 30.6893 45.4844 27.9368 45.4844 24.5468C45.4844 21.1568 43.1444 18.4043 40.2644 18.4043C37.3844 18.4043 35.0444 21.1568 35.0444 24.5468C35.0444 27.9368 37.3844 30.6893 40.2644 30.6893Z" fill="white"/>
<path d="M30.0621 29.0615C31.9446 29.0615 33.4746 27.2615 33.4746 25.0415C33.4746 22.8215 31.9446 21.0215 30.0621 21.0215C28.1796 21.0215 26.6496 22.8215 26.6496 25.0415C26.6496 27.2615 28.1796 29.0615 30.0621 29.0615Z" fill="#040000"/>
<ellipse cx="0.825" cy="0.825" rx="0.825" ry="0.825" transform="matrix(-1 0 0 1 29.7246 22.874)" fill="white"/>
<path d="M39.8512 29.0615C41.7337 29.0615 43.2637 27.2615 43.2637 25.0415C43.2637 22.8215 41.7337 21.0215 39.8512 21.0215C37.9687 21.0215 36.4387 22.8215 36.4387 25.0415C36.4387 27.2615 37.9687 29.0615 39.8512 29.0615Z" fill="#040000"/>
<ellipse cx="0.825" cy="0.825" rx="0.825" ry="0.825" transform="matrix(-1 0 0 1 39.5137 22.874)" fill="white"/>
<path d="M36.2555 29.0623C36.7205 28.0948 36.5405 27.0448 35.8505 26.7148C35.1605 26.3848 34.2305 26.9023 33.7655 27.8698C33.3005 28.8373 33.4805 29.8873 34.1705 30.2173C34.8605 30.5473 35.7905 30.0298 36.2555 29.0623Z" fill="#F6B96B"/>
<defs>
<linearGradient id="paint0_linear_1767_14685" x1="48.6191" y1="42.4945" x2="0.746642" y2="42.4945" gradientUnits="userSpaceOnUse">
<stop stop-color="#AEF1BE"/>
<stop offset="1" stop-color="#59DB95"/>
</linearGradient>
<linearGradient id="paint1_linear_1767_14685" x1="34.7737" y1="49.6343" x2="34.7737" y2="7.36426" gradientUnits="userSpaceOnUse">
<stop stop-color="#AEF1BE"/>
<stop offset="1" stop-color="#59DB95"/>
</linearGradient>
</defs>
</svg>
