<svg width="55" height="43" viewBox="0 0 55 43" fill="none" xmlns="http://www.w3.org/2000/svg">
<mask id="mask0_1767_14701" style="mask-type:luminance" maskUnits="userSpaceOnUse" x="0" y="0" width="55" height="43">
<path d="M0.453201 0.25293H54.9707V42.5229H0.453201V0.25293Z" fill="white"/>
</mask>
<g mask="url(#mask0_1767_14701)">
<path d="M0.453671 35.39C0.453671 31.4525 3.65617 28.25 7.59367 28.25H48.3262V42.5225H7.58617C3.64867 42.5225 0.446175 39.32 0.446175 35.3825L0.453671 35.39Z" fill="url(#paint0_linear_1767_14701)"/>
<path d="M11.2682 2.92293C11.7482 2.32293 12.5057 2.00043 13.2707 2.02293C16.9157 2.13543 18.5957 1.73043 19.2932 1.46043C19.4207 1.40043 19.5482 1.34043 19.6757 1.28043C19.7207 1.25043 19.7357 1.23543 19.7357 1.23543V1.25793C21.1757 0.62043 22.8107 0.26043 24.5507 0.26043C29.1107 0.26043 33.0032 2.73543 34.4807 6.19293C35.9582 2.72793 39.8432 0.25293 44.4107 0.25293C50.2382 0.25293 54.9707 4.29543 54.9707 9.27543V40.2129C54.9707 41.4954 53.7557 42.5304 52.2632 42.5304H13.9907V9.27543C13.9907 9.23043 13.9982 9.17793 13.9982 9.13293C9.2432 7.30293 10.4507 3.94293 11.2682 2.92293Z" fill="url(#paint1_linear_1767_14701)"/>
<path d="M24.7363 25.3096C27.0168 25.3096 28.8613 24.3034 28.8613 23.0596C28.8613 21.8157 27.0168 20.8096 24.7363 20.8096C22.4559 20.8096 20.6113 21.8157 20.6113 23.0596C20.6113 24.3034 22.4559 25.3096 24.7363 25.3096Z" fill="#FFD84A"/>
<path d="M44.6113 25.3096C46.6844 25.3096 48.3613 24.3034 48.3613 23.0596C48.3613 21.8157 46.6844 20.8096 44.6113 20.8096C42.5382 20.8096 40.8613 21.8157 40.8613 23.0596C40.8613 24.3034 42.5382 25.3096 44.6113 25.3096Z" fill="#FFD84A"/>
<path d="M29.4538 23.5028C32.3338 23.5028 34.6738 20.7503 34.6738 17.3603C34.6738 13.9703 32.3338 11.2178 29.4538 11.2178C26.5738 11.2178 24.2338 13.9703 24.2338 17.3603C24.2338 20.7503 26.5738 23.5028 29.4538 23.5028Z" fill="white"/>
<path d="M39.9714 23.5858C42.8514 23.5858 45.1914 20.8333 45.1914 17.4433C45.1914 14.0533 42.8514 11.3008 39.9714 11.3008C37.0914 11.3008 34.7514 14.0533 34.7514 17.4433C34.7514 20.8333 37.0914 23.5858 39.9714 23.5858Z" fill="white"/>
<path d="M29.7691 21.9502C31.6516 21.9502 33.1816 20.1502 33.1816 17.9302C33.1816 15.7102 31.6516 13.9102 29.7691 13.9102C27.8866 13.9102 26.3566 15.7102 26.3566 17.9302C26.3566 20.1502 27.8866 21.9502 29.7691 21.9502Z" fill="#040000"/>
<path d="M39.5582 21.9502C41.4407 21.9502 42.9707 20.1502 42.9707 17.9302C42.9707 15.7102 41.4407 13.9102 39.5582 13.9102C37.6757 13.9102 36.1457 15.7102 36.1457 17.9302C36.1457 20.1502 37.6757 21.9502 39.5582 21.9502Z" fill="#040000"/>
<path d="M36.1911 21.7322C36.6561 20.7647 36.4761 19.7147 35.7861 19.3847C35.0961 19.0547 34.1661 19.5722 33.7011 20.5397C33.2361 21.5072 33.4161 22.5572 34.1061 22.8872C34.7961 23.2172 35.7261 22.6997 36.1911 21.7322Z" fill="#FFA635"/>
<path d="M28.2166 18.8379C27.7741 18.8379 27.474 19.2804 27.6315 19.6854C27.9765 20.5629 28.8316 21.1854 29.8366 21.1854C30.8416 21.1854 31.6965 20.5629 32.0415 19.6854C32.199 19.2729 31.899 18.8379 31.4565 18.8379H28.209H28.2166Z" fill="#F9E496"/>
<path d="M38.0056 18.8379C37.5631 18.8379 37.2631 19.2804 37.4206 19.6854C37.7656 20.5629 38.6206 21.1854 39.6256 21.1854C40.6306 21.1854 41.4856 20.5629 41.8306 19.6854C41.9881 19.2729 41.6881 18.8379 41.2456 18.8379H37.9981H38.0056Z" fill="#F9E496"/>
</g>
<defs>
<linearGradient id="paint0_linear_1767_14701" x1="48.3262" y1="35.3825" x2="0.453673" y2="35.3825" gradientUnits="userSpaceOnUse">
<stop offset="0.504808" stop-color="#FFF3A6"/>
<stop offset="1" stop-color="#FFDD60"/>
</linearGradient>
<linearGradient id="paint1_linear_1767_14701" x1="32.7332" y1="0.25293" x2="32.7332" y2="42.5229" gradientUnits="userSpaceOnUse">
<stop stop-color="#FFF3A6"/>
<stop offset="1" stop-color="#FFDD60"/>
</linearGradient>
</defs>
</svg>
