<svg width="25" height="24" viewBox="0 0 25 24" fill="none" xmlns="http://www.w3.org/2000/svg">
<path d="M5.79243 3.72295C5.63794 3.39148 5.87992 3.01172 6.24563 3.01172H10.0559C10.2503 3.01172 10.427 3.12434 10.5091 3.30049L15.043 13.028C15.1975 13.3595 14.9555 13.7393 14.5898 13.7393H10.7795C10.5852 13.7393 10.4084 13.6266 10.3263 13.4505L5.79243 3.72295Z" fill="#839DF1"/>
<path d="M19.2076 3.72295C19.3621 3.39148 19.1201 3.01172 18.7544 3.01172H14.9441C14.7497 3.01172 14.573 3.12434 14.4909 3.30049L9.95698 13.028C9.80249 13.3595 10.0445 13.7393 10.4102 13.7393H14.2205C14.4148 13.7393 14.5916 13.6266 14.6737 13.4505L19.2076 3.72295Z" fill="#557AF3"/>
<circle cx="12.5024" cy="14.54" r="7" fill="#CED8F8"/>
<path d="M12.1369 10.492C12.2779 10.1758 12.7267 10.1758 12.8676 10.492L13.7531 12.4785C13.8112 12.6089 13.9345 12.6984 14.0765 12.7134L16.2393 12.9417C16.5836 12.978 16.7223 13.4049 16.4651 13.6366L14.8495 15.0926C14.7434 15.1882 14.6964 15.3331 14.726 15.4727L15.1773 17.6003C15.2491 17.9389 14.886 18.2027 14.5861 18.0298L12.7021 16.9432C12.5785 16.8718 12.4261 16.8718 12.3024 16.9432L10.4185 18.0298C10.1186 18.2027 9.75551 17.9389 9.82734 17.6003L10.2786 15.4727C10.3082 15.3331 10.2611 15.1882 10.1551 15.0926L8.53947 13.6366C8.2823 13.4049 8.42099 12.978 8.76527 12.9417L10.9281 12.7134C11.0701 12.6984 11.1934 12.6089 11.2515 12.4785L12.1369 10.492Z" fill="#839DF1"/>
</svg>
