<svg fill="none" height="36" viewBox="0 0 36 36" width="36" xmlns="http://www.w3.org/2000/svg"><path d="m7.93865 5.58442c-.23174-.4972.13123-1.06684.67979-1.06684h5.71546c.2915 0 .5566.16893.6798.43316l6.8008 14.59126c.2318.4972-.1312 1.0669-.6798 1.0669h-5.7154c-.2915 0-.5566-.1689-.6798-.4332z" fill="#839df1"/><path d="m28.0613 5.58442c.2318-.4972-.1312-1.06684-.6797-1.06684h-5.7155c-.2915 0-.5566.16893-.6798.43316l-6.8008 14.59126c-.2318.4972.1312 1.0669.6798 1.0669h5.7154c.2915 0 .5566-.1689.6798-.4332z" fill="#557af3"/><circle cx="18.0037" cy="21.8101" fill="#ced8f8" r="10.5"/><circle cx="18.0037" cy="21.8093" fill="#e4eafd" r="8.00464"/><path d="m14.9275 26.1108v-1.4414l3.0937-2.7187c.7149-.6563 1.125-1.0899 1.1368-1.7344-.0118-.7031-.5274-1.1484-1.2422-1.1484-.7266 0-1.2071.457-1.2071 1.2304h-1.8984c0-1.7109 1.2539-2.789 3.1172-2.789 1.9101 0 3.1641 1.0312 3.1641 2.5547 0 .9726-.4805 1.7812-2.3204 3.3867l-1.0664.9844v.0586h3.4922v1.6171z" fill="#6b7684"/></svg>