<svg width="25" height="24" viewBox="0 0 25 24" fill="none" xmlns="http://www.w3.org/2000/svg">
<path d="M5.79243 3.7227C5.63794 3.39123 5.87992 3.01147 6.24563 3.01147H10.0559C10.2503 3.01147 10.427 3.12409 10.5091 3.30025L15.043 13.0278C15.1975 13.3593 14.9555 13.739 14.5898 13.739H10.7795C10.5852 13.739 10.4084 13.6264 10.3263 13.4502L5.79243 3.7227Z" fill="#839DF1"/>
<path d="M19.2076 3.7227C19.3621 3.39123 19.1201 3.01147 18.7544 3.01147H14.9441C14.7497 3.01147 14.573 3.12409 14.4909 3.30025L9.95698 13.0278C9.80249 13.3593 10.0445 13.739 10.4102 13.739H14.2205C14.4148 13.739 14.5916 13.6264 14.6737 13.4502L19.2076 3.7227Z" fill="#557AF3"/>
<circle cx="12.5024" cy="14.5398" r="7" fill="#CED8F8"/>
<path d="M12.1369 10.4918C12.2779 10.1756 12.7267 10.1756 12.8676 10.4918L13.7531 12.4782C13.8112 12.6087 13.9345 12.6982 14.0765 12.7132L16.2393 12.9415C16.5836 12.9778 16.7223 13.4046 16.4651 13.6364L14.8495 15.0924C14.7434 15.1879 14.6964 15.3328 14.726 15.4725L15.1773 17.6C15.2491 17.9387 14.886 18.2025 14.5861 18.0295L12.7021 16.9429C12.5785 16.8716 12.4261 16.8716 12.3024 16.9429L10.4185 18.0295C10.1186 18.2025 9.75551 17.9387 9.82734 17.6L10.2786 15.4725C10.3082 15.3328 10.2611 15.1879 10.1551 15.0924L8.53947 13.6364C8.2823 13.4046 8.42099 12.9778 8.76527 12.9415L10.9281 12.7132C11.0701 12.6982 11.1934 12.6087 11.2515 12.4782L12.1369 10.4918Z" fill="#839DF1"/>
</svg>
