<svg width="36" height="36" viewBox="0 0 36 36" fill="none" xmlns="http://www.w3.org/2000/svg">
<path d="M7.93865 5.58442C7.70691 5.08722 8.06988 4.51758 8.61844 4.51758H14.3339C14.6254 4.51758 14.8905 4.68651 15.0137 4.95074L21.8145 19.542C22.0463 20.0392 21.6833 20.6089 21.1347 20.6089H15.4193C15.1278 20.6089 14.8627 20.44 14.7395 20.1757L7.93865 5.58442Z" fill="#839DF1"/>
<path d="M28.0613 5.58442C28.2931 5.08722 27.9301 4.51758 27.3816 4.51758H21.6661C21.3746 4.51758 21.1095 4.68651 20.9863 4.95074L14.1855 19.542C13.9537 20.0392 14.3167 20.6089 14.8653 20.6089H20.5807C20.8722 20.6089 21.1373 20.44 21.2605 20.1757L28.0613 5.58442Z" fill="#557AF3"/>
<circle cx="18.0037" cy="21.8101" r="10.5" fill="#FFDD78"/>
<circle cx="18.0037" cy="21.8093" r="8.00464" fill="#FFEFBF"/>
<path d="M19.4943 17.5679V26.0522H17.4904V19.4429H17.4435L15.5334 20.6147V18.8804L17.631 17.5679H19.4943Z" fill="#DD7D02"/>
</svg>
