<svg width="25" height="25" viewBox="0 0 25 25" fill="none" xmlns="http://www.w3.org/2000/svg">
<path d="M6.24609 4.01147H10.0557L14.5898 13.739H10.7793L6.24609 4.01147Z" stroke="#D1D6DB"/>
<path d="M18.7539 4.01147H14.9443L10.4102 13.739H14.2207L18.7539 4.01147Z" stroke="#D1D6DB"/>
<circle cx="12.5024" cy="15.0398" r="6.5" fill="white" stroke="#D1D6DB"/>
<path d="M12.1369 10.9918C12.2779 10.6756 12.7267 10.6756 12.8676 10.9918L13.7531 12.9782C13.8112 13.1087 13.9345 13.1982 14.0765 13.2132L16.2393 13.4415C16.5836 13.4778 16.7223 13.9046 16.4651 14.1364L14.8495 15.5924C14.7434 15.6879 14.6964 15.8328 14.726 15.9725L15.1773 18.1C15.2491 18.4387 14.886 18.7025 14.5861 18.5295L12.7021 17.4429C12.5785 17.3716 12.4261 17.3716 12.3024 17.4429L10.4185 18.5295C10.1186 18.7025 9.75551 18.4387 9.82734 18.1L10.2786 15.9725C10.3082 15.8328 10.2611 15.6879 10.1551 15.5924L8.53947 14.1364C8.2823 13.9046 8.42099 13.4778 8.76527 13.4415L10.9281 13.2132C11.0701 13.1982 11.1934 13.1087 11.2515 12.9782L12.1369 10.9918Z" fill="#D1D6DB"/>
</svg>
