<svg width="25" height="24" viewBox="0 0 25 24" fill="none" xmlns="http://www.w3.org/2000/svg">
<path d="M6.24609 3.51147H10.0557L14.5898 13.239H10.7793L6.24609 3.51147Z" stroke="#8B95A1"/>
<path d="M18.7539 3.51147H14.9443L10.4102 13.239H14.2207L18.7539 3.51147Z" stroke="#8B95A1"/>
<circle cx="12.5024" cy="14.5398" r="6.5" fill="white" stroke="#8B95A1"/>
<path d="M12.1369 10.4918C12.2779 10.1756 12.7267 10.1756 12.8676 10.4918L13.7531 12.4782C13.8112 12.6087 13.9345 12.6982 14.0765 12.7132L16.2393 12.9415C16.5836 12.9778 16.7223 13.4046 16.4651 13.6364L14.8495 15.0924C14.7434 15.1879 14.6964 15.3328 14.726 15.4725L15.1773 17.6C15.2491 17.9387 14.886 18.2025 14.5861 18.0295L12.7021 16.9429C12.5785 16.8716 12.4261 16.8716 12.3024 16.9429L10.4185 18.0295C10.1186 18.2025 9.75551 17.9387 9.82734 17.6L10.2786 15.4725C10.3082 15.3328 10.2611 15.1879 10.1551 15.0924L8.53947 13.6364C8.2823 13.4046 8.42099 12.9778 8.76527 12.9415L10.9281 12.7132C11.0701 12.6982 11.1934 12.6087 11.2515 12.4782L12.1369 10.4918Z" fill="#8B95A1"/>
</svg>
