<svg width="36" height="36" viewBox="0 0 36 36" fill="none" xmlns="http://www.w3.org/2000/svg">
<path d="M7.93865 5.58442C7.70691 5.08722 8.06988 4.51758 8.61844 4.51758H14.3339C14.6254 4.51758 14.8905 4.68651 15.0137 4.95074L21.8145 19.542C22.0463 20.0392 21.6833 20.6089 21.1347 20.6089H15.4193C15.1278 20.6089 14.8627 20.44 14.7395 20.1757L7.93865 5.58442Z" fill="#839DF1"/>
<path d="M28.0613 5.58442C28.2931 5.08722 27.9301 4.51758 27.3816 4.51758H21.6661C21.3746 4.51758 21.1095 4.68651 20.9863 4.95074L14.1855 19.542C13.9537 20.0392 14.3167 20.6089 14.8653 20.6089H20.5807C20.8722 20.6089 21.1373 20.44 21.2605 20.1757L28.0613 5.58442Z" fill="#557AF3"/>
<circle cx="18.0037" cy="21.8101" r="10.5" fill="#EB9558"/>
<circle cx="18.0037" cy="21.8093" r="8.00464" fill="#FFE3BD"/>
<path d="M17.974 26.1694C16.0404 26.1694 14.6693 25.103 14.6459 23.5796H16.6615C16.6732 24.1421 17.2357 24.5405 17.9857 24.5405C18.7357 24.5405 19.2748 24.1069 19.2631 23.4976C19.2748 22.8882 18.7006 22.4429 17.8099 22.4429H16.9896V21.0132H17.8099C18.5834 21.0132 19.1224 20.603 19.1224 19.9937C19.1224 19.4194 18.6654 19.0093 17.9857 19.0093C17.2943 19.0093 16.7435 19.4077 16.7318 20.0054H14.8099C14.8334 18.5054 16.1693 17.4507 17.9974 17.4507C19.8138 17.4507 21.056 18.4937 21.0443 19.8765C21.056 20.8257 20.3529 21.4937 19.3802 21.6343V21.6929C20.681 21.8452 21.3724 22.5952 21.3607 23.6499C21.3724 25.1147 19.9545 26.1694 17.974 26.1694Z" fill="#B26F22"/>
</svg>
