<svg width="52" height="52" viewBox="0 0 52 52" fill="none" xmlns="http://www.w3.org/2000/svg">
<path d="M1.98239 37.9939C1.98239 34.5482 4.78057 31.75 8.22622 31.75H43.8566V44.2361H8.22461C4.77896 44.2361 1.98077 41.4379 1.98077 37.9923L1.98239 37.9939Z" fill="url(#paint0_linear_324_2137)"/>
<path d="M40.4287 7.26233C36.4373 7.26233 33.0369 9.42434 31.7452 12.4518C30.4535 9.42434 27.053 7.26233 23.0616 7.26233C17.9593 7.26233 13.8226 10.7952 13.8226 15.1547V44.2377H47.2975C48.6069 44.2377 49.6677 43.3319 49.6677 42.213V15.1547C49.6677 10.7968 45.531 7.26233 40.4287 7.26233Z" fill="url(#paint1_linear_324_2137)"/>
<path d="M23.1116 29.1779C25.0315 29.1779 26.5879 27.6215 26.5879 25.7016C26.5879 23.7816 25.0315 22.2252 23.1116 22.2252C21.1917 22.2252 19.6353 23.7816 19.6353 25.7016C19.6353 27.6215 21.1917 29.1779 23.1116 29.1779Z" fill="#A5BDF9"/>
<path d="M40.3917 29.1681C42.3116 29.1681 43.868 27.6117 43.868 25.6918C43.868 23.7719 42.3116 22.2155 40.3917 22.2155C38.4718 22.2155 36.9153 23.7719 36.9153 25.6918C36.9153 27.6117 38.4718 29.1681 40.3917 29.1681Z" fill="#A5BDF9"/>
<path d="M27.3485 27.602C29.8694 27.602 31.9131 25.1976 31.9131 22.2316C31.9131 19.2657 29.8694 16.8613 27.3485 16.8613C24.8275 16.8613 22.7839 19.2657 22.7839 22.2316C22.7839 25.1976 24.8275 27.602 27.3485 27.602Z" fill="white"/>
<path d="M36.5456 27.6698C39.0666 27.6698 41.1102 25.2655 41.1102 22.2995C41.1102 19.3336 39.0666 16.9292 36.5456 16.9292C34.0246 16.9292 31.981 19.3336 31.981 22.2995C31.981 25.2655 34.0246 27.6698 36.5456 27.6698Z" fill="white"/>
<path d="M27.6277 26.2425C29.2774 26.2425 30.6148 24.6695 30.6148 22.729C30.6148 20.7886 29.2774 19.2156 27.6277 19.2156C25.978 19.2156 24.6406 20.7886 24.6406 22.729C24.6406 24.6695 25.978 26.2425 27.6277 26.2425Z" fill="black"/>
<path d="M36.1854 26.2425C37.8351 26.2425 39.1725 24.6695 39.1725 22.729C39.1725 20.7886 37.8351 19.2156 36.1854 19.2156C34.5356 19.2156 33.1983 20.7886 33.1983 22.729C33.1983 24.6695 34.5356 26.2425 36.1854 26.2425Z" fill="black"/>
<path d="M33.24 26.052C33.6456 25.2052 33.4861 24.2847 32.8837 23.9962C32.2813 23.7078 31.4641 24.1604 31.0586 25.0073C30.653 25.8542 30.8125 26.7746 31.4149 27.0631C32.0173 27.3516 32.8345 26.8989 33.24 26.052Z" fill="#FFBE6A"/>
<path d="M26.2697 23.517C25.8855 23.517 25.619 23.9045 25.7595 24.2613C26.0598 25.0283 26.8106 25.5724 27.6906 25.5724C28.5706 25.5724 29.3198 25.0283 29.6217 24.2613C29.7622 23.9029 29.4958 23.517 29.1115 23.517H26.2714H26.2697Z" fill="#8FAEFF"/>
<path d="M34.8275 23.517C34.4432 23.517 34.1768 23.9045 34.3173 24.2613C34.6176 25.0283 35.3684 25.5724 36.2484 25.5724C37.1284 25.5724 37.8775 25.0283 38.1795 24.2613C38.32 23.9029 38.0535 23.517 37.6693 23.517H34.8291H34.8275Z" fill="#8FAEFF"/>
<defs>
<linearGradient id="paint0_linear_324_2137" x1="43.855" y1="37.9955" x2="1.98239" y2="37.9955" gradientUnits="userSpaceOnUse">
<stop stop-color="#E1E0FF"/>
<stop offset="1" stop-color="#8FAEFF"/>
</linearGradient>
<linearGradient id="paint1_linear_324_2137" x1="31.7452" y1="44.2377" x2="31.7452" y2="7.26233" gradientUnits="userSpaceOnUse">
<stop stop-color="#E1E0FF"/>
<stop offset="1" stop-color="#8FAEFF"/>
</linearGradient>
</defs>
</svg>
