<svg width="84" height="22" viewBox="0 0 84 22" fill="none" xmlns="http://www.w3.org/2000/svg">
<path d="M55.1652 17.8033V10.3962C55.1651 8.76086 53.8393 7.43532 52.2039 7.4353C50.5685 7.4353 49.2427 8.76085 49.2426 10.3962V17.8033C49.2425 19.5915 47.7929 21.0411 46.0047 21.0412C44.2164 21.0412 42.7664 19.5916 42.7664 17.8033V10.3962C42.7665 5.18416 46.9918 0.959131 52.2039 0.959131C57.416 0.959144 61.6413 5.18416 61.6414 10.3962V17.8033C61.6414 19.5916 60.1915 21.0412 58.4031 21.0412C56.6148 21.0411 55.1653 19.5916 55.1652 17.8033ZM64.1516 11.2423V4.54663C64.1516 2.75833 65.6015 1.30874 67.3898 1.30874C69.1781 1.30879 70.6277 2.75836 70.6277 4.54663V11.2423C70.6278 12.8778 71.9536 14.2036 73.5891 14.2037C75.2245 14.2037 76.5504 12.8778 76.5504 11.2423V4.54663C76.5504 2.75833 78.0004 1.30874 79.7887 1.30874C81.5769 1.30885 83.0265 2.75839 83.0266 4.54663V11.2423C83.0265 16.4545 78.8012 20.6798 73.5891 20.6798C68.3769 20.6798 64.1516 16.4545 64.1516 11.2423ZM25.7711 17.2529V10.3962C25.771 8.76088 24.4451 7.43534 22.8098 7.4353C21.1744 7.4353 19.8485 8.76077 19.8484 10.3962V17.2529C19.8484 19.0412 18.3988 20.4911 16.6105 20.4912C14.8222 20.4912 13.3723 19.0412 13.3723 17.2529V10.3962C13.3722 8.76084 12.0464 7.4353 10.4109 7.4353C8.77558 7.43538 7.45008 8.76089 7.45 10.3962V17.2529C7.45 19.0412 6.00006 20.4912 4.21172 20.4912C2.42337 20.4912 0.973435 19.0412 0.973434 17.2529V10.3962C0.973514 5.18419 5.19889 0.95882 10.4109 0.95874C12.7838 0.95874 14.9519 1.83511 16.6102 3.28101C18.2684 1.83497 20.4367 0.959131 22.8098 0.959131C28.0218 0.959173 32.2472 5.18418 32.2473 10.3962V17.2529C32.2473 19.0412 30.7973 20.4912 29.009 20.4912C27.2207 20.4911 25.7711 19.0412 25.7711 17.2529ZM37.5961 13.0107L37.7625 13.015C39.4735 13.1017 40.834 14.5165 40.834 16.249C40.8339 17.9814 39.4734 19.3959 37.7625 19.4826L37.5961 19.4869H37.5066C35.7183 19.4869 34.2684 18.0373 34.2684 16.249C34.2684 14.4606 35.7183 13.0107 37.5066 13.0107H37.5961ZM37.5961 2.50444L37.7625 2.50874C39.4735 2.59541 40.834 4.01023 40.834 5.74272C40.834 7.47522 39.4735 8.89004 37.7625 8.97671L37.5961 8.98101H37.5066C35.7183 8.98101 34.2684 7.53107 34.2684 5.74272C34.2684 3.95438 35.7183 2.50444 37.5066 2.50444H37.5961Z" fill="#557AF3"/>
</svg>
