<svg width="207" height="52" viewBox="0 0 207 52" fill="none" xmlns="http://www.w3.org/2000/svg">
<path d="M136.373 43.0083V24.4907C136.373 20.4023 133.058 17.0884 128.97 17.0884C124.881 17.0884 121.567 20.4022 121.566 24.4907V43.0083C121.566 47.479 117.942 51.1028 113.472 51.103C109.001 51.103 105.376 47.4791 105.376 43.0083V24.4907C105.376 11.4605 115.939 0.897949 128.97 0.897949C142 0.897982 152.563 11.4605 152.563 24.4907V43.0083C152.563 47.4791 148.939 51.103 144.468 51.103C139.997 51.1029 136.373 47.479 136.373 43.0083ZM158.839 26.606V9.8667C158.839 5.39594 162.464 1.77197 166.935 1.77197C171.405 1.7721 175.029 5.39602 175.029 9.8667V26.606C175.029 30.6945 178.344 34.0092 182.433 34.0093C186.521 34.0093 189.836 30.6946 189.836 26.606V9.8667C189.836 5.39594 193.461 1.77197 197.932 1.77197C202.402 1.77224 206.026 5.3961 206.026 9.8667V26.606C206.026 39.6363 195.463 50.1997 182.433 50.1997C169.402 50.1996 158.839 39.6363 158.839 26.606ZM62.8877 41.6323V24.4907C62.8875 20.4023 59.5728 17.0885 55.4844 17.0884C51.396 17.0884 48.0813 20.402 48.0811 24.4907V41.6323C48.0811 46.1031 44.4571 49.7279 39.9863 49.728C35.5155 49.728 31.8906 46.1032 31.8906 41.6323V24.4907C31.8904 20.4022 28.5759 17.0884 24.4873 17.0884C20.3989 17.0886 17.0852 20.4023 17.085 24.4907V41.6323C17.085 46.1032 13.4601 49.728 8.98926 49.728C4.51839 49.728 0.893557 46.1032 0.893555 41.6323V24.4907C0.893753 11.4606 11.4572 0.897172 24.4873 0.896973C30.4195 0.896973 35.8398 3.08788 39.9854 6.70264C44.1309 3.08754 49.5518 0.897949 55.4844 0.897949C68.5145 0.898054 79.0779 11.4606 79.0781 24.4907V41.6323C79.0781 46.1032 75.4533 49.728 70.9824 49.728C66.5116 49.7279 62.8877 46.1031 62.8877 41.6323ZM92.4502 31.0269L92.8662 31.0376C97.1436 31.2543 100.545 34.7913 100.545 39.1226C100.545 43.4537 97.1435 46.9898 92.8662 47.2065L92.4502 47.2173H92.2266C87.7558 47.2173 84.131 43.5933 84.1309 39.1226C84.1309 34.6517 87.7557 31.0269 92.2266 31.0269H92.4502ZM92.4502 4.76123L92.8662 4.77197C97.1436 4.98865 100.545 8.52569 100.545 12.8569C100.545 17.1882 97.1436 20.7252 92.8662 20.9419L92.4502 20.9526H92.2266C87.7557 20.9526 84.1309 17.3278 84.1309 12.8569C84.1309 8.38606 87.7557 4.76123 92.2266 4.76123H92.4502Z" fill="white"/>
</svg>
