<svg width="84" height="24" viewBox="0 0 84 24" fill="none" xmlns="http://www.w3.org/2000/svg">
<path d="M55.1652 18.8035V11.3965C55.1652 9.7611 53.8393 8.43556 52.2039 8.43555C50.5685 8.43555 49.2427 9.7611 49.2426 11.3965V18.8035C49.2426 20.5918 47.793 22.0413 46.0047 22.0414C44.2164 22.0414 42.7664 20.5918 42.7664 18.8035V11.3965C42.7665 6.1844 46.9918 1.95938 52.2039 1.95938C57.416 1.95939 61.6413 6.18441 61.6414 11.3965V18.8035C61.6414 20.5918 60.1915 22.0414 58.4031 22.0414C56.6149 22.0413 55.1653 20.5918 55.1652 18.8035ZM64.1516 12.2426V5.54688C64.1516 3.75857 65.6015 2.30898 67.3899 2.30898C69.1781 2.30904 70.6277 3.7586 70.6277 5.54688V12.2426C70.6278 13.878 71.9536 15.2039 73.5891 15.2039C75.2245 15.2039 76.5504 13.878 76.5504 12.2426V5.54688C76.5505 3.75857 78.0004 2.30898 79.7887 2.30898C81.5769 2.30909 83.0265 3.75864 83.0266 5.54688V12.2426C83.0266 17.4547 78.8012 21.6801 73.5891 21.6801C68.377 21.6801 64.1516 17.4547 64.1516 12.2426ZM25.7711 18.2531V11.3965C25.771 9.76112 24.4452 8.43559 22.8098 8.43555C21.1744 8.43555 19.8485 9.76101 19.8484 11.3965V18.2531C19.8484 20.0414 18.3989 21.4914 16.6106 21.4914C14.8222 21.4914 13.3723 20.0415 13.3723 18.2531V11.3965C13.3722 9.76109 12.0464 8.43555 10.4109 8.43555C8.7756 8.43563 7.45009 9.76113 7.45001 11.3965V18.2531C7.45001 20.0415 6.00008 21.4914 4.21173 21.4914C2.42338 21.4914 0.973451 20.0415 0.97345 18.2531V11.3965C0.973529 6.18444 5.1989 1.95906 10.4109 1.95898C12.7838 1.95898 14.9519 2.83535 16.6102 4.28125C18.2684 2.83521 20.4367 1.95938 22.8098 1.95938C28.0218 1.95942 32.2472 6.18443 32.2473 11.3965V18.2531C32.2473 20.0415 30.7973 21.4914 29.009 21.4914C27.2207 21.4914 25.7711 20.0415 25.7711 18.2531ZM37.5961 14.0109L37.7625 14.0152C39.4735 14.1019 40.834 15.5167 40.834 17.2492C40.8339 18.9817 39.4734 20.3961 37.7625 20.4828L37.5961 20.4871H37.5067C35.7183 20.4871 34.2684 19.0375 34.2684 17.2492C34.2684 15.4609 35.7183 14.0109 37.5067 14.0109H37.5961ZM37.5961 3.50469L37.7625 3.50898C39.4735 3.59566 40.834 5.01047 40.834 6.74297C40.834 8.47547 39.4735 9.89028 37.7625 9.97695L37.5961 9.98125H37.5067C35.7183 9.98125 34.2684 8.53132 34.2684 6.74297C34.2684 4.95462 35.7183 3.50469 37.5067 3.50469H37.5961Z" fill="white"/>
</svg>
