<svg width="303" height="238" viewBox="0 0 303 238" fill="none" xmlns="http://www.w3.org/2000/svg">
<rect x="45.541" y="192.769" width="205.906" height="26.5684" rx="13.2842" fill="#C8D3FF"/>
<rect x="202.599" y="202.482" width="80.623" height="22.9998" rx="11.4999" fill="#C8D3FF"/>
<path d="M278.816 174.288C278.816 158.729 266.181 146.093 250.622 146.093H89.7309V202.475H250.629C266.188 202.475 278.823 189.839 278.823 174.28L278.816 174.288Z" fill="url(#paint0_linear_1653_35359)"/>
<path d="M105.209 35.5176C123.233 35.5176 138.588 45.2802 144.42 58.9509C150.253 45.2802 165.608 35.5176 183.631 35.5176C206.671 35.5176 225.351 51.4703 225.351 71.156V202.482H74.1934C68.2804 202.482 63.4902 198.391 63.4902 193.339V71.156C63.4902 51.4776 82.1697 35.5176 105.209 35.5176Z" fill="url(#paint1_linear_1653_35359)"/>
<path d="M183.407 134.477C174.737 134.477 167.709 127.449 167.709 118.78C167.709 110.11 174.737 103.082 183.407 103.082C192.076 103.082 199.104 110.11 199.104 118.78C199.104 127.449 192.076 134.477 183.407 134.477Z" fill="#A5BDF9"/>
<path d="M105.379 134.435C96.7091 134.435 89.6811 127.407 89.6811 118.738C89.6811 110.068 96.7091 103.04 105.379 103.04C114.048 103.04 121.076 110.068 121.076 118.738C121.076 127.407 114.048 134.435 105.379 134.435Z" fill="#A5BDF9"/>
<path d="M164.275 127.362C152.892 127.362 143.663 116.505 143.663 103.112C143.663 89.7194 152.892 78.8623 164.275 78.8623C175.659 78.8623 184.887 89.7194 184.887 103.112C184.887 116.505 175.659 127.362 164.275 127.362Z" fill="white"/>
<path d="M122.746 127.669C111.362 127.669 102.134 116.812 102.134 103.419C102.134 90.026 111.362 79.1689 122.746 79.1689C134.129 79.1689 143.357 90.026 143.357 103.419C143.357 116.812 134.129 127.669 122.746 127.669Z" fill="white"/>
<path d="M163.015 121.223C155.565 121.223 149.526 114.12 149.526 105.357C149.526 96.5953 155.565 89.4922 163.015 89.4922C170.464 89.4922 176.503 96.5953 176.503 105.357C176.503 114.12 170.464 121.223 163.015 121.223Z" fill="black"/>
<path d="M124.372 121.223C116.923 121.223 110.884 114.12 110.884 105.357C110.884 96.5953 116.923 89.4922 124.372 89.4922C131.821 89.4922 137.86 96.5953 137.86 105.357C137.86 114.12 131.821 121.223 124.372 121.223Z" fill="black"/>
<path d="M137.672 120.364C135.841 116.54 136.561 112.384 139.281 111.081C142.002 109.779 145.691 111.823 147.523 115.647C149.354 119.471 148.634 123.627 145.914 124.93C143.193 126.233 139.504 124.189 137.672 120.364Z" fill="#FFBE6A"/>
<path d="M169.147 108.915C170.883 108.915 172.086 110.665 171.451 112.276C170.095 115.739 166.705 118.196 162.731 118.196C158.758 118.196 155.375 115.739 154.011 112.276C153.377 110.658 154.58 108.915 156.315 108.915H169.14H169.147Z" fill="#8FAEFF"/>
<path d="M130.502 108.915C132.237 108.915 133.44 110.665 132.806 112.276C131.45 115.739 128.059 118.196 124.086 118.196C120.112 118.196 116.729 115.739 115.366 112.276C114.731 110.658 115.934 108.915 117.67 108.915H130.495H130.502Z" fill="#8FAEFF"/>
<path d="M63.0833 63.0108C63.3227 59.825 65.9774 57.3623 69.1722 57.3623H219.492C222.711 57.3623 225.377 59.8622 225.585 63.0751L226.561 78.1947C226.788 81.7143 223.994 84.694 220.467 84.694H68.0361C64.4836 84.694 61.6811 81.673 61.9473 78.1305L63.0833 63.0108Z" fill="#2C5BE7"/>
<path d="M235.117 54.8312L223.57 65.3457C223.029 65.8384 222.721 66.5364 222.721 67.2683C222.721 69.0057 224.392 70.2544 226.058 69.7621L240.49 65.4981C242.584 64.8794 243.676 62.5776 242.829 60.5646L240.961 56.12C239.98 53.7879 236.987 53.1279 235.117 54.8312Z" fill="#2C5BE7"/>
<path d="M236.303 69.7997L223.979 69.2876C223.377 69.2626 222.796 69.5225 222.39 69.9988C221.475 71.0734 221.77 72.796 222.983 73.464L233.84 79.44C235.77 80.5023 238.116 79.4727 238.788 77.2683L239.544 74.7913C240.275 72.3931 238.655 69.8974 236.303 69.7997Z" fill="#2C5BE7"/>
<path d="M122.526 78.2188C133.696 78.2188 142.941 87.9106 144.518 100.536C144.74 102.312 142.895 103.499 141.276 102.738L109.219 87.6914C107.785 87.0184 107.36 85.1723 108.505 84.0769C112.33 80.4144 117.21 78.2188 122.526 78.2188Z" fill="#839DF1"/>
<path d="M164.829 78.2188C153.66 78.2188 144.414 87.9106 142.837 100.536C142.615 102.312 144.46 103.499 146.08 102.738L178.136 87.6914C179.57 87.0184 179.995 85.1723 178.851 84.0769C175.026 80.4144 170.145 78.2188 164.829 78.2188Z" fill="#839DF1"/>
<path d="M29.7499 111.79C29.5619 111.634 29.3391 111.525 29.1003 111.473C28.8615 111.42 28.6137 111.426 28.3777 111.49C28.1417 111.554 27.9245 111.673 27.7444 111.839C27.5642 112.004 27.4265 112.21 27.3427 112.44L23.1498 123.953L18.5452 119.491C18.3906 119.341 18.2059 119.226 18.0034 119.153C17.8008 119.079 17.5851 119.049 17.3702 119.065C17.1554 119.081 16.9464 119.143 16.757 119.245C16.5676 119.348 16.4021 119.49 16.2715 119.661C12.1433 125.07 10.0469 130.511 10.0469 135.832C10.0469 140.281 11.8139 144.547 14.9592 147.692C18.1045 150.837 22.3705 152.604 26.8186 152.604C31.2667 152.604 35.5327 150.837 38.678 147.692C41.8233 144.547 43.5903 140.281 43.5903 135.832C43.5903 124.502 33.9104 115.249 29.7499 111.79Z" fill="#F66570"/>
<path d="M35.7377 145.408C37.5977 143.549 38.8433 141.164 39.3068 138.575H39.309C39.3884 138.107 39.2789 137.627 39.0044 137.241C38.7299 136.854 38.3131 136.592 37.8455 136.513C37.378 136.433 36.898 136.543 36.5112 136.817C36.1245 137.092 35.8626 137.509 35.7832 137.976C35.1553 141.685 32.0138 144.827 28.3114 145.45C27.8692 145.524 27.471 145.762 27.1958 146.116C26.9205 146.47 26.7884 146.914 26.8255 147.361C26.8626 147.808 27.0663 148.224 27.3962 148.528C27.726 148.832 28.158 149 28.6064 149C28.706 149.001 28.8054 148.993 28.9035 148.976C31.4926 148.513 33.8777 147.268 35.7377 145.408Z" fill="#FFD4D6"/>
<path d="M284.508 22.2085C284.363 22.0883 284.192 22.0046 284.008 21.9645C283.824 21.9244 283.634 21.929 283.452 21.978C283.271 22.0271 283.104 22.119 282.965 22.2461C282.826 22.3732 282.72 22.5318 282.656 22.7084L279.431 31.5649L275.889 28.1328C275.77 28.0175 275.628 27.9286 275.472 27.8721C275.316 27.8156 275.15 27.7928 274.985 27.8051C274.82 27.8175 274.659 27.8647 274.513 27.9436C274.368 28.0226 274.24 28.1316 274.14 28.2633C270.964 32.424 269.352 36.6096 269.352 40.7028C269.352 44.1245 270.711 47.406 273.13 49.8255C275.55 52.2449 278.831 53.6042 282.253 53.6042C285.675 53.6042 288.956 52.2449 291.376 49.8255C293.795 47.406 295.154 44.1245 295.154 40.7028C295.154 31.9871 287.708 24.8694 284.508 22.2085Z" fill="#FB8890"/>
<path d="M289.113 48.0683C290.544 46.6379 291.502 44.8034 291.859 42.8119H291.86C291.921 42.4522 291.837 42.083 291.626 41.7855C291.415 41.488 291.094 41.2866 290.735 41.2255C290.375 41.1644 290.006 41.2487 289.708 41.4598C289.411 41.6709 289.209 41.9916 289.148 42.3513C288.665 45.2044 286.249 47.6209 283.401 48.1005C283.061 48.1575 282.754 48.3402 282.542 48.6125C282.331 48.8848 282.229 49.2267 282.258 49.5704C282.286 49.9141 282.443 50.2346 282.697 50.4682C282.95 50.7018 283.283 50.8315 283.628 50.8316C283.704 50.8319 283.781 50.8256 283.856 50.8127C285.848 50.4566 287.682 49.4988 289.113 48.0683Z" fill="#FFD4D6"/>
<rect x="251.144" y="134.401" width="13.1856" height="14.0863" rx="1.18974" transform="rotate(90 251.144 134.401)" fill="#557AF3"/>
<circle cx="242.909" cy="177.618" r="36.8811" fill="#839DF1"/>
<circle cx="242.91" cy="177.619" r="30.0321" fill="#F2F4F6"/>
<rect x="241.721" y="150.275" width="2.37947" height="4.75895" rx="1.18974" fill="#CED8F8"/>
<rect x="241.721" y="200.203" width="2.37947" height="4.75895" rx="1.18974" fill="#CED8F8"/>
<rect x="270.254" y="176.429" width="2.37947" height="4.75895" rx="1.18974" transform="rotate(90 270.254 176.429)" fill="#CED8F8"/>
<rect x="220.325" y="176.429" width="2.37947" height="4.75895" rx="1.18974" transform="rotate(90 220.325 176.429)" fill="#CED8F8"/>
<rect x="265.996" y="162.917" width="2.37947" height="4.75895" rx="1.18974" transform="rotate(60 265.996 162.917)" fill="#CED8F8"/>
<rect x="222.757" y="187.881" width="2.37947" height="4.75895" rx="1.18974" transform="rotate(60 222.757 187.881)" fill="#CED8F8"/>
<rect x="255.552" y="153.344" width="2.37947" height="4.75895" rx="1.18974" transform="rotate(30 255.552 153.344)" fill="#CED8F8"/>
<rect x="230.588" y="196.583" width="2.37947" height="4.75895" rx="1.18974" transform="rotate(30 230.588 196.583)" fill="#CED8F8"/>
<rect x="228.209" y="154.533" width="2.37947" height="4.75895" rx="1.18974" transform="rotate(-30 228.209 154.533)" fill="#CED8F8"/>
<rect x="253.173" y="197.772" width="2.37947" height="4.75895" rx="1.18974" transform="rotate(-30 253.173 197.772)" fill="#CED8F8"/>
<rect x="218.635" y="164.978" width="2.37947" height="4.75895" rx="1.18974" transform="rotate(-60 218.635 164.978)" fill="#CED8F8"/>
<rect x="261.874" y="189.941" width="2.37947" height="4.75895" rx="1.18974" transform="rotate(-60 261.874 189.941)" fill="#CED8F8"/>
<path d="M255.804 165.161L243.366 177.6" stroke="#839DF1" stroke-width="1.7846" stroke-linecap="round"/>
<circle cx="242.91" cy="177.618" r="3.08414" fill="#557AF3"/>
<rect x="229.398" y="128.441" width="29.4039" height="8.88701" rx="4.4435" fill="#B1C1FF"/>
<defs>
<linearGradient id="paint0_linear_1653_35359" x1="89.7382" y1="174.295" x2="278.816" y2="174.295" gradientUnits="userSpaceOnUse">
<stop stop-color="#E1E0FF"/>
<stop offset="1" stop-color="#8FAEFF"/>
</linearGradient>
<linearGradient id="paint1_linear_1653_35359" x1="144.42" y1="202.482" x2="144.42" y2="35.5176" gradientUnits="userSpaceOnUse">
<stop stop-color="#E1E0FF"/>
<stop offset="1" stop-color="#8FAEFF"/>
</linearGradient>
</defs>
</svg>
