<svg width="336" height="125" viewBox="0 0 336 125" fill="none" xmlns="http://www.w3.org/2000/svg">
<path d="M201.725 53.6197C201.725 48.8025 197.813 44.8905 192.996 44.8905H143.183V62.3467L192.998 62.3467C197.816 62.3467 201.728 58.4347 201.728 53.6175L201.725 53.6197Z" fill="url(#paint0_linear_1653_33816)"/>
<path d="M147.975 10.6553C153.555 10.6553 158.309 13.6779 160.115 17.9104C161.921 13.6779 166.675 10.6553 172.255 10.6553C179.389 10.6553 185.172 15.5944 185.172 21.6893V62.3489H138.372C136.542 62.3489 135.058 61.0825 135.058 59.5181V21.6893C135.058 15.5966 140.842 10.6553 147.975 10.6553Z" fill="url(#paint1_linear_1653_33816)"/>
<path d="M172.186 41.2934C169.502 41.2934 167.326 39.1175 167.326 36.4333C167.326 33.7492 169.502 31.5732 172.186 31.5732C174.87 31.5732 177.046 33.7492 177.046 36.4333C177.046 39.1175 174.87 41.2934 172.186 41.2934Z" fill="#D1D6DB"/>
<path d="M148.028 41.2807C145.343 41.2807 143.167 39.1048 143.167 36.4206C143.167 33.7365 145.343 31.5605 148.028 31.5605C150.712 31.5605 152.888 33.7365 152.888 36.4206C152.888 39.1048 150.712 41.2807 148.028 41.2807Z" fill="#D1D6DB"/>
<path d="M166.262 39.0912C162.738 39.0912 159.88 35.7297 159.88 31.5832C159.88 27.4366 162.738 24.0752 166.262 24.0752C169.786 24.0752 172.644 27.4366 172.644 31.5832C172.644 35.7297 169.786 39.0912 166.262 39.0912Z" fill="white"/>
<path d="M153.405 39.1859C149.88 39.1859 147.023 35.8245 147.023 31.6779C147.023 27.5314 149.88 24.1699 153.405 24.1699C156.929 24.1699 159.786 27.5314 159.786 31.6779C159.786 35.8245 156.929 39.1859 153.405 39.1859Z" fill="white"/>
<path d="M165.872 37.1903C163.565 37.1903 161.696 34.9911 161.696 32.2782C161.696 29.5654 163.565 27.3662 165.872 27.3662C168.178 27.3662 170.048 29.5654 170.048 32.2782C170.048 34.9911 168.178 37.1903 165.872 37.1903Z" fill="#4E5968"/>
<path d="M153.908 37.1903C151.601 37.1903 149.732 34.9911 149.732 32.2782C149.732 29.5654 151.601 27.3662 153.908 27.3662C156.214 27.3662 158.084 29.5654 158.084 32.2782C158.084 34.9911 156.214 37.1903 153.908 37.1903Z" fill="#4E5968"/>
<path d="M158.026 36.9242C157.459 35.7402 157.682 34.4534 158.524 34.05C159.366 33.6467 160.509 34.2796 161.076 35.4636C161.643 36.6476 161.42 37.9344 160.578 38.3377C159.735 38.741 158.593 38.1082 158.026 36.9242Z" fill="#8B95A1"/>
<path d="M167.771 33.3799C168.308 33.3799 168.68 33.9216 168.484 34.4205C168.064 35.4928 167.014 36.2535 165.784 36.2535C164.554 36.2535 163.506 35.4928 163.084 34.4205C162.888 33.9194 163.26 33.3799 163.798 33.3799H167.768H167.771Z" fill="white"/>
<path d="M155.806 33.3799C156.343 33.3799 156.716 33.9216 156.519 34.4205C156.099 35.4928 155.05 36.2535 153.819 36.2535C152.589 36.2535 151.542 35.4928 151.12 34.4205C150.923 33.9194 151.296 33.3799 151.833 33.3799H155.804H155.806Z" fill="white"/>
<path d="M87.1161 92.5176H85.6317V89.627H83.3817V88.4395H85.6317V86.7051H83.3817V85.4863H85.6317V81.8457H87.1161V92.5176ZM83.3349 84.6738H75.4599V83.4707H78.7411V81.8301H80.2099V83.4707H83.3349V84.6738ZM79.4599 85.3457C80.0849 85.3457 80.6395 85.4603 81.1239 85.6895C81.6135 85.9134 81.9963 86.2285 82.2724 86.6348C82.5484 87.041 82.689 87.5072 82.6942 88.0332C82.689 88.5645 82.5484 89.0358 82.2724 89.4473C81.9963 89.8535 81.6135 90.1712 81.1239 90.4004C80.6395 90.6243 80.0849 90.7363 79.4599 90.7363C78.8349 90.7363 78.2776 90.6243 77.788 90.4004C77.3036 90.1712 76.9234 89.8535 76.6474 89.4473C76.3765 89.0358 76.2411 88.5645 76.2411 88.0332C76.2411 87.5072 76.3765 87.041 76.6474 86.6348C76.9234 86.2285 77.3036 85.9134 77.788 85.6895C78.2776 85.4603 78.8349 85.3457 79.4599 85.3457ZM79.4599 86.502C79.0953 86.5072 78.775 86.5749 78.4989 86.7051C78.2229 86.8301 78.0093 87.0072 77.8583 87.2363C77.7072 87.4655 77.6317 87.7311 77.6317 88.0332C77.6317 88.5072 77.7984 88.8848 78.1317 89.166C78.4651 89.4421 78.9078 89.5801 79.4599 89.5801C79.8192 89.5801 80.1369 89.5176 80.413 89.3926C80.689 89.2676 80.9052 89.0879 81.0614 88.8535C81.2177 88.6191 81.2984 88.3457 81.3036 88.0332C81.2984 87.7311 81.2177 87.4655 81.0614 87.2363C80.9052 87.0072 80.689 86.8301 80.413 86.7051C80.1369 86.5749 79.8192 86.5072 79.4599 86.502ZM87.4286 95.5332H77.9755V91.5801H79.4755V94.3301H87.4286V95.5332ZM101.457 95.8301H100.035V88.6426H98.3636V95.1426H96.9573V82.0957H98.3636V87.3926H100.035V81.8301H101.457V95.8301ZM93.6136 85.5332C93.6136 86.3874 93.7229 87.1947 93.9417 87.9551C94.1604 88.7155 94.4912 89.3926 94.9339 89.9863C95.3818 90.5749 95.9365 91.0384 96.5979 91.377L95.7229 92.5176C95.0511 92.153 94.4807 91.6582 94.012 91.0332C93.5432 90.4082 93.1813 89.6816 92.9261 88.8535C92.6813 89.791 92.3219 90.6139 91.8479 91.3223C91.3792 92.0306 90.7958 92.5905 90.0979 93.002L89.1761 91.877C90.1708 91.3145 90.9182 90.4759 91.4182 89.3613C91.9235 88.2467 92.1761 86.9707 92.1761 85.5332V84.627H89.5511V83.4238H96.0511V84.627H93.6136V85.5332ZM111.515 84.5488C111.515 84.9915 111.627 85.429 111.851 85.8613C112.08 86.2884 112.405 86.6764 112.827 87.0254C113.254 87.3691 113.754 87.6374 114.327 87.8301L113.687 88.9238C113.02 88.7051 112.444 88.3822 111.96 87.9551C111.476 87.528 111.101 87.0332 110.835 86.4707C110.575 87.0853 110.202 87.6296 109.718 88.1035C109.239 88.5775 108.666 88.9395 107.999 89.1895L107.312 88.0645C107.879 87.8457 108.374 87.5488 108.796 87.1738C109.223 86.7988 109.549 86.3822 109.773 85.9238C109.996 85.4655 110.108 85.0072 110.108 84.5488V84.502H107.671V83.3301H110.108V81.8926H111.515V83.3301H113.921V84.502H111.515V84.5488ZM119.218 89.2832H117.812V86.127H116.218V89.1738H114.796V82.0957H116.218V84.9238H117.812V81.8457H119.218V89.2832ZM119.218 93.2363H111.327V94.5332H119.749V95.6582H109.858V92.1426H117.765V90.9863H109.827V89.8613H119.218V93.2363ZM132.793 92.1426H131.325V81.8457H132.793V92.1426ZM133.184 95.5332H123.543V91.3301H125.028V94.3301H133.184V95.5332ZM128.34 86.9863H123.387V89.002C124.762 88.9967 125.926 88.9629 126.879 88.9004C127.832 88.8327 128.804 88.7103 129.793 88.5332L129.95 89.752C128.903 89.9395 127.874 90.0645 126.864 90.127C125.853 90.1895 124.601 90.2207 123.106 90.2207H121.934V85.8613H126.872V84.002H121.903V82.8145H128.34V86.9863ZM140.275 85.9551C140.275 86.7311 140.431 87.4993 140.744 88.2598C141.062 89.0202 141.499 89.6999 142.056 90.2988C142.619 90.8926 143.254 91.3405 143.963 91.6426L143.15 92.7988C142.333 92.4395 141.609 91.8978 140.978 91.1738C140.348 90.4447 139.869 89.6087 139.541 88.666C139.213 89.6712 138.731 90.5723 138.096 91.3691C137.465 92.166 136.749 92.7624 135.947 93.1582L135.088 91.9863C135.775 91.6634 136.4 91.1816 136.963 90.541C137.525 89.8952 137.965 89.1686 138.283 88.3613C138.606 87.5488 138.77 86.7467 138.775 85.9551V84.4707H135.572V83.2363H143.463V84.4707H140.275V85.9551ZM146.713 95.8301H145.228V81.8301H146.713V95.8301ZM160.145 88.7051H165.801V89.9238H153.036V88.7051H158.676V86.8145H160.145V88.7051ZM159.411 90.9395C160.421 90.9395 161.286 91.0332 162.005 91.2207C162.728 91.4082 163.281 91.6842 163.661 92.0488C164.046 92.4134 164.239 92.8561 164.239 93.377C164.239 93.8926 164.046 94.3327 163.661 94.6973C163.281 95.0618 162.728 95.3379 162.005 95.5254C161.281 95.7129 160.416 95.804 159.411 95.7988C158.395 95.804 157.523 95.7129 156.794 95.5254C156.07 95.3379 155.515 95.0618 155.13 94.6973C154.744 94.3327 154.551 93.8926 154.551 93.377C154.551 92.8561 154.744 92.4134 155.13 92.0488C155.515 91.6842 156.07 91.4082 156.794 91.2207C157.523 91.0332 158.395 90.9395 159.411 90.9395ZM159.411 92.0801C158.327 92.0801 157.497 92.1921 156.919 92.416C156.34 92.6348 156.051 92.9551 156.051 93.377C156.051 93.7988 156.34 94.1217 156.919 94.3457C157.497 94.5645 158.327 94.6738 159.411 94.6738C160.478 94.6738 161.301 94.5645 161.88 94.3457C162.463 94.1217 162.755 93.7988 162.755 93.377C162.755 92.9551 162.463 92.6348 161.88 92.416C161.301 92.1921 160.478 92.0801 159.411 92.0801ZM164.661 83.6582H160.411C160.478 84.0957 160.726 84.5072 161.153 84.8926C161.585 85.278 162.148 85.6009 162.84 85.8613C163.538 86.1217 164.307 86.2936 165.145 86.377L164.614 87.5488C163.374 87.4082 162.291 87.0957 161.364 86.6113C160.437 86.127 159.786 85.5176 159.411 84.7832C159.036 85.5124 158.385 86.1217 157.458 86.6113C156.531 87.0957 155.452 87.4082 154.223 87.5488L153.692 86.377C154.525 86.2936 155.288 86.1243 155.981 85.8691C156.674 85.6087 157.234 85.2858 157.661 84.9004C158.093 84.515 158.343 84.1009 158.411 83.6582H154.208V82.4707H164.661V83.6582ZM179.768 94.1582H166.955V92.9082H170.455V90.4395H168.518V85.9863H176.736V84.0332H168.486V82.8145H178.205V87.1895H169.986V89.2207H178.533V90.4395H176.408V92.9082H179.768V94.1582ZM174.955 92.9082V90.4395H171.893V92.9082H174.955ZM196.919 84.5957H185.528V83.377H190.512V81.7676H191.981V83.377H196.919V84.5957ZM197.684 92.1113H191.981V95.8457H190.512V92.1113H184.872V90.8926H197.684V92.1113ZM191.247 85.3145C192.216 85.3145 193.049 85.4056 193.747 85.5879C194.445 85.7702 194.979 86.0384 195.348 86.3926C195.718 86.7415 195.903 87.1686 195.903 87.6738C195.903 88.1686 195.718 88.5905 195.348 88.9395C194.979 89.2884 194.445 89.554 193.747 89.7363C193.049 89.9186 192.216 90.0124 191.247 90.0176C190.273 90.0124 189.437 89.9186 188.739 89.7363C188.041 89.554 187.507 89.2884 187.137 88.9395C186.768 88.5905 186.585 88.1686 186.591 87.6738C186.585 87.1686 186.768 86.7415 187.137 86.3926C187.507 86.0384 188.041 85.7702 188.739 85.5879C189.437 85.4056 190.273 85.3145 191.247 85.3145ZM191.247 86.4238C190.236 86.4238 189.463 86.5306 188.927 86.7441C188.39 86.9577 188.122 87.2676 188.122 87.6738C188.122 88.0645 188.39 88.3665 188.927 88.5801C189.468 88.7884 190.242 88.8926 191.247 88.8926C192.247 88.8926 193.015 88.7884 193.552 88.5801C194.088 88.3665 194.361 88.0645 194.372 87.6738C194.367 87.2676 194.093 86.9577 193.552 86.7441C193.015 86.5306 192.247 86.4238 191.247 86.4238ZM207.664 85.9551C207.664 86.6895 207.815 87.4342 208.117 88.1895C208.419 88.9447 208.841 89.627 209.382 90.2363C209.929 90.8457 210.549 91.3145 211.242 91.6426L210.398 92.7988C209.627 92.4238 208.94 91.8691 208.336 91.1348C207.737 90.4004 207.276 89.5671 206.953 88.6348C206.63 89.6452 206.153 90.554 205.523 91.3613C204.898 92.1634 204.19 92.7624 203.398 93.1582L202.523 91.9863C203.216 91.653 203.841 91.1634 204.398 90.5176C204.961 89.8717 205.401 89.1478 205.718 88.3457C206.036 87.5384 206.195 86.7415 206.195 85.9551V84.4707H203.039V83.2363H210.711V84.4707H207.664V85.9551ZM213.695 87.377H215.945V88.627H213.695V95.8301H212.211V81.8301H213.695V87.377ZM229.489 89.8301H216.708V88.6426H222.38V87.1582H218.302V82.4707H227.911V83.6426H219.77V85.9707H228.005V87.1582H223.817V88.6426H229.489V89.8301ZM223.083 90.7363C224.088 90.7363 224.95 90.8353 225.669 91.0332C226.393 91.2311 226.948 91.5228 227.333 91.9082C227.718 92.2884 227.911 92.7467 227.911 93.2832C227.911 93.8197 227.718 94.278 227.333 94.6582C226.953 95.0384 226.401 95.3275 225.677 95.5254C224.953 95.7233 224.088 95.8249 223.083 95.8301C222.073 95.8249 221.203 95.7233 220.474 95.5254C219.75 95.3275 219.192 95.0384 218.802 94.6582C218.416 94.278 218.224 93.8197 218.224 93.2832C218.224 92.7467 218.416 92.2884 218.802 91.9082C219.192 91.5228 219.75 91.2311 220.474 91.0332C221.203 90.8353 222.073 90.7363 223.083 90.7363ZM223.083 91.8926C222.01 91.8926 221.182 92.015 220.599 92.2598C220.015 92.4993 219.724 92.8405 219.724 93.2832C219.724 93.7311 220.015 94.0749 220.599 94.3145C221.187 94.5488 222.015 94.6634 223.083 94.6582C224.14 94.6686 224.961 94.554 225.544 94.3145C226.132 94.0697 226.427 93.7259 226.427 93.2832C226.427 92.8405 226.132 92.4993 225.544 92.2598C224.961 92.015 224.14 91.8926 223.083 91.8926ZM237.002 82.6738C237.976 82.6738 238.856 82.8379 239.643 83.166C240.429 83.4889 241.047 83.9473 241.494 84.541C241.948 85.1296 242.174 85.8092 242.174 86.5801C242.174 87.3509 241.948 88.0332 241.494 88.627C241.047 89.2207 240.429 89.6816 239.643 90.0098C238.856 90.3327 237.976 90.4915 237.002 90.4863C236.028 90.4915 235.148 90.3327 234.362 90.0098C233.58 89.6816 232.966 89.2207 232.518 88.627C232.07 88.0332 231.846 87.3509 231.846 86.5801C231.846 85.8092 232.07 85.1296 232.518 84.541C232.966 83.9473 233.58 83.4889 234.362 83.166C235.148 82.8379 236.028 82.6738 237.002 82.6738ZM237.002 83.877C236.294 83.8717 235.653 83.9837 235.08 84.2129C234.513 84.4368 234.067 84.7546 233.744 85.166C233.422 85.5775 233.263 86.0488 233.268 86.5801C233.263 87.1165 233.422 87.5879 233.744 87.9941C234.067 88.4004 234.513 88.7155 235.08 88.9395C235.648 89.1582 236.289 89.2676 237.002 89.2676C237.716 89.2676 238.354 89.1582 238.916 88.9395C239.484 88.7155 239.929 88.4004 240.252 87.9941C240.575 87.5879 240.737 87.1165 240.737 86.5801C240.737 86.0488 240.575 85.5775 240.252 85.166C239.929 84.7546 239.484 84.4368 238.916 84.2129C238.349 83.9837 237.711 83.8717 237.002 83.877ZM243.44 94.0176H230.627V92.7832H243.44V94.0176ZM257.359 94.1582H244.547V92.9082H250.187V90.4551H246.109V86.002H254.328V84.0332H246.078V82.8145H255.797V87.1895H247.578V89.2363H256.125V90.4551H251.656V92.9082H257.359V94.1582ZM97.8076 119.83H96.3076V105.83H97.8076V119.83ZM93.6357 107.33C93.6357 109.497 93.1175 111.424 92.081 113.111C91.0498 114.794 89.3857 116.184 87.0888 117.283L86.3076 116.08C88.1461 115.205 89.5394 114.14 90.4873 112.885C91.4404 111.63 91.9899 110.174 92.1357 108.518H86.9795V107.33H93.6357ZM112.883 114.674H100.071V113.471H105.743V112.143H101.711V108.58H109.789V107.33H101.68V106.158H111.274V109.674H103.18V110.986H111.555V112.143H107.211V113.471H112.883V114.674ZM111.352 119.721H109.852V116.846H101.508V115.658H111.352V119.721ZM122.349 112.971H119.396V115.564C120.875 115.492 122.151 115.398 123.224 115.283L123.334 116.377C121.974 116.585 120.581 116.721 119.154 116.783C117.732 116.846 116.105 116.882 114.271 116.893L114.084 115.658C115.563 115.658 116.839 115.643 117.912 115.611V112.971H115.099V107.127H122.287V108.33H116.568V111.752H122.349V112.971ZM125.584 119.861H124.099V105.83H125.584V119.861ZM131.722 106.877C132.352 106.877 132.92 107.049 133.425 107.393C133.93 107.731 134.339 108.218 134.652 108.854C134.969 109.484 135.165 110.226 135.237 111.08H138.128V105.83H139.597V119.861H138.128V112.283H135.253C135.201 113.179 135.019 113.96 134.706 114.627C134.394 115.294 133.98 115.807 133.464 116.166C132.948 116.525 132.368 116.705 131.722 116.705C131.024 116.705 130.407 116.505 129.87 116.104C129.334 115.697 128.915 115.124 128.612 114.385C128.316 113.64 128.17 112.773 128.175 111.783C128.17 110.799 128.316 109.937 128.612 109.197C128.915 108.452 129.334 107.88 129.87 107.479C130.412 107.077 131.029 106.877 131.722 106.877ZM131.722 108.205C131.3 108.205 130.928 108.351 130.605 108.643C130.282 108.934 130.029 109.351 129.847 109.893C129.67 110.429 129.581 111.059 129.581 111.783C129.581 112.512 129.67 113.148 129.847 113.689C130.029 114.231 130.282 114.648 130.605 114.939C130.928 115.231 131.3 115.377 131.722 115.377C132.144 115.377 132.516 115.231 132.839 114.939C133.162 114.648 133.412 114.231 133.589 113.689C133.771 113.148 133.862 112.512 133.862 111.783C133.862 111.059 133.771 110.429 133.589 109.893C133.412 109.351 133.162 108.934 132.839 108.643C132.516 108.351 132.144 108.205 131.722 108.205ZM150.639 110.33C150.639 111.049 150.777 111.765 151.053 112.479C151.334 113.187 151.732 113.83 152.248 114.408C152.764 114.986 153.363 115.439 154.045 115.768L153.201 116.893C152.456 116.538 151.8 116.02 151.232 115.338C150.67 114.656 150.238 113.877 149.935 113.002C149.623 113.945 149.167 114.781 148.568 115.51C147.975 116.234 147.284 116.778 146.498 117.143L145.67 116.002C146.363 115.684 146.975 115.229 147.506 114.635C148.042 114.036 148.456 113.361 148.748 112.611C149.04 111.861 149.185 111.101 149.185 110.33V109.408H146.092V108.221H149.17V106.111H150.67V108.221H153.717V109.408H150.639V110.33ZM156.748 111.471H158.998V112.721H156.748V119.83H155.264V105.83H156.748V111.471ZM172.511 113.611H159.777V112.408H164.886V109.643H166.339V112.408H172.511V113.611ZM170.886 119.83H169.386V116.283H161.12V115.096H170.886V119.83ZM170.933 107.611V107.783C170.923 108.497 170.896 109.13 170.855 109.682C170.813 110.229 170.725 110.84 170.589 111.518L169.089 111.377C169.24 110.695 169.337 110.083 169.378 109.541C169.425 108.999 169.449 108.403 169.449 107.752H161.261V106.58H170.933V107.611ZM178.477 110.33C178.477 111.049 178.615 111.765 178.891 112.479C179.173 113.187 179.571 113.83 180.087 114.408C180.602 114.986 181.201 115.439 181.883 115.768L181.04 116.893C180.295 116.538 179.639 116.02 179.071 115.338C178.508 114.656 178.076 113.877 177.774 113.002C177.462 113.945 177.006 114.781 176.407 115.51C175.813 116.234 175.123 116.778 174.337 117.143L173.508 116.002C174.201 115.684 174.813 115.229 175.344 114.635C175.881 114.036 176.295 113.361 176.587 112.611C176.878 111.861 177.024 111.101 177.024 110.33V109.408H173.93V108.221H177.008V106.111H178.508V108.221H181.555V109.408H178.477V110.33ZM184.587 111.471H186.837V112.721H184.587V119.83H183.102V105.83H184.587V111.471ZM200.35 113.611H187.615V112.408H192.725V109.643H194.178V112.408H200.35V113.611ZM198.725 119.83H197.225V116.283H188.959V115.096H198.725V119.83ZM198.772 107.611V107.783C198.761 108.497 198.735 109.13 198.693 109.682C198.652 110.229 198.563 110.84 198.428 111.518L196.928 111.377C197.079 110.695 197.175 110.083 197.217 109.541C197.264 108.999 197.287 108.403 197.287 107.752H189.1V106.58H198.772V107.611ZM216.845 108.799H218.563V110.018H216.845V113.252H215.376V105.83H216.845V108.799ZM208.907 107.221C208.907 107.861 209.001 108.512 209.188 109.174C209.376 109.83 209.694 110.406 210.141 110.9C210.579 110.416 210.891 109.848 211.079 109.197C211.266 108.541 211.36 107.887 211.36 107.236V106.408H211.688V106.377H212.735V107.221C212.735 107.768 212.808 108.307 212.954 108.838C213.105 109.364 213.342 109.854 213.665 110.307C213.993 110.755 214.412 111.111 214.923 111.377L214.126 112.439C213.152 111.924 212.467 111.059 212.071 109.846C211.686 111.127 211.037 112.044 210.126 112.596L210.11 112.572C209.626 112.275 209.227 111.887 208.915 111.408C208.602 110.929 208.36 110.39 208.188 109.791C207.996 110.369 207.73 110.887 207.391 111.346C207.058 111.799 206.647 112.163 206.157 112.439L205.36 111.377C205.855 111.096 206.261 110.723 206.579 110.26C206.902 109.796 207.136 109.301 207.282 108.775C207.428 108.244 207.501 107.726 207.501 107.221V106.377H208.907V107.221ZM217.36 115.158H207.376V114.002H211.641V112.689H213.126V114.002H217.36V115.158ZM212.376 115.736C213.246 115.742 213.99 115.825 214.61 115.986C215.23 116.143 215.701 116.372 216.024 116.674C216.352 116.976 216.516 117.34 216.516 117.768C216.516 118.434 216.157 118.942 215.438 119.291C214.72 119.64 213.699 119.809 212.376 119.799C211.043 119.809 210.014 119.64 209.29 119.291C208.571 118.942 208.214 118.434 208.22 117.768C208.214 117.346 208.373 116.984 208.696 116.682C209.024 116.38 209.501 116.148 210.126 115.986C210.751 115.825 211.501 115.742 212.376 115.736ZM212.376 116.814C211.496 116.814 210.824 116.898 210.36 117.064C209.902 117.226 209.678 117.46 209.688 117.768C209.678 118.09 209.902 118.335 210.36 118.502C210.824 118.663 211.496 118.742 212.376 118.736C213.24 118.742 213.905 118.663 214.368 118.502C214.832 118.335 215.063 118.09 215.063 117.768C215.063 117.46 214.832 117.226 214.368 117.064C213.905 116.898 213.24 116.814 212.376 116.814ZM223.233 106.877C223.868 106.877 224.438 107.051 224.944 107.4C225.454 107.749 225.865 108.242 226.178 108.877H229.639V105.83H231.108V119.861H229.639V114.486H226.272C225.975 115.189 225.561 115.736 225.03 116.127C224.503 116.512 223.905 116.705 223.233 116.705C222.535 116.705 221.918 116.505 221.381 116.104C220.845 115.697 220.425 115.124 220.123 114.385C219.826 113.64 219.681 112.773 219.686 111.783C219.681 110.799 219.826 109.937 220.123 109.197C220.425 108.452 220.845 107.88 221.381 107.479C221.923 107.077 222.54 106.877 223.233 106.877ZM223.233 108.205C222.811 108.205 222.438 108.351 222.115 108.643C221.793 108.934 221.54 109.351 221.358 109.893C221.181 110.429 221.092 111.059 221.092 111.783C221.092 112.512 221.181 113.148 221.358 113.689C221.54 114.231 221.793 114.648 222.115 114.939C222.438 115.231 222.811 115.377 223.233 115.377C223.655 115.377 224.027 115.231 224.35 114.939C224.673 114.648 224.923 114.231 225.1 113.689C225.282 113.148 225.373 112.512 225.373 111.783C225.373 111.059 225.282 110.429 225.1 109.893C224.923 109.351 224.673 108.934 224.35 108.643C224.027 108.351 223.655 108.205 223.233 108.205ZM226.6 110.096C226.72 110.658 226.78 111.221 226.78 111.783C226.78 112.309 226.733 112.804 226.639 113.268H229.639V110.096H226.6ZM246.168 118.08H233.355V116.846H236.418V113.189C235.834 112.867 235.381 112.458 235.058 111.963C234.735 111.468 234.574 110.913 234.574 110.299C234.574 109.575 234.793 108.937 235.23 108.385C235.673 107.833 236.285 107.406 237.066 107.104C237.847 106.796 238.735 106.643 239.73 106.643C240.73 106.643 241.621 106.796 242.402 107.104C243.188 107.406 243.8 107.833 244.238 108.385C244.681 108.937 244.902 109.575 244.902 110.299C244.902 110.908 244.746 111.458 244.433 111.947C244.121 112.432 243.678 112.835 243.105 113.158V116.846H246.168V118.08ZM239.73 107.83C239.001 107.83 238.355 107.932 237.793 108.135C237.23 108.333 236.793 108.619 236.48 108.994C236.168 109.364 236.011 109.799 236.011 110.299C236.011 110.794 236.168 111.229 236.48 111.604C236.793 111.979 237.23 112.27 237.793 112.479C238.355 112.682 239.001 112.783 239.73 112.783C240.454 112.783 241.097 112.682 241.66 112.479C242.228 112.27 242.67 111.979 242.988 111.604C243.306 111.229 243.465 110.794 243.465 110.299C243.465 109.804 243.306 109.369 242.988 108.994C242.675 108.619 242.235 108.333 241.668 108.135C241.105 107.932 240.459 107.83 239.73 107.83ZM241.605 116.846V113.729C241.037 113.869 240.412 113.939 239.73 113.939C239.074 113.939 238.459 113.872 237.886 113.736V116.846H241.605ZM249.712 115.236H248.165L248.024 107.189H249.853L249.712 115.236ZM248.946 118.611C248.748 118.611 248.561 118.562 248.384 118.463C248.212 118.364 248.077 118.229 247.978 118.057C247.879 117.885 247.832 117.7 247.837 117.502C247.832 117.304 247.879 117.119 247.978 116.947C248.077 116.775 248.212 116.64 248.384 116.541C248.561 116.442 248.748 116.393 248.946 116.393C249.139 116.393 249.321 116.442 249.493 116.541C249.665 116.64 249.8 116.775 249.899 116.947C250.004 117.119 250.056 117.304 250.056 117.502C250.056 117.7 250.004 117.885 249.899 118.057C249.8 118.229 249.665 118.364 249.493 118.463C249.321 118.562 249.139 118.611 248.946 118.611Z" fill="#4E5968"/>
<defs>
<linearGradient id="paint0_linear_1653_33816" x1="143.185" y1="53.622" x2="201.725" y2="53.622" gradientUnits="userSpaceOnUse">
<stop stop-color="#F9FAFB"/>
<stop offset="1" stop-color="#D1D6DB"/>
</linearGradient>
<linearGradient id="paint1_linear_1653_33816" x1="160.115" y1="62.3489" x2="160.115" y2="10.6553" gradientUnits="userSpaceOnUse">
<stop stop-color="#F9FAFB"/>
<stop offset="1" stop-color="#BCC2C8"/>
</linearGradient>
</defs>
</svg>
