<svg width="288" height="157" viewBox="0 0 288 157" fill="none" xmlns="http://www.w3.org/2000/svg">
<path d="M287.5 83.5V114.5H152.5V94C152.5 88.201 157.201 83.5 163 83.5H287.5Z" fill="url(#paint0_linear_1249_10514)" stroke="white"/>
<path d="M281 52.5C284.59 52.5 287.5 55.4101 287.5 59V83.5H202.5V59C202.5 55.4101 205.41 52.5 209 52.5H281Z" fill="url(#paint1_linear_1249_10514)" stroke="white"/>
<path d="M240.801 8.69999V32.4C240.801 32.8418 241.159 33.2 241.601 33.2H270.688C271.447 33.2 271.779 32.2403 271.182 31.7709L257.672 21.1561C257.274 20.8431 257.263 20.2435 257.65 19.9163L270.184 9.3107C270.752 8.82931 270.412 7.89999 269.667 7.89999H241.601C241.159 7.89999 240.801 8.25817 240.801 8.69999Z" fill="#577CF3"/>
<path d="M227 3C227 1.89543 227.895 1 229 1H230C231.105 1 232 1.89543 232 3V53H227V3Z" fill="#577CF3"/>
<path d="M233.9 26.3V1H245.85C247.507 1 248.85 2.34315 248.85 4V26.3H233.9Z" fill="#CED8F8"/>
<path d="M34.0016 102.676C34.0016 95.4503 39.8696 89.5823 47.0954 89.5823H121.815V115.767H47.092C39.8662 115.767 33.9982 109.899 33.9982 102.673L34.0016 102.676Z" fill="url(#paint2_linear_1249_10514)"/>
<path d="M114.627 38.2298C106.256 38.2298 99.1255 42.7637 96.4166 49.1125C93.7078 42.7637 86.5768 38.2298 78.2065 38.2298C67.5066 38.2298 58.8315 45.6384 58.8315 54.7807V115.77H129.031C131.777 115.77 134.002 113.871 134.002 111.524V54.7807C134.002 45.6418 125.327 38.2298 114.627 38.2298Z" fill="url(#paint3_linear_1249_10514)"/>
<path d="M78.3113 84.1883C82.3375 84.1883 85.6014 80.9244 85.6014 76.8982C85.6014 72.8719 82.3375 69.608 78.3113 69.608C74.285 69.608 71.0211 72.8719 71.0211 76.8982C71.0211 80.9244 74.285 84.1883 78.3113 84.1883Z" fill="#A5BDF9"/>
<path d="M114.549 84.168C118.575 84.168 121.839 80.9041 121.839 76.8779C121.839 72.8516 118.575 69.5877 114.549 69.5877C110.523 69.5877 107.259 72.8516 107.259 76.8779C107.259 80.9041 110.523 84.168 114.549 84.168Z" fill="#A5BDF9"/>
<path d="M87.1964 80.8836C92.483 80.8836 96.7687 75.8414 96.7687 69.6216C96.7687 63.4018 92.483 58.3596 87.1964 58.3596C81.9097 58.3596 77.624 63.4018 77.624 69.6216C77.624 75.8414 81.9097 80.8836 87.1964 80.8836Z" fill="white"/>
<path d="M106.483 81.0258C111.77 81.0258 116.056 75.9836 116.056 69.7638C116.056 63.544 111.77 58.5018 106.483 58.5018C101.197 58.5018 96.9111 63.544 96.9111 69.7638C96.9111 75.9836 101.197 81.0258 106.483 81.0258Z" fill="white"/>
<path d="M87.7819 78.0326C91.2415 78.0326 94.0461 74.7338 94.0461 70.6645C94.0461 66.5953 91.2415 63.2965 87.7819 63.2965C84.3223 63.2965 81.5177 66.5953 81.5177 70.6645C81.5177 74.7338 84.3223 78.0326 87.7819 78.0326Z" fill="black"/>
<path d="M105.728 78.0326C109.188 78.0326 111.992 74.7338 111.992 70.6645C111.992 66.5953 109.188 63.2965 105.728 63.2965C102.268 63.2965 99.4637 66.5953 99.4637 70.6645C99.4637 74.7338 102.268 78.0326 105.728 78.0326Z" fill="black"/>
<path d="M99.5514 77.6334C100.402 75.8574 100.067 73.9272 98.8041 73.3222C97.5408 72.7172 95.8272 73.6665 94.9767 75.4425C94.1261 77.2185 94.4607 79.1487 95.724 79.7537C96.9873 80.3587 98.7009 79.4094 99.5514 77.6334Z" fill="#FFBE6A"/>
<path d="M84.9341 72.3169C84.1283 72.3169 83.5696 73.1296 83.8641 73.8779C84.4939 75.4863 86.0685 76.6274 87.9139 76.6274C89.7592 76.6274 91.3304 75.4863 91.9636 73.8779C92.2581 73.1262 91.6995 72.3169 90.8936 72.3169H84.9375H84.9341Z" fill="#8FAEFF"/>
<path d="M102.88 72.3169C102.075 72.3169 101.516 73.1296 101.81 73.8779C102.44 75.4863 104.015 76.6274 105.86 76.6274C107.706 76.6274 109.277 75.4863 109.91 73.8779C110.204 73.1262 109.646 72.3169 108.84 72.3169H102.884H102.88Z" fill="#8FAEFF"/>
<path d="M7 125C7 119.477 11.4772 115 17 115H287V151C287 154.314 284.314 157 281 157H13C9.6863 157 7 154.314 7 151V125Z" fill="url(#paint4_linear_1249_10514)"/>
<circle cx="3.5" cy="17.5" r="3.5" fill="#FFC342"/>
<circle cx="31" cy="21" r="5" fill="#FFEFBF"/>
<circle cx="182" cy="19" r="3" fill="#FFC342"/>
<circle cx="43" cy="52" r="3" fill="#AEEFD5"/>
<circle cx="9.5" cy="65.5" r="2.5" fill="#FFC342"/>
<rect x="10" y="44" width="14" height="2" rx="1" fill="#3FD599"/>
<rect x="16" y="52" width="14" height="2" rx="1" transform="rotate(-90 16 52)" fill="#3FD599"/>
<circle cx="2" cy="2" r="2" transform="matrix(-1 0 0 1 178 0)" fill="#3FD599"/>
<rect width="8.96721" height="1.28103" rx="0.640515" transform="matrix(-0.916837 -0.399262 -0.399262 0.916837 159.267 8.10378)" fill="#FFC342"/>
<rect width="8.96721" height="1.28103" rx="0.640515" transform="matrix(0.399262 -0.916837 -0.916837 -0.399262 153.698 11.2673)" fill="#FFC342"/>
<circle cx="2.5" cy="2.5" r="2.5" transform="matrix(-1 0 0 1 145 25)" fill="#FFEFBF"/>
<circle cx="1.5" cy="1.5" r="1.5" transform="matrix(-1 0 0 1 172 43.1453)" fill="#FFEFBF"/>
<rect width="5" height="0.74023" rx="0.370115" transform="matrix(-1 0 0 1 163 27.1844)" fill="#AEEFD5"/>
<rect width="5.18161" height="0.714286" rx="0.357143" transform="matrix(0 -1 -1 0 160.856 30.1453)" fill="#AEEFD5"/>
<defs>
<linearGradient id="paint0_linear_1249_10514" x1="213.5" y1="84" x2="213.5" y2="114" gradientUnits="userSpaceOnUse">
<stop stop-color="#F6F8FF"/>
<stop offset="1" stop-color="#EBF0FF"/>
</linearGradient>
<linearGradient id="paint1_linear_1249_10514" x1="245" y1="53" x2="245" y2="83" gradientUnits="userSpaceOnUse">
<stop stop-color="#F5F8FF"/>
<stop offset="1" stop-color="#EBF0FF"/>
</linearGradient>
<linearGradient id="paint2_linear_1249_10514" x1="121.812" y1="102.68" x2="34.0016" y2="102.68" gradientUnits="userSpaceOnUse">
<stop stop-color="#E1E0FF"/>
<stop offset="1" stop-color="#8FAEFF"/>
</linearGradient>
<linearGradient id="paint3_linear_1249_10514" x1="96.4166" y1="115.77" x2="96.4166" y2="38.2298" gradientUnits="userSpaceOnUse">
<stop stop-color="#E1E0FF"/>
<stop offset="1" stop-color="#8FAEFF"/>
</linearGradient>
<linearGradient id="paint4_linear_1249_10514" x1="147" y1="118.5" x2="147" y2="157" gradientUnits="userSpaceOnUse">
<stop stop-color="#F5F8FF"/>
<stop offset="1" stop-color="#EBF0FF"/>
</linearGradient>
</defs>
</svg>
