<svg width="24" height="24" viewBox="0 0 24 24" fill="none" xmlns="http://www.w3.org/2000/svg">
<circle cx="12" cy="12" r="12" fill="white"/>
<path d="M18.6719 8.4563L15.5442 5.32812C15.4402 5.22409 15.3167 5.14158 15.1808 5.08528C15.0449 5.02898 14.8993 5 14.7522 5C14.6051 5 14.4594 5.02898 14.3235 5.08528C14.1876 5.14158 14.0641 5.22409 13.9601 5.32812L5.32831 13.9602C5.22385 14.0638 5.14104 14.1872 5.08468 14.3231C5.02832 14.459 4.99954 14.6047 5.00001 14.7519V17.88C5.00001 18.1771 5.11801 18.4619 5.32805 18.672C5.53809 18.882 5.82297 19 6.12002 19H9.24836C9.39549 19.0005 9.54125 18.9717 9.67717 18.9153C9.81308 18.859 9.93644 18.7762 10.0401 18.6717L18.6719 10.0403C18.7759 9.93634 18.8584 9.81286 18.9147 9.67697C18.971 9.54107 19 9.39541 19 9.24832C19 9.10122 18.971 8.95557 18.9147 8.81967C18.8584 8.68377 18.7759 8.5603 18.6719 8.4563ZM9.24836 17.88H6.12002V14.7519L12.2801 8.59209L15.4084 11.7203L9.24836 17.88ZM16.2001 10.9279L13.0718 7.80042L14.7518 6.12049L17.8802 9.24797L16.2001 10.9279Z" fill="#839DF1"/>
</svg>
