<svg width="24" height="24" viewBox="0 0 24 24" fill="none" xmlns="http://www.w3.org/2000/svg">
<g clip-path="url(#clip0_1653_39903)">
<circle cx="12" cy="12" r="10" fill="#D1D6DB"/>
<circle cx="12.0004" cy="12.0004" r="7.62347" fill="#F9FAFB"/>
<path d="M12.0117 16.1172C11.4531 16.1172 10.9492 16.0137 10.5 15.8066C10.0508 15.5996 9.69531 15.3145 9.43359 14.9512C9.17578 14.584 9.03906 14.168 9.02344 13.7031H10.5117C10.5273 13.9297 10.6016 14.1328 10.7344 14.3125C10.8711 14.4922 11.0508 14.6328 11.2734 14.7344C11.5 14.8359 11.7461 14.8867 12.0117 14.8867C12.3242 14.8867 12.6035 14.8164 12.8496 14.6758C13.0996 14.5352 13.293 14.3418 13.4297 14.0957C13.5703 13.8457 13.6406 13.5664 13.6406 13.2578C13.6406 12.9375 13.5684 12.6523 13.4238 12.4023C13.2793 12.1484 13.0801 11.9512 12.8262 11.8105C12.5723 11.666 12.2852 11.5938 11.9648 11.5938C11.293 11.582 10.8242 11.8242 10.5586 12.3203H9.14062L9.65625 7.51562H14.6719V8.79297H10.9102L10.6523 11.043H10.7344C10.9023 10.8516 11.1328 10.6973 11.4258 10.5801C11.7188 10.459 12.0352 10.3984 12.375 10.3984C12.8945 10.3984 13.3633 10.5195 13.7812 10.7617C14.1992 11.0039 14.5254 11.3398 14.7598 11.7695C14.998 12.1953 15.1172 12.6758 15.1172 13.2109C15.1172 13.7695 14.9844 14.2695 14.7188 14.7109C14.457 15.1523 14.0898 15.498 13.6172 15.748C13.1484 15.9941 12.6133 16.1172 12.0117 16.1172Z" fill="#4E5968"/>
</g>
<defs>
<clipPath id="clip0_1653_39903">
<rect width="24" height="24" fill="white"/>
</clipPath>
</defs>
</svg>
