<svg width="25" height="24" viewBox="0 0 25 24" fill="none" xmlns="http://www.w3.org/2000/svg">
<circle cx="12.1465" cy="12" r="10" fill="#EB9558"/>
<circle cx="12.1469" cy="12.0004" r="7.62347" fill="#FFE3BD"/>
<path d="M12.1189 16.1522C10.2773 16.1522 8.97154 15.1366 8.94922 13.6857H10.8689C10.88 14.2214 11.4157 14.6009 12.13 14.6009C12.8443 14.6009 13.3577 14.1879 13.3465 13.6076C13.3577 13.0272 12.8108 12.6031 11.9626 12.6031H11.1814V11.2415H11.9626C12.6992 11.2415 13.2126 10.8509 13.2126 10.2705C13.2126 9.72363 12.7773 9.33301 12.13 9.33301C11.4715 9.33301 10.947 9.71247 10.9358 10.2817H9.10547C9.12779 8.8531 10.4001 7.84863 12.1412 7.84863C13.8711 7.84863 15.0541 8.84194 15.043 10.1589C15.0541 11.0629 14.3845 11.6991 13.4581 11.833V11.8888C14.697 12.0339 15.3555 12.7482 15.3443 13.7527C15.3555 15.1477 14.005 16.1522 12.1189 16.1522Z" fill="#B26F22"/>
</svg>
