<svg width="24" height="24" viewBox="0 0 24 24" fill="none" xmlns="http://www.w3.org/2000/svg">
<g clip-path="url(#clip0_1679_30672)">
<circle cx="12" cy="12" r="10" fill="#D1D6DB"/>
<circle cx="12.0004" cy="12.0004" r="7.62347" fill="#F9FAFB"/>
<path d="M12.082 16.1172C10.4297 16.1055 8.76562 15.1211 8.77734 11.9922C8.77734 9.08594 10.1016 7.39844 12.1758 7.39844C13.8164 7.39844 14.9414 8.42969 15.1289 9.80078H13.6172C13.4648 9.15625 12.9492 8.72266 12.1758 8.72266C10.9453 8.72266 10.2539 9.8125 10.2539 11.5938H10.3359C10.7695 10.8672 11.5898 10.4336 12.5156 10.4336C14.0391 10.4336 15.2109 11.582 15.2109 13.1875C15.2109 14.875 13.957 16.1289 12.082 16.1172ZM12.082 14.8867C13.0312 14.8867 13.7344 14.1484 13.7344 13.2227C13.7344 12.3203 13.043 11.5938 12.1055 11.5938C11.1562 11.5938 10.4297 12.3438 10.418 13.2344C10.4297 14.125 11.1211 14.8867 12.082 14.8867Z" fill="#4E5968"/>
</g>
<defs>
<clipPath id="clip0_1679_30672">
<rect width="24" height="24" fill="white"/>
</clipPath>
</defs>
</svg>
