<svg width="25" height="25" viewBox="0 0 25 25" fill="none" xmlns="http://www.w3.org/2000/svg">
<mask id="path-1-inside-1_937_1603" fill="white">
<path d="M3.5 8.99951C3.5 8.44723 3.94772 7.99951 4.5 7.99951H7.445C7.99729 7.99951 8.445 8.44723 8.445 8.99951V21.9995H3.5V8.99951Z"/>
</mask>
<path d="M3.5 8.99951C3.5 8.44723 3.94772 7.99951 4.5 7.99951H7.445C7.99729 7.99951 8.445 8.44723 8.445 8.99951V21.9995H3.5V8.99951Z" stroke="#D1D6DB" stroke-width="2.4" mask="url(#path-1-inside-1_937_1603)"/>
<mask id="path-2-inside-2_937_1603" fill="white">
<path d="M10.0275 5C10.0275 4.44772 10.4752 4 11.0275 4H13.9725C14.5248 4 14.9725 4.44772 14.9725 5V22H10.0275V5Z"/>
</mask>
<path d="M10.0275 5C10.0275 4.44772 10.4752 4 11.0275 4H13.9725C14.5248 4 14.9725 4.44772 14.9725 5V22H10.0275V5Z" stroke="#D1D6DB" stroke-width="2.4" mask="url(#path-2-inside-2_937_1603)"/>
<mask id="path-3-inside-3_937_1603" fill="white">
<path d="M16.5552 14C16.5552 13.4477 17.0029 13 17.5552 13H20.5002C21.0525 13 21.5002 13.4477 21.5002 14V22H16.5552V14Z"/>
</mask>
<path d="M16.5552 14C16.5552 13.4477 17.0029 13 17.5552 13H20.5002C21.0525 13 21.5002 13.4477 21.5002 14V22H16.5552V14Z" stroke="#D1D6DB" stroke-width="2.4" mask="url(#path-3-inside-3_937_1603)"/>
</svg>
