<svg width="25" height="24" viewBox="0 0 25 24" fill="none" xmlns="http://www.w3.org/2000/svg">
<path d="M12.5 2.8501C12.7088 2.8501 12.9102 2.92302 13.0703 3.0542L13.1357 3.11377L20.6357 10.6138C20.7836 10.7615 20.8751 10.9555 20.8955 11.1616L20.9004 11.2505V20.2495C20.9004 20.2892 20.8845 20.3278 20.8564 20.356C20.8283 20.3841 20.7898 20.3999 20.75 20.3999H15.5C15.4602 20.3999 15.4217 20.3841 15.3936 20.356C15.3655 20.3278 15.3496 20.2892 15.3496 20.2495V15.3745C15.3495 15.1484 15.2709 14.9307 15.1289 14.7573L15.0645 14.6851L14.9932 14.6206C14.8196 14.4784 14.6013 14.3999 14.375 14.3999H10.625C10.3665 14.3999 10.1184 14.5023 9.93555 14.6851C9.75276 14.8678 9.65047 15.116 9.65039 15.3745V20.2495C9.65039 20.2892 9.63449 20.3278 9.60645 20.356C9.57832 20.3841 9.53979 20.3999 9.5 20.3999H4.25C4.21021 20.3999 4.17168 20.3841 4.14355 20.356C4.11551 20.3278 4.09961 20.2892 4.09961 20.2495V11.2505C4.09971 11.0418 4.17263 10.8402 4.30371 10.6802L4.36426 10.6138L11.8643 3.11377C12.033 2.94529 12.2615 2.8501 12.5 2.8501Z" stroke="#8B95A1" stroke-width="1.2"/>
</svg>
