<svg width="43" height="43" viewBox="0 0 43 43" fill="none" xmlns="http://www.w3.org/2000/svg">
<circle cx="21.0615" cy="21.1172" r="20.5" fill="#FFD4D6" stroke="#FFD4D6"/>
<mask id="mask0_599_14435" style="mask-type:alpha" maskUnits="userSpaceOnUse" x="1" y="1" width="41" height="41">
<circle cx="21.0615" cy="21.1172" r="20" fill="#D9D9D9"/>
</mask>
<g mask="url(#mask0_599_14435)">
<g clip-path="url(#clip0_599_14435)">
<path d="M44.939 30.9423V40.9878H7.91628V30.9423H44.939Z" fill="url(#paint0_linear_599_14435)"/>
<path d="M14.0075 11.1956C17.2187 11.1956 19.9545 12.935 20.9937 15.3707C22.033 12.935 24.7687 11.1956 27.98 11.1956C32.0849 11.1956 35.4131 14.0379 35.4131 17.5453V40.9436H8.48135C7.42783 40.9436 6.57436 40.2149 6.57436 39.3146V17.5453C6.57436 14.0392 9.9025 11.1956 14.0075 11.1956Z" fill="url(#paint1_linear_599_14435)"/>
<path d="M25.4107 23.5364H30.9966V29.1223H25.4107V23.5364Z" fill="#F04452"/>
<path d="M10.6011 23.5364H16.187V29.1223H10.6011V23.5364Z" fill="#F04452"/>
<path d="M24.5307 27.6024C22.5025 27.6024 20.8583 25.668 20.8583 23.2818C20.8583 20.8956 22.5025 18.9612 24.5307 18.9612C26.5589 18.9612 28.2031 20.8956 28.2031 23.2818C28.2031 25.668 26.5589 27.6024 24.5307 27.6024Z" fill="white"/>
<path d="M17.1318 27.6571C15.1036 27.6571 13.4594 25.7227 13.4594 23.3365C13.4594 20.9503 15.1036 19.0159 17.1318 19.0159C19.16 19.0159 20.8042 20.9503 20.8042 23.3365C20.8042 25.7227 19.16 27.6571 17.1318 27.6571Z" fill="white"/>
<path d="M23.8516 21.1982H26.5796V24.8356H23.8516V21.1982Z" fill="black"/>
<path d="M18.9787 24.3921L20.8018 23.519L22.0322 26.0884L20.2092 26.9615L18.9787 24.3921Z" fill="#FFBE6A"/>
<path d="M15.148 22.3674H17.876V26.0047H15.148V22.3674Z" fill="black"/>
<rect width="8.36386" height="3.41848" transform="matrix(-1 0 0 1 41.0312 17.7795)" fill="#E42939"/>
</g>
<rect width="10.7952" height="3.41848" transform="matrix(-1 0 0 1 10.9302 32.8916)" fill="#F14D5A"/>
</g>
<defs>
<linearGradient id="paint0_linear_599_14435" x1="44.939" y1="35.9644" x2="7.91627" y2="35.9644" gradientUnits="userSpaceOnUse">
<stop stop-color="#FEAFB4"/>
<stop offset="0.35" stop-color="#F04452"/>
</linearGradient>
<linearGradient id="paint1_linear_599_14435" x1="20.9937" y1="40.9436" x2="20.9937" y2="11.1956" gradientUnits="userSpaceOnUse">
<stop stop-color="#FEAFB4"/>
<stop offset="1" stop-color="#F04452"/>
</linearGradient>
<clipPath id="clip0_599_14435">
<rect width="38.3646" height="29.7909" fill="white" transform="matrix(-1 0 0 1 44.939 11.1956)"/>
</clipPath>
</defs>
</svg>
