<svg width="336" height="336" viewBox="0 0 336 336" fill="none" xmlns="http://www.w3.org/2000/svg">
<rect x="0.892578" y="0.5" width="335" height="335" rx="16" fill="#F6F8FF"/>
<mask id="mask0_1591_12116" style="mask-type:alpha" maskUnits="userSpaceOnUse" x="0" y="0" width="336" height="336">
<rect x="0.892578" y="0.5" width="335" height="335" rx="16" fill="#E7ECF6"/>
</mask>
<g mask="url(#mask0_1591_12116)">
<path d="M-8.60742 214.5C-8.60742 163.138 33.0301 121.5 84.3926 121.5C135.755 121.5 177.393 163.138 177.393 214.5V335.5H-8.60742V214.5Z" fill="url(#paint0_linear_1591_12116)" fill-opacity="0.6"/>
<path d="M138.959 270.5C138.959 215.272 183.73 170.5 238.959 170.5H246.459C301.687 170.5 346.459 215.272 346.459 270.5V335.5H138.959V270.5Z" fill="url(#paint1_linear_1591_12116)" fill-opacity="0.6"/>
<path d="M22.7676 350.5C22.7676 295.271 67.5391 250.5 122.768 250.5H132.768C187.996 250.5 232.768 295.271 232.768 350.5V398.5H22.7676V350.5Z" fill="url(#paint2_linear_1591_12116)" fill-opacity="0.6"/>
</g>
<defs>
<linearGradient id="paint0_linear_1591_12116" x1="84.3926" y1="121.5" x2="84.3926" y2="335.5" gradientUnits="userSpaceOnUse">
<stop stop-color="#D4DCF6"/>
<stop offset="1" stop-color="#F8F9FF"/>
</linearGradient>
<linearGradient id="paint1_linear_1591_12116" x1="242.709" y1="170.5" x2="242.709" y2="335.5" gradientUnits="userSpaceOnUse">
<stop stop-color="#D4DCF6" stop-opacity="0.9"/>
<stop offset="1" stop-color="#D4DCF6" stop-opacity="0.3"/>
</linearGradient>
<linearGradient id="paint2_linear_1591_12116" x1="127.768" y1="250.5" x2="127.768" y2="379.571" gradientUnits="userSpaceOnUse">
<stop stop-color="#D4DCF6" stop-opacity="0.9"/>
<stop offset="1" stop-color="#D4DCF6" stop-opacity="0.3"/>
</linearGradient>
</defs>
</svg>
