<svg width="335" height="335" viewBox="0 0 335 335" fill="none" xmlns="http://www.w3.org/2000/svg">
<rect width="335" height="335" rx="16" fill="#F6F8FF"/>
<mask id="mask0_926_6554" style="mask-type:alpha" maskUnits="userSpaceOnUse" x="0" y="0" width="335" height="335">
<rect width="335" height="335" rx="16" fill="#E7ECF6"/>
</mask>
<g mask="url(#mask0_926_6554)">
<path d="M-9.5 214C-9.5 162.638 32.1375 121 83.5 121C134.862 121 176.5 162.638 176.5 214V335H-9.5V214Z" fill="url(#paint0_linear_926_6554)"/>
<path d="M138.066 270C138.066 214.772 182.838 170 238.066 170H245.566C300.795 170 345.566 214.772 345.566 270V335H138.066V270Z" fill="url(#paint1_linear_926_6554)"/>
<path d="M21.875 350C21.875 294.771 66.6465 250 121.875 250H131.875C187.103 250 231.875 294.771 231.875 350V398H21.875V350Z" fill="url(#paint2_linear_926_6554)"/>
</g>
<defs>
<linearGradient id="paint0_linear_926_6554" x1="83.5" y1="121" x2="83.5" y2="335" gradientUnits="userSpaceOnUse">
<stop stop-color="#D4DCF6"/>
<stop offset="1" stop-color="#F8F9FF"/>
</linearGradient>
<linearGradient id="paint1_linear_926_6554" x1="241.816" y1="170" x2="241.816" y2="335" gradientUnits="userSpaceOnUse">
<stop stop-color="#D4DCF6" stop-opacity="0.9"/>
<stop offset="1" stop-color="#D4DCF6" stop-opacity="0.3"/>
</linearGradient>
<linearGradient id="paint2_linear_926_6554" x1="126.875" y1="250" x2="126.875" y2="379.071" gradientUnits="userSpaceOnUse">
<stop stop-color="#D4DCF6" stop-opacity="0.9"/>
<stop offset="1" stop-color="#D4DCF6" stop-opacity="0.3"/>
</linearGradient>
</defs>
</svg>
