<svg width="21" height="20" viewBox="0 0 21 20" fill="none" xmlns="http://www.w3.org/2000/svg">
<path d="M10.4455 16.875C10.4455 17.0408 10.3714 17.1997 10.2395 17.3169C10.1077 17.4342 9.92882 17.5 9.74234 17.5H4.11734C3.93086 17.5 3.75202 17.4342 3.62016 17.3169C3.48829 17.1997 3.41422 17.0408 3.41422 16.875V3.125C3.41422 2.95924 3.48829 2.80027 3.62016 2.68306C3.75202 2.56585 3.93086 2.5 4.11734 2.5H9.74234C9.92882 2.5 10.1077 2.56585 10.2395 2.68306C10.3714 2.80027 10.4455 2.95924 10.4455 3.125C10.4455 3.29076 10.3714 3.44973 10.2395 3.56694C10.1077 3.68415 9.92882 3.75 9.74234 3.75H4.82046V16.25H9.74234C9.92882 16.25 10.1077 16.3158 10.2395 16.4331C10.3714 16.5503 10.4455 16.7092 10.4455 16.875ZM18.6296 9.67509L15.1139 6.55009C14.982 6.43281 14.8031 6.36693 14.6165 6.36693C14.4299 6.36693 14.2509 6.43281 14.119 6.55009C13.9871 6.66736 13.913 6.82642 13.913 6.99228C13.913 7.15813 13.9871 7.31719 14.119 7.43446L16.4349 9.49228H8.28835C8.10187 9.49228 7.92302 9.55812 7.79116 9.67533C7.6593 9.79254 7.58522 9.95152 7.58522 10.1173C7.58522 10.283 7.6593 10.442 7.79116 10.5592C7.92302 10.6764 8.10187 10.7423 8.28835 10.7423H16.4349L14.119 12.8001C13.9871 12.9174 13.913 13.0764 13.913 13.2423C13.913 13.4081 13.9871 13.5672 14.119 13.6845C14.2509 13.8017 14.4299 13.8676 14.6165 13.8676C14.8031 13.8676 14.982 13.8017 15.1139 13.6845L18.6296 10.5595C18.6949 10.5014 18.7468 10.4325 18.7822 10.3566C18.8176 10.2807 18.8358 10.1994 18.8358 10.1173C18.8358 10.0351 18.8176 9.95381 18.7822 9.87794C18.7468 9.80206 18.6949 9.73313 18.6296 9.67509Z" fill="#8B95A1"/>
</svg>
