<svg width="15" height="15" viewBox="0 0 15 15" fill="none" xmlns="http://www.w3.org/2000/svg">
<circle cx="7.89258" cy="7.5" r="7" fill="#E4EAFD"/>
<path d="M7.52708 3.45199C7.66803 3.13579 8.11683 3.13579 8.25778 3.45199L9.14324 5.43845C9.20137 5.56886 9.32461 5.6584 9.4666 5.67338L11.6295 5.90166C11.9737 5.938 12.1124 6.36484 11.8553 6.59659L10.2396 8.05257C10.1336 8.14815 10.0865 8.29303 10.1161 8.4327L10.5674 10.5602C10.6392 10.8989 10.2761 11.1627 9.97624 10.9897L8.09228 9.90312C7.9686 9.83178 7.81627 9.83178 7.69258 9.90312L5.80862 10.9897C5.50874 11.1627 5.14564 10.8989 5.21747 10.5602L5.66873 8.4327C5.69835 8.29303 5.65128 8.14815 5.54521 8.05257L3.92961 6.59659C3.67244 6.36484 3.81113 5.938 4.1554 5.90166L6.31826 5.67338C6.46025 5.6584 6.58349 5.56886 6.64162 5.43845L7.52708 3.45199Z" fill="#839DF1"/>
</svg>
