<svg width="15" height="9" viewBox="0 0 15 9" fill="none" xmlns="http://www.w3.org/2000/svg">
<path d="M12.8325 1.06173C13.004 0.890247 13.2366 0.793907 13.4791 0.793907C13.7217 0.793907 13.9542 0.890247 14.1257 1.06173C14.2972 1.23322 14.3936 1.46581 14.3936 1.70833C14.3936 1.95085 14.2972 2.18343 14.1257 2.35492L8.04015 8.4405C7.95534 8.5256 7.85457 8.59312 7.74361 8.6392C7.63266 8.68527 7.5137 8.70898 7.39355 8.70898C7.27341 8.70898 7.15445 8.68527 7.04349 8.6392C6.93254 8.59312 6.83177 8.5256 6.74696 8.4405L0.661382 2.35492C0.489895 2.18343 0.393555 1.95085 0.393555 1.70833C0.393555 1.46581 0.489895 1.23322 0.661382 1.06173C0.832869 0.890247 1.06546 0.793907 1.30797 0.793907C1.55049 0.793907 1.78308 0.890248 1.95457 1.06173L7.39279 6.49996L12.8325 1.06173Z" fill="#557AF3"/>
</svg>
