<svg width="24" height="24" viewBox="0 0 24 24" fill="none" xmlns="http://www.w3.org/2000/svg">
<rect width="24" height="24" rx="6" fill="white"/>
<path d="M21.101 7.43061C20.8825 6.6136 20.2365 5.9676 19.4195 5.7491C17.9375 5.3501 12 5.3501 12 5.3501C12 5.3501 6.0625 5.3501 4.5805 5.7491C3.7635 5.9676 3.1175 6.6136 2.899 7.43061C2.5 8.91261 2.5 12.0001 2.5 12.0001C2.5 12.0001 2.5 15.0876 2.899 16.5696C3.1175 17.3866 3.7635 18.0326 4.5805 18.2511C6.0625 18.6502 12 18.6502 12 18.6502C12 18.6502 17.9375 18.6502 19.4195 18.2511C20.2365 18.0326 20.8825 17.3866 21.101 16.5696C21.5 15.0876 21.5 12.0001 21.5 12.0001C21.5 12.0001 21.5 8.91261 21.101 7.43061Z" fill="#FF0000"/>
<path d="M10.1 14.8499V9.1499L15.04 11.9999L10.1 14.8499Z" fill="white"/>
</svg>
